<svg width="45" height="45" viewBox="0 0 45 45" fill="none" xmlns="http://www.w3.org/2000/svg">
<g clip-path="url(#clip0_1073_211)">
<path d="M0 0H45V45H0" fill="#FFDD22"/>
<path d="M35.991 26.4845L35.477 25.0199C35.477 25.0199 37.6187 21.7463 32.3071 20.6264C32.3071 20.6264 32.6498 16.5774 30.7651 14.6822C34.8773 10.6332 33.9349 4.51669 24.5968 8.4795C19.7992 -0.738345 1.29428 20.8848 9.00465 24.3308C8.23362 25.3645 8.23362 30.5334 13.5452 31.0503C17.1434 38.8036 25.8818 39.3205 30.9364 36.9945C35.991 34.6685 38.9038 27.2598 35.991 26.4845ZM13.4595 29.9304C9.09033 29.4996 8.66197 23.4693 12.4315 22.8662C16.201 22.2632 17.1434 30.275 13.4595 29.9304ZM12.1745 21.7463C10.9751 21.7463 9.51868 23.3831 9.51868 23.3831C3.69306 20.5402 20.0562 1.6738 23.5687 8.99639C23.5687 8.99639 15.0016 13.1315 12.1745 21.7463ZM29.3086 29.0689C29.3086 28.7243 27.5096 29.5858 24.2541 28.4659C24.5111 26.6568 28.3663 30.0165 34.7916 25.623L35.3056 27.4321C37.7044 27.0014 35.3056 35.1854 27.5952 35.0993C21.3413 35.0131 19.3708 28.552 22.7977 25.0199C23.483 24.3308 20.3132 22.9524 20.9129 19.9372C21.1699 18.645 22.2836 16.7497 25.1108 17.2666C27.9379 17.7835 28.5376 15.1991 30.4224 16.1467C32.3071 17.0943 31.1934 20.7125 31.4504 21.2294C31.7074 21.7463 34.4489 21.8325 34.9629 23.297C35.477 24.7615 31.4504 27.949 25.1964 27.0875C23.74 26.9152 22.8833 28.8105 23.8257 30.0165C25.7105 32.7733 33.4209 30.9642 34.7059 28.2936C31.4504 30.7919 24.7681 31.7395 24.2541 29.0689C26.1388 29.9304 29.3086 29.4135 29.3086 29.0689ZM18.0858 15.4575C19.9705 13.1315 22.455 11.7531 22.455 11.7531L21.941 13.0454C21.941 13.0454 23.74 11.667 25.7105 11.667L25.0251 12.3562C27.2525 12.4423 28.1949 13.3038 28.1949 13.3038C28.1949 13.3038 22.969 11.7531 18.0858 15.4575ZM29.6513 18.8173C30.7651 18.7311 30.4224 21.3156 30.4224 21.3156H29.737C29.737 21.3156 28.5376 18.9034 29.6513 18.8173ZM24.5968 21.6602C23.8257 21.7463 22.969 22.1771 23.0547 21.8325C23.3974 20.4541 26.5672 20.7987 26.4815 22.0048C26.3958 23.2108 25.7105 21.4879 24.5968 21.6602ZM26.3958 22.6939C26.4815 22.8662 25.7961 22.6939 25.2821 22.7801C24.7681 22.8662 24.2541 23.1247 24.2541 22.9524C24.2541 22.7801 26.2245 22.0048 26.3958 22.6939ZM28.1093 22.9524C28.3663 22.4355 29.3943 22.9524 29.1373 23.4693C28.8803 23.9862 27.8522 23.4693 28.1093 22.9524ZM30.251 23.1247C29.737 23.1247 29.737 22.0048 30.251 22.0048C30.7651 22.0048 30.7651 23.2108 30.251 23.2108V23.1247ZM14.8303 27.6905C15.0873 27.949 14.3162 28.4659 13.7166 28.0351C13.1169 27.6044 14.4019 25.5368 12.8598 25.0199C11.3178 24.5031 11.7461 26.4845 11.3178 26.226C10.8894 25.9676 11.9175 23.2108 13.7166 24.3308C15.5156 25.4507 13.2025 27.1736 14.2306 27.6905C15.2586 28.2074 14.6589 27.5182 14.8303 27.6905Z" fill="#222222"/>
</g>
<defs>
<clipPath id="clip0_1073_211">
<rect width="45" height="45" rx="12" fill="white"/>
</clipPath>
</defs>
</svg>
