<svg width="45" height="45" viewBox="0 0 45 45" fill="none" xmlns="http://www.w3.org/2000/svg">
<g clip-path="url(#clip0_1073_219)">
<path d="M0 0H45V45H0" fill="#FAFAFA"/>
<path d="M31.1842 22.3494C30.6143 21.3608 29.8012 20.5398 28.8247 19.9672C28.0792 19.5269 27.3083 19.2472 26.4378 19.1262V15.9585C26.86 15.7807 27.2199 15.4783 27.4711 15.0904C27.7223 14.7025 27.8532 14.2469 27.8469 13.7826C27.8485 13.469 27.789 13.1582 27.672 12.868C27.555 12.5779 27.3828 12.3141 27.1651 12.0918C26.9475 11.8695 26.6888 11.6931 26.4039 11.5728C26.119 11.4524 25.8135 11.3904 25.505 11.3904C24.88 11.3904 24.2805 11.6422 23.8379 12.0906C23.3953 12.539 23.1456 13.1474 23.1435 13.7826C23.1435 14.7545 23.6509 15.5836 24.5233 15.9585V19.1083C23.8006 19.2146 23.0995 19.4383 22.4468 19.7708L14.1035 13.3502C14.1621 13.126 14.2128 12.894 14.2128 12.65C14.2128 11.1861 13.0457 10 11.6054 10C10.1651 10 9 11.1861 9 12.65C9 14.1138 10.1671 15.3 11.6074 15.3C12.0992 15.3 12.5539 15.1532 12.9462 14.9132L13.4927 15.3337L20.9772 20.8181C20.581 21.1871 20.2121 21.6076 19.9174 22.0796C19.3202 23.0417 18.9553 24.0989 18.9553 25.2533V25.4913C18.9579 26.2742 19.0967 27.0504 19.3651 27.7843C19.5915 28.411 19.9233 28.9823 20.3351 29.498L17.8487 32.031C17.1129 31.7533 16.2874 31.9377 15.7312 32.5031C15.3526 32.8859 15.1398 33.4075 15.1418 33.951C15.1437 34.4945 15.3526 35.0122 15.7331 35.399C16.1137 35.7858 16.6231 36 17.1578 36C17.6926 36 18.2059 35.7858 18.5825 35.399C18.9592 35.0122 19.1739 34.4945 19.1719 33.951C19.1718 33.7424 19.1402 33.535 19.0782 33.3361L21.6466 30.7258C21.9979 30.9738 22.3784 31.182 22.7883 31.3605C23.6306 31.736 24.5403 31.9305 25.4601 31.9318H25.6357C26.713 31.9318 27.7298 31.6739 28.6842 31.1483C29.6651 30.6137 30.4893 29.8246 31.073 28.8613C31.6721 27.8894 32 26.8123 32 25.6282V25.5687C32 24.4043 31.7346 23.3312 31.1803 22.3474L31.1842 22.3494ZM28.0479 27.8279C27.3512 28.6154 26.5491 29.1013 25.6435 29.1013H25.4718C24.9546 29.1013 24.4472 28.9565 23.9534 28.6907C23.412 28.4046 22.9533 27.9801 22.6224 27.459C22.2633 26.9432 22.0681 26.3799 22.0681 25.7829V25.6044C22.0681 25.0172 22.1794 24.4599 22.4585 23.9342C22.7571 23.3392 23.1611 22.9127 23.6978 22.5577C24.2345 22.2026 24.7868 22.032 25.4152 22.032H25.4737C26.0397 22.032 26.5803 22.1451 27.0877 22.4089C27.6018 22.6837 28.0384 23.0871 28.3563 23.5812C28.671 24.0766 28.8657 24.6408 28.9242 25.2275L28.9379 25.5984C28.9379 26.4057 28.6334 27.1535 28.0265 27.8319L28.0479 27.8279Z" fill="#F8761F"/>
</g>
<defs>
<clipPath id="clip0_1073_219">
<rect width="45" height="45" rx="12" fill="white"/>
</clipPath>
</defs>
</svg>
