<svg width="25" height="25" viewBox="0 0 25 25" fill="none" xmlns="http://www.w3.org/2000/svg">
<path d="M20.5 16.5V7.5C20.5 6.96957 20.2893 6.46086 19.9142 6.08579C19.5391 5.71071 19.0304 5.5 18.5 5.5H6.5C5.96957 5.5 5.46086 5.71071 5.08578 6.08579C4.71071 6.46086 4.5 6.96957 4.5 7.5V16.5M20.5 16.5H4.5M20.5 16.5L21.78 19.05C21.8571 19.203 21.8936 19.3732 21.886 19.5444C21.8784 19.7155 21.827 19.8818 21.7366 20.0274C21.6463 20.1729 21.5201 20.2928 21.3701 20.3756C21.2201 20.4584 21.0513 20.5012 20.88 20.5H4.12C3.94869 20.5012 3.77994 20.4584 3.62994 20.3756C3.47994 20.2928 3.35372 20.1729 3.26337 20.0274C3.17303 19.8818 3.12159 19.7155 3.114 19.5444C3.1064 19.3732 3.1429 19.203 3.22 19.05L4.5 16.5" stroke="#0B0B0E" stroke-width="2" stroke-linecap="round" stroke-linejoin="round"/>
</svg>
