<svg width="25" height="25" viewBox="0 0 25 25" fill="none" xmlns="http://www.w3.org/2000/svg">
<path d="M15.2 6.79998C15.0168 6.98691 14.9141 7.23823 14.9141 7.49998C14.9141 7.76173 15.0168 8.01305 15.2 8.19998L16.8 9.79998C16.9869 9.98321 17.2382 10.0858 17.5 10.0858C17.7618 10.0858 18.0131 9.98321 18.2 9.79998L21.97 6.02998C22.4728 7.14117 22.6251 8.37921 22.4065 9.57913C22.1878 10.779 21.6087 11.8838 20.7463 12.7463C19.8838 13.6087 18.7791 14.1878 17.5791 14.4064C16.3792 14.6251 15.1412 14.4728 14.03 13.97L7.12 20.88C6.72218 21.2778 6.18261 21.5013 5.62 21.5013C5.05739 21.5013 4.51783 21.2778 4.12 20.88C3.72218 20.4822 3.49868 19.9426 3.49868 19.38C3.49868 18.8174 3.72218 18.2778 4.12 17.88L11.03 10.97C10.5272 9.85879 10.3749 8.62075 10.5935 7.42083C10.8122 6.22092 11.3913 5.11614 12.2537 4.2537C13.1162 3.39127 14.2209 2.81215 15.4209 2.59352C16.6208 2.3749 17.8588 2.52714 18.97 3.02998L15.21 6.78998L15.2 6.79998Z" stroke="#0B0B0E" stroke-width="2" stroke-linecap="round" stroke-linejoin="round"/>
</svg>
