<svg width="25" height="25" viewBox="0 0 25 25" fill="none" xmlns="http://www.w3.org/2000/svg">
<path d="M16.5 21.5V19.5C16.5 18.4391 16.0786 17.4217 15.3284 16.6716C14.5783 15.9214 13.5609 15.5 12.5 15.5H6.5C5.43913 15.5 4.42172 15.9214 3.67157 16.6716C2.92143 17.4217 2.5 18.4391 2.5 19.5V21.5" stroke="#0B0B0E" stroke-width="2" stroke-linecap="round" stroke-linejoin="round"/>
<path d="M9.5 11.5C11.7091 11.5 13.5 9.70914 13.5 7.5C13.5 5.29086 11.7091 3.5 9.5 3.5C7.29086 3.5 5.5 5.29086 5.5 7.5C5.5 9.70914 7.29086 11.5 9.5 11.5Z" stroke="#0B0B0E" stroke-width="2" stroke-linecap="round" stroke-linejoin="round"/>
<path d="M22.5 21.4999V19.4999C22.4993 18.6136 22.2044 17.7527 21.6614 17.0522C21.1184 16.3517 20.3581 15.8515 19.5 15.6299" stroke="#0B0B0E" stroke-width="2" stroke-linecap="round" stroke-linejoin="round"/>
<path d="M16.5 3.62988C17.3604 3.85018 18.123 4.35058 18.6676 5.05219C19.2122 5.7538 19.5078 6.61671 19.5078 7.50488C19.5078 8.39305 19.2122 9.25596 18.6676 9.95757C18.123 10.6592 17.3604 11.1596 16.5 11.3799" stroke="#0B0B0E" stroke-width="2" stroke-linecap="round" stroke-linejoin="round"/>
</svg>
