<svg width="25" height="25" viewBox="0 0 25 25" fill="none" xmlns="http://www.w3.org/2000/svg">
<path d="M6.3 11.8L2.5 22.5L13.2 18.71" stroke="#0B0B0E" stroke-width="2" stroke-linecap="round" stroke-linejoin="round"/>
<path d="M4.5 3.5H4.51" stroke="#0B0B0E" stroke-width="2" stroke-linecap="round" stroke-linejoin="round"/>
<path d="M22.5 8.5H22.51" stroke="#0B0B0E" stroke-width="2" stroke-linecap="round" stroke-linejoin="round"/>
<path d="M15.5 2.5H15.51" stroke="#0B0B0E" stroke-width="2" stroke-linecap="round" stroke-linejoin="round"/>
<path d="M22.5 20.5H22.51" stroke="#0B0B0E" stroke-width="2" stroke-linecap="round" stroke-linejoin="round"/>
<path d="M22.5 2.5L20.26 3.25C19.6224 3.46239 19.0783 3.88964 18.7208 4.45872C18.3633 5.02781 18.2146 5.70339 18.3 6.37C18.4 7.23 17.73 8 16.85 8H16.47C15.61 8 14.87 8.6 14.71 9.44L14.5 10.5" stroke="#0B0B0E" stroke-width="2" stroke-linecap="round" stroke-linejoin="round"/>
<path d="M22.5 13.4999L21.68 13.1699C20.82 12.8299 19.86 13.3699 19.7 14.2799C19.59 14.9799 18.98 15.4999 18.27 15.4999H17.5" stroke="#0B0B0E" stroke-width="2" stroke-linecap="round" stroke-linejoin="round"/>
<path d="M11.5 2.5L11.83 3.32C12.17 4.18 11.63 5.14 10.72 5.3C10.02 5.4 9.5 6.02 9.5 6.73V7.5" stroke="#0B0B0E" stroke-width="2" stroke-linecap="round" stroke-linejoin="round"/>
<path d="M11.5 13.5C13.43 15.43 14.33 17.67 13.5 18.5C12.67 19.33 10.43 18.43 8.50002 16.5C6.57002 14.57 5.67002 12.33 6.50002 11.5C7.33002 10.67 9.57002 11.57 11.5 13.5Z" stroke="#0B0B0E" stroke-width="2" stroke-linecap="round" stroke-linejoin="round"/>
</svg>
