<svg width="14" height="14" viewBox="0 0 14 14" fill="none" xmlns="http://www.w3.org/2000/svg">
<path d="M4.60195 1H2.06862C1.69525 1 1.50857 1 1.36596 1.07266C1.24052 1.13658 1.13853 1.23856 1.07462 1.36401C1.00195 1.50661 1.00195 1.6933 1.00195 2.06667V4.6C1.00195 4.97337 1.00195 5.16005 1.07462 5.30266C1.13853 5.4281 1.24052 5.53009 1.36596 5.594C1.50857 5.66667 1.69525 5.66667 2.06862 5.66667H4.60195C4.97532 5.66667 5.16201 5.66667 5.30461 5.594C5.43006 5.53009 5.53204 5.4281 5.59596 5.30266C5.66862 5.16005 5.66862 4.97337 5.66862 4.6V2.06667C5.66862 1.6933 5.66862 1.50661 5.59596 1.36401C5.53204 1.23856 5.43006 1.13658 5.30461 1.07266C5.16201 1 4.97532 1 4.60195 1Z" stroke="black" stroke-linecap="round" stroke-linejoin="round"/>
<path d="M11.9353 1H9.40195C9.02859 1 8.8419 1 8.69929 1.07266C8.57385 1.13658 8.47187 1.23856 8.40795 1.36401C8.33529 1.50661 8.33529 1.6933 8.33529 2.06667V4.6C8.33529 4.97337 8.33529 5.16005 8.40795 5.30266C8.47187 5.4281 8.57385 5.53009 8.69929 5.594C8.8419 5.66667 9.02859 5.66667 9.40195 5.66667H11.9353C12.3087 5.66667 12.4953 5.66667 12.6379 5.594C12.7634 5.53009 12.8654 5.4281 12.9293 5.30266C13.002 5.16005 13.002 4.97337 13.002 4.6V2.06667C13.002 1.6933 13.002 1.50661 12.9293 1.36401C12.8654 1.23856 12.7634 1.13658 12.6379 1.07266C12.4953 1 12.3087 1 11.9353 1Z" stroke="black" stroke-linecap="round" stroke-linejoin="round"/>
<path d="M11.9353 8.33333H9.40195C9.02859 8.33333 8.8419 8.33333 8.69929 8.406C8.57385 8.46991 8.47187 8.5719 8.40795 8.69734C8.33529 8.83995 8.33529 9.02663 8.33529 9.4V11.9333C8.33529 12.3067 8.33529 12.4934 8.40795 12.636C8.47187 12.7614 8.57385 12.8634 8.69929 12.9273C8.8419 13 9.02859 13 9.40195 13H11.9353C12.3087 13 12.4953 13 12.6379 12.9273C12.7634 12.8634 12.8654 12.7614 12.9293 12.636C13.002 12.4934 13.002 12.3067 13.002 11.9333V9.4C13.002 9.02663 13.002 8.83995 12.9293 8.69734C12.8654 8.5719 12.7634 8.46991 12.6379 8.406C12.4953 8.33333 12.3087 8.33333 11.9353 8.33333Z" stroke="black" stroke-linecap="round" stroke-linejoin="round"/>
<path d="M4.60195 8.33333H2.06862C1.69525 8.33333 1.50857 8.33333 1.36596 8.406C1.24052 8.46991 1.13853 8.5719 1.07462 8.69734C1.00195 8.83995 1.00195 9.02663 1.00195 9.4V11.9333C1.00195 12.3067 1.00195 12.4934 1.07462 12.636C1.13853 12.7614 1.24052 12.8634 1.36596 12.9273C1.50857 13 1.69525 13 2.06862 13H4.60195C4.97532 13 5.16201 13 5.30461 12.9273C5.43006 12.8634 5.53204 12.7614 5.59596 12.636C5.66862 12.4934 5.66862 12.3067 5.66862 11.9333V9.4C5.66862 9.02663 5.66862 8.83995 5.59596 8.69734C5.53204 8.5719 5.43006 8.46991 5.30461 8.406C5.16201 8.33333 4.97532 8.33333 4.60195 8.33333Z" stroke="black" stroke-linecap="round" stroke-linejoin="round"/>
</svg>
