<svg width="36" height="23" viewBox="0 0 36 23" fill="none" xmlns="http://www.w3.org/2000/svg">
<g clip-path="url(#clip0_922_152)">
<path d="M10.9766 18.5455L10.9104 18.609C9.87105 19.6584 8.66834 20.2127 7.42938 20.2127C4.842 20.2127 2.96489 18.2894 2.96489 15.6365C2.96489 12.9877 4.842 11.0613 7.42938 11.0613C8.66834 11.0613 9.87105 11.6187 10.9104 12.672L10.9766 12.7347L12.6406 10.7405L12.5961 10.6873C11.2123 9.06706 9.55155 8.27931 7.51014 8.27931C5.46349 8.27931 3.58954 8.9627 2.241 10.1933C0.772541 11.5274 0 13.4089 0 15.6365C0 17.864 0.772541 19.7495 2.241 21.0837C3.58954 22.3215 5.46349 22.9998 7.51014 22.9998C9.55155 22.9998 11.2123 22.2108 12.5961 20.5898L12.6406 20.5406L10.9766 18.5455ZM14.3212 22.7279H17.2603V8.50936H14.3212V22.7279ZM28.7752 19.6369C27.9902 20.1103 27.2611 20.3491 26.6055 20.3491C25.6551 20.3491 25.2248 19.8511 25.2248 18.7445V11.1997H28.2208V8.52322H25.2248V4.09869L22.3448 5.62744V8.52322H19.8586V11.1997H22.3447V19.2251C22.3447 21.4107 23.6519 22.9067 25.6044 22.9456C26.9291 22.9712 27.7275 22.5798 28.2115 22.2929L28.2425 22.2734L28.9489 19.5314L28.7752 19.6369ZM31.2081 22.7279H34.1514V8.50936H31.2081V22.7279Z" fill="black"/>
<path d="M35.8657 6.01708C33.1799 2.24836 28.7207 0.000183105 24.1837 0.000183105C19.6479 0.000183105 15.1876 2.24836 12.5071 6.01708L12.3684 6.21073H15.7502L15.7874 6.17085C18.0885 3.81615 21.0938 2.57216 24.1837 2.57216C27.2736 2.57216 30.2769 3.81615 32.5833 6.17085L32.6205 6.21073H36.0001L35.8657 6.01708Z" fill="black"/>
</g>
<defs>
<clipPath id="clip0_922_152">
<rect width="36" height="23" fill="white"/>
</clipPath>
</defs>
</svg>
