<svg width="66" height="22" viewBox="0 0 66 22" fill="none" xmlns="http://www.w3.org/2000/svg">
<g clip-path="url(#clip0_914_55)">
<path d="M16.2319 7.77462H8.52586V10.0938H13.9838C13.7156 13.3558 11.0408 14.7321 8.52586 14.7321C5.29676 14.7321 2.49691 12.1589 2.49691 8.55248C2.49691 5.03641 5.17301 2.33748 8.52586 2.33748C11.1117 2.33748 12.647 4.02283 12.647 4.02283L14.2519 2.33748C14.2519 2.33748 12.201 0.0183105 8.45496 0.0183105C3.69187 0.0183105 0 4.1145 0 8.51712C0 12.8477 3.47789 17.0696 8.58 17.0696C13.075 17.0696 16.3569 13.9346 16.3569 9.31331C16.3569 8.3364 16.2319 7.77462 16.2319 7.77462Z" fill="black"/>
<path d="M22.529 6.08923C19.3721 6.08923 17.106 8.60745 17.106 11.5251C17.106 14.4964 19.2999 17.0526 22.5638 17.0526C25.5248 17.0526 27.9328 14.7517 27.9328 11.5984C27.9521 7.95531 25.1342 6.08923 22.529 6.08923ZM22.5651 8.24602C24.1172 8.24602 25.597 9.51495 25.597 11.5801C25.597 13.5915 24.1339 14.9141 22.5651 14.9141C20.8352 14.9141 19.4791 13.5182 19.4791 11.5801C19.4791 9.65899 20.8172 8.24602 22.5651 8.24602Z" fill="black"/>
<path d="M34.3381 6.08923C31.1812 6.08923 28.915 8.60745 28.915 11.5251C28.915 14.4964 31.109 17.0526 34.3729 17.0526C37.3339 17.0526 39.7419 14.7517 39.7419 11.5984C39.7432 7.95531 36.924 6.08923 34.3381 6.08923ZM34.3742 8.24602C35.9263 8.24602 37.4061 9.51495 37.4061 11.5801C37.4061 13.5915 35.943 14.9141 34.3742 14.9141C32.6443 14.9141 31.2882 13.5182 31.2882 11.5801C31.2702 9.65899 32.625 8.24602 34.3742 8.24602Z" fill="black"/>
<path d="M45.8971 6.08923C42.989 6.08923 40.7241 8.66245 40.7241 11.5617C40.7241 14.8591 43.3641 17.0526 45.861 17.0526C47.395 17.0526 48.2161 16.4371 48.822 15.7116V16.7985C48.822 18.6829 47.6979 19.8248 45.9861 19.8248C44.3451 19.8248 43.5072 18.5742 43.221 17.8684L41.1521 18.7563C41.883 20.3329 43.3641 21.9816 46.0041 21.9816C48.8942 21.9816 51.0882 20.1339 51.0882 16.2734V6.41531H48.8233V7.33983C48.1259 6.59602 47.163 6.08923 45.8971 6.08923ZM46.1111 8.24602C47.5381 8.24602 49.0012 9.47828 49.0012 11.5801C49.0012 13.7185 47.5381 14.8958 46.0931 14.8958C44.541 14.8958 43.114 13.6269 43.114 11.5984C43.096 9.49531 44.5952 8.24602 46.1111 8.24602Z" fill="black"/>
<path d="M61.13 6.08923C58.4011 6.08923 56.1001 8.29971 56.1001 11.5617C56.1001 15.0228 58.6692 17.0709 61.3981 17.0709C63.6811 17.0709 65.09 15.802 65.9111 14.6614L64.0381 13.3924C63.556 14.1533 62.7362 14.8971 61.3981 14.8971C59.8822 14.8971 59.1861 14.0459 58.7581 13.2301L66.0001 10.1841L65.625 9.29626C64.9302 7.53888 63.2892 6.08923 61.13 6.08923ZM61.237 8.19102C62.218 8.19102 62.9321 8.71614 63.2351 9.36828L58.4011 11.4164C58.1871 9.82268 59.6682 8.19102 61.237 8.19102Z" fill="black"/>
<path d="M55.0289 0.580078H52.657V16.7435H55.0289V0.580078Z" fill="black"/>
</g>
<defs>
<clipPath id="clip0_914_55">
<rect width="66" height="22" fill="white"/>
</clipPath>
</defs>
</svg>
