<svg width="116" height="24" viewBox="0 0 116 24" fill="none" xmlns="http://www.w3.org/2000/svg">
<path d="M37.7479 2.60049C36.5376 2.07712 35.2292 1.73367 34.068 1.73367C32.367 1.73367 31.5329 2.10984 31.5329 2.7804C31.5329 4.69396 39.089 3.15657 39.089 7.26172C39.089 8.96266 37.5353 10.2711 34.4278 10.2711C32.5797 10.2711 31.1404 9.87855 29.4885 8.96266L30.1754 7.44163C31.6311 8.27575 32.9885 8.63556 34.4441 8.63556C36.2923 8.63556 37.2736 8.09584 37.2736 7.27808C37.2736 5.18461 29.7011 6.73836 29.7011 2.91124C29.7011 1.25937 31.2385 0.114502 34.0353 0.114502C35.7035 0.114502 37.11 0.490671 38.4512 1.17759L37.7479 2.60049Z" fill="black"/>
<path d="M46.1872 10.3038C43.1615 10.3038 40.6592 8.24302 40.6592 5.15189C40.6592 2.10982 43.1615 0 46.1872 0C49.2293 0 51.6826 2.10982 51.6826 5.15189C51.6826 8.22666 49.2129 10.3038 46.1872 10.3038ZM46.1872 1.66823C43.9793 1.66823 42.491 3.18926 42.491 5.15189C42.491 7.16358 43.9302 8.6519 46.1872 8.6519C48.4443 8.6519 49.8672 7.14722 49.8672 5.15189C49.8672 3.18926 48.4279 1.66823 46.1872 1.66823Z" fill="black"/>
<path d="M58.8952 10.2874C55.7223 10.2874 53.3345 8.22666 53.3345 5.13553C53.3345 2.10982 55.755 0 58.8952 0C60.7597 0 62.1009 0.53972 63.3111 1.45561L62.3789 2.87852C61.5121 2.1916 60.4163 1.68459 58.9607 1.68459C56.6382 1.68459 55.199 3.18926 55.199 5.13553C55.199 7.14722 56.6546 8.60283 58.977 8.60283C60.4326 8.60283 61.5775 8.12853 62.4607 7.42526L63.3929 8.84816C62.1826 9.76405 60.7761 10.2874 58.8952 10.2874Z" fill="black"/>
<path d="M65.3064 0.294373H67.0728V10.0094H65.3064V0.294373Z" fill="black"/>
<path d="M69.6729 10.0257V0.31073H78.3084V1.91354H71.4392V4.26869H76.7874V5.8715H71.4392V8.40655H78.6191V10.0094H69.6729" fill="black"/>
<path d="M85.1779 1.89718V10.0257H83.4279V1.89718H79.5681V0.294373H89.0541V1.89718H85.1779Z" fill="black"/>
<path d="M90.4443 10.0257V0.31073H99.0799V1.91354H92.2107V4.26869H97.5588V5.8715H92.2107V8.40655H99.3906V10.0094H90.4443" fill="black"/>
<path d="M34.9021 21.5234C35.867 21.5234 36.8647 21.2944 37.617 20.9346V18.1051H39.3343V21.8832C38.124 22.7173 36.4722 23.2243 34.8366 23.2243C31.6637 23.2243 29.2759 21.1636 29.2759 18.0724C29.2759 15.0467 31.6965 12.9369 34.8366 12.9369C36.6684 12.9369 38.0423 13.4603 39.2526 14.3761L38.3203 15.799C37.4371 15.1121 36.3413 14.6378 34.8857 14.6378C32.5633 14.5888 31.1404 16.1262 31.1404 18.0561C31.124 20.0841 32.5796 21.5234 34.9021 21.5234Z" fill="black"/>
<path d="M41.6404 22.9627V13.2477H50.2759V14.8505H43.3904V17.2057H48.7385V18.8085H43.3904V21.3436H50.5703V22.9464H41.6404" fill="black"/>
<path d="M54.0213 22.9627H52.304V13.2477H54.103L60.2853 20.5749L60.3344 20.5585C60.2362 18.7104 60.2199 17.2221 60.2199 15.7828V13.2477H61.9372V22.9627H60.1544L53.9885 15.6356L53.9558 15.652C54.0213 17.0912 54.0213 19.6099 54.0213 20.4277V22.9627Z" fill="black"/>
<path d="M64.3904 22.9627V13.2477H73.0259V14.8505H66.1404V17.2057H71.4885V18.8085H66.1404V21.3436H73.3203V22.9464H64.3904" fill="black"/>
<path d="M79.7806 19.3809H76.9512V22.9627H75.1848V13.2477H81.2853C83.3133 13.2477 84.5563 14.5234 84.5563 16.3389C84.5563 18.0725 83.3297 19.1029 81.8414 19.3319L84.6708 22.9627H82.4629L79.7806 19.3809ZM81.1054 17.7781C82.2012 17.7781 82.8227 17.1893 82.8227 16.3552C82.8227 15.4393 82.283 14.8669 81.2853 14.8669H76.9512V17.7781H81.1054Z" fill="black"/>
<path d="M88.2691 20.6076L87.1897 22.9627H85.2925L89.921 13.2477H91.7691L96.3977 22.9627H94.5005L93.4047 20.6076H88.2691ZM89.0051 19.0211H92.6523L90.8369 15.0795L89.0051 19.0211Z" fill="black"/>
<path d="M97.6731 22.9627V13.2477H99.4231V21.3599H105.753V22.9627H97.6731Z" fill="black"/>
<path d="M106.947 22.9627V13.2477H115.582V14.8505H108.697V17.2057H114.045V18.8085H108.697V21.3436H115.876V22.9464H106.947" fill="black"/>
<path d="M0 0H22.6683V11.8412H0V0Z" fill="#DADADA"/>
<path d="M0 11.6121H22.6683V23.2243H0V11.6121Z" fill="black"/>
<path d="M3.95801 11.6121H18.694" stroke="white" stroke-width="1.725" stroke-miterlimit="10"/>
</svg>
