<svg width="109" height="21" viewBox="0 0 109 21" fill="none" xmlns="http://www.w3.org/2000/svg">
<path d="M102.963 17.2513C102.963 15.6782 104.255 14.4019 105.845 14.4019C107.436 14.4019 108.726 15.6782 108.726 17.2513C108.726 18.8244 107.436 20.0999 105.845 20.0999C104.255 20.0999 102.963 18.8244 102.963 17.2513Z" fill="black"/>
<path d="M11.06 9.70525C11.06 7.90046 10.7074 6.5615 10.0019 5.6892C9.29565 4.81772 8.22577 4.38238 6.78744 4.38238H5.25739V15.4189H6.42801C8.02564 15.4189 9.1964 14.9506 9.94184 14.0107C10.6864 13.0725 11.06 11.637 11.06 9.70525ZM16.5166 9.51728C16.5166 12.8053 15.6227 15.3389 13.835 17.1173C12.0472 18.8966 9.53411 19.7862 6.29463 19.7862H0V0.0835571H6.73403C9.85757 0.0835571 12.269 0.892368 13.9684 2.50918C15.6669 4.12681 16.5166 6.46175 16.5166 9.51728Z" fill="#0F0B0B"/>
<path d="M33.9526 19.786H38.9615V0.000915527H33.9526V19.786Z" fill="#0F0B0B"/>
<path d="M45.998 12.4061C45.998 13.6676 46.1648 14.6297 46.4975 15.291C46.831 15.953 47.3896 16.2837 48.1751 16.2837C48.9522 16.2837 49.5017 15.953 49.8219 15.291C50.1421 14.6297 50.3014 13.6676 50.3014 12.4061C50.3014 11.1513 50.1396 10.2048 49.8152 9.56578C49.49 8.92516 48.9356 8.60442 48.1494 8.60442C47.3806 8.60442 46.831 8.92352 46.4975 9.55837C46.1648 10.194 45.998 11.143 45.998 12.4061ZM55.3995 12.4061C55.3995 14.8095 54.7624 16.6844 53.4849 18.0283C52.2084 19.373 50.4215 20.0458 48.1243 20.0458C45.9213 20.0458 44.1677 19.3581 42.8661 17.9829C41.5628 16.6077 40.9116 14.7493 40.9116 12.4061C40.9116 10.0102 41.5496 8.14849 42.827 6.82107C44.1044 5.49366 45.8954 4.82996 48.2018 4.82996C49.6269 4.82996 50.8876 5.1375 51.98 5.75174C53.0731 6.36598 53.917 7.24571 54.5098 8.39174C55.1035 9.53612 55.3995 10.8751 55.3995 12.4061Z" fill="#0F0B0B"/>
<path d="M57.3882 19.786H62.3979V12.214V5.0896H57.3882V19.786Z" fill="#0F0B0B"/>
<path d="M57.3882 3.31194H62.3979V0H57.3882V3.31194Z" fill="#0F0B0B"/>
<path d="M72.5475 16.0376C73.2237 16.0376 74.0291 15.8677 74.9688 15.5305V19.2283C74.2934 19.5218 73.6515 19.7321 73.0411 19.8566C72.4307 19.9827 71.7144 20.0454 70.8948 20.0454C69.2129 20.0454 68.0005 19.6274 67.2559 18.793C66.5146 17.9586 66.1427 16.6774 66.1427 14.9484V8.89014H64.3884V5.09092H66.1427V1.33787L71.1909 0.469666V5.09092H74.3869V8.89014H71.1909V14.6104C71.1909 15.5618 71.6436 16.0376 72.5475 16.0376Z" fill="#0F0B0B"/>
<path d="M84.1418 16.0376C84.8181 16.0376 85.6236 15.8677 86.5633 15.5305V19.2283C85.8888 19.5218 85.2458 19.7321 84.6354 19.8566C84.0242 19.9827 83.3105 20.0454 82.4891 20.0454C80.8073 20.0454 79.595 19.6274 78.852 18.793C78.1091 17.9586 77.7372 16.6774 77.7372 14.9484V8.89014H75.9819V5.09092H77.7372V1.28098L82.7844 0.469666V5.09092H85.9821V8.89014H82.7844V14.6104C82.7844 15.5618 83.2371 16.0376 84.1418 16.0376Z" fill="#0F0B0B"/>
<path d="M92.8845 10.6157C92.9529 9.81096 93.1857 9.22145 93.5825 8.84466C93.9812 8.4687 94.4731 8.28073 95.0618 8.28073C95.7038 8.28073 96.2141 8.49177 96.5926 8.91721C96.9737 9.34017 97.1722 9.90659 97.1881 10.6157H92.8845ZM99.9488 6.56252C98.7581 5.40824 97.0687 4.83026 94.8833 4.83026C92.586 4.83026 90.8184 5.49396 89.5793 6.82138C88.341 8.1488 87.7214 10.0534 87.7214 12.5351C87.7214 14.9384 88.3911 16.7918 89.7269 18.0929C91.0635 19.3939 92.9404 20.0453 95.3577 20.0453C96.5184 20.0453 97.5174 19.967 98.3546 19.8111C99.1868 19.6569 99.9922 19.3782 100.774 18.9759L100.004 15.664C99.4361 15.8932 98.8957 16.0696 98.3854 16.1859C97.6483 16.3549 96.8396 16.4398 95.959 16.4398C94.9935 16.4398 94.2313 16.2065 93.6726 15.7398C93.1139 15.2723 92.8162 14.6276 92.7821 13.8064H101.736V11.5498C101.736 9.37893 101.14 7.71597 99.9488 6.56252Z" fill="#0F0B0B"/>
<path d="M23.1643 10.6157C23.2327 9.81096 23.4653 9.22145 23.8622 8.84466C24.2599 8.4687 24.7528 8.28073 25.3424 8.28073C25.9828 8.28073 26.493 8.49177 26.8724 8.91721C27.2535 9.34017 27.4511 9.90659 27.4687 10.6157H23.1643ZM30.2294 6.56252C29.0379 5.40824 27.3493 4.83026 25.1631 4.83026C22.865 4.83026 21.098 5.49396 19.8598 6.82138C18.6215 8.1488 18.0012 10.0534 18.0012 12.5351C18.0012 14.9384 18.67 16.7918 20.0075 18.0929C21.3433 19.3939 23.2202 20.0453 25.6375 20.0453C26.7982 20.0453 27.7971 19.967 28.6342 19.8111C29.4664 19.6569 30.272 19.3782 31.0541 18.9759L30.2837 15.664C29.7158 15.8932 29.1754 16.0696 28.666 16.1859C27.9272 16.3549 27.1192 16.4398 26.2386 16.4398C25.2739 16.4398 24.5111 16.2065 23.9524 15.7398C23.3929 15.2723 23.096 14.6276 23.0619 13.8064H32.0155V11.5498C32.0155 9.37893 31.4201 7.71597 30.2294 6.56252Z" fill="#0F0B0B"/>
</svg>
