<svg width="97" height="20" viewBox="0 0 97 20" fill="none" xmlns="http://www.w3.org/2000/svg">
<g clip-path="url(#clip0_922_132)">
<path d="M3.22325 13.1892C3.22325 14.3388 3.46959 15.2214 3.79158 15.7554C4.21374 16.4548 4.84341 16.7511 5.48534 16.7511C6.31331 16.7511 7.07075 16.5406 8.53043 14.4728C9.69981 12.8154 11.0777 10.489 12.0048 9.03049L13.5749 6.55957C14.6656 4.84353 15.928 2.9359 17.3754 1.64286C18.557 0.58748 19.8317 0.00115967 21.1145 0.00115967C23.2683 0.00115967 25.3198 1.27955 26.8899 3.67718C28.6082 6.30305 29.4423 9.61053 29.4423 13.0237C29.4423 15.0528 29.0518 16.5438 28.3874 17.7216C27.7455 18.8608 26.4943 19.9989 24.3896 19.9989V16.7511C26.1917 16.7511 26.6415 15.0549 26.6415 13.1138C26.6415 10.3476 26.0118 7.27781 24.6247 5.08434C23.6404 3.5285 22.3647 2.57783 20.9612 2.57783C19.4433 2.57783 18.2218 3.75047 16.849 5.84133C16.1191 6.95219 15.3699 8.30596 14.5286 9.83354L13.6025 11.514C11.7421 14.8926 11.2709 15.6622 10.3407 16.9322C8.71033 19.156 7.31812 19.9989 5.48534 19.9989C3.31115 19.9989 1.93631 19.0346 1.08484 17.5813C0.389749 16.3972 0.0483398 14.8434 0.0483398 13.073L3.22325 13.1892Z" fill="black"/>
<path d="M2.55176 3.90647C4.00735 1.6083 6.10794 0.00115967 8.51723 0.00115967C9.91251 0.00115967 11.2996 0.424148 12.748 1.63553C14.3324 2.95998 16.0211 5.14088 18.1278 8.73523L18.8832 10.0251C20.7068 13.1368 21.7443 14.7377 22.3515 15.4926C23.1324 16.4621 23.6793 16.7511 24.3897 16.7511C26.1918 16.7511 26.6416 15.0549 26.6416 13.1138L29.4424 13.0237C29.4424 15.0528 29.0519 16.5438 28.3875 17.7216C27.7455 18.8608 26.4944 19.9989 24.3897 19.9989C23.0813 19.9989 21.9222 19.7078 20.6403 18.4692C19.6549 17.5185 18.5029 15.8297 17.6167 14.3116L14.9805 9.80108C13.6578 7.53746 12.4445 5.8497 11.7422 5.08539C10.9868 4.2635 10.0157 3.27094 8.46612 3.27094C7.2119 3.27094 6.14678 4.17241 5.25544 5.55131L2.55176 3.90647Z" fill="black"/>
<path d="M8.46603 3.27094C7.21181 3.27094 6.14669 4.17241 5.25535 5.55131C3.99499 7.49977 3.22324 10.4021 3.22324 13.1892C3.22324 14.3388 3.46959 15.2214 3.79158 15.7554L1.08483 17.5813C0.389749 16.3972 0.0483398 14.8434 0.0483398 13.073C0.0483398 9.85343 0.911064 6.49779 2.55167 3.90647C4.00726 1.6083 6.10785 0.00115967 8.51714 0.00115967L8.46603 3.27094Z" fill="black"/>
<path d="M35.6143 0.633545H39.287L45.5315 12.205L51.777 0.633545H55.37V19.6471H52.374V5.07492L46.8971 15.1659H44.0861L38.6103 5.07492V19.6471H35.6143V0.633545ZM64.7578 7.72278C62.6091 7.72278 61.315 9.37913 61.0053 11.4302H68.2976C68.1473 9.31736 66.9575 7.72278 64.7578 7.72278ZM58.0349 12.5987C58.0349 8.28293 60.758 5.14193 64.8099 5.14193C68.7954 5.14193 71.175 8.24314 71.175 12.829V13.6718H61.0053C61.3662 15.903 62.8115 17.4065 65.1421 17.4065C67.0015 17.4065 68.1637 16.8254 69.2656 15.7627L70.8571 17.7593C69.3576 19.1717 67.4502 19.9863 65.0358 19.9863C60.6496 19.9863 58.0349 16.7102 58.0349 12.5987ZM74.8079 7.995H72.05V5.4822H74.8079V1.32666H77.6986V5.4822H81.8886V7.995H77.6986V14.3639C77.6986 16.5385 78.3773 17.3112 80.0456 17.3112C80.8071 17.3112 81.2436 17.2442 81.8886 17.1343V19.6198C81.0851 19.8523 80.3185 19.9591 79.4885 19.9591C76.3677 19.9591 74.8079 18.2127 74.8079 14.7167V7.995ZM94.0607 10.4387C93.4801 8.9373 92.185 7.83167 90.2817 7.83167C87.808 7.83167 86.2247 9.62937 86.2247 12.5578C86.2247 15.413 87.6823 17.2976 90.1631 17.2976C92.1135 17.2976 93.5057 16.1354 94.0607 14.6895V10.4387ZM96.9515 19.6471H94.1139V17.664C93.3207 18.8314 91.8773 19.9863 89.5396 19.9863C85.78 19.9863 83.2675 16.7626 83.2675 12.5578C83.2675 8.31329 85.8403 5.14193 89.6991 5.14193C91.6065 5.14193 93.1029 5.92299 94.1139 7.30189V5.4822H96.9515V19.6471Z" fill="black"/>
</g>
<defs>
<clipPath id="clip0_922_132">
<rect width="97" height="20" fill="white"/>
</clipPath>
</defs>
</svg>
