<svg width="135" height="24" viewBox="0 0 135 24" fill="none" xmlns="http://www.w3.org/2000/svg">
<g clip-path="url(#clip0_914_68)">
<path d="M32.6243 6.43294C31.3492 6.43294 30.0017 6.99877 29.1597 7.86926H29.1117V2.40686H26.7778V18.2936H28.9191V17.1837H28.9672C29.7852 18.0324 31.2769 18.62 32.5762 18.62C35.9443 18.62 38.1097 16.226 38.1097 12.5265C38.1097 8.93563 35.8482 6.43294 32.6243 6.43294ZM32.2152 16.7049C30.4589 16.7049 29.1117 15.6168 29.1117 14.1804V11.0901C29.1117 9.54499 30.4589 8.3698 32.2152 8.3698C34.5008 8.3698 35.7759 9.87142 35.7759 12.5265C35.7759 15.2033 34.5008 16.7049 32.2152 16.7049Z" fill="black"/>
<path d="M19.1992 6.43292C15.7346 6.43292 13.3528 8.93562 13.3528 12.5264C13.3528 16.2044 15.6625 18.62 19.1992 18.62C22.6878 18.62 24.9734 16.2044 24.9734 12.5264C24.9734 8.93562 22.6155 6.43292 19.1992 6.43292ZM19.1992 16.7049C17.0098 16.7049 15.6625 15.0944 15.6625 12.5264C15.6625 9.95846 17.0098 8.3698 19.1992 8.3698C21.3163 8.3698 22.6637 10.002 22.6637 12.5264C22.6637 15.0727 21.3163 16.7049 19.1992 16.7049Z" fill="black"/>
<path d="M12.2702 7.47755C12.2702 4.77899 10.0567 3.05975 6.59219 3.05975H0V18.2936H2.40591V12.2653H5.84636C8.49286 12.2653 9.45523 13.2229 9.45523 15.8778V18.2936H11.789V15.8778C11.789 13.447 10.971 12.002 9.18817 11.4079C11.0143 10.829 12.2702 9.46665 12.2702 7.47755ZM6.39973 10.3285H2.40591V5.04014H6.37567C8.66128 5.04014 9.84018 5.93241 9.84018 7.69518C9.84018 9.39266 8.63722 10.3285 6.39973 10.3285Z" fill="black"/>
<path d="M50.8369 6.43292C49.4896 6.43292 48.0461 7.02051 47.3483 7.86926H47.3002V6.75937H45.0146V18.2936H47.3483V11.0466C47.3483 9.4144 48.5272 8.39156 50.3799 8.39156C52.2083 8.39156 53.0744 9.34911 53.0744 11.3513V18.2936H55.4322V10.7419C55.4322 8.08688 53.6519 6.43292 50.8369 6.43292Z" fill="black"/>
<path d="M88.8985 6.43292C85.434 6.43292 83.0522 8.93562 83.0522 12.5264C83.0522 16.2044 85.3619 18.62 88.8985 18.62C92.3871 18.62 94.6728 16.2044 94.6728 12.5264C94.6728 8.93562 92.3149 6.43292 88.8985 6.43292ZM88.8985 16.7049C86.7091 16.7049 85.3619 15.0944 85.3619 12.5264C85.3619 9.95846 86.7091 8.3698 88.8985 8.3698C91.0158 8.3698 92.363 10.002 92.363 12.5264C92.363 15.0727 91.0158 16.7049 88.8985 16.7049Z" fill="black"/>
<path d="M105.114 2.40686V7.86926H105.066C104.224 6.97701 102.901 6.43294 101.626 6.43294C98.4019 6.43294 96.1162 8.97915 96.1162 12.5265C96.1162 16.226 98.2816 18.62 101.65 18.62C102.949 18.62 104.441 18.0324 105.259 17.1837H105.307V18.2936H107.448V2.40686H105.114ZM105.114 14.1804C105.114 15.6168 103.767 16.7049 102.011 16.7049C99.7251 16.7049 98.45 15.2033 98.45 12.5265C98.45 9.87142 99.7251 8.3698 102.011 8.3698C103.767 8.3698 105.114 9.54499 105.114 11.0901V14.1804Z" fill="black"/>
<path d="M75.8343 6.43292C72.3698 6.43292 69.988 8.93562 69.988 12.5264C69.988 16.2044 72.2977 18.62 75.8343 18.62C79.323 18.62 81.6086 16.2044 81.6086 12.5264C81.6086 8.93562 79.2507 6.43292 75.8343 6.43292ZM75.8343 16.7049C73.6451 16.7049 72.2977 15.0944 72.2977 12.5264C72.2977 9.95846 73.6451 8.3698 75.8343 8.3698C77.9516 8.3698 79.2988 10.002 79.2988 12.5264C79.2988 15.0727 77.9516 16.7049 75.8343 16.7049Z" fill="black"/>
<path d="M42.4642 2.40686H39.938V4.6484H42.4642V2.40686Z" fill="black"/>
<path d="M63.7567 6.43294C62.3372 6.43294 60.8936 7.04229 60.2199 7.91278H60.1718V2.40686H57.8381V18.2936H60.1718V11.0466C60.1718 9.47969 61.4229 8.39156 63.2032 8.39156C64.9595 8.39156 65.97 9.43617 65.97 11.2425V18.2936H68.3038V10.7202C68.3038 8.08689 66.5475 6.43294 63.7567 6.43294Z" fill="black"/>
<path d="M42.3681 6.75934H40.0344V18.2934H42.3681V6.75934Z" fill="black"/>
<path d="M123.539 18.8419L123.363 18.8942C122.232 19.2337 120.56 19.7582 119.059 20.3827C118.979 20.4175 118.927 20.5134 118.927 20.5134C118.898 20.5721 118.864 20.644 118.825 20.7245L118.821 20.7352C118.652 21.0814 118.421 21.6014 118.32 21.8148L118.243 21.9824C118.231 22.0084 118.239 22.0389 118.263 22.0585C118.277 22.0716 118.294 22.0781 118.313 22.0781C118.323 22.0781 118.335 22.0759 118.347 22.0716L118.527 21.9933C118.939 21.8169 119.458 21.5492 120.002 21.3142L120.021 21.3055C121.058 20.8616 122.227 20.3587 122.932 20.0541C122.932 20.0541 123.046 19.9998 123.103 19.8974L123.63 18.94C123.645 18.916 123.64 18.8855 123.62 18.8637C123.599 18.8419 123.568 18.8332 123.539 18.8419Z" fill="black"/>
<path d="M119.324 17.3599C119.398 17.2293 119.74 16.633 119.817 16.5002L119.831 16.4764C122.122 12.57 124.912 8.88338 128.124 5.52325L128.213 5.42967C128.24 5.40138 128.245 5.35784 128.225 5.3252C128.204 5.29038 128.163 5.27297 128.122 5.27733L127.987 5.29473C125.88 5.55806 123.746 5.9215 121.643 6.37634C121.434 6.42857 121.299 6.55262 121.27 6.5809C119.696 8.28491 118.207 10.0782 116.841 11.9171C116.773 12.0107 116.749 12.1325 116.766 12.2327C116.78 12.3306 117.11 14.6265 117.61 16.3893C116.369 19.6211 115.26 23.88 115.26 23.88C115.25 23.9083 115.257 23.9365 115.274 23.9605C115.294 23.9844 115.322 23.9975 115.356 23.9975H116.064C116.109 23.9975 116.148 23.9735 116.165 23.9365L116.213 23.8168C116.934 22.0367 117.757 20.2782 118.667 18.5633C118.876 18.1651 119.324 17.3599 119.324 17.3599Z" fill="black"/>
<path d="M129.161 6.22187L129.159 6.1C129.156 6.06083 129.13 6.02817 129.091 6.01513C129.053 6.00207 129.007 6.01295 128.978 6.04123L128.889 6.13264C125.143 10.0521 121.994 14.4002 119.53 19.0595L119.473 19.1685C119.453 19.2032 119.461 19.2446 119.49 19.2729C119.509 19.2903 119.535 19.3012 119.562 19.3012C119.574 19.3012 119.588 19.299 119.603 19.2947L119.725 19.2489C121.83 18.4612 123.979 17.7778 126.113 17.2185C126.24 17.1859 126.349 17.1032 126.409 16.9966C127.345 15.3469 129.517 12.1522 129.517 12.1522C129.573 12.0804 129.558 11.9737 129.558 11.9737C129.558 11.9737 129.185 8.15438 129.161 6.22187Z" fill="black"/>
<path d="M134.004 0.711543C133.473 0.293702 132.7 0.0978392 131.502 0.0739003C130.415 0.0521377 129.123 0.265411 127.658 0.700662C127.439 0.770303 127.263 0.881292 127.107 1.0184C125.617 2.2828 124.169 3.62555 122.8 5.00966L122.694 5.11411C122.665 5.14457 122.661 5.18811 122.682 5.22076C122.704 5.25556 122.75 5.27298 122.793 5.26428L122.947 5.2338C125.153 4.80726 127.381 4.48082 129.568 4.26538C129.712 4.25014 129.861 4.29366 129.967 4.38289C130.076 4.47212 130.136 4.60051 130.133 4.73326C130.097 6.69626 130.177 8.66794 130.369 10.5939L130.381 10.7202C130.386 10.7593 130.415 10.7898 130.458 10.8007C130.465 10.8028 130.472 10.8028 130.482 10.805C130.513 10.805 130.547 10.792 130.569 10.7659L130.648 10.6636C131.88 9.07491 133.22 7.52976 134.63 6.06731C134.789 5.90409 134.83 5.80181 134.858 5.65383C135.301 3.09019 134.618 1.1925 134.004 0.711543Z" fill="black"/>
</g>
<defs>
<clipPath id="clip0_914_68">
<rect width="135" height="24" fill="white"/>
</clipPath>
</defs>
</svg>
