<svg width="84" height="21" viewBox="0 0 84 21" fill="none" xmlns="http://www.w3.org/2000/svg">
<path d="M8.31475 20.5995C12.9727 20.5995 16.3814 17.9808 16.3814 14.4157C16.3814 7.19256 5.12378 9.55145 5.12378 5.92396C5.12378 4.44775 6.54902 3.57526 8.47044 3.57526C10.5564 3.57526 11.6513 4.58403 12.2196 5.71635L16.1131 4.45921C15.0688 1.66345 12.2183 0 8.72739 0C4.05928 0 0.991087 2.83779 0.991087 6.26658C0.991087 13.2401 12.1665 10.6736 12.1665 14.6539C12.1665 16.0575 10.6475 16.9924 8.43753 16.9924C6.1136 16.9924 4.58457 15.7034 3.9441 13.7292L0 14.9978C0.918939 18.4062 4.13143 20.5995 8.31475 20.5995ZM73.1569 0C67.3218 0 62.7866 4.63498 62.7866 10.3004C62.7866 15.9658 67.3205 20.6008 73.1569 20.6008C78.9933 20.6008 83.5475 15.9658 83.5475 10.3004C83.5475 4.63498 78.9933 0 73.1569 0ZM73.1569 3.75231C76.6276 3.75231 79.2617 6.48566 79.2617 10.3004C79.2617 14.1151 76.6276 16.8484 73.1569 16.8484C69.6862 16.8484 67.0737 14.1151 67.0737 10.3004C67.0737 6.48566 69.7381 3.75231 73.1569 3.75231ZM31.7085 0.312056H28.1137L19.6648 20.2887H23.9924L25.7075 16.1008H34.0223L35.726 20.2683L38.4423 16.2358L31.7085 0.312056ZM27.1328 12.6287L29.8592 5.8832L32.5958 12.6287H27.1315H27.1328ZM48.3684 9.90553L41.3447 20.2887H45.9406L50.6606 13.2108L55.3806 20.2887H60.1007L53.0149 9.81255L59.4311 0.312056H54.8452L50.7239 6.49585L46.6026 0.312056H41.8927L48.3684 9.90553Z" fill="black"/>
</svg>
