<svg width="650" height="264" viewBox="0 0 650 264" fill="none" xmlns="http://www.w3.org/2000/svg">
<g clip-path="url(#clip0_1169_647)">
<rect width="650" height="264" rx="24" fill="#1A1A1E"/>
<path d="M105.406 129.98C105.406 123.035 111.035 117.406 117.98 117.406H496.02C502.965 117.406 508.594 123.035 508.594 129.98V169.02C508.594 175.965 502.965 181.594 496.02 181.594H117.98C111.035 181.594 105.406 175.965 105.406 169.02V129.98Z" stroke="#37373D" stroke-width="0.811245"/>
<rect x="118.5" y="132.5" width="296" height="32" rx="9.75409" stroke="#37373D"/>
<path d="M132.166 153.749V142.982H135.489C136.514 142.982 137.422 143.213 138.211 143.675C139.011 144.126 139.636 144.756 140.088 145.567C140.539 146.377 140.764 147.31 140.764 148.366C140.764 149.412 140.539 150.34 140.088 151.15C139.636 151.96 139.011 152.596 138.211 153.057C137.422 153.519 136.514 153.749 135.489 153.749H132.166ZM133.674 152.334H135.489C136.012 152.334 136.499 152.237 136.95 152.042C137.401 151.837 137.796 151.555 138.134 151.196C138.483 150.827 138.749 150.401 138.934 149.919C139.129 149.437 139.226 148.92 139.226 148.366C139.226 147.812 139.129 147.294 138.934 146.812C138.749 146.33 138.483 145.91 138.134 145.551C137.796 145.182 137.401 144.9 136.95 144.705C136.499 144.5 136.012 144.398 135.489 144.398H133.674V152.334ZM145.846 153.934C145.098 153.934 144.436 153.765 143.862 153.426C143.288 153.078 142.837 152.601 142.509 151.996C142.181 151.391 142.016 150.694 142.016 149.904C142.016 149.114 142.181 148.417 142.509 147.812C142.837 147.207 143.288 146.735 143.862 146.397C144.447 146.048 145.113 145.874 145.862 145.874C146.569 145.874 147.19 146.054 147.723 146.412C148.256 146.761 148.671 147.264 148.969 147.92C149.276 148.566 149.43 149.33 149.43 150.212H143.216L143.493 149.981C143.493 150.524 143.601 150.996 143.816 151.396C144.031 151.796 144.324 152.103 144.693 152.319C145.062 152.524 145.482 152.626 145.954 152.626C146.467 152.626 146.892 152.509 147.231 152.273C147.579 152.027 147.851 151.719 148.046 151.35L149.307 151.934C149.102 152.334 148.835 152.688 148.507 152.996C148.179 153.293 147.79 153.524 147.338 153.688C146.897 153.852 146.4 153.934 145.846 153.934ZM143.585 149.289L143.293 149.058H148.154L147.877 149.289C147.877 148.838 147.784 148.453 147.6 148.135C147.415 147.807 147.169 147.561 146.862 147.397C146.554 147.223 146.21 147.135 145.831 147.135C145.462 147.135 145.103 147.223 144.754 147.397C144.416 147.561 144.134 147.802 143.908 148.12C143.693 148.438 143.585 148.827 143.585 149.289ZM150.874 153.749V146.059H152.243L152.335 147.474V153.749H150.874ZM156.196 153.749V149.812H157.657V153.749H156.196ZM156.196 149.812C156.196 149.114 156.114 148.586 155.949 148.227C155.796 147.858 155.575 147.602 155.288 147.458C155.011 147.315 154.688 147.238 154.319 147.228C153.694 147.228 153.207 147.448 152.858 147.889C152.509 148.33 152.335 148.95 152.335 149.75H151.704C151.704 148.94 151.822 148.248 152.058 147.674C152.304 147.089 152.648 146.643 153.089 146.336C153.54 146.028 154.073 145.874 154.688 145.874C155.293 145.874 155.816 145.997 156.257 146.243C156.708 146.489 157.052 146.874 157.288 147.397C157.534 147.91 157.657 148.586 157.657 149.427V149.812H156.196ZM159.496 153.749V146.059H160.864L160.926 147.12C161.172 146.71 161.48 146.402 161.849 146.197C162.218 145.982 162.644 145.874 163.126 145.874C163.741 145.874 164.264 146.018 164.694 146.305C165.125 146.582 165.438 147.007 165.633 147.581C165.858 147.028 166.176 146.607 166.586 146.32C166.996 146.023 167.483 145.874 168.047 145.874C168.919 145.874 169.601 146.161 170.093 146.735C170.585 147.299 170.826 148.171 170.816 149.35V153.749H169.37V149.812C169.37 149.114 169.293 148.586 169.14 148.227C168.996 147.858 168.801 147.602 168.555 147.458C168.309 147.315 168.022 147.238 167.694 147.228C167.119 147.228 166.673 147.448 166.356 147.889C166.048 148.33 165.894 148.95 165.894 149.75V153.749H164.433V149.812C164.433 149.114 164.361 148.586 164.218 148.227C164.074 147.858 163.874 147.602 163.618 147.458C163.372 147.315 163.084 147.238 162.756 147.228C162.182 147.228 161.736 147.448 161.418 147.889C161.111 148.33 160.957 148.95 160.957 149.75V153.749H159.496ZM177.406 153.749L177.344 152.411V149.735C177.344 149.171 177.278 148.699 177.144 148.32C177.021 147.94 176.826 147.653 176.56 147.458C176.303 147.264 175.96 147.166 175.529 147.166C175.129 147.166 174.781 147.248 174.483 147.412C174.196 147.576 173.955 147.833 173.76 148.181L172.468 147.689C172.653 147.34 172.884 147.033 173.16 146.766C173.437 146.489 173.771 146.274 174.16 146.12C174.55 145.956 175.006 145.874 175.529 145.874C176.257 145.874 176.862 146.018 177.344 146.305C177.826 146.592 178.185 147.007 178.421 147.551C178.667 148.094 178.785 148.766 178.775 149.566L178.759 153.749H177.406ZM175.145 153.934C174.232 153.934 173.519 153.729 173.007 153.319C172.504 152.898 172.253 152.319 172.253 151.581C172.253 150.791 172.514 150.191 173.037 149.781C173.571 149.361 174.309 149.15 175.252 149.15H177.39V150.304H175.652C174.945 150.304 174.447 150.417 174.16 150.642C173.873 150.858 173.73 151.16 173.73 151.55C173.73 151.909 173.863 152.191 174.129 152.396C174.406 152.591 174.786 152.688 175.268 152.688C175.688 152.688 176.052 152.601 176.36 152.426C176.667 152.242 176.908 151.986 177.083 151.657C177.257 151.329 177.344 150.955 177.344 150.535H177.852C177.852 151.581 177.626 152.411 177.175 153.026C176.734 153.631 176.057 153.934 175.145 153.934ZM181.507 149.612C181.507 148.781 181.666 148.104 181.983 147.581C182.301 147.058 182.712 146.669 183.214 146.412C183.716 146.156 184.245 146.028 184.798 146.028V147.412C184.337 147.412 183.896 147.484 183.475 147.628C183.065 147.761 182.727 147.986 182.46 148.304C182.204 148.612 182.076 149.032 182.076 149.566L181.507 149.612ZM180.615 153.749V146.059H182.076V153.749H180.615ZM187.392 151.427L186.485 150.427L190.53 146.059H192.314L187.392 151.427ZM185.977 153.749V142.982H187.438V153.749H185.977ZM190.853 153.749L188.023 149.535L188.976 148.52L192.606 153.749H190.853Z" fill="white"/>
<path d="M385 147.44L389.486 151.926L393.972 147.44" stroke="white" stroke-width="0.811245" stroke-linecap="round" stroke-linejoin="round"/>
<rect x="424.406" y="132.464" width="69.6856" height="32.5145" rx="9.84847" stroke="#37373D" stroke-width="0.811245"/>
<path d="M470.143 147.44L474.629 151.926L479.115 147.44" stroke="white" stroke-width="0.811245" stroke-linecap="round" stroke-linejoin="round"/>
<path d="M439.714 148.188V146.112H449.968V148.188H439.714ZM439.714 153.315V151.239H449.968V153.315H439.714Z" fill="white"/>
<rect x="459" y="82" width="50" height="22" rx="8" fill="#2BBEAF" fill-opacity="0.25"/>
<path d="M473.672 97V96.052C473.672 95.804 473.728 95.548 473.84 95.284C473.96 95.012 474.128 94.744 474.344 94.48C474.568 94.216 474.832 93.972 475.136 93.748L476.756 92.548C476.948 92.412 477.12 92.256 477.272 92.08C477.432 91.896 477.556 91.708 477.644 91.516C477.74 91.316 477.788 91.12 477.788 90.928C477.788 90.672 477.724 90.44 477.596 90.232C477.468 90.016 477.288 89.848 477.056 89.728C476.824 89.6 476.548 89.536 476.228 89.536C475.924 89.536 475.656 89.596 475.424 89.716C475.2 89.828 475.012 89.98 474.86 90.172C474.708 90.364 474.6 90.568 474.536 90.784L473.324 90.556C473.412 90.188 473.584 89.844 473.84 89.524C474.096 89.204 474.424 88.948 474.824 88.756C475.224 88.556 475.676 88.456 476.18 88.456C476.756 88.456 477.252 88.564 477.668 88.78C478.092 88.988 478.42 89.28 478.652 89.656C478.884 90.024 479 90.448 479 90.928C479 91.392 478.872 91.82 478.616 92.212C478.368 92.604 478.008 92.984 477.536 93.352L476.036 94.48C475.74 94.704 475.504 94.936 475.328 95.176C475.16 95.416 475.056 95.672 475.016 95.944H479.108V97H473.672ZM483.625 97.144C482.977 97.144 482.401 96.96 481.897 96.592C481.393 96.216 480.997 95.704 480.709 95.056C480.429 94.4 480.289 93.648 480.289 92.8C480.289 91.952 480.429 91.204 480.709 90.556C480.997 89.9 481.389 89.388 481.885 89.02C482.389 88.644 482.969 88.456 483.625 88.456C484.281 88.456 484.857 88.644 485.353 89.02C485.857 89.388 486.253 89.9 486.541 90.556C486.829 91.204 486.973 91.952 486.973 92.8C486.973 93.648 486.829 94.4 486.541 95.056C486.261 95.704 485.869 96.216 485.365 96.592C484.861 96.96 484.281 97.144 483.625 97.144ZM483.625 96.064C484.049 96.064 484.425 95.924 484.753 95.644C485.089 95.364 485.349 94.98 485.533 94.492C485.717 94.004 485.809 93.44 485.809 92.8C485.809 92.16 485.717 91.596 485.533 91.108C485.349 90.612 485.089 90.224 484.753 89.944C484.425 89.664 484.049 89.524 483.625 89.524C483.201 89.524 482.825 89.664 482.497 89.944C482.169 90.224 481.913 90.612 481.729 91.108C481.545 91.596 481.453 92.16 481.453 92.8C481.453 93.44 481.545 94.008 481.729 94.504C481.913 94.992 482.169 95.376 482.497 95.656C482.825 95.928 483.201 96.064 483.625 96.064ZM488.624 97L494.588 88.6H495.836L489.836 97H488.624ZM494.564 97.192C494.196 97.192 493.868 97.104 493.58 96.928C493.292 96.752 493.068 96.512 492.908 96.208C492.748 95.904 492.668 95.56 492.668 95.176C492.668 94.776 492.748 94.428 492.908 94.132C493.068 93.828 493.292 93.592 493.58 93.424C493.868 93.248 494.196 93.16 494.564 93.16C494.932 93.16 495.256 93.248 495.536 93.424C495.824 93.592 496.048 93.828 496.208 94.132C496.368 94.428 496.448 94.776 496.448 95.176C496.448 95.56 496.368 95.904 496.208 96.208C496.048 96.512 495.824 96.752 495.536 96.928C495.256 97.104 494.932 97.192 494.564 97.192ZM494.564 96.34C494.852 96.34 495.084 96.232 495.26 96.016C495.444 95.792 495.536 95.512 495.536 95.176C495.536 94.84 495.444 94.56 495.26 94.336C495.084 94.112 494.852 94 494.564 94C494.276 94 494.04 94.112 493.856 94.336C493.672 94.56 493.58 94.84 493.58 95.176C493.58 95.512 493.672 95.792 493.856 96.016C494.04 96.232 494.276 96.34 494.564 96.34ZM489.92 92.44C489.552 92.44 489.224 92.356 488.936 92.188C488.656 92.012 488.436 91.772 488.276 91.468C488.116 91.156 488.036 90.808 488.036 90.424C488.036 90.024 488.116 89.676 488.276 89.38C488.436 89.076 488.656 88.84 488.936 88.672C489.224 88.496 489.552 88.408 489.92 88.408C490.296 88.408 490.624 88.496 490.904 88.672C491.192 88.84 491.416 89.076 491.576 89.38C491.736 89.676 491.816 90.024 491.816 90.424C491.816 90.808 491.736 91.156 491.576 91.468C491.416 91.772 491.192 92.012 490.904 92.188C490.624 92.356 490.296 92.44 489.92 92.44ZM489.92 91.588C490.208 91.588 490.444 91.48 490.628 91.264C490.812 91.04 490.904 90.76 490.904 90.424C490.904 90.088 490.812 89.812 490.628 89.596C490.444 89.372 490.208 89.26 489.92 89.26C489.64 89.26 489.408 89.372 489.224 89.596C489.04 89.812 488.948 90.088 488.948 90.424C488.948 90.76 489.04 91.04 489.224 91.264C489.408 91.48 489.64 91.588 489.92 91.588Z" fill="white"/>
<path d="M418.78 97.144C418.332 97.144 417.924 97.092 417.556 96.988C417.196 96.884 416.88 96.744 416.608 96.568C416.344 96.384 416.124 96.18 415.948 95.956C415.772 95.732 415.648 95.496 415.576 95.248L416.716 94.876C416.836 95.204 417.064 95.488 417.4 95.728C417.736 95.968 418.148 96.092 418.636 96.1C419.228 96.1 419.692 95.984 420.028 95.752C420.372 95.512 420.544 95.196 420.544 94.804C420.544 94.444 420.396 94.152 420.1 93.928C419.804 93.696 419.412 93.52 418.924 93.4L417.952 93.148C417.568 93.044 417.216 92.896 416.896 92.704C416.584 92.512 416.336 92.268 416.152 91.972C415.968 91.676 415.876 91.32 415.876 90.904C415.876 90.136 416.124 89.536 416.62 89.104C417.124 88.672 417.848 88.456 418.792 88.456C419.336 88.456 419.808 88.544 420.208 88.72C420.608 88.888 420.936 89.112 421.192 89.392C421.456 89.672 421.644 89.98 421.756 90.316L420.616 90.7C420.48 90.34 420.248 90.052 419.92 89.836C419.592 89.612 419.188 89.5 418.708 89.5C418.204 89.5 417.804 89.62 417.508 89.86C417.22 90.1 417.076 90.428 417.076 90.844C417.076 91.196 417.188 91.468 417.412 91.66C417.644 91.844 417.952 91.984 418.336 92.08L419.308 92.32C420.092 92.512 420.696 92.832 421.12 93.28C421.552 93.72 421.768 94.204 421.768 94.732C421.768 95.188 421.652 95.6 421.42 95.968C421.196 96.328 420.86 96.616 420.412 96.832C419.972 97.04 419.428 97.144 418.78 97.144ZM425.876 97.144C425.276 97.144 424.744 97.012 424.28 96.748C423.816 96.476 423.452 96.104 423.188 95.632C422.932 95.16 422.804 94.616 422.804 94C422.804 93.384 422.932 92.84 423.188 92.368C423.452 91.896 423.812 91.528 424.268 91.264C424.732 90.992 425.26 90.856 425.852 90.856C426.436 90.856 426.96 90.992 427.424 91.264C427.896 91.536 428.248 91.924 428.48 92.428L427.448 92.86C427.296 92.564 427.076 92.332 426.788 92.164C426.508 91.996 426.184 91.912 425.816 91.912C425.456 91.912 425.136 92 424.856 92.176C424.576 92.352 424.356 92.6 424.196 92.92C424.036 93.232 423.956 93.592 423.956 94C423.956 94.408 424.036 94.768 424.196 95.08C424.356 95.392 424.58 95.64 424.868 95.824C425.156 96 425.48 96.088 425.84 96.088C426.208 96.088 426.536 95.996 426.824 95.812C427.112 95.62 427.328 95.364 427.472 95.044L428.516 95.464C428.284 95.992 427.932 96.404 427.46 96.7C426.996 96.996 426.468 97.144 425.876 97.144ZM432.356 97.144C431.756 97.144 431.228 97.012 430.772 96.748C430.316 96.476 429.956 96.104 429.692 95.632C429.436 95.16 429.308 94.616 429.308 94C429.308 93.384 429.436 92.84 429.692 92.368C429.948 91.896 430.304 91.528 430.76 91.264C431.216 90.992 431.74 90.856 432.332 90.856C432.924 90.856 433.448 90.992 433.904 91.264C434.36 91.528 434.716 91.896 434.972 92.368C435.228 92.84 435.356 93.384 435.356 94C435.356 94.616 435.228 95.16 434.972 95.632C434.716 96.104 434.36 96.476 433.904 96.748C433.456 97.012 432.94 97.144 432.356 97.144ZM432.356 96.1C432.716 96.1 433.036 96.012 433.316 95.836C433.596 95.652 433.812 95.404 433.964 95.092C434.124 94.78 434.204 94.416 434.204 94C434.204 93.584 434.124 93.22 433.964 92.908C433.812 92.596 433.592 92.352 433.304 92.176C433.016 91.992 432.692 91.9 432.332 91.9C431.964 91.9 431.64 91.992 431.36 92.176C431.08 92.352 430.86 92.596 430.7 92.908C430.54 93.22 430.46 93.584 430.46 94C430.46 94.416 430.54 94.78 430.7 95.092C430.86 95.404 431.084 95.652 431.372 95.836C431.66 96.012 431.988 96.1 432.356 96.1ZM437.301 93.772C437.301 93.124 437.425 92.596 437.673 92.188C437.921 91.78 438.241 91.476 438.633 91.276C439.025 91.076 439.437 90.976 439.869 90.976V92.056C439.509 92.056 439.165 92.112 438.837 92.224C438.517 92.328 438.253 92.504 438.045 92.752C437.845 92.992 437.745 93.32 437.745 93.736L437.301 93.772ZM436.604 97V91H437.745V97H436.604ZM443.44 97.144C442.856 97.144 442.34 97.012 441.892 96.748C441.444 96.476 441.092 96.104 440.836 95.632C440.58 95.16 440.452 94.616 440.452 94C440.452 93.384 440.58 92.84 440.836 92.368C441.092 91.896 441.444 91.528 441.892 91.264C442.348 90.992 442.868 90.856 443.452 90.856C444.004 90.856 444.488 90.996 444.904 91.276C445.32 91.548 445.644 91.94 445.876 92.452C446.116 92.956 446.236 93.552 446.236 94.24H441.388L441.604 94.06C441.604 94.484 441.688 94.852 441.856 95.164C442.024 95.476 442.252 95.716 442.54 95.884C442.828 96.044 443.156 96.124 443.524 96.124C443.924 96.124 444.256 96.032 444.52 95.848C444.792 95.656 445.004 95.416 445.156 95.128L446.14 95.584C445.98 95.896 445.772 96.172 445.516 96.412C445.26 96.644 444.956 96.824 444.604 96.952C444.26 97.08 443.872 97.144 443.44 97.144ZM441.676 93.52L441.448 93.34H445.24L445.024 93.52C445.024 93.168 444.952 92.868 444.808 92.62C444.664 92.364 444.472 92.172 444.232 92.044C443.992 91.908 443.724 91.84 443.428 91.84C443.14 91.84 442.86 91.908 442.588 92.044C442.324 92.172 442.104 92.36 441.928 92.608C441.76 92.856 441.676 93.16 441.676 93.52Z" fill="#A4A4AD"/>
<path d="M108.804 101.144C108.34 101.144 107.928 101.096 107.568 101C107.208 100.896 106.896 100.756 106.632 100.58C106.368 100.396 106.152 100.196 105.984 99.98C105.816 99.756 105.692 99.52 105.612 99.272L106.584 98.936C106.704 99.288 106.944 99.596 107.304 99.86C107.672 100.116 108.12 100.244 108.648 100.244C109.296 100.244 109.804 100.116 110.172 99.86C110.54 99.604 110.724 99.264 110.724 98.84C110.724 98.448 110.56 98.132 110.232 97.892C109.904 97.644 109.472 97.452 108.936 97.316L108.012 97.076C107.636 96.98 107.288 96.84 106.968 96.656C106.656 96.464 106.404 96.224 106.212 95.936C106.028 95.64 105.936 95.288 105.936 94.88C105.936 94.12 106.18 93.528 106.668 93.104C107.164 92.672 107.876 92.456 108.804 92.456C109.356 92.456 109.832 92.548 110.232 92.732C110.632 92.908 110.956 93.136 111.204 93.416C111.46 93.688 111.64 93.984 111.744 94.304L110.784 94.64C110.632 94.24 110.376 93.928 110.016 93.704C109.656 93.472 109.22 93.356 108.708 93.356C108.172 93.356 107.744 93.488 107.424 93.752C107.112 94.008 106.956 94.36 106.956 94.808C106.956 95.192 107.08 95.488 107.328 95.696C107.576 95.896 107.9 96.044 108.3 96.14L109.224 96.368C110.04 96.56 110.664 96.88 111.096 97.328C111.536 97.768 111.756 98.244 111.756 98.756C111.756 99.196 111.644 99.6 111.42 99.968C111.196 100.328 110.864 100.616 110.424 100.832C109.992 101.04 109.452 101.144 108.804 101.144ZM115.839 101.144C115.255 101.144 114.739 101.012 114.291 100.748C113.843 100.476 113.491 100.104 113.235 99.632C112.987 99.16 112.863 98.616 112.863 98C112.863 97.384 112.987 96.84 113.235 96.368C113.491 95.896 113.839 95.528 114.279 95.264C114.727 94.992 115.239 94.856 115.815 94.856C116.375 94.856 116.859 94.996 117.267 95.276C117.675 95.548 117.991 95.932 118.215 96.428C118.439 96.924 118.551 97.508 118.551 98.18H113.595L113.835 97.976C113.835 98.456 113.919 98.868 114.087 99.212C114.263 99.556 114.507 99.82 114.819 100.004C115.131 100.18 115.487 100.268 115.887 100.268C116.311 100.268 116.667 100.168 116.955 99.968C117.251 99.768 117.479 99.504 117.639 99.176L118.467 99.596C118.315 99.908 118.111 100.18 117.855 100.412C117.607 100.644 117.311 100.824 116.967 100.952C116.631 101.08 116.255 101.144 115.839 101.144ZM113.895 97.568L113.643 97.376H117.783L117.531 97.58C117.531 97.196 117.455 96.864 117.303 96.584C117.151 96.304 116.947 96.088 116.691 95.936C116.435 95.784 116.139 95.708 115.803 95.708C115.475 95.708 115.163 95.784 114.867 95.936C114.579 96.088 114.343 96.304 114.159 96.584C113.983 96.856 113.895 97.184 113.895 97.568ZM122.162 103.544C121.778 103.544 121.426 103.504 121.106 103.424C120.794 103.352 120.526 103.268 120.302 103.172C120.086 103.084 119.93 103.008 119.834 102.944L120.194 102.164C120.298 102.22 120.446 102.288 120.638 102.368C120.83 102.456 121.054 102.528 121.31 102.584C121.574 102.648 121.854 102.68 122.15 102.68C122.534 102.68 122.878 102.6 123.182 102.44C123.494 102.288 123.734 102.044 123.902 101.708C124.078 101.38 124.166 100.956 124.166 100.436V95H125.126V100.424C125.126 101.112 124.998 101.688 124.742 102.152C124.486 102.616 124.134 102.964 123.686 103.196C123.238 103.428 122.73 103.544 122.162 103.544ZM122.126 100.952C121.59 100.952 121.118 100.824 120.71 100.568C120.302 100.312 119.982 99.956 119.75 99.5C119.526 99.036 119.414 98.508 119.414 97.916C119.414 97.308 119.526 96.776 119.75 96.32C119.982 95.856 120.302 95.496 120.71 95.24C121.118 94.984 121.59 94.856 122.126 94.856C122.63 94.856 123.07 94.984 123.446 95.24C123.822 95.496 124.114 95.856 124.322 96.32C124.538 96.776 124.646 97.308 124.646 97.916C124.646 98.516 124.538 99.044 124.322 99.5C124.114 99.956 123.822 100.312 123.446 100.568C123.07 100.824 122.63 100.952 122.126 100.952ZM122.354 100.124C122.706 100.124 123.018 100.028 123.29 99.836C123.562 99.644 123.774 99.384 123.926 99.056C124.078 98.72 124.154 98.332 124.154 97.892C124.154 97.468 124.074 97.092 123.914 96.764C123.762 96.428 123.55 96.168 123.278 95.984C123.014 95.792 122.702 95.696 122.342 95.696C121.966 95.696 121.63 95.792 121.334 95.984C121.046 96.168 120.818 96.428 120.65 96.764C120.49 97.092 120.41 97.468 120.41 97.892C120.41 98.332 120.494 98.72 120.662 99.056C120.83 99.384 121.058 99.644 121.346 99.836C121.642 100.028 121.978 100.124 122.354 100.124ZM126.805 101V95H127.705L127.753 95.84C127.937 95.52 128.173 95.276 128.461 95.108C128.749 94.94 129.085 94.856 129.469 94.856C129.949 94.856 130.357 94.968 130.693 95.192C131.037 95.416 131.285 95.756 131.437 96.212C131.605 95.772 131.849 95.436 132.169 95.204C132.497 94.972 132.885 94.856 133.333 94.856C134.005 94.856 134.533 95.08 134.917 95.528C135.309 95.976 135.501 96.656 135.493 97.568V101H134.533V97.928C134.533 97.336 134.469 96.884 134.341 96.572C134.221 96.26 134.057 96.048 133.849 95.936C133.641 95.816 133.401 95.756 133.129 95.756C132.657 95.756 132.289 95.944 132.025 96.32C131.761 96.688 131.629 97.212 131.629 97.892V101H130.669V97.928C130.669 97.336 130.605 96.884 130.477 96.572C130.357 96.26 130.189 96.048 129.973 95.936C129.765 95.816 129.525 95.756 129.253 95.756C128.789 95.756 128.425 95.944 128.161 96.32C127.897 96.688 127.765 97.212 127.765 97.892V101H126.805ZM139.64 101.144C139.056 101.144 138.54 101.012 138.092 100.748C137.644 100.476 137.292 100.104 137.036 99.632C136.788 99.16 136.664 98.616 136.664 98C136.664 97.384 136.788 96.84 137.036 96.368C137.292 95.896 137.64 95.528 138.08 95.264C138.528 94.992 139.04 94.856 139.616 94.856C140.176 94.856 140.66 94.996 141.068 95.276C141.476 95.548 141.792 95.932 142.016 96.428C142.24 96.924 142.352 97.508 142.352 98.18H137.396L137.636 97.976C137.636 98.456 137.72 98.868 137.888 99.212C138.064 99.556 138.308 99.82 138.62 100.004C138.932 100.18 139.288 100.268 139.688 100.268C140.112 100.268 140.468 100.168 140.756 99.968C141.052 99.768 141.28 99.504 141.44 99.176L142.268 99.596C142.116 99.908 141.912 100.18 141.656 100.412C141.408 100.644 141.112 100.824 140.768 100.952C140.432 101.08 140.056 101.144 139.64 101.144ZM137.696 97.568L137.444 97.376H141.584L141.332 97.58C141.332 97.196 141.256 96.864 141.104 96.584C140.952 96.304 140.748 96.088 140.492 95.936C140.236 95.784 139.94 95.708 139.604 95.708C139.276 95.708 138.964 95.784 138.668 95.936C138.38 96.088 138.144 96.304 137.96 96.584C137.784 96.856 137.696 97.184 137.696 97.568ZM143.563 101V95H144.463L144.523 96.104V101H143.563ZM147.775 101V97.928H148.735V101H147.775ZM147.775 97.928C147.775 97.336 147.707 96.884 147.571 96.572C147.435 96.26 147.247 96.048 147.007 95.936C146.767 95.816 146.495 95.756 146.191 95.756C145.663 95.756 145.251 95.944 144.955 96.32C144.667 96.688 144.523 97.212 144.523 97.892H144.055C144.055 97.26 144.147 96.716 144.331 96.26C144.515 95.804 144.783 95.456 145.135 95.216C145.487 94.976 145.911 94.856 146.407 94.856C146.879 94.856 147.287 94.952 147.631 95.144C147.983 95.328 148.255 95.624 148.447 96.032C148.647 96.44 148.743 96.976 148.735 97.64V97.928H147.775ZM152.51 101.144C151.926 101.144 151.474 100.992 151.154 100.688C150.834 100.384 150.674 99.956 150.674 99.404V93.128H151.634V99.308C151.634 99.612 151.714 99.848 151.874 100.016C152.042 100.176 152.274 100.256 152.57 100.256C152.666 100.256 152.758 100.244 152.846 100.22C152.942 100.188 153.066 100.116 153.218 100.004L153.59 100.784C153.382 100.92 153.194 101.012 153.026 101.06C152.858 101.116 152.686 101.144 152.51 101.144ZM149.63 95.852V95H153.434V95.852H149.63ZM159.518 101V93.14L159.602 92.6H160.514V101H159.518ZM157.634 94.76V93.836C157.802 93.844 158.002 93.788 158.234 93.668C158.466 93.548 158.706 93.392 158.954 93.2C159.202 93.008 159.418 92.808 159.602 92.6L160.226 93.284C159.962 93.564 159.686 93.816 159.398 94.04C159.11 94.264 158.818 94.444 158.522 94.58C158.226 94.708 157.93 94.768 157.634 94.76ZM163.383 96.308C163.199 96.308 163.039 96.244 162.903 96.116C162.775 95.988 162.711 95.832 162.711 95.648C162.711 95.464 162.775 95.308 162.903 95.18C163.039 95.044 163.199 94.976 163.383 94.976C163.559 94.976 163.711 95.044 163.839 95.18C163.975 95.308 164.043 95.464 164.043 95.648C164.043 95.832 163.975 95.988 163.839 96.116C163.711 96.244 163.559 96.308 163.383 96.308ZM163.395 101.024C163.211 101.024 163.055 100.96 162.927 100.832C162.799 100.696 162.735 100.536 162.735 100.352C162.735 100.168 162.799 100.012 162.927 99.884C163.055 99.756 163.211 99.692 163.395 99.692C163.579 99.692 163.735 99.756 163.863 99.884C163.999 100.012 164.067 100.168 164.067 100.352C164.067 100.536 163.999 100.696 163.863 100.832C163.735 100.96 163.579 101.024 163.395 101.024ZM168.987 101V92.6H170.007V100.076H173.967V101H168.987ZM177.597 101.144C177.013 101.144 176.493 101.012 176.037 100.748C175.589 100.476 175.237 100.104 174.981 99.632C174.725 99.16 174.597 98.616 174.597 98C174.597 97.384 174.721 96.84 174.969 96.368C175.225 95.896 175.577 95.528 176.025 95.264C176.481 94.992 176.997 94.856 177.573 94.856C178.165 94.856 178.685 94.992 179.133 95.264C179.589 95.528 179.941 95.896 180.189 96.368C180.445 96.84 180.573 97.384 180.573 98C180.573 98.616 180.445 99.16 180.189 99.632C179.941 100.104 179.593 100.476 179.145 100.748C178.697 101.012 178.181 101.144 177.597 101.144ZM177.597 100.256C177.997 100.256 178.345 100.16 178.641 99.968C178.937 99.776 179.169 99.512 179.337 99.176C179.513 98.84 179.601 98.448 179.601 98C179.601 97.552 179.513 97.16 179.337 96.824C179.169 96.488 178.933 96.224 178.629 96.032C178.325 95.84 177.973 95.744 177.573 95.744C177.181 95.744 176.833 95.84 176.529 96.032C176.233 96.224 175.997 96.488 175.821 96.824C175.653 97.16 175.569 97.552 175.569 98C175.569 98.44 175.653 98.832 175.821 99.176C175.997 99.512 176.237 99.776 176.541 99.968C176.853 100.16 177.205 100.256 177.597 100.256ZM187.202 101L189.23 95H190.202L188.162 101H187.202ZM183.122 101L185.15 95H186.05L184.046 101H183.122ZM183.074 101L181.034 95H182.006L184.01 101H183.074ZM187.202 101L185.198 95H186.11L188.114 101H187.202ZM194.657 97.748C194.657 97.1 194.781 96.576 195.029 96.176C195.277 95.768 195.593 95.468 195.977 95.276C196.369 95.076 196.781 94.976 197.213 94.976V95.876C196.861 95.876 196.521 95.936 196.193 96.056C195.873 96.168 195.609 96.356 195.401 96.62C195.193 96.884 195.089 97.244 195.089 97.7L194.657 97.748ZM194.129 101V95H195.089V101H194.129ZM198.244 101V95H199.204V101H198.244ZM198.736 93.608C198.576 93.608 198.436 93.548 198.316 93.428C198.196 93.308 198.136 93.168 198.136 93.008C198.136 92.84 198.196 92.7 198.316 92.588C198.436 92.468 198.576 92.408 198.736 92.408C198.904 92.408 199.044 92.468 199.156 92.588C199.276 92.7 199.336 92.84 199.336 93.008C199.336 93.168 199.276 93.308 199.156 93.428C199.044 93.548 198.904 93.608 198.736 93.608ZM203.073 101.144C202.633 101.144 202.249 101.08 201.921 100.952C201.593 100.816 201.317 100.64 201.093 100.424C200.877 100.208 200.721 99.972 200.625 99.716L201.465 99.368C201.601 99.64 201.805 99.86 202.077 100.028C202.349 100.196 202.649 100.28 202.977 100.28C203.353 100.28 203.669 100.208 203.925 100.064C204.181 99.912 204.309 99.7 204.309 99.428C204.309 99.18 204.213 98.98 204.021 98.828C203.837 98.676 203.561 98.552 203.193 98.456L202.617 98.3C202.073 98.156 201.649 97.94 201.345 97.652C201.041 97.356 200.889 97.024 200.889 96.656C200.889 96.088 201.073 95.648 201.441 95.336C201.817 95.016 202.373 94.856 203.109 94.856C203.461 94.856 203.781 94.908 204.069 95.012C204.357 95.116 204.605 95.264 204.813 95.456C205.021 95.64 205.173 95.86 205.269 96.116L204.429 96.488C204.325 96.216 204.153 96.02 203.913 95.9C203.673 95.78 203.381 95.72 203.037 95.72C202.669 95.72 202.381 95.8 202.173 95.96C201.965 96.112 201.861 96.328 201.861 96.608C201.861 96.768 201.945 96.92 202.113 97.064C202.289 97.2 202.545 97.312 202.881 97.4L203.481 97.556C203.873 97.652 204.201 97.796 204.465 97.988C204.729 98.172 204.929 98.384 205.065 98.624C205.201 98.864 205.269 99.12 205.269 99.392C205.269 99.752 205.173 100.064 204.981 100.328C204.789 100.592 204.529 100.796 204.201 100.94C203.873 101.076 203.497 101.144 203.073 101.144ZM207.499 99.068L206.887 98.408L210.079 95H211.291L207.499 99.068ZM206.563 101V92.6H207.523V101H206.563ZM210.343 101L208.063 97.556L208.687 96.884L211.531 101H210.343ZM218.028 101.144C217.436 101.144 216.912 101.012 216.456 100.748C216 100.476 215.644 100.104 215.388 99.632C215.132 99.16 215.004 98.616 215.004 98C215.004 97.384 215.128 96.84 215.376 96.368C215.632 95.896 215.988 95.528 216.444 95.264C216.9 94.992 217.42 94.856 218.004 94.856C218.58 94.856 219.096 94.988 219.552 95.252C220.008 95.516 220.356 95.888 220.596 96.368L219.72 96.764C219.56 96.444 219.328 96.196 219.024 96.02C218.72 95.836 218.372 95.744 217.98 95.744C217.588 95.744 217.24 95.84 216.936 96.032C216.64 96.224 216.404 96.492 216.228 96.836C216.06 97.172 215.976 97.56 215.976 98C215.976 98.44 216.06 98.832 216.228 99.176C216.404 99.512 216.644 99.776 216.948 99.968C217.26 100.16 217.612 100.256 218.004 100.256C218.396 100.256 218.744 100.156 219.048 99.956C219.36 99.756 219.596 99.476 219.756 99.116L220.632 99.512C220.392 100.024 220.044 100.424 219.588 100.712C219.132 101 218.612 101.144 218.028 101.144ZM224.496 101.144C223.912 101.144 223.392 101.012 222.936 100.748C222.488 100.476 222.136 100.104 221.88 99.632C221.624 99.16 221.496 98.616 221.496 98C221.496 97.384 221.62 96.84 221.868 96.368C222.124 95.896 222.476 95.528 222.924 95.264C223.38 94.992 223.896 94.856 224.472 94.856C225.064 94.856 225.584 94.992 226.032 95.264C226.488 95.528 226.84 95.896 227.088 96.368C227.344 96.84 227.472 97.384 227.472 98C227.472 98.616 227.344 99.16 227.088 99.632C226.84 100.104 226.492 100.476 226.044 100.748C225.596 101.012 225.08 101.144 224.496 101.144ZM224.496 100.256C224.896 100.256 225.244 100.16 225.54 99.968C225.836 99.776 226.068 99.512 226.236 99.176C226.412 98.84 226.5 98.448 226.5 98C226.5 97.552 226.412 97.16 226.236 96.824C226.068 96.488 225.832 96.224 225.528 96.032C225.224 95.84 224.872 95.744 224.472 95.744C224.08 95.744 223.732 95.84 223.428 96.032C223.132 96.224 222.896 96.488 222.72 96.824C222.552 97.16 222.468 97.552 222.468 98C222.468 98.44 222.552 98.832 222.72 99.176C222.896 99.512 223.136 99.776 223.44 99.968C223.752 100.16 224.104 100.256 224.496 100.256ZM232.921 101L232.861 99.896V95H233.821V101H232.921ZM228.649 98.072V95H229.609V98.072H228.649ZM229.609 98.072C229.609 98.664 229.677 99.116 229.813 99.428C229.949 99.74 230.137 99.956 230.377 100.076C230.625 100.188 230.901 100.244 231.205 100.244C231.725 100.244 232.129 100.056 232.417 99.68C232.713 99.304 232.861 98.78 232.861 98.108H233.329C233.329 98.74 233.237 99.284 233.053 99.74C232.869 100.196 232.601 100.544 232.249 100.784C231.905 101.024 231.481 101.144 230.977 101.144C230.513 101.144 230.105 101.052 229.753 100.868C229.401 100.676 229.129 100.376 228.937 99.968C228.745 99.552 228.649 99.016 228.649 98.36V98.072H229.609ZM235.496 101V95H236.396L236.456 96.104V101H235.496ZM239.708 101V97.928H240.668V101H239.708ZM239.708 97.928C239.708 97.336 239.64 96.884 239.504 96.572C239.368 96.26 239.18 96.048 238.94 95.936C238.7 95.816 238.428 95.756 238.124 95.756C237.596 95.756 237.184 95.944 236.888 96.32C236.6 96.688 236.456 97.212 236.456 97.892H235.988C235.988 97.26 236.08 96.716 236.264 96.26C236.448 95.804 236.716 95.456 237.068 95.216C237.42 94.976 237.844 94.856 238.34 94.856C238.812 94.856 239.22 94.952 239.564 95.144C239.916 95.328 240.188 95.624 240.38 96.032C240.58 96.44 240.676 96.976 240.668 97.64V97.928H239.708ZM244.444 101.144C243.86 101.144 243.408 100.992 243.088 100.688C242.768 100.384 242.608 99.956 242.608 99.404V93.128H243.568V99.308C243.568 99.612 243.648 99.848 243.808 100.016C243.976 100.176 244.208 100.256 244.504 100.256C244.6 100.256 244.692 100.244 244.78 100.22C244.876 100.188 245 100.116 245.152 100.004L245.524 100.784C245.316 100.92 245.128 101.012 244.96 101.06C244.792 101.116 244.62 101.144 244.444 101.144ZM241.564 95.852V95H245.368V95.852H241.564ZM247.251 97.748C247.251 97.1 247.375 96.576 247.623 96.176C247.871 95.768 248.187 95.468 248.571 95.276C248.963 95.076 249.375 94.976 249.807 94.976V95.876C249.455 95.876 249.115 95.936 248.787 96.056C248.467 96.168 248.203 96.356 247.995 96.62C247.787 96.884 247.683 97.244 247.683 97.7L247.251 97.748ZM246.723 101V95H247.683V101H246.723ZM250.838 101V95H251.798V101H250.838ZM251.33 93.608C251.17 93.608 251.03 93.548 250.91 93.428C250.789 93.308 250.729 93.168 250.729 93.008C250.729 92.84 250.789 92.7 250.91 92.588C251.03 92.468 251.17 92.408 251.33 92.408C251.498 92.408 251.638 92.468 251.75 92.588C251.87 92.7 251.93 92.84 251.93 93.008C251.93 93.168 251.87 93.308 251.75 93.428C251.638 93.548 251.498 93.608 251.33 93.608ZM256.195 101.144C255.611 101.144 255.095 101.012 254.647 100.748C254.199 100.476 253.847 100.104 253.591 99.632C253.343 99.16 253.219 98.616 253.219 98C253.219 97.384 253.343 96.84 253.591 96.368C253.847 95.896 254.195 95.528 254.635 95.264C255.083 94.992 255.595 94.856 256.171 94.856C256.731 94.856 257.215 94.996 257.623 95.276C258.031 95.548 258.347 95.932 258.571 96.428C258.795 96.924 258.907 97.508 258.907 98.18H253.951L254.191 97.976C254.191 98.456 254.275 98.868 254.443 99.212C254.619 99.556 254.863 99.82 255.175 100.004C255.487 100.18 255.843 100.268 256.243 100.268C256.667 100.268 257.023 100.168 257.311 99.968C257.607 99.768 257.835 99.504 257.995 99.176L258.823 99.596C258.671 99.908 258.467 100.18 258.211 100.412C257.963 100.644 257.667 100.824 257.323 100.952C256.987 101.08 256.611 101.144 256.195 101.144ZM254.251 97.568L253.999 97.376H258.139L257.887 97.58C257.887 97.196 257.811 96.864 257.659 96.584C257.507 96.304 257.303 96.088 257.047 95.936C256.791 95.784 256.495 95.708 256.159 95.708C255.831 95.708 255.519 95.784 255.223 95.936C254.935 96.088 254.699 96.304 254.515 96.584C254.339 96.856 254.251 97.184 254.251 97.568ZM262.217 101.144C261.777 101.144 261.393 101.08 261.065 100.952C260.737 100.816 260.461 100.64 260.237 100.424C260.021 100.208 259.865 99.972 259.769 99.716L260.609 99.368C260.745 99.64 260.949 99.86 261.221 100.028C261.493 100.196 261.793 100.28 262.121 100.28C262.497 100.28 262.813 100.208 263.069 100.064C263.325 99.912 263.453 99.7 263.453 99.428C263.453 99.18 263.357 98.98 263.165 98.828C262.981 98.676 262.705 98.552 262.337 98.456L261.761 98.3C261.217 98.156 260.793 97.94 260.489 97.652C260.185 97.356 260.033 97.024 260.033 96.656C260.033 96.088 260.217 95.648 260.585 95.336C260.961 95.016 261.517 94.856 262.253 94.856C262.605 94.856 262.925 94.908 263.213 95.012C263.501 95.116 263.749 95.264 263.957 95.456C264.165 95.64 264.317 95.86 264.413 96.116L263.573 96.488C263.469 96.216 263.297 96.02 263.057 95.9C262.817 95.78 262.525 95.72 262.181 95.72C261.813 95.72 261.525 95.8 261.317 95.96C261.109 96.112 261.005 96.328 261.005 96.608C261.005 96.768 261.089 96.92 261.257 97.064C261.433 97.2 261.689 97.312 262.025 97.4L262.625 97.556C263.017 97.652 263.345 97.796 263.609 97.988C263.873 98.172 264.073 98.384 264.209 98.624C264.345 98.864 264.413 99.12 264.413 99.392C264.413 99.752 264.317 100.064 264.125 100.328C263.933 100.592 263.673 100.796 263.345 100.94C263.017 101.076 262.641 101.144 262.217 101.144Z" fill="#A4A4AD"/>
</g>
<defs>
<clipPath id="clip0_1169_647">
<rect width="650" height="264" rx="24" fill="white"/>
</clipPath>
</defs>
</svg>
