<svg width="650" height="264" viewBox="0 0 650 264" fill="none" xmlns="http://www.w3.org/2000/svg">
<rect width="650" height="264" rx="24" fill="#1A1A1E"/>
<path d="M325 93L325 184" stroke="#37373D" stroke-linecap="round" stroke-dasharray="2 2"/>
<path d="M470.5 168.925V152.175C470.5 139.048 459.953 128.356 446.828 128.177L358.172 126.967C345.047 126.787 334.5 116.096 334.5 102.969L334.5 85.5684" stroke="#37373D" stroke-linecap="round" stroke-dasharray="2 2"/>
<path d="M183.5 166V149C183.5 135.745 194.245 125 207.5 125H292.5C305.755 125 316.5 114.255 316.5 101V97" stroke="#37373D" stroke-linecap="round" stroke-dasharray="2 2"/>
<rect x="157.5" y="164.5" width="49" height="49" rx="11.5" fill="#1A1A1E" stroke="#37373D"/>
<path d="M175.333 191.5C175.333 191.5 176.167 190.667 178.667 190.667C181.167 190.667 182.833 192.333 185.333 192.333C187.833 192.333 188.667 191.5 188.667 191.5V182.333C188.667 182.333 187.833 183.167 185.333 183.167C182.833 183.167 181.167 181.5 178.667 181.5C176.167 181.5 175.333 182.333 175.333 182.333M175.333 197.333L175.333 180.667" stroke="#A4A4AD" stroke-linecap="round" stroke-linejoin="round"/>
<rect x="300.5" y="164.5" width="49" height="49" rx="11.5" fill="#1A1A1E" stroke="#37373D"/>
<path d="M321.4 189.6L324.6 192.8M324.6 192.8L327.8 189.6M324.6 192.8V186.4M332.6 189.6C332.6 194.018 329.018 197.6 324.6 197.6C320.182 197.6 316.6 194.018 316.6 189.6C316.6 185.182 320.182 181.6 324.6 181.6C329.018 181.6 332.6 185.182 332.6 189.6Z" stroke="#A4A4AD" stroke-linecap="round" stroke-linejoin="round"/>
<rect x="443.5" y="164.5" width="49" height="49" rx="11.5" fill="#1A1A1E" stroke="#37373D"/>
<path d="M465.4 188.6L468.6 191.8M468.6 191.8L471.8 188.6M468.6 191.8V185.4M476.6 188.6C476.6 193.018 473.018 196.6 468.6 196.6C464.182 196.6 460.6 193.018 460.6 188.6C460.6 184.182 464.182 180.6 468.6 180.6C473.018 180.6 476.6 184.182 476.6 188.6Z" stroke="#A4A4AD" stroke-linecap="round" stroke-linejoin="round"/>
<rect x="227.5" y="49.5" width="195" height="55" rx="11.5" fill="#1A1A1E" stroke="#37373D"/>
<rect x="238" y="63" width="27" height="27" rx="8" fill="#EF86A0"/>
<path d="M247.333 78.9167V78.8C247.333 77.8199 247.333 77.3299 247.524 76.9555C247.692 76.6262 247.96 76.3585 248.289 76.1907C248.663 76 249.153 76 250.133 76H253.867C254.847 76 255.337 76 255.711 76.1907C256.04 76.3585 256.308 76.6262 256.476 76.9555C256.667 77.3299 256.667 77.8199 256.667 78.8V78.9167M247.333 78.9167C246.689 78.9167 246.167 79.439 246.167 80.0833C246.167 80.7277 246.689 81.25 247.333 81.25C247.978 81.25 248.5 80.7277 248.5 80.0833C248.5 79.439 247.978 78.9167 247.333 78.9167ZM256.667 78.9167C256.022 78.9167 255.5 79.439 255.5 80.0833C255.5 80.7277 256.022 81.25 256.667 81.25C257.311 81.25 257.833 80.7277 257.833 80.0833C257.833 79.439 257.311 78.9167 256.667 78.9167ZM252 73.0833L252 78.9167M252 73.0833C251.356 73.0833 250.833 72.561 250.833 71.9167C250.833 71.2723 251.356 70.75 252 70.75C252.644 70.75 253.167 71.2723 253.167 71.9167C253.167 72.561 252.644 73.0833 252 73.0833ZM252 78.9167C251.356 78.9167 250.833 79.439 250.833 80.0833C250.833 80.7277 251.356 81.25 252 81.25C252.644 81.25 253.167 80.7277 253.167 80.0833C253.167 79.439 252.644 78.9167 252 78.9167Z" stroke="white" stroke-linecap="round" stroke-linejoin="round"/>
<path d="M285.116 72V63.6H286.136V72H285.116ZM288.098 72V66H288.998L289.058 67.104V72H288.098ZM292.31 72V68.928H293.27V72H292.31ZM292.31 68.928C292.31 68.336 292.242 67.884 292.106 67.572C291.97 67.26 291.782 67.048 291.542 66.936C291.302 66.816 291.03 66.756 290.726 66.756C290.198 66.756 289.786 66.944 289.49 67.32C289.202 67.688 289.058 68.212 289.058 68.892H288.59C288.59 68.26 288.682 67.716 288.866 67.26C289.05 66.804 289.318 66.456 289.67 66.216C290.022 65.976 290.446 65.856 290.942 65.856C291.414 65.856 291.822 65.952 292.166 66.144C292.518 66.328 292.79 66.624 292.982 67.032C293.182 67.44 293.278 67.976 293.27 68.64V68.928H292.31ZM299.229 72L299.181 70.884V63.6H300.141V72H299.229ZM297.153 72.144C296.617 72.144 296.145 72.012 295.737 71.748C295.329 71.484 295.009 71.116 294.777 70.644C294.553 70.164 294.441 69.616 294.441 69C294.441 68.376 294.553 67.828 294.777 67.356C295.009 66.884 295.329 66.516 295.737 66.252C296.145 65.988 296.617 65.856 297.153 65.856C297.657 65.856 298.097 65.988 298.473 66.252C298.857 66.516 299.153 66.884 299.361 67.356C299.569 67.828 299.673 68.376 299.673 69C299.673 69.616 299.569 70.164 299.361 70.644C299.153 71.116 298.857 71.484 298.473 71.748C298.097 72.012 297.657 72.144 297.153 72.144ZM297.369 71.268C297.721 71.268 298.033 71.172 298.305 70.98C298.577 70.788 298.789 70.52 298.941 70.176C299.101 69.832 299.181 69.44 299.181 69C299.181 68.56 299.101 68.168 298.941 67.824C298.789 67.48 298.577 67.212 298.305 67.02C298.033 66.828 297.717 66.732 297.357 66.732C296.981 66.732 296.645 66.828 296.349 67.02C296.061 67.212 295.833 67.48 295.665 67.824C295.497 68.168 295.413 68.56 295.413 69C295.413 69.44 295.497 69.832 295.665 70.176C295.833 70.52 296.065 70.788 296.361 70.98C296.657 71.172 296.993 71.268 297.369 71.268ZM305.936 72L305.876 70.896V66H306.836V72H305.936ZM301.664 69.072V66H302.624V69.072H301.664ZM302.624 69.072C302.624 69.664 302.692 70.116 302.828 70.428C302.964 70.74 303.152 70.956 303.392 71.076C303.64 71.188 303.916 71.244 304.22 71.244C304.74 71.244 305.144 71.056 305.432 70.68C305.728 70.304 305.876 69.78 305.876 69.108H306.344C306.344 69.74 306.252 70.284 306.068 70.74C305.884 71.196 305.616 71.544 305.264 71.784C304.92 72.024 304.496 72.144 303.992 72.144C303.528 72.144 303.12 72.052 302.768 71.868C302.416 71.676 302.144 71.376 301.952 70.968C301.76 70.552 301.664 70.016 301.664 69.36V69.072H302.624ZM310.612 72.144C310.172 72.144 309.788 72.08 309.46 71.952C309.132 71.816 308.856 71.64 308.632 71.424C308.416 71.208 308.26 70.972 308.164 70.716L309.004 70.368C309.14 70.64 309.344 70.86 309.616 71.028C309.888 71.196 310.188 71.28 310.516 71.28C310.892 71.28 311.208 71.208 311.464 71.064C311.72 70.912 311.848 70.7 311.848 70.428C311.848 70.18 311.752 69.98 311.56 69.828C311.376 69.676 311.1 69.552 310.732 69.456L310.156 69.3C309.612 69.156 309.188 68.94 308.884 68.652C308.58 68.356 308.428 68.024 308.428 67.656C308.428 67.088 308.612 66.648 308.98 66.336C309.356 66.016 309.912 65.856 310.648 65.856C311 65.856 311.32 65.908 311.608 66.012C311.896 66.116 312.144 66.264 312.352 66.456C312.56 66.64 312.712 66.86 312.808 67.116L311.968 67.488C311.864 67.216 311.692 67.02 311.452 66.9C311.212 66.78 310.92 66.72 310.576 66.72C310.208 66.72 309.92 66.8 309.712 66.96C309.504 67.112 309.4 67.328 309.4 67.608C309.4 67.768 309.484 67.92 309.652 68.064C309.828 68.2 310.084 68.312 310.42 68.4L311.02 68.556C311.412 68.652 311.74 68.796 312.004 68.988C312.268 69.172 312.468 69.384 312.604 69.624C312.74 69.864 312.808 70.12 312.808 70.392C312.808 70.752 312.712 71.064 312.52 71.328C312.328 71.592 312.068 71.796 311.74 71.94C311.412 72.076 311.036 72.144 310.612 72.144ZM316.358 72.144C315.774 72.144 315.322 71.992 315.002 71.688C314.682 71.384 314.522 70.956 314.522 70.404V64.128H315.482V70.308C315.482 70.612 315.562 70.848 315.722 71.016C315.89 71.176 316.122 71.256 316.418 71.256C316.514 71.256 316.606 71.244 316.694 71.22C316.79 71.188 316.914 71.116 317.066 71.004L317.438 71.784C317.23 71.92 317.042 72.012 316.874 72.06C316.706 72.116 316.534 72.144 316.358 72.144ZM313.478 66.852V66H317.282V66.852H313.478ZM319.165 68.748C319.165 68.1 319.289 67.576 319.537 67.176C319.785 66.768 320.101 66.468 320.485 66.276C320.877 66.076 321.289 65.976 321.721 65.976V66.876C321.369 66.876 321.029 66.936 320.701 67.056C320.381 67.168 320.117 67.356 319.909 67.62C319.701 67.884 319.597 68.244 319.597 68.7L319.165 68.748ZM318.637 72V66H319.597V72H318.637ZM323.232 74.544C323.08 74.544 322.904 74.512 322.704 74.448C322.504 74.392 322.292 74.316 322.068 74.22L322.428 73.416C322.612 73.496 322.772 73.556 322.908 73.596C323.052 73.636 323.164 73.656 323.244 73.656C323.46 73.656 323.636 73.596 323.772 73.476C323.916 73.364 324.036 73.2 324.132 72.984L324.816 71.352L327.036 66H328.068L325.188 72.84C325.036 73.192 324.876 73.496 324.708 73.752C324.548 74.008 324.352 74.204 324.12 74.34C323.888 74.476 323.592 74.544 323.232 74.544ZM324.552 72L321.96 66H322.98L325.212 71.34L325.5 72H324.552ZM332.501 68.748C332.501 68.1 332.625 67.576 332.873 67.176C333.121 66.768 333.437 66.468 333.821 66.276C334.213 66.076 334.625 65.976 335.057 65.976V66.876C334.705 66.876 334.365 66.936 334.037 67.056C333.717 67.168 333.453 67.356 333.245 67.62C333.037 67.884 332.933 68.244 332.933 68.7L332.501 68.748ZM331.973 72V66H332.933V72H331.973ZM336.088 72V66H337.048V72H336.088ZM336.58 64.608C336.42 64.608 336.28 64.548 336.16 64.428C336.039 64.308 335.979 64.168 335.979 64.008C335.979 63.84 336.039 63.7 336.16 63.588C336.28 63.468 336.42 63.408 336.58 63.408C336.748 63.408 336.888 63.468 337 63.588C337.12 63.7 337.18 63.84 337.18 64.008C337.18 64.168 337.12 64.308 337 64.428C336.888 64.548 336.748 64.608 336.58 64.608ZM340.917 72.144C340.477 72.144 340.093 72.08 339.765 71.952C339.437 71.816 339.161 71.64 338.937 71.424C338.721 71.208 338.565 70.972 338.469 70.716L339.309 70.368C339.445 70.64 339.649 70.86 339.921 71.028C340.193 71.196 340.493 71.28 340.821 71.28C341.197 71.28 341.513 71.208 341.769 71.064C342.025 70.912 342.153 70.7 342.153 70.428C342.153 70.18 342.057 69.98 341.865 69.828C341.681 69.676 341.405 69.552 341.037 69.456L340.461 69.3C339.917 69.156 339.493 68.94 339.189 68.652C338.885 68.356 338.733 68.024 338.733 67.656C338.733 67.088 338.917 66.648 339.285 66.336C339.661 66.016 340.217 65.856 340.953 65.856C341.305 65.856 341.625 65.908 341.913 66.012C342.201 66.116 342.449 66.264 342.657 66.456C342.865 66.64 343.017 66.86 343.113 67.116L342.273 67.488C342.169 67.216 341.997 67.02 341.757 66.9C341.517 66.78 341.225 66.72 340.881 66.72C340.513 66.72 340.225 66.8 340.017 66.96C339.809 67.112 339.705 67.328 339.705 67.608C339.705 67.768 339.789 67.92 339.957 68.064C340.133 68.2 340.389 68.312 340.725 68.4L341.325 68.556C341.717 68.652 342.045 68.796 342.309 68.988C342.573 69.172 342.773 69.384 342.909 69.624C343.045 69.864 343.113 70.12 343.113 70.392C343.113 70.752 343.017 71.064 342.825 71.328C342.633 71.592 342.373 71.796 342.045 71.94C341.717 72.076 341.341 72.144 340.917 72.144ZM345.342 70.068L344.73 69.408L347.922 66H349.134L345.342 70.068ZM344.406 72V63.6H345.366V72H344.406ZM348.186 72L345.906 68.556L346.53 67.884L349.374 72H348.186ZM353.723 68.748C353.723 68.1 353.847 67.576 354.095 67.176C354.343 66.768 354.659 66.468 355.043 66.276C355.435 66.076 355.847 65.976 356.279 65.976V66.876C355.927 66.876 355.587 66.936 355.259 67.056C354.939 67.168 354.675 67.356 354.467 67.62C354.259 67.884 354.155 68.244 354.155 68.7L353.723 68.748ZM353.195 72V66H354.155V72H353.195ZM361.366 72L361.306 70.896V66H362.266V72H361.366ZM357.094 69.072V66H358.054V69.072H357.094ZM358.054 69.072C358.054 69.664 358.122 70.116 358.258 70.428C358.394 70.74 358.582 70.956 358.822 71.076C359.07 71.188 359.346 71.244 359.65 71.244C360.17 71.244 360.574 71.056 360.862 70.68C361.158 70.304 361.306 69.78 361.306 69.108H361.774C361.774 69.74 361.682 70.284 361.498 70.74C361.314 71.196 361.046 71.544 360.694 71.784C360.35 72.024 359.926 72.144 359.422 72.144C358.958 72.144 358.55 72.052 358.198 71.868C357.846 71.676 357.574 71.376 357.382 70.968C357.19 70.552 357.094 70.016 357.094 69.36V69.072H358.054ZM363.942 72V63.6H364.902V72H363.942ZM369.206 72.144C368.622 72.144 368.106 72.012 367.658 71.748C367.21 71.476 366.858 71.104 366.602 70.632C366.354 70.16 366.23 69.616 366.23 69C366.23 68.384 366.354 67.84 366.602 67.368C366.858 66.896 367.206 66.528 367.646 66.264C368.094 65.992 368.606 65.856 369.182 65.856C369.742 65.856 370.226 65.996 370.634 66.276C371.042 66.548 371.358 66.932 371.582 67.428C371.806 67.924 371.918 68.508 371.918 69.18H366.962L367.202 68.976C367.202 69.456 367.286 69.868 367.454 70.212C367.63 70.556 367.874 70.82 368.186 71.004C368.498 71.18 368.854 71.268 369.254 71.268C369.678 71.268 370.034 71.168 370.322 70.968C370.618 70.768 370.846 70.504 371.006 70.176L371.834 70.596C371.682 70.908 371.478 71.18 371.222 71.412C370.974 71.644 370.678 71.824 370.334 71.952C369.998 72.08 369.622 72.144 369.206 72.144ZM367.262 68.568L367.01 68.376H371.15L370.898 68.58C370.898 68.196 370.822 67.864 370.67 67.584C370.518 67.304 370.314 67.088 370.058 66.936C369.802 66.784 369.506 66.708 369.17 66.708C368.842 66.708 368.53 66.784 368.234 66.936C367.946 67.088 367.71 67.304 367.526 67.584C367.35 67.856 367.262 68.184 367.262 68.568ZM375.229 72.144C374.789 72.144 374.405 72.08 374.077 71.952C373.749 71.816 373.473 71.64 373.249 71.424C373.033 71.208 372.877 70.972 372.781 70.716L373.621 70.368C373.757 70.64 373.961 70.86 374.233 71.028C374.505 71.196 374.805 71.28 375.133 71.28C375.509 71.28 375.825 71.208 376.081 71.064C376.337 70.912 376.465 70.7 376.465 70.428C376.465 70.18 376.369 69.98 376.177 69.828C375.993 69.676 375.717 69.552 375.349 69.456L374.773 69.3C374.229 69.156 373.805 68.94 373.501 68.652C373.197 68.356 373.045 68.024 373.045 67.656C373.045 67.088 373.229 66.648 373.597 66.336C373.973 66.016 374.529 65.856 375.265 65.856C375.617 65.856 375.937 65.908 376.225 66.012C376.513 66.116 376.761 66.264 376.969 66.456C377.177 66.64 377.329 66.86 377.425 67.116L376.585 67.488C376.481 67.216 376.309 67.02 376.069 66.9C375.829 66.78 375.537 66.72 375.193 66.72C374.825 66.72 374.537 66.8 374.329 66.96C374.121 67.112 374.017 67.328 374.017 67.608C374.017 67.768 374.101 67.92 374.269 68.064C374.445 68.2 374.701 68.312 375.037 68.4L375.637 68.556C376.029 68.652 376.357 68.796 376.621 68.988C376.885 69.172 377.085 69.384 377.221 69.624C377.357 69.864 377.425 70.12 377.425 70.392C377.425 70.752 377.329 71.064 377.137 71.328C376.945 71.592 376.685 71.796 376.357 71.94C376.029 72.076 375.653 72.144 375.229 72.144Z" fill="white"/>
<path d="M285.023 90V82.3H287.531C288.03 82.3 288.47 82.399 288.851 82.597C289.24 82.795 289.54 83.07 289.753 83.422C289.973 83.774 290.083 84.1773 290.083 84.632C290.083 85.0867 289.966 85.49 289.731 85.842C289.496 86.194 289.177 86.4727 288.774 86.678C288.371 86.876 287.916 86.975 287.41 86.975H285.958V90H285.023ZM289.368 90L287.52 86.843L288.257 86.359L290.391 90H289.368ZM285.958 86.117H287.663C287.942 86.117 288.191 86.0547 288.411 85.93C288.631 85.798 288.807 85.622 288.939 85.402C289.078 85.1747 289.148 84.918 289.148 84.632C289.148 84.192 288.994 83.8363 288.686 83.565C288.385 83.2863 287.993 83.147 287.509 83.147H285.958V86.117ZM294.087 90.132C293.551 90.132 293.075 90.011 292.657 89.769C292.246 89.5197 291.923 89.1787 291.689 88.746C291.454 88.3133 291.337 87.8147 291.337 87.25C291.337 86.6853 291.45 86.1867 291.678 85.754C291.912 85.3213 292.235 84.984 292.646 84.742C293.064 84.4927 293.537 84.368 294.065 84.368C294.607 84.368 295.084 84.4927 295.495 84.742C295.913 84.984 296.235 85.3213 296.463 85.754C296.697 86.1867 296.815 86.6853 296.815 87.25C296.815 87.8147 296.697 88.3133 296.463 88.746C296.235 89.1787 295.916 89.5197 295.506 89.769C295.095 90.011 294.622 90.132 294.087 90.132ZM294.087 89.318C294.453 89.318 294.772 89.23 295.044 89.054C295.315 88.878 295.528 88.636 295.682 88.328C295.843 88.02 295.924 87.6607 295.924 87.25C295.924 86.8393 295.843 86.48 295.682 86.172C295.528 85.864 295.311 85.622 295.033 85.446C294.754 85.27 294.431 85.182 294.065 85.182C293.705 85.182 293.386 85.27 293.108 85.446C292.836 85.622 292.62 85.864 292.459 86.172C292.305 86.48 292.228 86.8393 292.228 87.25C292.228 87.6533 292.305 88.0127 292.459 88.328C292.62 88.636 292.84 88.878 293.119 89.054C293.405 89.23 293.727 89.318 294.087 89.318ZM301.81 90L301.755 88.988V84.5H302.635V90H301.81ZM297.894 87.316V84.5H298.774V87.316H297.894ZM298.774 87.316C298.774 87.8587 298.836 88.273 298.961 88.559C299.085 88.845 299.258 89.043 299.478 89.153C299.705 89.2557 299.958 89.307 300.237 89.307C300.713 89.307 301.084 89.1347 301.348 88.79C301.619 88.4453 301.755 87.965 301.755 87.349H302.184C302.184 87.9283 302.099 88.427 301.931 88.845C301.762 89.263 301.516 89.582 301.194 89.802C300.878 90.022 300.49 90.132 300.028 90.132C299.602 90.132 299.228 90.0477 298.906 89.879C298.583 89.703 298.334 89.428 298.158 89.054C297.982 88.6727 297.894 88.1813 297.894 87.58V87.316H298.774ZM306.238 90.132C305.703 90.132 305.289 89.9927 304.995 89.714C304.702 89.4353 304.555 89.043 304.555 88.537V82.784H305.435V88.449C305.435 88.7277 305.509 88.944 305.655 89.098C305.809 89.2447 306.022 89.318 306.293 89.318C306.381 89.318 306.466 89.307 306.546 89.285C306.634 89.2557 306.748 89.1897 306.887 89.087L307.228 89.802C307.038 89.9267 306.865 90.011 306.711 90.055C306.557 90.1063 306.4 90.132 306.238 90.132ZM303.598 85.281V84.5H307.085V85.281H303.598ZM308.383 90V84.5H309.263V90H308.383ZM308.834 83.224C308.687 83.224 308.559 83.169 308.449 83.059C308.339 82.949 308.284 82.8207 308.284 82.674C308.284 82.52 308.339 82.3917 308.449 82.289C308.559 82.179 308.687 82.124 308.834 82.124C308.988 82.124 309.116 82.179 309.219 82.289C309.329 82.3917 309.384 82.52 309.384 82.674C309.384 82.8207 309.329 82.949 309.219 83.059C309.116 83.169 308.988 83.224 308.834 83.224ZM310.884 90V84.5H311.709L311.764 85.512V90H310.884ZM314.745 90V87.184H315.625V90H314.745ZM314.745 87.184C314.745 86.6413 314.683 86.227 314.558 85.941C314.434 85.655 314.261 85.4607 314.041 85.358C313.821 85.248 313.572 85.193 313.293 85.193C312.809 85.193 312.432 85.3653 312.16 85.71C311.896 86.0473 311.764 86.5277 311.764 87.151H311.335C311.335 86.5717 311.42 86.073 311.588 85.655C311.757 85.237 312.003 84.918 312.325 84.698C312.648 84.478 313.037 84.368 313.491 84.368C313.924 84.368 314.298 84.456 314.613 84.632C314.936 84.8007 315.185 85.072 315.361 85.446C315.545 85.82 315.633 86.3113 315.625 86.92V87.184H314.745ZM319.218 92.332C318.866 92.332 318.543 92.2953 318.25 92.222C317.964 92.156 317.718 92.079 317.513 91.991C317.315 91.9103 317.172 91.8407 317.084 91.782L317.414 91.067C317.509 91.1183 317.645 91.1807 317.821 91.254C317.997 91.3347 318.202 91.4007 318.437 91.452C318.679 91.5107 318.936 91.54 319.207 91.54C319.559 91.54 319.874 91.4667 320.153 91.32C320.439 91.1807 320.659 90.957 320.813 90.649C320.974 90.3483 321.055 89.9597 321.055 89.483V84.5H321.935V89.472C321.935 90.1027 321.818 90.6307 321.583 91.056C321.348 91.4813 321.026 91.8003 320.615 92.013C320.204 92.2257 319.739 92.332 319.218 92.332ZM319.185 89.956C318.694 89.956 318.261 89.8387 317.887 89.604C317.513 89.3693 317.22 89.043 317.007 88.625C316.802 88.1997 316.699 87.7157 316.699 87.173C316.699 86.6157 316.802 86.128 317.007 85.71C317.22 85.2847 317.513 84.9547 317.887 84.72C318.261 84.4853 318.694 84.368 319.185 84.368C319.647 84.368 320.05 84.4853 320.395 84.72C320.74 84.9547 321.007 85.2847 321.198 85.71C321.396 86.128 321.495 86.6157 321.495 87.173C321.495 87.723 321.396 88.207 321.198 88.625C321.007 89.043 320.74 89.3693 320.395 89.604C320.05 89.8387 319.647 89.956 319.185 89.956ZM319.394 89.197C319.717 89.197 320.003 89.109 320.252 88.933C320.501 88.757 320.696 88.5187 320.835 88.218C320.974 87.91 321.044 87.5543 321.044 87.151C321.044 86.7623 320.971 86.4177 320.824 86.117C320.685 85.809 320.49 85.5707 320.241 85.402C319.999 85.226 319.713 85.138 319.383 85.138C319.038 85.138 318.73 85.226 318.459 85.402C318.195 85.5707 317.986 85.809 317.832 86.117C317.685 86.4177 317.612 86.7623 317.612 87.151C317.612 87.5543 317.689 87.91 317.843 88.218C317.997 88.5187 318.206 88.757 318.47 88.933C318.741 89.109 319.049 89.197 319.394 89.197ZM328.117 90.132C327.714 90.132 327.362 90.0733 327.061 89.956C326.76 89.8313 326.507 89.67 326.302 89.472C326.104 89.274 325.961 89.0577 325.873 88.823L326.643 88.504C326.768 88.7533 326.955 88.955 327.204 89.109C327.453 89.263 327.728 89.34 328.029 89.34C328.374 89.34 328.663 89.274 328.898 89.142C329.133 89.0027 329.25 88.8083 329.25 88.559C329.25 88.3317 329.162 88.1483 328.986 88.009C328.817 87.8697 328.564 87.756 328.227 87.668L327.699 87.525C327.2 87.393 326.812 87.195 326.533 86.931C326.254 86.6597 326.115 86.3553 326.115 86.018C326.115 85.4973 326.284 85.094 326.621 84.808C326.966 84.5147 327.475 84.368 328.15 84.368C328.473 84.368 328.766 84.4157 329.03 84.511C329.294 84.6063 329.521 84.742 329.712 84.918C329.903 85.0867 330.042 85.2883 330.13 85.523L329.36 85.864C329.265 85.6147 329.107 85.435 328.887 85.325C328.667 85.215 328.399 85.16 328.084 85.16C327.747 85.16 327.483 85.2333 327.292 85.38C327.101 85.5193 327.006 85.7173 327.006 85.974C327.006 86.1207 327.083 86.26 327.237 86.392C327.398 86.5167 327.633 86.6193 327.941 86.7L328.491 86.843C328.85 86.931 329.151 87.063 329.393 87.239C329.635 87.4077 329.818 87.602 329.943 87.822C330.068 88.042 330.13 88.2767 330.13 88.526C330.13 88.856 330.042 89.142 329.866 89.384C329.69 89.626 329.452 89.813 329.151 89.945C328.85 90.0697 328.506 90.132 328.117 90.132ZM333.384 90.132C332.849 90.132 332.434 89.9927 332.141 89.714C331.848 89.4353 331.701 89.043 331.701 88.537V82.784H332.581V88.449C332.581 88.7277 332.654 88.944 332.801 89.098C332.955 89.2447 333.168 89.318 333.439 89.318C333.527 89.318 333.611 89.307 333.692 89.285C333.78 89.2557 333.894 89.1897 334.033 89.087L334.374 89.802C334.183 89.9267 334.011 90.011 333.857 90.055C333.703 90.1063 333.545 90.132 333.384 90.132ZM330.744 85.281V84.5H334.231V85.281H330.744ZM337.85 90.132C337.315 90.132 336.842 90.011 336.431 89.769C336.02 89.5197 335.698 89.1787 335.463 88.746C335.236 88.3133 335.122 87.8147 335.122 87.25C335.122 86.6853 335.236 86.1867 335.463 85.754C335.698 85.3213 336.017 84.984 336.42 84.742C336.831 84.4927 337.3 84.368 337.828 84.368C338.341 84.368 338.785 84.4963 339.159 84.753C339.533 85.0023 339.823 85.3543 340.028 85.809C340.233 86.2637 340.336 86.799 340.336 87.415H335.793L336.013 87.228C336.013 87.668 336.09 88.0457 336.244 88.361C336.405 88.6763 336.629 88.9183 336.915 89.087C337.201 89.2483 337.527 89.329 337.894 89.329C338.283 89.329 338.609 89.2373 338.873 89.054C339.144 88.8707 339.353 88.6287 339.5 88.328L340.259 88.713C340.12 88.999 339.933 89.2483 339.698 89.461C339.471 89.6737 339.199 89.8387 338.884 89.956C338.576 90.0733 338.231 90.132 337.85 90.132ZM336.068 86.854L335.837 86.678H339.632L339.401 86.865C339.401 86.513 339.331 86.2087 339.192 85.952C339.053 85.6953 338.866 85.4973 338.631 85.358C338.396 85.2187 338.125 85.149 337.817 85.149C337.516 85.149 337.23 85.2187 336.959 85.358C336.695 85.4973 336.479 85.6953 336.31 85.952C336.149 86.2013 336.068 86.502 336.068 86.854ZM341.501 92.2V84.5H342.326L342.381 85.512V92.2H341.501ZM344.24 90.132C343.778 90.132 343.371 90.011 343.019 89.769C342.674 89.527 342.406 89.1897 342.216 88.757C342.025 88.317 341.93 87.8147 341.93 87.25C341.93 86.678 342.025 86.1757 342.216 85.743C342.406 85.3103 342.674 84.973 343.019 84.731C343.371 84.489 343.778 84.368 344.24 84.368C344.731 84.368 345.164 84.489 345.538 84.731C345.912 84.973 346.201 85.3103 346.407 85.743C346.619 86.1757 346.726 86.678 346.726 87.25C346.726 87.8147 346.619 88.317 346.407 88.757C346.201 89.1897 345.912 89.527 345.538 89.769C345.164 90.011 344.731 90.132 344.24 90.132ZM344.042 89.329C344.386 89.329 344.691 89.241 344.955 89.065C345.226 88.889 345.439 88.6433 345.593 88.328C345.754 88.0127 345.835 87.6533 345.835 87.25C345.835 86.8467 345.758 86.4873 345.604 86.172C345.457 85.8567 345.248 85.611 344.977 85.435C344.705 85.259 344.397 85.171 344.053 85.171C343.73 85.171 343.44 85.259 343.184 85.435C342.934 85.611 342.736 85.8567 342.59 86.172C342.45 86.4873 342.381 86.8467 342.381 87.25C342.381 87.6533 342.45 88.0127 342.59 88.328C342.736 88.6433 342.934 88.889 343.184 89.065C343.433 89.241 343.719 89.329 344.042 89.329Z" fill="#A4A4AD"/>
<rect x="305.5" y="138.5" width="39" height="17" rx="8.5" fill="#37373D" stroke="#37373D"/>
<path d="M316.594 150V145.5H317.395L317.431 146.121C317.575 145.881 317.755 145.701 317.971 145.581C318.187 145.455 318.436 145.392 318.718 145.392C319.078 145.392 319.384 145.476 319.636 145.644C319.888 145.806 320.071 146.055 320.185 146.391C320.317 146.067 320.503 145.821 320.743 145.653C320.983 145.479 321.268 145.392 321.598 145.392C322.108 145.392 322.507 145.56 322.795 145.896C323.083 146.226 323.224 146.736 323.218 147.426V150H322.372V147.696C322.372 147.288 322.327 146.979 322.237 146.769C322.153 146.553 322.039 146.403 321.895 146.319C321.751 146.235 321.583 146.19 321.391 146.184C321.055 146.184 320.794 146.313 320.608 146.571C320.428 146.829 320.338 147.192 320.338 147.66V150H319.483V147.696C319.483 147.288 319.441 146.979 319.357 146.769C319.273 146.553 319.156 146.403 319.006 146.319C318.862 146.235 318.694 146.19 318.502 146.184C318.166 146.184 317.905 146.313 317.719 146.571C317.539 146.829 317.449 147.192 317.449 147.66V150H316.594ZM326.3 150.108C325.862 150.108 325.475 150.009 325.139 149.811C324.803 149.607 324.539 149.328 324.347 148.974C324.155 148.62 324.059 148.212 324.059 147.75C324.059 147.288 324.155 146.88 324.347 146.526C324.539 146.172 324.803 145.896 325.139 145.698C325.481 145.494 325.871 145.392 326.309 145.392C326.723 145.392 327.086 145.497 327.398 145.707C327.71 145.911 327.953 146.205 328.127 146.589C328.307 146.967 328.397 147.414 328.397 147.93H324.761L324.923 147.795C324.923 148.113 324.986 148.389 325.112 148.623C325.238 148.857 325.409 149.037 325.625 149.163C325.841 149.283 326.087 149.343 326.363 149.343C326.663 149.343 326.912 149.274 327.11 149.136C327.314 148.992 327.473 148.812 327.587 148.596L328.325 148.938C328.205 149.172 328.049 149.379 327.857 149.559C327.665 149.733 327.437 149.868 327.173 149.964C326.915 150.06 326.624 150.108 326.3 150.108ZM324.977 147.39L324.806 147.255H327.65L327.488 147.39C327.488 147.126 327.434 146.901 327.326 146.715C327.218 146.523 327.074 146.379 326.894 146.283C326.714 146.181 326.513 146.13 326.291 146.13C326.075 146.13 325.865 146.181 325.661 146.283C325.463 146.379 325.298 146.52 325.166 146.706C325.04 146.892 324.977 147.12 324.977 147.39ZM332.535 150L332.499 149.163V143.7H333.345V150H332.535ZM331.023 150.108C330.615 150.108 330.258 150.009 329.952 149.811C329.652 149.613 329.415 149.337 329.241 148.983C329.073 148.629 328.989 148.218 328.989 147.75C328.989 147.276 329.073 146.865 329.241 146.517C329.415 146.163 329.652 145.887 329.952 145.689C330.258 145.491 330.615 145.392 331.023 145.392C331.401 145.392 331.728 145.491 332.004 145.689C332.286 145.887 332.502 146.163 332.652 146.517C332.802 146.865 332.877 147.276 332.877 147.75C332.877 148.218 332.802 148.629 332.652 148.983C332.502 149.337 332.286 149.613 332.004 149.811C331.728 150.009 331.401 150.108 331.023 150.108ZM331.221 149.334C331.473 149.334 331.695 149.268 331.887 149.136C332.079 148.998 332.229 148.812 332.337 148.578C332.445 148.338 332.499 148.062 332.499 147.75C332.499 147.438 332.445 147.165 332.337 146.931C332.229 146.691 332.079 146.505 331.887 146.373C331.695 146.235 331.47 146.166 331.212 146.166C330.948 146.166 330.714 146.235 330.51 146.373C330.306 146.505 330.147 146.691 330.033 146.931C329.919 147.165 329.862 147.438 329.862 147.75C329.862 148.062 329.919 148.338 330.033 148.578C330.153 148.812 330.315 148.998 330.519 149.136C330.723 149.268 330.957 149.334 331.221 149.334Z" fill="white"/>
<rect x="448.5" y="138.5" width="39" height="17" rx="8.5" fill="#37373D" stroke="#37373D"/>
<path d="M459.603 150V143.7H460.449V150H459.603ZM462.717 150V147.696H463.563V150H462.717ZM462.717 147.696C462.717 147.288 462.669 146.979 462.573 146.769C462.477 146.553 462.345 146.403 462.177 146.319C462.015 146.235 461.829 146.19 461.619 146.184C461.247 146.184 460.959 146.313 460.755 146.571C460.551 146.829 460.449 147.192 460.449 147.66H460.089C460.089 147.186 460.158 146.781 460.296 146.445C460.44 146.103 460.641 145.842 460.899 145.662C461.163 145.482 461.475 145.392 461.835 145.392C462.189 145.392 462.495 145.464 462.753 145.608C463.011 145.752 463.212 145.977 463.356 146.283C463.5 146.583 463.569 146.979 463.563 147.471V147.696H462.717ZM464.693 150V145.5H465.548V150H464.693ZM465.125 144.546C464.987 144.546 464.867 144.495 464.765 144.393C464.663 144.285 464.612 144.162 464.612 144.024C464.612 143.88 464.663 143.76 464.765 143.664C464.867 143.562 464.987 143.511 465.125 143.511C465.269 143.511 465.389 143.562 465.485 143.664C465.587 143.76 465.638 143.88 465.638 144.024C465.638 144.162 465.587 144.285 465.485 144.393C465.389 144.495 465.269 144.546 465.125 144.546ZM468.664 151.917C468.364 151.917 468.091 151.887 467.845 151.827C467.599 151.773 467.392 151.71 467.224 151.638C467.056 151.566 466.93 151.503 466.846 151.449L467.17 150.756C467.248 150.804 467.359 150.858 467.503 150.918C467.647 150.984 467.815 151.038 468.007 151.08C468.199 151.128 468.412 151.152 468.646 151.152C468.922 151.152 469.168 151.095 469.384 150.981C469.6 150.873 469.768 150.702 469.888 150.468C470.014 150.234 470.077 149.934 470.077 149.568V145.5H470.932V149.55C470.932 150.066 470.833 150.498 470.635 150.846C470.443 151.2 470.176 151.467 469.834 151.647C469.498 151.827 469.108 151.917 468.664 151.917ZM468.583 149.937C468.175 149.937 467.818 149.844 467.512 149.658C467.212 149.466 466.975 149.202 466.801 148.866C466.633 148.524 466.549 148.131 466.549 147.687C466.549 147.225 466.633 146.823 466.801 146.481C466.975 146.139 467.212 145.872 467.512 145.68C467.818 145.488 468.175 145.392 468.583 145.392C468.955 145.392 469.279 145.488 469.555 145.68C469.837 145.872 470.053 146.142 470.203 146.49C470.359 146.832 470.437 147.234 470.437 147.696C470.437 148.14 470.359 148.533 470.203 148.875C470.053 149.211 469.837 149.472 469.555 149.658C469.279 149.844 468.955 149.937 468.583 149.937ZM468.799 149.217C469.051 149.217 469.27 149.151 469.456 149.019C469.642 148.881 469.789 148.698 469.897 148.47C470.005 148.236 470.059 147.969 470.059 147.669C470.059 147.369 470.005 147.105 469.897 146.877C469.789 146.649 469.639 146.472 469.447 146.346C469.261 146.214 469.042 146.148 468.79 146.148C468.526 146.148 468.292 146.214 468.088 146.346C467.89 146.472 467.734 146.649 467.62 146.877C467.506 147.105 467.449 147.369 467.449 147.669C467.449 147.969 467.506 148.236 467.62 148.47C467.74 148.698 467.899 148.881 468.097 149.019C468.301 149.151 468.535 149.217 468.799 149.217ZM472.127 150V143.7H472.973V150H472.127ZM475.241 150V147.696H476.087V150H475.241ZM475.241 147.696C475.241 147.288 475.193 146.979 475.097 146.769C475.001 146.553 474.869 146.403 474.701 146.319C474.539 146.235 474.353 146.19 474.143 146.184C473.771 146.184 473.483 146.313 473.279 146.571C473.075 146.829 472.973 147.192 472.973 147.66H472.613C472.613 147.186 472.682 146.781 472.82 146.445C472.964 146.103 473.165 145.842 473.423 145.662C473.687 145.482 473.999 145.392 474.359 145.392C474.713 145.392 475.019 145.464 475.277 145.608C475.535 145.752 475.736 145.977 475.88 146.283C476.024 146.583 476.093 146.979 476.087 147.471V147.696H475.241Z" fill="white"/>
<rect x="162.5" y="138.5" width="39" height="17" rx="8.5" fill="#37373D" stroke="#37373D"/>
<path d="M175.594 150.2V143.9H176.449V150.2H175.594ZM179.667 150.308C179.217 150.308 178.821 150.209 178.479 150.011C178.137 149.807 177.867 149.528 177.669 149.174C177.477 148.82 177.381 148.412 177.381 147.95C177.381 147.488 177.477 147.08 177.669 146.726C177.861 146.372 178.128 146.096 178.47 145.898C178.812 145.694 179.205 145.592 179.649 145.592C180.093 145.592 180.486 145.694 180.828 145.898C181.17 146.096 181.437 146.372 181.629 146.726C181.821 147.08 181.917 147.488 181.917 147.95C181.917 148.412 181.821 148.82 181.629 149.174C181.437 149.528 181.17 149.807 180.828 150.011C180.492 150.209 180.105 150.308 179.667 150.308ZM179.667 149.525C179.937 149.525 180.177 149.459 180.387 149.327C180.597 149.189 180.759 149.003 180.873 148.769C180.993 148.535 181.053 148.262 181.053 147.95C181.053 147.638 180.993 147.365 180.873 147.131C180.759 146.897 180.594 146.714 180.378 146.582C180.162 146.444 179.919 146.375 179.649 146.375C179.373 146.375 179.13 146.444 178.92 146.582C178.71 146.714 178.545 146.897 178.425 147.131C178.305 147.365 178.245 147.638 178.245 147.95C178.245 148.262 178.305 148.535 178.425 148.769C178.545 149.003 178.713 149.189 178.929 149.327C179.145 149.459 179.391 149.525 179.667 149.525ZM186.835 150.2L188.356 145.7H189.211L187.681 150.2H186.835ZM183.802 150.2L185.296 145.7H186.07L184.594 150.2H183.802ZM183.739 150.2L182.209 145.7H183.073L184.558 150.2H183.739ZM186.835 150.2L185.359 145.7H186.142L187.627 150.2H186.835Z" fill="white"/>
</svg>
