<svg width="650" height="264" viewBox="0 0 650 264" fill="none" xmlns="http://www.w3.org/2000/svg">
<rect width="650" height="264" rx="16" fill="#1A1A1E"/>
<rect x="287.462" y="68.5364" width="52.9962" height="52.9962" rx="25.2118" stroke="#37373D" stroke-width="1.07284"/>
<path d="M309.162 97.3168C309.162 97.3168 309.805 96.6731 311.736 96.6731C313.667 96.6731 314.955 97.9605 316.886 97.9605C318.817 97.9605 319.46 97.3168 319.46 97.3168V90.2363C319.46 90.2363 318.817 90.88 316.886 90.88C314.955 90.88 313.667 89.5927 311.736 89.5927C309.805 89.5927 309.162 90.2363 309.162 90.2363M309.162 101.823L309.162 88.949" stroke="white" stroke-width="1.07284" stroke-linecap="round" stroke-linejoin="round"/>
<rect x="418.766" y="131.237" width="52.9962" height="52.9962" rx="25.2118" stroke="#37373D" stroke-width="1.07284"/>
<path d="M442.806 158.087L445.615 160.895M445.615 160.895L448.424 158.087M445.615 160.895V155.278M452.637 158.087C452.637 161.965 449.493 165.109 445.615 165.109C441.737 165.109 438.593 161.965 438.593 158.087C438.593 154.209 441.737 151.065 445.615 151.065C449.493 151.065 452.637 154.209 452.637 158.087Z" stroke="white" stroke-width="1.07284" stroke-linecap="round" stroke-linejoin="round"/>
<rect x="163.536" y="131.237" width="52.9962" height="52.9962" rx="25.2118" stroke="#37373D" stroke-width="1.07284"/>
<path d="M187.577 158.087L190.385 160.895M190.385 160.895L193.194 158.087M190.385 160.895V155.278M197.407 158.087C197.407 161.965 194.264 165.109 190.385 165.109C186.507 165.109 183.364 161.965 183.364 158.087C183.364 154.209 186.507 151.065 190.385 151.065C194.264 151.065 197.407 154.209 197.407 158.087Z" stroke="white" stroke-width="1.07284" stroke-linecap="round" stroke-linejoin="round"/>
<path d="M446.923 116.879C447.133 117.089 447.473 117.089 447.682 116.879L451.096 113.466C451.305 113.256 451.305 112.916 451.096 112.707C450.886 112.497 450.547 112.497 450.337 112.707L447.303 115.741L444.268 112.707C444.059 112.497 443.719 112.497 443.51 112.707C443.3 112.916 443.3 113.256 443.51 113.466L446.923 116.879ZM427.303 91.1126L427.303 91.649L427.303 91.1126ZM447.839 116.5L447.839 115.153L446.766 115.153L446.766 116.5L447.839 116.5ZM447.839 112.459L447.839 111.113L446.766 111.113L446.766 112.459L447.839 112.459ZM447.839 111.113C447.839 110.726 447.828 110.342 447.807 109.961L446.736 110.02C446.756 110.382 446.766 110.746 446.766 111.113L447.839 111.113ZM447.552 107.672C447.423 106.908 447.252 106.158 447.041 105.425L446.01 105.722C446.21 106.416 446.372 107.126 446.494 107.85L447.552 107.672ZM446.281 103.251C445.985 102.539 445.651 101.846 445.28 101.177L444.341 101.697C444.693 102.331 445.01 102.987 445.29 103.662L446.281 103.251ZM444.053 99.2276C443.607 98.6007 443.127 98 442.616 97.4281L441.816 98.1432C442.301 98.6854 442.756 99.255 443.178 99.8492L444.053 99.2276ZM440.987 95.7997C440.415 95.2883 439.815 94.8084 439.188 94.3628L438.566 95.2372C439.16 95.6596 439.73 96.1145 440.272 96.5994L440.987 95.7997ZM437.239 93.1356C436.569 92.7648 435.877 92.4303 435.164 92.1347L434.753 93.1257C435.428 93.4058 436.084 93.7227 436.719 94.0741L437.239 93.1356ZM432.99 91.374C432.257 91.1633 431.508 90.9922 430.744 90.8633L430.565 91.9212C431.289 92.0433 431.999 92.2054 432.693 92.4051L432.99 91.374ZM428.454 90.608C428.073 90.5869 427.689 90.5762 427.303 90.5762L427.303 91.649C427.669 91.649 428.034 91.6592 428.395 91.6792L428.454 90.608ZM427.303 90.5762L426.21 90.5762L426.21 91.649L427.303 91.649L427.303 90.5762ZM424.025 90.5762L421.839 90.5762L421.839 91.649L424.025 91.649L424.025 90.5762ZM419.654 90.5762L417.469 90.5762L417.469 91.649L419.654 91.649L419.654 90.5762ZM415.283 90.5762L413.098 90.5762L413.098 91.649L415.283 91.649L415.283 90.5762ZM410.912 90.5762L408.727 90.5762L408.727 91.649L410.912 91.649L410.912 90.5762ZM406.542 90.5762L404.356 90.5762L404.356 91.649L406.542 91.649L406.542 90.5762ZM402.171 90.5762L399.985 90.5762L399.985 91.649L402.171 91.649L402.171 90.5762ZM397.8 90.5762L395.615 90.5762L395.615 91.649L397.8 91.649L397.8 90.5762ZM393.429 90.5762L391.244 90.5762L391.244 91.649L393.429 91.649L393.429 90.5762ZM389.059 90.5762L386.873 90.5762L386.873 91.649L389.059 91.649L389.059 90.5762ZM384.688 90.5762L382.502 90.5762L382.502 91.649L384.688 91.649L384.688 90.5762ZM380.317 90.5762L378.132 90.5762L378.132 91.649L380.317 91.649L380.317 90.5762ZM375.946 90.5762L373.761 90.5762L373.761 91.649L375.946 91.649L375.946 90.5762ZM371.575 90.5762L369.39 90.5762L369.39 91.649L371.575 91.649L371.575 90.5762ZM367.205 90.5762L365.019 90.5762L365.019 91.649L367.205 91.649L367.205 90.5762ZM362.834 90.5762L360.649 90.5762L360.649 91.649L362.834 91.649L362.834 90.5762ZM358.463 90.5762L356.278 90.5762L356.278 91.649L358.463 91.649L358.463 90.5762ZM354.092 90.5762L353 90.5762L353 91.649L354.092 91.649L354.092 90.5762Z" fill="#37373D"/>
<path d="M224.974 171.526C224.712 171.664 224.612 171.988 224.75 172.25L227.002 176.521C227.14 176.783 227.465 176.883 227.727 176.745C227.989 176.607 228.089 176.282 227.951 176.02L225.949 172.224L229.745 170.223C230.007 170.084 230.108 169.76 229.969 169.498C229.831 169.236 229.507 169.135 229.245 169.274L224.974 171.526ZM385.858 178.001L385.994 178.52L385.858 178.001ZM225.066 172.512L226.172 172.855L226.49 171.83L225.383 171.488L225.066 172.512ZM228.385 173.54L230.598 174.224L230.915 173.199L228.702 172.515L228.385 173.54ZM232.81 174.909L233.917 175.251L234.234 174.226L233.127 173.884L232.81 174.909ZM233.917 175.251C234.258 175.357 234.599 175.462 234.94 175.566L235.253 174.54C234.913 174.436 234.573 174.332 234.234 174.226L233.917 175.251ZM236.99 176.183C237.674 176.386 238.358 176.586 239.043 176.784L239.341 175.753C238.658 175.556 237.976 175.357 237.295 175.154L236.99 176.183ZM241.102 177.369C241.789 177.561 242.477 177.751 243.165 177.938L243.446 176.903C242.761 176.716 242.076 176.527 241.392 176.336L241.102 177.369ZM245.233 178.491C245.923 178.673 246.614 178.852 247.305 179.028L247.57 177.989C246.881 177.813 246.194 177.635 245.506 177.454L245.233 178.491ZM249.381 179.549C250.073 179.72 250.767 179.889 251.46 180.054L251.709 179.011C251.018 178.846 250.328 178.678 249.638 178.508L249.381 179.549ZM253.544 180.543C254.239 180.704 254.935 180.861 255.631 181.016L255.864 179.969C255.171 179.814 254.478 179.658 253.785 179.498L253.544 180.543ZM257.722 181.473C258.42 181.622 259.118 181.769 259.817 181.913L260.034 180.862C259.338 180.719 258.642 180.572 257.947 180.424L257.722 181.473ZM261.914 182.337C262.614 182.476 263.315 182.612 264.016 182.745L264.216 181.691C263.518 181.558 262.82 181.423 262.123 181.285L261.914 182.337ZM266.12 183.137C266.822 183.264 267.524 183.39 268.227 183.512L268.411 182.455C267.711 182.333 267.011 182.208 266.312 182.081L266.12 183.137ZM270.337 183.871C271.041 183.988 271.745 184.102 272.449 184.214L272.617 183.154C271.915 183.043 271.214 182.929 270.513 182.813L270.337 183.871ZM274.565 184.54C275.27 184.646 275.976 184.749 276.682 184.85L276.833 183.788C276.13 183.688 275.427 183.585 274.724 183.479L274.565 184.54ZM278.802 185.143C279.509 185.238 280.217 185.331 280.924 185.42L281.059 184.356C280.354 184.267 279.65 184.175 278.945 184.08L278.802 185.143ZM283.049 185.681C283.757 185.765 284.466 185.847 285.175 185.925L285.293 184.859C284.587 184.781 283.881 184.7 283.175 184.616L283.049 185.681ZM287.303 186.153C288.013 186.226 288.723 186.297 289.433 186.364L289.535 185.296C288.827 185.229 288.12 185.159 287.413 185.086L287.303 186.153ZM291.564 186.559C292.275 186.621 292.986 186.681 293.697 186.738L293.782 185.668C293.074 185.612 292.366 185.552 291.658 185.49L291.564 186.559ZM295.831 186.899C296.543 186.95 297.255 186.999 297.966 187.045L298.035 185.974C297.326 185.928 296.617 185.88 295.908 185.829L295.831 186.899ZM300.103 187.173C300.815 187.213 301.528 187.251 302.24 187.285L302.292 186.214C301.582 186.179 300.873 186.142 300.163 186.102L300.103 187.173ZM304.378 187.381C305.091 187.41 305.804 187.437 306.517 187.46L306.552 186.388C305.842 186.364 305.132 186.338 304.422 186.309L304.378 187.381ZM308.656 187.523C309.37 187.541 310.083 187.556 310.796 187.569L310.815 186.496C310.104 186.484 309.394 186.468 308.684 186.45L308.656 187.523ZM312.936 187.598C313.649 187.605 314.363 187.61 315.076 187.611L315.079 186.538C314.368 186.537 313.657 186.532 312.947 186.525L312.936 187.598ZM317.217 187.607C317.93 187.603 318.643 187.597 319.357 187.587L319.342 186.514C318.632 186.524 317.921 186.531 317.211 186.535L317.217 187.607ZM321.497 187.55C322.21 187.535 322.923 187.517 323.636 187.497L323.605 186.425C322.895 186.445 322.184 186.463 321.474 186.478L321.497 187.55ZM325.775 187.427C326.488 187.401 327.201 187.372 327.914 187.341L327.866 186.269C327.156 186.3 326.446 186.329 325.736 186.355L325.775 187.427ZM330.051 187.237C330.764 187.2 331.476 187.161 332.188 187.118L332.124 186.047C331.415 186.089 330.705 186.129 329.996 186.166L330.051 187.237ZM334.324 186.982C335.036 186.934 335.748 186.883 336.459 186.829L336.378 185.759C335.67 185.813 334.961 185.863 334.252 185.911L334.324 186.982ZM338.593 186.66C339.304 186.601 340.014 186.539 340.725 186.474L340.628 185.406C339.92 185.47 339.212 185.532 338.504 185.591L338.593 186.66ZM342.856 186.272C343.565 186.202 344.275 186.129 344.984 186.054L344.871 184.987C344.164 185.062 343.457 185.135 342.75 185.205L342.856 186.272ZM347.112 185.818C347.821 185.737 348.529 185.653 349.237 185.567L349.107 184.502C348.401 184.588 347.696 184.672 346.99 184.753L347.112 185.818ZM351.361 185.299C352.068 185.207 352.775 185.112 353.482 185.014L353.335 183.952C352.631 184.049 351.927 184.143 351.222 184.235L351.361 185.299ZM355.601 184.714C356.307 184.611 357.012 184.505 357.718 184.396L357.555 183.336C356.852 183.444 356.149 183.549 355.446 183.652L355.601 184.714ZM359.831 184.063C360.536 183.949 361.24 183.832 361.943 183.713L361.764 182.655C361.063 182.774 360.362 182.89 359.66 183.004L359.831 184.063ZM364.051 183.346C364.754 183.222 365.456 183.094 366.157 182.964L365.961 181.909C365.263 182.039 364.563 182.166 363.864 182.29L364.051 183.346ZM368.26 182.565C368.96 182.429 369.66 182.291 370.36 182.15L370.147 181.098C369.451 181.239 368.754 181.376 368.056 181.512L368.26 182.565ZM372.456 181.718C373.154 181.572 373.852 181.423 374.549 181.271L374.32 180.222C373.626 180.374 372.931 180.522 372.236 180.668L372.456 181.718ZM376.639 180.807C377.334 180.65 378.029 180.49 378.724 180.327L378.479 179.282C377.787 179.444 377.095 179.604 376.402 179.76L376.639 180.807ZM380.806 179.831C381.499 179.663 382.192 179.492 382.884 179.319L382.623 178.278C381.934 178.451 381.244 178.621 380.553 178.788L380.806 179.831ZM384.958 178.79C385.303 178.701 385.649 178.611 385.994 178.52L385.721 177.483C385.377 177.573 385.033 177.663 384.689 177.752L384.958 178.79ZM385.994 178.52L387.135 178.22L386.862 177.182L385.721 177.483L385.994 178.52ZM389.417 177.62L391.7 177.02L391.427 175.982L389.145 176.582L389.417 177.62ZM393.982 176.42L396.264 175.82L395.991 174.782L393.709 175.382L393.982 176.42ZM398.547 175.219L400.829 174.619L400.556 173.582L398.274 174.182L398.547 175.219ZM403.111 174.019L405.393 173.419L405.121 172.381L402.838 172.982L403.111 174.019ZM407.676 172.819L408.817 172.519L408.544 171.481L407.403 171.781L407.676 172.819Z" fill="#37373D"/>
<path d="M279.246 89.3463C279.456 89.1369 279.456 88.7972 279.246 88.5877L275.833 85.174C275.623 84.9645 275.284 84.9645 275.074 85.174C274.865 85.3835 274.865 85.7231 275.074 85.9326L278.109 88.967L275.074 92.0015C274.865 92.211 274.865 92.5506 275.074 92.7601C275.284 92.9696 275.623 92.9696 275.833 92.7601L279.246 89.3463ZM278.867 88.4306L277.817 88.4306L277.817 89.5035L278.867 89.5035L278.867 88.4306ZM275.716 88.4306L273.615 88.4306L273.615 89.5035L275.716 89.5035L275.716 88.4306ZM271.514 88.4306L269.413 88.4306L269.413 89.5035L271.514 89.5035L271.514 88.4306ZM267.312 88.4306L265.211 88.4306L265.211 89.5035L267.312 89.5035L267.312 88.4306ZM263.11 88.4306L261.009 88.4306L261.009 89.5035L263.11 89.5035L263.11 88.4306ZM258.908 88.4306L256.807 88.4306L256.807 89.5035L258.908 89.5035L258.908 88.4306ZM254.706 88.4306L252.605 88.4306L252.605 89.5035L254.706 89.5035L254.706 88.4306ZM250.504 88.4306L248.403 88.4306L248.403 89.5035L250.504 89.5035L250.504 88.4306ZM246.302 88.4306L244.201 88.4306L244.201 89.5035L246.302 89.5035L246.302 88.4306ZM242.1 88.4306L239.999 88.4306L239.999 89.5035L242.1 89.5035L242.1 88.4306ZM237.898 88.4306L235.797 88.4306L235.797 89.5035L237.898 89.5035L237.898 88.4306ZM233.696 88.4306L231.595 88.4306L231.595 89.5035L233.696 89.5035L233.696 88.4306ZM229.494 88.4306L228.444 88.4306L228.444 89.5035L229.494 89.5035L229.494 88.4306ZM228.444 88.4306C228.086 88.4306 227.729 88.4356 227.373 88.4454L227.402 89.5178C227.748 89.5083 228.095 89.5035 228.444 89.5035L228.444 88.4306ZM225.24 88.5635C224.527 88.6229 223.819 88.702 223.118 88.8002L223.266 89.8626C223.948 89.7672 224.636 89.6903 225.329 89.6326L225.24 88.5635ZM221.011 89.1555C220.31 89.2943 219.615 89.4523 218.928 89.629L219.196 90.668C219.863 90.4963 220.538 90.3428 221.22 90.208L221.011 89.1555ZM216.874 90.2198C216.193 90.4366 215.521 90.6721 214.857 90.9256L215.24 91.9278C215.885 91.6815 216.538 91.4527 217.2 91.242L216.874 90.2198ZM212.883 91.7441C212.232 92.0361 211.59 92.3457 210.959 92.6726L211.452 93.6253C212.066 93.3077 212.689 93.0068 213.322 92.7232L212.883 91.7441ZM209.09 93.7076C208.476 94.0705 207.873 94.4502 207.282 94.8459L207.879 95.7374C208.453 95.3528 209.039 94.9839 209.636 94.6312L209.09 93.7076ZM205.541 96.0837C204.972 96.5127 204.415 96.9573 203.871 97.4168L204.564 98.2362C205.092 97.7895 205.633 97.3574 206.187 96.9404L205.541 96.0837ZM202.279 98.8409C201.761 99.3303 201.257 99.8341 200.768 100.352L201.548 101.089C202.023 100.586 202.513 100.096 203.016 99.6204L202.279 98.8409ZM199.344 101.944C198.884 102.488 198.44 103.044 198.011 103.614L198.868 104.259C199.285 103.706 199.717 103.165 200.163 102.637L199.344 101.944ZM196.773 105.355C196.377 105.946 195.998 106.549 195.635 107.163L196.558 107.709C196.911 107.112 197.28 106.526 197.665 105.952L196.773 105.355ZM194.6 109.032C194.273 109.663 193.963 110.305 193.671 110.956L194.65 111.395C194.934 110.762 195.235 110.138 195.552 109.525L194.6 109.032ZM192.853 112.93C192.599 113.594 192.364 114.266 192.147 114.947L193.169 115.273C193.38 114.611 193.609 113.958 193.855 113.313L192.853 112.93ZM191.556 117.001C191.379 117.688 191.221 118.383 191.083 119.084L192.135 119.292C192.27 118.611 192.424 117.936 192.595 117.269L191.556 117.001ZM190.727 121.19C190.629 121.892 190.55 122.6 190.491 123.313L191.56 123.402C191.618 122.709 191.694 122.021 191.79 121.339L190.727 121.19ZM190.373 125.446C190.363 125.801 190.358 126.158 190.358 126.516L191.431 126.516C191.431 126.168 191.435 125.821 191.445 125.475L190.373 125.446Z" fill="#37373D"/>
<rect x="294.423" y="130.761" width="39.6951" height="18.6055" rx="9.30277" fill="#37373D" stroke="#37373D" stroke-width="1.07284"/>
<path d="M307.398 142.443V135.684H308.315V142.443H307.398ZM311.768 142.559C311.285 142.559 310.86 142.453 310.493 142.241C310.126 142.022 309.837 141.722 309.624 141.343C309.418 140.963 309.315 140.525 309.315 140.029C309.315 139.534 309.418 139.096 309.624 138.716C309.83 138.337 310.117 138.04 310.484 137.828C310.85 137.609 311.272 137.5 311.748 137.5C312.225 137.5 312.646 137.609 313.013 137.828C313.38 138.04 313.667 138.337 313.873 138.716C314.079 139.096 314.182 139.534 314.182 140.029C314.182 140.525 314.079 140.963 313.873 141.343C313.667 141.722 313.38 142.022 313.013 142.241C312.653 142.453 312.238 142.559 311.768 142.559ZM311.768 141.719C312.057 141.719 312.315 141.648 312.54 141.507C312.765 141.359 312.939 141.159 313.062 140.908C313.19 140.657 313.255 140.364 313.255 140.029C313.255 139.695 313.19 139.402 313.062 139.151C312.939 138.9 312.762 138.703 312.531 138.562C312.299 138.414 312.038 138.34 311.748 138.34C311.452 138.34 311.192 138.414 310.966 138.562C310.741 138.703 310.564 138.9 310.435 139.151C310.307 139.402 310.242 139.695 310.242 140.029C310.242 140.364 310.307 140.657 310.435 140.908C310.564 141.159 310.744 141.359 310.976 141.507C311.208 141.648 311.472 141.719 311.768 141.719ZM319.458 142.443L321.09 137.616H322.007L320.366 142.443H319.458ZM316.204 142.443L317.807 137.616H318.637L317.054 142.443H316.204ZM316.136 142.443L314.495 137.616H315.422L317.015 142.443H316.136ZM319.458 142.443L317.874 137.616H318.714L320.308 142.443H319.458Z" fill="white"/>
<rect x="169.974" y="189.767" width="39.6951" height="18.6055" rx="9.30277" fill="#37373D" stroke="#37373D" stroke-width="1.07284"/>
<path d="M180.813 201.45V194.691H181.721V201.45H180.813ZM184.154 201.45V198.978H185.061V201.45H184.154ZM184.154 198.978C184.154 198.54 184.102 198.209 183.999 197.983C183.896 197.752 183.755 197.591 183.574 197.501C183.401 197.41 183.201 197.362 182.976 197.356C182.577 197.356 182.268 197.494 182.049 197.771C181.83 198.048 181.721 198.437 181.721 198.939H181.334C181.334 198.431 181.408 197.996 181.556 197.636C181.711 197.269 181.926 196.989 182.203 196.796C182.487 196.603 182.821 196.506 183.207 196.506C183.587 196.506 183.916 196.583 184.192 196.738C184.469 196.892 184.685 197.134 184.839 197.462C184.994 197.784 185.068 198.209 185.061 198.736V198.978H184.154ZM186.274 201.45V196.622H187.191V201.45H186.274ZM186.737 195.598C186.589 195.598 186.46 195.544 186.351 195.434C186.241 195.318 186.187 195.186 186.187 195.038C186.187 194.884 186.241 194.755 186.351 194.652C186.46 194.543 186.589 194.488 186.737 194.488C186.892 194.488 187.02 194.543 187.123 194.652C187.233 194.755 187.287 194.884 187.287 195.038C187.287 195.186 187.233 195.318 187.123 195.434C187.02 195.544 186.892 195.598 186.737 195.598ZM190.534 203.506C190.212 203.506 189.919 203.474 189.655 203.41C189.391 203.352 189.169 203.284 188.989 203.207C188.809 203.13 188.674 203.062 188.584 203.004L188.931 202.261C189.015 202.312 189.134 202.37 189.288 202.435C189.443 202.505 189.623 202.563 189.829 202.608C190.035 202.66 190.264 202.686 190.515 202.686C190.811 202.686 191.075 202.624 191.306 202.502C191.538 202.386 191.718 202.203 191.847 201.952C191.982 201.701 192.05 201.379 192.05 200.986V196.622H192.967V200.967C192.967 201.521 192.861 201.984 192.648 202.357C192.443 202.737 192.156 203.024 191.789 203.217C191.429 203.41 191.01 203.506 190.534 203.506ZM190.447 201.382C190.009 201.382 189.626 201.282 189.298 201.083C188.976 200.877 188.722 200.594 188.535 200.233C188.355 199.866 188.265 199.445 188.265 198.968C188.265 198.473 188.355 198.041 188.535 197.674C188.722 197.307 188.976 197.021 189.298 196.815C189.626 196.609 190.009 196.506 190.447 196.506C190.846 196.506 191.194 196.609 191.49 196.815C191.792 197.021 192.024 197.311 192.185 197.684C192.352 198.051 192.436 198.482 192.436 198.978C192.436 199.454 192.352 199.876 192.185 200.243C192.024 200.603 191.792 200.883 191.49 201.083C191.194 201.282 190.846 201.382 190.447 201.382ZM190.679 200.61C190.949 200.61 191.184 200.539 191.384 200.397C191.583 200.249 191.741 200.053 191.857 199.808C191.973 199.557 192.031 199.271 192.031 198.949C192.031 198.627 191.973 198.344 191.857 198.099C191.741 197.855 191.58 197.665 191.374 197.53C191.174 197.388 190.939 197.317 190.669 197.317C190.386 197.317 190.135 197.388 189.916 197.53C189.704 197.665 189.536 197.855 189.414 198.099C189.292 198.344 189.23 198.627 189.23 198.949C189.23 199.271 189.292 199.557 189.414 199.808C189.543 200.053 189.713 200.249 189.926 200.397C190.144 200.539 190.396 200.61 190.679 200.61ZM194.25 201.45V194.691H195.157V201.45H194.25ZM197.59 201.45V198.978H198.498V201.45H197.59ZM197.59 198.978C197.59 198.54 197.539 198.209 197.436 197.983C197.333 197.752 197.191 197.591 197.011 197.501C196.837 197.41 196.638 197.362 196.412 197.356C196.013 197.356 195.704 197.494 195.485 197.771C195.267 198.048 195.157 198.437 195.157 198.939H194.771C194.771 198.431 194.845 197.996 194.993 197.636C195.148 197.269 195.363 196.989 195.64 196.796C195.923 196.603 196.258 196.506 196.644 196.506C197.024 196.506 197.352 196.583 197.629 196.738C197.906 196.892 198.121 197.134 198.276 197.462C198.43 197.784 198.504 198.209 198.498 198.736V198.978H197.59Z" fill="white"/>
<rect x="427.455" y="189.767" width="39.6951" height="18.6055" rx="9.30277" fill="#37373D" stroke="#37373D" stroke-width="1.07284"/>
<path d="M438.285 201.45V196.622H439.144L439.183 197.288C439.337 197.031 439.53 196.838 439.762 196.709C439.994 196.574 440.261 196.506 440.563 196.506C440.95 196.506 441.278 196.596 441.548 196.776C441.819 196.95 442.015 197.217 442.137 197.578C442.279 197.23 442.478 196.966 442.736 196.786C442.993 196.599 443.299 196.506 443.653 196.506C444.2 196.506 444.628 196.686 444.937 197.047C445.246 197.401 445.398 197.948 445.391 198.688V201.45H444.483V198.978C444.483 198.54 444.435 198.209 444.339 197.983C444.249 197.752 444.126 197.591 443.972 197.501C443.817 197.41 443.637 197.362 443.431 197.356C443.071 197.356 442.791 197.494 442.591 197.771C442.398 198.048 442.301 198.437 442.301 198.939V201.45H441.384V198.978C441.384 198.54 441.339 198.209 441.249 197.983C441.159 197.752 441.033 197.591 440.872 197.501C440.718 197.41 440.538 197.362 440.332 197.356C439.971 197.356 439.691 197.494 439.492 197.771C439.298 198.048 439.202 198.437 439.202 198.939V201.45H438.285ZM448.697 201.566C448.227 201.566 447.812 201.459 447.452 201.247C447.091 201.028 446.808 200.729 446.602 200.349C446.396 199.969 446.293 199.531 446.293 199.036C446.293 198.54 446.396 198.102 446.602 197.723C446.808 197.343 447.091 197.047 447.452 196.834C447.819 196.615 448.237 196.506 448.707 196.506C449.151 196.506 449.541 196.619 449.875 196.844C450.21 197.063 450.471 197.378 450.657 197.79C450.851 198.196 450.947 198.675 450.947 199.229H447.046L447.22 199.084C447.22 199.425 447.288 199.721 447.423 199.972C447.558 200.223 447.741 200.417 447.973 200.552C448.205 200.68 448.469 200.745 448.765 200.745C449.087 200.745 449.354 200.671 449.566 200.523C449.785 200.368 449.956 200.175 450.078 199.943L450.87 200.31C450.741 200.561 450.574 200.783 450.368 200.977C450.162 201.163 449.917 201.308 449.634 201.411C449.357 201.514 449.045 201.566 448.697 201.566ZM447.278 198.65L447.095 198.505H450.146L449.972 198.65C449.972 198.366 449.914 198.125 449.798 197.925C449.682 197.719 449.528 197.565 449.335 197.462C449.142 197.353 448.926 197.298 448.688 197.298C448.456 197.298 448.231 197.353 448.012 197.462C447.799 197.565 447.622 197.716 447.481 197.916C447.346 198.115 447.278 198.36 447.278 198.65ZM455.387 201.45L455.349 200.552V194.691H456.256V201.45H455.387ZM453.765 201.566C453.327 201.566 452.944 201.459 452.616 201.247C452.294 201.035 452.04 200.738 451.853 200.359C451.673 199.979 451.583 199.538 451.583 199.036C451.583 198.527 451.673 198.086 451.853 197.713C452.04 197.333 452.294 197.037 452.616 196.825C452.944 196.612 453.327 196.506 453.765 196.506C454.171 196.506 454.521 196.612 454.818 196.825C455.12 197.037 455.352 197.333 455.513 197.713C455.674 198.086 455.754 198.527 455.754 199.036C455.754 199.538 455.674 199.979 455.513 200.359C455.352 200.738 455.12 201.035 454.818 201.247C454.521 201.459 454.171 201.566 453.765 201.566ZM453.978 200.735C454.248 200.735 454.486 200.664 454.692 200.523C454.898 200.375 455.059 200.175 455.175 199.924C455.291 199.667 455.349 199.371 455.349 199.036C455.349 198.701 455.291 198.408 455.175 198.157C455.059 197.9 454.898 197.7 454.692 197.559C454.486 197.41 454.245 197.336 453.968 197.336C453.685 197.336 453.434 197.41 453.215 197.559C452.996 197.7 452.825 197.9 452.703 198.157C452.581 198.408 452.52 198.701 452.52 199.036C452.52 199.371 452.581 199.667 452.703 199.924C452.832 200.175 453.006 200.375 453.224 200.523C453.443 200.664 453.694 200.735 453.978 200.735Z" fill="white"/>
</svg>
