<svg width="650" height="264" viewBox="0 0 650 264" fill="none" xmlns="http://www.w3.org/2000/svg">
<rect width="650" height="264" rx="16" fill="#1A1A1E"/>
<path d="M311 149H372.5M372.5 149V130C372.5 116.745 383.245 106 396.5 106H498.5M372.5 149V170C372.5 183.255 383.245 194 396.5 194H498.5" stroke="#37373D" stroke-linecap="round" stroke-dasharray="2 2"/>
<rect x="84.5" y="110.5" width="228" height="74" rx="15.5" stroke="#55555E"/>
<rect x="98" y="124" width="47" height="47" rx="16" fill="#E31247" fill-opacity="0.5"/>
<path d="M115.333 151.167V151C115.333 149.6 115.333 148.9 115.606 148.365C115.846 147.895 116.228 147.512 116.698 147.272C117.233 147 117.933 147 119.333 147H124.667C126.067 147 126.767 147 127.302 147.272C127.772 147.512 128.155 147.895 128.394 148.365C128.667 148.9 128.667 149.6 128.667 151V151.167M115.333 151.167C114.413 151.167 113.667 151.913 113.667 152.833C113.667 153.754 114.413 154.5 115.333 154.5C116.254 154.5 117 153.754 117 152.833C117 151.913 116.254 151.167 115.333 151.167ZM128.667 151.167C127.746 151.167 127 151.913 127 152.833C127 153.754 127.746 154.5 128.667 154.5C129.587 154.5 130.333 153.754 130.333 152.833C130.333 151.913 129.587 151.167 128.667 151.167ZM122 142.833L122 151.167M122 142.833C121.08 142.833 120.333 142.087 120.333 141.167C120.333 140.246 121.08 139.5 122 139.5C122.92 139.5 123.667 140.246 123.667 141.167C123.667 142.087 122.92 142.833 122 142.833ZM122 151.167C121.08 151.167 120.333 151.913 120.333 152.833C120.333 153.754 121.08 154.5 122 154.5C122.92 154.5 123.667 153.754 123.667 152.833C123.667 151.913 122.92 151.167 122 151.167Z" stroke="white" stroke-linecap="round" stroke-linejoin="round"/>
<path d="M171.936 143L168.564 134.6H169.584L173.004 143H171.936ZM165.108 143L168.528 134.6H169.56L166.188 143H165.108ZM166.728 140.612V139.7H171.396V140.612H166.728ZM174.021 145.4V137H174.921L174.981 138.104V145.4H174.021ZM177.009 143.144C176.505 143.144 176.061 143.012 175.677 142.748C175.301 142.484 175.009 142.116 174.801 141.644C174.593 141.164 174.489 140.616 174.489 140C174.489 139.376 174.593 138.828 174.801 138.356C175.009 137.884 175.301 137.516 175.677 137.252C176.061 136.988 176.505 136.856 177.009 136.856C177.545 136.856 178.017 136.988 178.425 137.252C178.833 137.516 179.149 137.884 179.373 138.356C179.605 138.828 179.721 139.376 179.721 140C179.721 140.616 179.605 141.164 179.373 141.644C179.149 142.116 178.833 142.484 178.425 142.748C178.017 143.012 177.545 143.144 177.009 143.144ZM176.793 142.268C177.169 142.268 177.501 142.172 177.789 141.98C178.085 141.788 178.317 141.52 178.485 141.176C178.661 140.832 178.749 140.44 178.749 140C178.749 139.56 178.665 139.168 178.497 138.824C178.337 138.48 178.109 138.212 177.813 138.02C177.517 137.828 177.181 137.732 176.805 137.732C176.453 137.732 176.137 137.828 175.857 138.02C175.585 138.212 175.369 138.48 175.209 138.824C175.057 139.168 174.981 139.56 174.981 140C174.981 140.44 175.057 140.832 175.209 141.176C175.369 141.52 175.585 141.788 175.857 141.98C176.129 142.172 176.441 142.268 176.793 142.268ZM181.111 145.4V137H182.011L182.071 138.104V145.4H181.111ZM184.099 143.144C183.595 143.144 183.151 143.012 182.767 142.748C182.391 142.484 182.099 142.116 181.891 141.644C181.683 141.164 181.579 140.616 181.579 140C181.579 139.376 181.683 138.828 181.891 138.356C182.099 137.884 182.391 137.516 182.767 137.252C183.151 136.988 183.595 136.856 184.099 136.856C184.635 136.856 185.107 136.988 185.515 137.252C185.923 137.516 186.239 137.884 186.463 138.356C186.695 138.828 186.811 139.376 186.811 140C186.811 140.616 186.695 141.164 186.463 141.644C186.239 142.116 185.923 142.484 185.515 142.748C185.107 143.012 184.635 143.144 184.099 143.144ZM183.883 142.268C184.259 142.268 184.591 142.172 184.879 141.98C185.175 141.788 185.407 141.52 185.575 141.176C185.751 140.832 185.839 140.44 185.839 140C185.839 139.56 185.755 139.168 185.587 138.824C185.427 138.48 185.199 138.212 184.903 138.02C184.607 137.828 184.271 137.732 183.895 137.732C183.543 137.732 183.227 137.828 182.947 138.02C182.675 138.212 182.459 138.48 182.299 138.824C182.147 139.168 182.071 139.56 182.071 140C182.071 140.44 182.147 140.832 182.299 141.176C182.459 141.52 182.675 141.788 182.947 141.98C183.219 142.172 183.531 142.268 183.883 142.268ZM188.669 139.748C188.669 139.1 188.793 138.576 189.041 138.176C189.289 137.768 189.605 137.468 189.989 137.276C190.381 137.076 190.793 136.976 191.225 136.976V137.876C190.873 137.876 190.533 137.936 190.205 138.056C189.885 138.168 189.621 138.356 189.413 138.62C189.205 138.884 189.101 139.244 189.101 139.7L188.669 139.748ZM188.141 143V137H189.101V143H188.141ZM194.847 143.144C194.263 143.144 193.743 143.012 193.287 142.748C192.839 142.476 192.487 142.104 192.231 141.632C191.975 141.16 191.847 140.616 191.847 140C191.847 139.384 191.971 138.84 192.219 138.368C192.475 137.896 192.827 137.528 193.275 137.264C193.731 136.992 194.247 136.856 194.823 136.856C195.415 136.856 195.935 136.992 196.383 137.264C196.839 137.528 197.191 137.896 197.439 138.368C197.695 138.84 197.823 139.384 197.823 140C197.823 140.616 197.695 141.16 197.439 141.632C197.191 142.104 196.843 142.476 196.395 142.748C195.947 143.012 195.431 143.144 194.847 143.144ZM194.847 142.256C195.247 142.256 195.595 142.16 195.891 141.968C196.187 141.776 196.419 141.512 196.587 141.176C196.763 140.84 196.851 140.448 196.851 140C196.851 139.552 196.763 139.16 196.587 138.824C196.419 138.488 196.183 138.224 195.879 138.032C195.575 137.84 195.223 137.744 194.823 137.744C194.431 137.744 194.083 137.84 193.779 138.032C193.483 138.224 193.247 138.488 193.071 138.824C192.903 139.16 192.819 139.552 192.819 140C192.819 140.44 192.903 140.832 193.071 141.176C193.247 141.512 193.487 141.776 193.791 141.968C194.103 142.16 194.455 142.256 194.847 142.256ZM200.84 143L203.288 137H204.296L201.788 143H200.84ZM200.78 143L198.272 137H199.268L201.716 143H200.78ZM207.726 143.144C207.142 143.144 206.626 143.012 206.178 142.748C205.73 142.476 205.378 142.104 205.122 141.632C204.874 141.16 204.75 140.616 204.75 140C204.75 139.384 204.874 138.84 205.122 138.368C205.378 137.896 205.726 137.528 206.166 137.264C206.614 136.992 207.126 136.856 207.702 136.856C208.262 136.856 208.746 136.996 209.154 137.276C209.562 137.548 209.878 137.932 210.102 138.428C210.326 138.924 210.438 139.508 210.438 140.18H205.482L205.722 139.976C205.722 140.456 205.806 140.868 205.974 141.212C206.15 141.556 206.394 141.82 206.706 142.004C207.018 142.18 207.374 142.268 207.774 142.268C208.198 142.268 208.554 142.168 208.842 141.968C209.138 141.768 209.366 141.504 209.526 141.176L210.354 141.596C210.202 141.908 209.998 142.18 209.742 142.412C209.494 142.644 209.198 142.824 208.854 142.952C208.518 143.08 208.142 143.144 207.726 143.144ZM205.782 139.568L205.53 139.376H209.67L209.418 139.58C209.418 139.196 209.342 138.864 209.19 138.584C209.038 138.304 208.834 138.088 208.578 137.936C208.322 137.784 208.026 137.708 207.69 137.708C207.362 137.708 207.05 137.784 206.754 137.936C206.466 138.088 206.23 138.304 206.046 138.584C205.87 138.856 205.782 139.184 205.782 139.568ZM216.089 143L216.041 141.884V134.6H217.001V143H216.089ZM214.013 143.144C213.477 143.144 213.005 143.012 212.597 142.748C212.189 142.484 211.869 142.116 211.637 141.644C211.413 141.164 211.301 140.616 211.301 140C211.301 139.376 211.413 138.828 211.637 138.356C211.869 137.884 212.189 137.516 212.597 137.252C213.005 136.988 213.477 136.856 214.013 136.856C214.517 136.856 214.957 136.988 215.333 137.252C215.717 137.516 216.013 137.884 216.221 138.356C216.429 138.828 216.533 139.376 216.533 140C216.533 140.616 216.429 141.164 216.221 141.644C216.013 142.116 215.717 142.484 215.333 142.748C214.957 143.012 214.517 143.144 214.013 143.144ZM214.229 142.268C214.581 142.268 214.893 142.172 215.165 141.98C215.437 141.788 215.649 141.52 215.801 141.176C215.961 140.832 216.041 140.44 216.041 140C216.041 139.56 215.961 139.168 215.801 138.824C215.649 138.48 215.437 138.212 215.165 138.02C214.893 137.828 214.577 137.732 214.217 137.732C213.841 137.732 213.505 137.828 213.209 138.02C212.921 138.212 212.693 138.48 212.525 138.824C212.357 139.168 212.273 139.56 212.273 140C212.273 140.44 212.357 140.832 212.525 141.176C212.693 141.52 212.925 141.788 213.221 141.98C213.517 142.172 213.853 142.268 214.229 142.268ZM219.94 140.744L219.928 138.608L220.552 138.584C221.08 138.576 221.512 138.428 221.848 138.14C222.184 137.844 222.352 137.444 222.352 136.94C222.352 136.484 222.192 136.108 221.872 135.812C221.56 135.508 221.152 135.356 220.648 135.356C220.28 135.356 219.956 135.444 219.676 135.62C219.404 135.788 219.22 136 219.124 136.256L218.224 135.98C218.384 135.532 218.672 135.168 219.088 134.888C219.512 134.6 220.032 134.456 220.648 134.456C221.176 134.456 221.64 134.564 222.04 134.78C222.44 134.988 222.756 135.28 222.988 135.656C223.22 136.032 223.336 136.46 223.336 136.94C223.336 137.396 223.232 137.8 223.024 138.152C222.824 138.504 222.544 138.788 222.184 139.004C221.824 139.212 221.404 139.336 220.924 139.376V140.744H219.94ZM220.432 143.168C220.24 143.168 220.08 143.104 219.952 142.976C219.824 142.848 219.76 142.692 219.76 142.508C219.76 142.316 219.824 142.156 219.952 142.028C220.08 141.9 220.24 141.836 220.432 141.836C220.624 141.836 220.78 141.9 220.9 142.028C221.028 142.156 221.092 142.316 221.092 142.508C221.092 142.692 221.028 142.848 220.9 142.976C220.78 143.104 220.624 143.168 220.432 143.168Z" fill="white"/>
<path opacity="0.6" d="M166.023 161V153.3H168.531C169.03 153.3 169.47 153.399 169.851 153.597C170.24 153.795 170.54 154.07 170.753 154.422C170.973 154.774 171.083 155.177 171.083 155.632C171.083 156.087 170.966 156.49 170.731 156.842C170.496 157.194 170.177 157.473 169.774 157.678C169.371 157.876 168.916 157.975 168.41 157.975H166.958V161H166.023ZM170.368 161L168.52 157.843L169.257 157.359L171.391 161H170.368ZM166.958 157.117H168.663C168.942 157.117 169.191 157.055 169.411 156.93C169.631 156.798 169.807 156.622 169.939 156.402C170.078 156.175 170.148 155.918 170.148 155.632C170.148 155.192 169.994 154.836 169.686 154.565C169.385 154.286 168.993 154.147 168.509 154.147H166.958V157.117ZM175.087 161.132C174.551 161.132 174.075 161.011 173.657 160.769C173.246 160.52 172.923 160.179 172.689 159.746C172.454 159.313 172.337 158.815 172.337 158.25C172.337 157.685 172.45 157.187 172.678 156.754C172.912 156.321 173.235 155.984 173.646 155.742C174.064 155.493 174.537 155.368 175.065 155.368C175.607 155.368 176.084 155.493 176.495 155.742C176.913 155.984 177.235 156.321 177.463 156.754C177.697 157.187 177.815 157.685 177.815 158.25C177.815 158.815 177.697 159.313 177.463 159.746C177.235 160.179 176.916 160.52 176.506 160.769C176.095 161.011 175.622 161.132 175.087 161.132ZM175.087 160.318C175.453 160.318 175.772 160.23 176.044 160.054C176.315 159.878 176.528 159.636 176.682 159.328C176.843 159.02 176.924 158.661 176.924 158.25C176.924 157.839 176.843 157.48 176.682 157.172C176.528 156.864 176.311 156.622 176.033 156.446C175.754 156.27 175.431 156.182 175.065 156.182C174.705 156.182 174.386 156.27 174.108 156.446C173.836 156.622 173.62 156.864 173.459 157.172C173.305 157.48 173.228 157.839 173.228 158.25C173.228 158.653 173.305 159.013 173.459 159.328C173.62 159.636 173.84 159.878 174.119 160.054C174.405 160.23 174.727 160.318 175.087 160.318ZM182.81 161L182.755 159.988V155.5H183.635V161H182.81ZM178.894 158.316V155.5H179.774V158.316H178.894ZM179.774 158.316C179.774 158.859 179.836 159.273 179.961 159.559C180.085 159.845 180.258 160.043 180.478 160.153C180.705 160.256 180.958 160.307 181.237 160.307C181.713 160.307 182.084 160.135 182.348 159.79C182.619 159.445 182.755 158.965 182.755 158.349H183.184C183.184 158.928 183.099 159.427 182.931 159.845C182.762 160.263 182.516 160.582 182.194 160.802C181.878 161.022 181.49 161.132 181.028 161.132C180.602 161.132 180.228 161.048 179.906 160.879C179.583 160.703 179.334 160.428 179.158 160.054C178.982 159.673 178.894 159.181 178.894 158.58V158.316H179.774ZM187.238 161.132C186.703 161.132 186.289 160.993 185.995 160.714C185.702 160.435 185.555 160.043 185.555 159.537V153.784H186.435V159.449C186.435 159.728 186.509 159.944 186.655 160.098C186.809 160.245 187.022 160.318 187.293 160.318C187.381 160.318 187.466 160.307 187.546 160.285C187.634 160.256 187.748 160.19 187.887 160.087L188.228 160.802C188.038 160.927 187.865 161.011 187.711 161.055C187.557 161.106 187.4 161.132 187.238 161.132ZM184.598 156.281V155.5H188.085V156.281H184.598ZM189.383 161V155.5H190.263V161H189.383ZM189.834 154.224C189.687 154.224 189.559 154.169 189.449 154.059C189.339 153.949 189.284 153.821 189.284 153.674C189.284 153.52 189.339 153.392 189.449 153.289C189.559 153.179 189.687 153.124 189.834 153.124C189.988 153.124 190.116 153.179 190.219 153.289C190.329 153.392 190.384 153.52 190.384 153.674C190.384 153.821 190.329 153.949 190.219 154.059C190.116 154.169 189.988 154.224 189.834 154.224ZM191.884 161V155.5H192.709L192.764 156.512V161H191.884ZM195.745 161V158.184H196.625V161H195.745ZM195.745 158.184C195.745 157.641 195.683 157.227 195.558 156.941C195.434 156.655 195.261 156.461 195.041 156.358C194.821 156.248 194.572 156.193 194.293 156.193C193.809 156.193 193.432 156.365 193.16 156.71C192.896 157.047 192.764 157.528 192.764 158.151H192.335C192.335 157.572 192.42 157.073 192.588 156.655C192.757 156.237 193.003 155.918 193.325 155.698C193.648 155.478 194.037 155.368 194.491 155.368C194.924 155.368 195.298 155.456 195.613 155.632C195.936 155.801 196.185 156.072 196.361 156.446C196.545 156.82 196.633 157.311 196.625 157.92V158.184H195.745ZM200.218 163.332C199.866 163.332 199.543 163.295 199.25 163.222C198.964 163.156 198.718 163.079 198.513 162.991C198.315 162.91 198.172 162.841 198.084 162.782L198.414 162.067C198.509 162.118 198.645 162.181 198.821 162.254C198.997 162.335 199.202 162.401 199.437 162.452C199.679 162.511 199.936 162.54 200.207 162.54C200.559 162.54 200.874 162.467 201.153 162.32C201.439 162.181 201.659 161.957 201.813 161.649C201.974 161.348 202.055 160.96 202.055 160.483V155.5H202.935V160.472C202.935 161.103 202.818 161.631 202.583 162.056C202.348 162.481 202.026 162.8 201.615 163.013C201.204 163.226 200.739 163.332 200.218 163.332ZM200.185 160.956C199.694 160.956 199.261 160.839 198.887 160.604C198.513 160.369 198.22 160.043 198.007 159.625C197.802 159.2 197.699 158.716 197.699 158.173C197.699 157.616 197.802 157.128 198.007 156.71C198.22 156.285 198.513 155.955 198.887 155.72C199.261 155.485 199.694 155.368 200.185 155.368C200.647 155.368 201.05 155.485 201.395 155.72C201.74 155.955 202.007 156.285 202.198 156.71C202.396 157.128 202.495 157.616 202.495 158.173C202.495 158.723 202.396 159.207 202.198 159.625C202.007 160.043 201.74 160.369 201.395 160.604C201.05 160.839 200.647 160.956 200.185 160.956ZM200.394 160.197C200.717 160.197 201.003 160.109 201.252 159.933C201.501 159.757 201.696 159.519 201.835 159.218C201.974 158.91 202.044 158.554 202.044 158.151C202.044 157.762 201.971 157.418 201.824 157.117C201.685 156.809 201.49 156.571 201.241 156.402C200.999 156.226 200.713 156.138 200.383 156.138C200.038 156.138 199.73 156.226 199.459 156.402C199.195 156.571 198.986 156.809 198.832 157.117C198.685 157.418 198.612 157.762 198.612 158.151C198.612 158.554 198.689 158.91 198.843 159.218C198.997 159.519 199.206 159.757 199.47 159.933C199.741 160.109 200.049 160.197 200.394 160.197ZM209.117 161.132C208.714 161.132 208.362 161.073 208.061 160.956C207.76 160.831 207.507 160.67 207.302 160.472C207.104 160.274 206.961 160.058 206.873 159.823L207.643 159.504C207.768 159.753 207.955 159.955 208.204 160.109C208.453 160.263 208.728 160.34 209.029 160.34C209.374 160.34 209.663 160.274 209.898 160.142C210.133 160.003 210.25 159.808 210.25 159.559C210.25 159.332 210.162 159.148 209.986 159.009C209.817 158.87 209.564 158.756 209.227 158.668L208.699 158.525C208.2 158.393 207.812 158.195 207.533 157.931C207.254 157.66 207.115 157.355 207.115 157.018C207.115 156.497 207.284 156.094 207.621 155.808C207.966 155.515 208.475 155.368 209.15 155.368C209.473 155.368 209.766 155.416 210.03 155.511C210.294 155.606 210.521 155.742 210.712 155.918C210.903 156.087 211.042 156.288 211.13 156.523L210.36 156.864C210.265 156.615 210.107 156.435 209.887 156.325C209.667 156.215 209.399 156.16 209.084 156.16C208.747 156.16 208.483 156.233 208.292 156.38C208.101 156.519 208.006 156.717 208.006 156.974C208.006 157.121 208.083 157.26 208.237 157.392C208.398 157.517 208.633 157.619 208.941 157.7L209.491 157.843C209.85 157.931 210.151 158.063 210.393 158.239C210.635 158.408 210.818 158.602 210.943 158.822C211.068 159.042 211.13 159.277 211.13 159.526C211.13 159.856 211.042 160.142 210.866 160.384C210.69 160.626 210.452 160.813 210.151 160.945C209.85 161.07 209.506 161.132 209.117 161.132ZM214.384 161.132C213.849 161.132 213.434 160.993 213.141 160.714C212.848 160.435 212.701 160.043 212.701 159.537V153.784H213.581V159.449C213.581 159.728 213.654 159.944 213.801 160.098C213.955 160.245 214.168 160.318 214.439 160.318C214.527 160.318 214.611 160.307 214.692 160.285C214.78 160.256 214.894 160.19 215.033 160.087L215.374 160.802C215.183 160.927 215.011 161.011 214.857 161.055C214.703 161.106 214.545 161.132 214.384 161.132ZM211.744 156.281V155.5H215.231V156.281H211.744ZM218.85 161.132C218.315 161.132 217.842 161.011 217.431 160.769C217.02 160.52 216.698 160.179 216.463 159.746C216.236 159.313 216.122 158.815 216.122 158.25C216.122 157.685 216.236 157.187 216.463 156.754C216.698 156.321 217.017 155.984 217.42 155.742C217.831 155.493 218.3 155.368 218.828 155.368C219.341 155.368 219.785 155.496 220.159 155.753C220.533 156.002 220.823 156.354 221.028 156.809C221.233 157.264 221.336 157.799 221.336 158.415H216.793L217.013 158.228C217.013 158.668 217.09 159.046 217.244 159.361C217.405 159.676 217.629 159.918 217.915 160.087C218.201 160.248 218.527 160.329 218.894 160.329C219.283 160.329 219.609 160.237 219.873 160.054C220.144 159.871 220.353 159.629 220.5 159.328L221.259 159.713C221.12 159.999 220.933 160.248 220.698 160.461C220.471 160.674 220.199 160.839 219.884 160.956C219.576 161.073 219.231 161.132 218.85 161.132ZM217.068 157.854L216.837 157.678H220.632L220.401 157.865C220.401 157.513 220.331 157.209 220.192 156.952C220.053 156.695 219.866 156.497 219.631 156.358C219.396 156.219 219.125 156.149 218.817 156.149C218.516 156.149 218.23 156.219 217.959 156.358C217.695 156.497 217.479 156.695 217.31 156.952C217.149 157.201 217.068 157.502 217.068 157.854ZM222.501 163.2V155.5H223.326L223.381 156.512V163.2H222.501ZM225.24 161.132C224.778 161.132 224.371 161.011 224.019 160.769C223.674 160.527 223.406 160.19 223.216 159.757C223.025 159.317 222.93 158.815 222.93 158.25C222.93 157.678 223.025 157.176 223.216 156.743C223.406 156.31 223.674 155.973 224.019 155.731C224.371 155.489 224.778 155.368 225.24 155.368C225.731 155.368 226.164 155.489 226.538 155.731C226.912 155.973 227.201 156.31 227.407 156.743C227.619 157.176 227.726 157.678 227.726 158.25C227.726 158.815 227.619 159.317 227.407 159.757C227.201 160.19 226.912 160.527 226.538 160.769C226.164 161.011 225.731 161.132 225.24 161.132ZM225.042 160.329C225.386 160.329 225.691 160.241 225.955 160.065C226.226 159.889 226.439 159.643 226.593 159.328C226.754 159.013 226.835 158.653 226.835 158.25C226.835 157.847 226.758 157.487 226.604 157.172C226.457 156.857 226.248 156.611 225.977 156.435C225.705 156.259 225.397 156.171 225.053 156.171C224.73 156.171 224.44 156.259 224.184 156.435C223.934 156.611 223.736 156.857 223.59 157.172C223.45 157.487 223.381 157.847 223.381 158.25C223.381 158.653 223.45 159.013 223.59 159.328C223.736 159.643 223.934 159.889 224.184 160.065C224.433 160.241 224.719 160.329 225.042 160.329Z" fill="#A4A4AD"/>
<rect x="498" y="175" width="35" height="35" rx="12" fill="#2BBEAF" fill-opacity="0.5"/>
<path d="M512 194.5C512 194.5 512.5 194 514 194C515.5 194 516.5 195 518 195C519.5 195 520 194.5 520 194.5V189C520 189 519.5 189.5 518 189.5C516.5 189.5 515.5 188.5 514 188.5C512.5 188.5 512 189 512 189M512 198L512 188" stroke="white" stroke-linecap="round" stroke-linejoin="round"/>
<rect x="498.5" y="89.5" width="34" height="34" rx="11.5" stroke="#55555E"/>
<g clip-path="url(#clip0_1169_341)">
<path d="M514 107L516 109M516 109L518 107M516 109V105M521 107C521 109.761 518.761 112 516 112C513.239 112 511 109.761 511 107C511 104.239 513.239 102 516 102C518.761 102 521 104.239 521 107Z" stroke="white" stroke-linecap="round" stroke-linejoin="round"/>
</g>
<rect x="400" y="181" width="56" height="25" rx="12.5" fill="#37373D"/>
<path d="M423.087 193.581L422.43 193.266L424.482 189.9H425.355L423.087 193.581ZM422.34 196.2V193.176H423.096V196.2H422.34ZM422.349 193.581L420.081 189.9H420.963L423.006 193.266L422.349 193.581ZM427.497 196.308C427.059 196.308 426.672 196.209 426.336 196.011C426 195.807 425.736 195.528 425.544 195.174C425.358 194.82 425.265 194.412 425.265 193.95C425.265 193.488 425.358 193.08 425.544 192.726C425.736 192.372 425.997 192.096 426.327 191.898C426.663 191.694 427.047 191.592 427.479 191.592C427.899 191.592 428.262 191.697 428.568 191.907C428.874 192.111 429.111 192.399 429.279 192.771C429.447 193.143 429.531 193.581 429.531 194.085H425.814L425.994 193.932C425.994 194.292 426.057 194.601 426.183 194.859C426.315 195.117 426.498 195.315 426.732 195.453C426.966 195.585 427.233 195.651 427.533 195.651C427.851 195.651 428.118 195.576 428.334 195.426C428.556 195.276 428.727 195.078 428.847 194.832L429.468 195.147C429.354 195.381 429.201 195.585 429.009 195.759C428.823 195.933 428.601 196.068 428.343 196.164C428.091 196.26 427.809 196.308 427.497 196.308ZM426.039 193.626L425.85 193.482H428.955L428.766 193.635C428.766 193.347 428.709 193.098 428.595 192.888C428.481 192.678 428.328 192.516 428.136 192.402C427.944 192.288 427.722 192.231 427.47 192.231C427.224 192.231 426.99 192.288 426.768 192.402C426.552 192.516 426.375 192.678 426.237 192.888C426.105 193.092 426.039 193.338 426.039 193.626ZM432.014 196.308C431.684 196.308 431.396 196.26 431.15 196.164C430.904 196.062 430.697 195.93 430.529 195.768C430.367 195.606 430.25 195.429 430.178 195.237L430.808 194.976C430.91 195.18 431.063 195.345 431.267 195.471C431.471 195.597 431.696 195.66 431.942 195.66C432.224 195.66 432.461 195.606 432.653 195.498C432.845 195.384 432.941 195.225 432.941 195.021C432.941 194.835 432.869 194.685 432.725 194.571C432.587 194.457 432.38 194.364 432.104 194.292L431.672 194.175C431.264 194.067 430.946 193.905 430.718 193.689C430.49 193.467 430.376 193.218 430.376 192.942C430.376 192.516 430.514 192.186 430.79 191.952C431.072 191.712 431.489 191.592 432.041 191.592C432.305 191.592 432.545 191.631 432.761 191.709C432.977 191.787 433.163 191.898 433.319 192.042C433.475 192.18 433.589 192.345 433.661 192.537L433.031 192.816C432.953 192.612 432.824 192.465 432.644 192.375C432.464 192.285 432.245 192.24 431.987 192.24C431.711 192.24 431.495 192.3 431.339 192.42C431.183 192.534 431.105 192.696 431.105 192.906C431.105 193.026 431.168 193.14 431.294 193.248C431.426 193.35 431.618 193.434 431.87 193.5L432.32 193.617C432.614 193.689 432.86 193.797 433.058 193.941C433.256 194.079 433.406 194.238 433.508 194.418C433.61 194.598 433.661 194.79 433.661 194.994C433.661 195.264 433.589 195.498 433.445 195.696C433.301 195.894 433.106 196.047 432.86 196.155C432.614 196.257 432.332 196.308 432.014 196.308Z" fill="white"/>
<rect x="400" y="94" width="56" height="25" rx="12.5" fill="#37373D"/>
<path d="M421.837 109V102.7H422.611L426.364 107.758V102.7H427.129V109H426.364L422.602 103.915V109H421.837ZM430.589 109.108C430.151 109.108 429.761 109.009 429.419 108.811C429.083 108.607 428.819 108.328 428.627 107.974C428.435 107.62 428.339 107.212 428.339 106.75C428.339 106.288 428.432 105.88 428.618 105.526C428.81 105.172 429.074 104.896 429.41 104.698C429.752 104.494 430.139 104.392 430.571 104.392C431.015 104.392 431.405 104.494 431.741 104.698C432.083 104.896 432.347 105.172 432.533 105.526C432.725 105.88 432.821 106.288 432.821 106.75C432.821 107.212 432.725 107.62 432.533 107.974C432.347 108.328 432.086 108.607 431.75 108.811C431.414 109.009 431.027 109.108 430.589 109.108ZM430.589 108.442C430.889 108.442 431.15 108.37 431.372 108.226C431.594 108.082 431.768 107.884 431.894 107.632C432.026 107.38 432.092 107.086 432.092 106.75C432.092 106.414 432.026 106.12 431.894 105.868C431.768 105.616 431.591 105.418 431.363 105.274C431.135 105.13 430.871 105.058 430.571 105.058C430.277 105.058 430.016 105.13 429.788 105.274C429.566 105.418 429.389 105.616 429.257 105.868C429.131 106.12 429.068 106.414 429.068 106.75C429.068 107.08 429.131 107.374 429.257 107.632C429.389 107.884 429.569 108.082 429.797 108.226C430.031 108.37 430.295 108.442 430.589 108.442Z" fill="white"/>
<defs>
<clipPath id="clip0_1169_341">
<rect width="12" height="12" fill="white" transform="translate(510 101)"/>
</clipPath>
</defs>
</svg>
