<svg width="650" height="730" viewBox="0 0 650 730" fill="none" xmlns="http://www.w3.org/2000/svg">
<path d="M0 16C0 7.16345 7.16344 0 16 0H634C642.837 0 650 7.16344 650 16V714C650 722.837 642.837 730 634 730H16C7.16346 730 0 722.837 0 714V16Z" fill="#1A1A1E"/>
<path d="M325.787 300.721L325.787 571.394" stroke="#37373D" stroke-width="1.18977" stroke-linecap="round" stroke-dasharray="2.38 2.38"/>
<rect x="208.595" y="152.595" width="233.195" height="148.721" rx="18.4414" fill="#37373D"/>
<rect x="208.595" y="152.595" width="233.195" height="148.721" rx="18.4414" stroke="#37373D" stroke-width="1.18977"/>
<rect x="228.225" y="179.365" width="92.8021" height="41.642" rx="4.07921" fill="#75C6E7"/>
<rect x="332.925" y="179.365" width="89.2328" height="41.642" rx="4.07921" fill="#75C6E7"/>
<path d="M370.998 207.919L374.448 204.469M378.93 196.022C376.74 196.022 374.964 197.797 374.964 199.988M372.584 199.988C372.584 203.492 375.425 206.333 378.93 206.333C382.434 206.333 385.275 203.492 385.275 199.988C385.275 196.483 382.434 193.642 378.93 193.642C375.425 193.642 372.584 196.483 372.584 199.988Z" stroke="#1A1A1E" stroke-width="1.18977" stroke-linecap="round" stroke-linejoin="round"/>
<path d="M256.988 197.211L263.918 205.208L263.187 205.995L262.091 204.736L261.007 205.903C260.5 206.441 259.84 206.742 259.133 206.729C258.438 206.716 257.778 206.401 257.294 205.837C256.811 205.274 256.552 204.54 256.564 203.766C256.576 202.993 256.858 202.258 257.365 201.721L258.084 200.947L258.791 201.76L258.072 202.534C257.766 202.862 257.589 203.32 257.577 203.792C257.566 204.264 257.731 204.723 258.025 205.064C258.32 205.405 258.721 205.601 259.157 205.615C259.593 205.628 259.993 205.444 260.3 205.116L261.384 203.95L256.988 198.876V197.211ZM244.259 197.408V205.012H243.835H243.588V204.199C243.305 204.789 242.763 205.09 242.067 205.09C240.971 205.09 240.123 204.107 240.123 202.77C240.123 201.446 240.971 200.462 242.056 200.462C242.822 200.462 243.305 200.882 243.588 201.472V197.408H244.259ZM243.623 202.77C243.623 201.813 243.057 201.131 242.209 201.131C241.372 201.131 240.83 201.813 240.83 202.77C240.83 203.74 241.372 204.435 242.209 204.435C243.046 204.435 243.623 203.74 243.623 202.77ZM248.62 203.006C248.62 203.871 248.125 204.408 247.371 204.408C246.711 204.408 246.381 203.976 246.381 203.202V200.567H245.709V203.294C245.709 204.435 246.322 205.103 247.206 205.103C247.842 205.103 248.349 204.841 248.62 204.251V204.998H248.785H249.292V200.567H248.62V203.006ZM252.981 200.462C252.344 200.462 251.826 200.725 251.567 201.328V200.567H251.307H250.895V205.012H251.567V202.56C251.567 201.682 252.073 201.157 252.816 201.157C253.488 201.157 253.806 201.603 253.806 202.39V205.012H254.478V202.298C254.478 201.144 253.865 200.462 252.981 200.462Z" fill="#1A1A1E"/>
<path d="M263.088 199.86C263.582 200.413 263.847 201.132 263.835 201.891C263.823 202.649 263.534 203.368 263.016 203.895L262.92 203.985L262.197 203.201L262.294 203.111C262.607 202.79 262.787 202.34 262.799 201.878C262.811 201.415 262.643 200.965 262.342 200.631C262.173 200.439 261.98 200.297 261.752 200.207V199.064C262.257 199.179 262.715 199.449 263.088 199.86ZM257.297 196.7L256.779 197.226L257.502 198.023L258.019 197.496C258.513 196.995 259.296 197.008 259.765 197.522C260.235 198.049 260.223 198.884 259.729 199.385L259.223 199.899L259.946 200.696L260.451 200.182C261.354 199.257 261.379 197.715 260.512 196.751C259.645 195.8 258.2 195.774 257.297 196.7ZM285.373 204.525C285.638 205.077 286.216 205.54 287.119 205.54C288.142 205.54 288.612 204.987 288.612 204.242C288.612 203.394 287.95 203.111 287.263 202.906C286.541 202.687 286.3 202.572 286.3 202.16C286.3 201.826 286.565 201.608 287.011 201.608C287.408 201.608 287.697 201.801 287.902 202.109L288.371 201.724C288.082 201.287 287.637 201.017 287.011 201.017C286.264 201.017 285.674 201.454 285.674 202.212C285.674 203.034 286.264 203.304 286.902 203.51C287.613 203.728 287.974 203.831 287.974 204.306C287.974 204.704 287.661 204.961 287.107 204.961C286.517 204.961 286.156 204.64 285.927 204.229L285.373 204.525ZM290.334 204.126C290.334 205.154 290.803 205.54 291.429 205.54C291.935 205.54 292.248 205.308 292.428 205.103L292.055 204.64C291.923 204.769 291.778 204.897 291.501 204.897C291.2 204.897 291.02 204.717 291.02 204.139V201.711H292.164V201.094H291.02V197.997H290.334V201.094H289.707V201.711H290.334V204.126ZM293.861 205.45H294.547V203.15C294.547 202.135 295.017 201.685 295.607 201.685C295.86 201.685 296.04 201.762 296.173 201.852L296.438 201.21C296.245 201.068 296.028 201.004 295.727 201.004C295.246 201.004 294.788 201.171 294.535 201.839L294.559 201.094H293.873V205.45H293.861ZM300.459 202.957C300.399 202.212 299.953 201.621 299.098 201.621C298.316 201.621 297.798 202.16 297.69 202.957H300.459ZM299.195 204.91C299.809 204.91 300.218 204.653 300.483 204.332L300.904 204.769C300.531 205.218 299.989 205.527 299.183 205.527C297.846 205.527 296.967 204.537 296.967 203.265C296.967 201.993 297.882 200.991 299.074 200.991C300.387 200.991 301.181 202.07 301.121 203.51H297.654C297.762 204.345 298.304 204.91 299.195 204.91ZM305.792 202.957C305.732 202.212 305.287 201.621 304.432 201.621C303.649 201.621 303.132 202.16 303.023 202.957H305.792ZM304.528 204.91C305.142 204.91 305.551 204.653 305.816 204.332L306.238 204.769C305.864 205.218 305.323 205.527 304.516 205.527C303.18 205.527 302.301 204.537 302.301 203.265C302.301 201.993 303.216 200.991 304.408 200.991C305.72 200.991 306.515 202.07 306.454 203.51H302.987C303.107 204.345 303.637 204.91 304.528 204.91ZM308.224 204.126C308.224 205.154 308.694 205.54 309.32 205.54C309.825 205.54 310.138 205.308 310.319 205.103L309.946 204.64C309.813 204.769 309.669 204.897 309.392 204.897C309.091 204.897 308.91 204.717 308.91 204.139V201.711H310.054V201.094H308.91V197.997H308.224V201.094H307.598V201.711H308.224V204.126ZM268.349 200.991C267.591 200.991 267.073 201.299 266.784 201.878V197.997H266.098V205.45H266.531H266.784V204.653C267.061 205.231 267.627 205.527 268.337 205.527C269.457 205.527 270.324 204.563 270.324 203.253C270.324 201.968 269.457 200.991 268.349 200.991ZM268.193 204.884C267.326 204.884 266.748 204.203 266.748 203.253C266.748 202.315 267.326 201.646 268.193 201.646C269.048 201.646 269.601 202.315 269.601 203.253C269.614 204.203 269.06 204.884 268.193 204.884ZM272.467 201.788V201.094H272.178H271.781V205.45H272.467V203.15C272.467 202.135 272.936 201.685 273.526 201.685C273.779 201.685 273.96 201.762 274.092 201.852L274.357 201.21C274.164 201.068 273.948 201.004 273.647 201.004C273.165 201.004 272.72 201.171 272.467 201.788ZM276.885 200.991C276.103 200.991 275.573 201.312 275.224 201.839L275.645 202.25C275.898 201.878 276.271 201.621 276.837 201.621C277.439 201.621 277.788 201.942 277.788 202.79V202.893H276.512C275.657 202.893 274.959 203.317 274.959 204.203C274.959 205.103 275.585 205.527 276.464 205.527C277.09 205.527 277.511 205.347 277.788 204.936V205.437H277.909H278.426V202.777C278.438 201.569 277.788 200.991 276.885 200.991ZM277.788 203.998C277.788 204.563 277.259 204.936 276.621 204.936C275.982 204.936 275.633 204.679 275.633 204.178C275.633 203.651 276.043 203.445 276.56 203.445H277.788V203.998ZM283.351 197.997V201.878C283.05 201.299 282.556 200.991 281.785 200.991C280.678 200.991 279.811 201.955 279.811 203.253C279.811 204.563 280.678 205.527 281.798 205.527C282.508 205.527 283.074 205.231 283.351 204.653V205.45H283.543H284.025V197.997H283.351ZM281.93 204.884C281.075 204.884 280.521 204.203 280.521 203.253C280.521 202.315 281.075 201.646 281.93 201.646C282.797 201.646 283.375 202.315 283.375 203.253C283.375 204.203 282.797 204.884 281.93 204.884ZM294.307 202.237H294.547V201.081H294.307V202.237Z" fill="#1A1A1E"/>
<rect x="228.226" y="232.904" width="193.933" height="41.642" rx="4.07921" fill="#75C6E7"/>
<path d="M284.508 258.992V248.998H285.95L291.604 256.65V248.998H293.018V258.992H291.604L285.907 251.268V258.992H284.508ZM298.392 259.163C297.697 259.163 297.083 259.006 296.55 258.692C296.017 258.368 295.598 257.926 295.293 257.364C294.989 256.803 294.837 256.155 294.837 255.422C294.837 254.689 294.989 254.042 295.293 253.481C295.598 252.919 296.017 252.481 296.55 252.167C297.092 251.844 297.711 251.682 298.406 251.682C299.063 251.682 299.639 251.848 300.133 252.181C300.628 252.505 301.014 252.971 301.29 253.581C301.575 254.18 301.718 254.889 301.718 255.708H295.95L296.207 255.494C296.207 255.998 296.307 256.436 296.507 256.807C296.707 257.178 296.978 257.464 297.321 257.664C297.664 257.854 298.054 257.949 298.492 257.949C298.968 257.949 299.363 257.84 299.677 257.621C300 257.393 300.252 257.107 300.433 256.764L301.604 257.307C301.414 257.678 301.166 258.007 300.862 258.292C300.557 258.568 300.195 258.782 299.777 258.935C299.367 259.087 298.906 259.163 298.392 259.163ZM296.293 254.851L296.022 254.637H300.533L300.276 254.851C300.276 254.432 300.191 254.076 300.019 253.781C299.848 253.476 299.619 253.247 299.334 253.095C299.048 252.933 298.73 252.852 298.377 252.852C298.035 252.852 297.702 252.933 297.378 253.095C297.064 253.247 296.802 253.471 296.593 253.766C296.393 254.061 296.293 254.423 296.293 254.851ZM309.374 258.992L311.787 251.853H313.143L310.716 258.992H309.374ZM304.563 258.992L306.933 251.853H308.161L305.819 258.992H304.563ZM304.463 258.992L302.036 251.853H303.406L305.762 258.992H304.463ZM309.374 258.992L307.033 251.853H308.275L310.63 258.992H309.374ZM320.939 259.163C320.225 259.163 319.596 259.006 319.054 258.692C318.511 258.368 318.083 257.926 317.769 257.364C317.464 256.803 317.312 256.155 317.312 255.422C317.312 254.689 317.464 254.042 317.769 253.481C318.074 252.919 318.497 252.481 319.04 252.167C319.582 251.844 320.206 251.682 320.91 251.682C321.614 251.682 322.238 251.844 322.78 252.167C323.323 252.481 323.746 252.919 324.051 253.481C324.356 254.042 324.508 254.689 324.508 255.422C324.508 256.155 324.356 256.803 324.051 257.364C323.746 257.926 323.323 258.368 322.78 258.692C322.247 259.006 321.633 259.163 320.939 259.163ZM320.939 257.921C321.367 257.921 321.748 257.816 322.081 257.607C322.414 257.388 322.671 257.093 322.852 256.722C323.042 256.35 323.137 255.917 323.137 255.422C323.137 254.927 323.042 254.494 322.852 254.123C322.671 253.752 322.409 253.462 322.066 253.252C321.724 253.033 321.338 252.924 320.91 252.924C320.472 252.924 320.087 253.033 319.754 253.252C319.42 253.462 319.159 253.752 318.968 254.123C318.778 254.494 318.683 254.927 318.683 255.422C318.683 255.917 318.778 256.35 318.968 256.722C319.159 257.093 319.425 257.388 319.768 257.607C320.11 257.816 320.501 257.921 320.939 257.921ZM332.31 258.992L334.723 251.853H336.079L333.652 258.992H332.31ZM327.498 258.992L329.868 251.853H331.096L328.755 258.992H327.498ZM327.398 258.992L324.971 251.853H326.342L328.698 258.992H327.398ZM332.31 258.992L329.968 251.853H331.21L333.566 258.992H332.31ZM337.162 258.992V251.853H338.433L338.518 253.167V258.992H337.162ZM342.102 258.992V255.337H343.458V258.992H342.102ZM342.102 255.337C342.102 254.689 342.026 254.199 341.873 253.866C341.731 253.524 341.526 253.286 341.259 253.152C341.002 253.019 340.703 252.948 340.36 252.938C339.779 252.938 339.327 253.143 339.004 253.552C338.68 253.961 338.518 254.537 338.518 255.28H337.933C337.933 254.528 338.042 253.885 338.261 253.352C338.49 252.81 338.808 252.396 339.218 252.11C339.637 251.825 340.132 251.682 340.703 251.682C341.264 251.682 341.75 251.796 342.159 252.024C342.578 252.253 342.897 252.61 343.115 253.095C343.344 253.571 343.458 254.199 343.458 254.98V255.337H342.102ZM348.32 259.163C347.625 259.163 347.011 259.006 346.478 258.692C345.945 258.368 345.527 257.926 345.222 257.364C344.917 256.803 344.765 256.155 344.765 255.422C344.765 254.689 344.917 254.042 345.222 253.481C345.527 252.919 345.945 252.481 346.478 252.167C347.021 251.844 347.64 251.682 348.334 251.682C348.991 251.682 349.567 251.848 350.062 252.181C350.557 252.505 350.942 252.971 351.218 253.581C351.504 254.18 351.647 254.889 351.647 255.708H345.879L346.136 255.494C346.136 255.998 346.236 256.436 346.436 256.807C346.635 257.178 346.907 257.464 347.249 257.664C347.592 257.854 347.982 257.949 348.42 257.949C348.896 257.949 349.291 257.84 349.605 257.621C349.929 257.393 350.181 257.107 350.362 256.764L351.533 257.307C351.342 257.678 351.095 258.007 350.79 258.292C350.486 258.568 350.124 258.782 349.705 258.935C349.296 259.087 348.834 259.163 348.32 259.163ZM346.221 254.851L345.95 254.637H350.462L350.205 254.851C350.205 254.432 350.119 254.076 349.948 253.781C349.776 253.476 349.548 253.247 349.262 253.095C348.977 252.933 348.658 252.852 348.306 252.852C347.963 252.852 347.63 252.933 347.306 253.095C346.992 253.247 346.731 253.471 346.521 253.766C346.321 254.061 346.221 254.423 346.221 254.851ZM353.815 255.151C353.815 254.38 353.962 253.752 354.257 253.267C354.552 252.781 354.933 252.419 355.4 252.181C355.866 251.943 356.356 251.825 356.87 251.825V253.109C356.442 253.109 356.033 253.176 355.642 253.309C355.262 253.433 354.947 253.642 354.7 253.938C354.462 254.223 354.343 254.613 354.343 255.108L353.815 255.151ZM352.987 258.992V251.853H354.343V258.992H352.987ZM360.52 259.163C360.015 259.163 359.563 259.087 359.164 258.935C358.773 258.782 358.44 258.578 358.164 258.321C357.898 258.064 357.698 257.773 357.564 257.45L358.735 256.936C358.888 257.231 359.116 257.474 359.421 257.664C359.725 257.854 360.063 257.949 360.434 257.949C360.843 257.949 361.181 257.873 361.448 257.721C361.714 257.569 361.848 257.355 361.848 257.079C361.848 256.812 361.748 256.603 361.548 256.45C361.348 256.298 361.058 256.174 360.677 256.079L360.006 255.908C359.34 255.727 358.821 255.456 358.45 255.094C358.088 254.732 357.907 254.323 357.907 253.866C357.907 253.171 358.131 252.634 358.578 252.253C359.026 251.872 359.687 251.682 360.563 251.682C360.991 251.682 361.381 251.744 361.733 251.867C362.095 251.991 362.4 252.167 362.647 252.396C362.904 252.624 363.085 252.895 363.19 253.209L362.048 253.723C361.933 253.438 361.738 253.228 361.462 253.095C361.186 252.952 360.863 252.881 360.491 252.881C360.111 252.881 359.811 252.967 359.592 253.138C359.373 253.3 359.263 253.528 359.263 253.823C359.263 253.985 359.354 254.142 359.535 254.294C359.725 254.437 360.001 254.556 360.363 254.651L361.134 254.837C361.6 254.951 361.986 255.127 362.29 255.365C362.595 255.594 362.823 255.855 362.976 256.151C363.128 256.436 363.204 256.736 363.204 257.05C363.204 257.478 363.085 257.854 362.847 258.178C362.619 258.492 362.3 258.735 361.89 258.906C361.491 259.077 361.034 259.163 360.52 259.163Z" fill="#1A1A1E"/>
<rect x="208.595" y="442.899" width="233.195" height="74.9555" rx="8.92328" fill="#37373D" stroke="#37373D" stroke-width="1.18977"/>
<path d="M298.032 474.34L302.044 464.346H303.543L299.446 474.34H298.032ZM297.89 474.34L293.792 464.346H295.291L299.289 474.34H297.89ZM307.2 474.511C306.505 474.511 305.891 474.354 305.358 474.04C304.825 473.717 304.407 473.274 304.102 472.712C303.797 472.151 303.645 471.504 303.645 470.771C303.645 470.038 303.797 469.391 304.102 468.829C304.407 468.267 304.825 467.83 305.358 467.516C305.901 467.192 306.52 467.03 307.214 467.03C307.871 467.03 308.447 467.197 308.942 467.53C309.437 467.853 309.822 468.32 310.098 468.929C310.384 469.529 310.527 470.238 310.527 471.056H304.759L305.016 470.842C305.016 471.347 305.116 471.784 305.316 472.156C305.515 472.527 305.787 472.812 306.129 473.012C306.472 473.203 306.862 473.298 307.3 473.298C307.776 473.298 308.171 473.188 308.485 472.969C308.809 472.741 309.061 472.455 309.242 472.113L310.413 472.655C310.222 473.027 309.975 473.355 309.67 473.641C309.366 473.917 309.004 474.131 308.585 474.283C308.176 474.435 307.714 474.511 307.2 474.511ZM305.101 470.2L304.83 469.986H309.342L309.085 470.2C309.085 469.781 308.999 469.424 308.828 469.129C308.656 468.824 308.428 468.596 308.142 468.444C307.857 468.282 307.538 468.201 307.186 468.201C306.843 468.201 306.51 468.282 306.186 468.444C305.872 468.596 305.611 468.82 305.401 469.115C305.201 469.41 305.101 469.771 305.101 470.2ZM312.695 470.5C312.695 469.729 312.842 469.1 313.137 468.615C313.432 468.129 313.813 467.768 314.28 467.53C314.746 467.292 315.236 467.173 315.75 467.173V468.458C315.322 468.458 314.913 468.524 314.522 468.658C314.142 468.781 313.827 468.991 313.58 469.286C313.342 469.571 313.223 469.962 313.223 470.457L312.695 470.5ZM311.867 474.34V467.201H313.223V474.34H311.867ZM316.93 474.34V467.201H318.286V474.34H316.93ZM317.615 465.688C317.396 465.688 317.206 465.607 317.044 465.445C316.882 465.274 316.801 465.079 316.801 464.86C316.801 464.632 316.882 464.441 317.044 464.289C317.206 464.127 317.396 464.046 317.615 464.046C317.844 464.046 318.034 464.127 318.186 464.289C318.348 464.441 318.429 464.632 318.429 464.86C318.429 465.079 318.348 465.274 318.186 465.445C318.034 465.607 317.844 465.688 317.615 465.688ZM320.988 474.34V466.416C320.988 465.664 321.169 465.098 321.531 464.717C321.892 464.327 322.439 464.132 323.172 464.132C323.391 464.132 323.629 464.17 323.886 464.246C324.143 464.313 324.405 464.408 324.672 464.532L324.172 465.574C323.972 465.479 323.796 465.412 323.644 465.374C323.501 465.326 323.377 465.303 323.272 465.303C322.958 465.303 322.725 465.407 322.573 465.617C322.42 465.817 322.344 466.131 322.344 466.559V474.34H320.988ZM319.717 468.329V467.201H324.315V468.329H319.717ZM326.356 474.34V466.416C326.356 465.664 326.537 465.098 326.898 464.717C327.26 464.327 327.807 464.132 328.54 464.132C328.759 464.132 328.997 464.17 329.254 464.246C329.511 464.313 329.773 464.408 330.039 464.532L329.54 465.574C329.34 465.479 329.164 465.412 329.011 465.374C328.869 465.326 328.745 465.303 328.64 465.303C328.326 465.303 328.093 465.407 327.941 465.617C327.788 465.817 327.712 466.131 327.712 466.559V474.34H326.356ZM325.085 468.329V467.201H329.682V468.329H325.085Z" fill="white"/>
<path d="M296.961 493.946L300.024 486.45H300.977L297.872 493.946H296.961ZM296.865 493.946L293.76 486.45H294.713L297.765 493.946H296.865ZM303.754 494.074C303.233 494.074 302.772 493.957 302.372 493.721C301.973 493.478 301.659 493.146 301.43 492.725C301.209 492.304 301.098 491.818 301.098 491.269C301.098 490.719 301.209 490.234 301.43 489.813C301.659 489.391 301.969 489.063 302.362 488.827C302.761 488.585 303.218 488.463 303.732 488.463C304.232 488.463 304.664 488.588 305.028 488.838C305.392 489.081 305.674 489.423 305.874 489.866C306.074 490.309 306.174 490.83 306.174 491.429H301.751L301.966 491.247C301.966 491.676 302.04 492.043 302.19 492.35C302.347 492.657 302.565 492.893 302.844 493.057C303.122 493.214 303.44 493.293 303.797 493.293C304.175 493.293 304.493 493.203 304.75 493.025C305.014 492.846 305.217 492.611 305.36 492.318L306.099 492.693C305.963 492.971 305.781 493.214 305.553 493.421C305.331 493.628 305.067 493.789 304.76 493.903C304.46 494.017 304.125 494.074 303.754 494.074ZM302.019 490.883L301.794 490.712H305.488L305.264 490.894C305.264 490.551 305.196 490.255 305.06 490.005C304.924 489.755 304.742 489.563 304.514 489.427C304.286 489.291 304.021 489.224 303.722 489.224C303.429 489.224 303.151 489.291 302.886 489.427C302.629 489.563 302.419 489.755 302.255 490.005C302.098 490.248 302.019 490.541 302.019 490.883ZM307.725 491.044C307.725 490.466 307.836 489.998 308.057 489.641C308.279 489.277 308.561 489.009 308.903 488.838C309.253 488.66 309.621 488.57 310.006 488.57V489.374C309.692 489.374 309.389 489.427 309.096 489.534C308.81 489.634 308.575 489.802 308.389 490.037C308.204 490.273 308.111 490.594 308.111 491.001L307.725 491.044ZM307.254 493.946V488.592H308.111V493.946H307.254ZM310.926 493.946V488.592H311.782V493.946H310.926ZM311.365 487.35C311.222 487.35 311.097 487.296 310.99 487.189C310.883 487.082 310.829 486.957 310.829 486.814C310.829 486.664 310.883 486.539 310.99 486.44C311.097 486.332 311.222 486.279 311.365 486.279C311.515 486.279 311.64 486.332 311.74 486.44C311.847 486.539 311.9 486.664 311.9 486.814C311.9 486.957 311.847 487.082 311.74 487.189C311.64 487.296 311.515 487.35 311.365 487.35ZM313.896 493.946V487.981C313.896 487.425 314.025 487.007 314.282 486.729C314.546 486.443 314.946 486.3 315.481 486.3C315.624 486.3 315.785 486.325 315.963 486.375C316.142 486.425 316.331 486.497 316.531 486.589L316.209 487.264C316.045 487.2 315.906 487.15 315.792 487.114C315.678 487.078 315.581 487.061 315.503 487.061C315.253 487.061 315.064 487.143 314.935 487.307C314.814 487.464 314.753 487.71 314.753 488.046V493.946H313.896ZM312.911 489.331V488.592H316.306V489.331H312.911ZM317.796 496.216C317.66 496.216 317.503 496.187 317.324 496.13C317.146 496.08 316.957 496.012 316.757 495.927L317.078 495.209C317.242 495.281 317.385 495.334 317.507 495.37C317.635 495.406 317.735 495.423 317.806 495.423C317.999 495.423 318.156 495.37 318.277 495.263C318.406 495.163 318.513 495.017 318.599 494.824L319.209 493.368L321.19 488.592H322.111L319.541 494.695C319.405 495.009 319.263 495.281 319.113 495.509C318.97 495.738 318.795 495.912 318.588 496.034C318.381 496.155 318.117 496.216 317.796 496.216ZM318.973 493.946L316.661 488.592H317.571L319.562 493.357L319.819 493.946H318.973ZM329.558 493.946L329.515 492.95V486.45H330.371V493.946H329.558ZM327.705 494.074C327.227 494.074 326.806 493.957 326.442 493.721C326.078 493.485 325.792 493.157 325.585 492.736C325.385 492.307 325.285 491.818 325.285 491.269C325.285 490.712 325.385 490.223 325.585 489.802C325.792 489.381 326.078 489.052 326.442 488.817C326.806 488.581 327.227 488.463 327.705 488.463C328.155 488.463 328.548 488.581 328.883 488.817C329.226 489.052 329.49 489.381 329.675 489.802C329.861 490.223 329.954 490.712 329.954 491.269C329.954 491.818 329.861 492.307 329.675 492.736C329.49 493.157 329.226 493.485 328.883 493.721C328.548 493.957 328.155 494.074 327.705 494.074ZM327.898 493.293C328.212 493.293 328.49 493.207 328.733 493.036C328.976 492.864 329.165 492.625 329.301 492.318C329.443 492.011 329.515 491.661 329.515 491.269C329.515 490.876 329.443 490.526 329.301 490.219C329.165 489.912 328.976 489.673 328.733 489.502C328.49 489.331 328.208 489.245 327.887 489.245C327.552 489.245 327.252 489.331 326.988 489.502C326.731 489.673 326.527 489.912 326.377 490.219C326.227 490.526 326.152 490.876 326.152 491.269C326.152 491.661 326.227 492.011 326.377 492.318C326.527 492.625 326.734 492.864 326.998 493.036C327.263 493.207 327.562 493.293 327.898 493.293ZM334.236 494.074C333.715 494.074 333.251 493.957 332.844 493.721C332.445 493.478 332.13 493.146 331.902 492.725C331.674 492.304 331.559 491.818 331.559 491.269C331.559 490.719 331.67 490.234 331.891 489.813C332.12 489.391 332.434 489.063 332.834 488.827C333.24 488.585 333.701 488.463 334.215 488.463C334.743 488.463 335.207 488.585 335.607 488.827C336.014 489.063 336.328 489.391 336.549 489.813C336.778 490.234 336.892 490.719 336.892 491.269C336.892 491.818 336.778 492.304 336.549 492.725C336.328 493.146 336.017 493.478 335.618 493.721C335.218 493.957 334.757 494.074 334.236 494.074ZM334.236 493.282C334.593 493.282 334.904 493.196 335.168 493.025C335.432 492.854 335.639 492.618 335.789 492.318C335.946 492.018 336.025 491.669 336.025 491.269C336.025 490.869 335.946 490.519 335.789 490.219C335.639 489.92 335.428 489.684 335.157 489.513C334.886 489.341 334.572 489.256 334.215 489.256C333.865 489.256 333.555 489.341 333.283 489.513C333.019 489.684 332.809 489.92 332.652 490.219C332.502 490.519 332.427 490.869 332.427 491.269C332.427 491.661 332.502 492.011 332.652 492.318C332.809 492.618 333.023 492.854 333.294 493.025C333.572 493.196 333.887 493.282 334.236 493.282ZM340.469 494.074C339.941 494.074 339.473 493.957 339.066 493.721C338.66 493.478 338.342 493.146 338.113 492.725C337.885 492.304 337.771 491.818 337.771 491.269C337.771 490.719 337.881 490.234 338.103 489.813C338.331 489.391 338.649 489.063 339.056 488.827C339.463 488.585 339.927 488.463 340.448 488.463C340.962 488.463 341.422 488.581 341.829 488.817C342.236 489.052 342.547 489.384 342.761 489.813L341.979 490.166C341.836 489.88 341.629 489.659 341.358 489.502C341.087 489.338 340.776 489.256 340.426 489.256C340.077 489.256 339.766 489.341 339.495 489.513C339.231 489.684 339.02 489.923 338.863 490.23C338.713 490.53 338.638 490.876 338.638 491.269C338.638 491.661 338.713 492.011 338.863 492.318C339.02 492.618 339.234 492.854 339.505 493.025C339.784 493.196 340.098 493.282 340.448 493.282C340.798 493.282 341.108 493.193 341.379 493.014C341.658 492.836 341.868 492.586 342.011 492.265L342.793 492.618C342.579 493.075 342.268 493.432 341.861 493.689C341.454 493.946 340.99 494.074 340.469 494.074ZM347.547 493.946L347.494 492.961V488.592H348.35V493.946H347.547ZM343.735 491.333V488.592H344.592V491.333H343.735ZM344.592 491.333C344.592 491.861 344.653 492.265 344.774 492.543C344.895 492.821 345.063 493.014 345.277 493.121C345.498 493.221 345.745 493.271 346.016 493.271C346.48 493.271 346.841 493.103 347.098 492.768C347.362 492.432 347.494 491.965 347.494 491.365H347.911C347.911 491.929 347.829 492.415 347.665 492.821C347.501 493.228 347.262 493.539 346.948 493.753C346.641 493.967 346.262 494.074 345.813 494.074C345.399 494.074 345.034 493.992 344.72 493.828C344.406 493.657 344.164 493.389 343.992 493.025C343.821 492.654 343.735 492.175 343.735 491.59V491.333H344.592ZM349.845 493.946V488.592H350.648L350.691 489.341C350.856 489.056 351.066 488.838 351.323 488.688C351.58 488.538 351.88 488.463 352.223 488.463C352.651 488.463 353.015 488.563 353.315 488.763C353.622 488.963 353.843 489.266 353.979 489.673C354.129 489.281 354.346 488.981 354.632 488.774C354.925 488.567 355.271 488.463 355.671 488.463C356.27 488.463 356.741 488.663 357.084 489.063C357.434 489.463 357.605 490.07 357.598 490.883V493.946H356.741V491.205C356.741 490.676 356.684 490.273 356.57 489.995C356.463 489.716 356.317 489.527 356.131 489.427C355.945 489.32 355.731 489.266 355.488 489.266C355.067 489.266 354.739 489.434 354.503 489.77C354.268 490.098 354.15 490.566 354.15 491.172V493.946H353.293V491.205C353.293 490.676 353.236 490.273 353.122 489.995C353.015 489.716 352.865 489.527 352.672 489.427C352.487 489.32 352.273 489.266 352.03 489.266C351.616 489.266 351.291 489.434 351.055 489.77C350.82 490.098 350.702 490.566 350.702 491.172V493.946H349.845ZM361.298 494.074C360.777 494.074 360.317 493.957 359.917 493.721C359.517 493.478 359.203 493.146 358.975 492.725C358.754 492.304 358.643 491.818 358.643 491.269C358.643 490.719 358.754 490.234 358.975 489.813C359.203 489.391 359.514 489.063 359.906 488.827C360.306 488.585 360.763 488.463 361.277 488.463C361.777 488.463 362.209 488.588 362.573 488.838C362.937 489.081 363.219 489.423 363.419 489.866C363.618 490.309 363.718 490.83 363.718 491.429H359.296L359.51 491.247C359.51 491.676 359.585 492.043 359.735 492.35C359.892 492.657 360.11 492.893 360.388 493.057C360.667 493.214 360.984 493.293 361.341 493.293C361.72 493.293 362.037 493.203 362.294 493.025C362.558 492.846 362.762 492.611 362.905 492.318L363.643 492.693C363.508 492.971 363.326 493.214 363.097 493.421C362.876 493.628 362.612 493.789 362.305 493.903C362.005 494.017 361.67 494.074 361.298 494.074ZM359.564 490.883L359.339 490.712H363.033L362.808 490.894C362.808 490.551 362.74 490.255 362.605 490.005C362.469 489.755 362.287 489.563 362.059 489.427C361.83 489.291 361.566 489.224 361.266 489.224C360.974 489.224 360.695 489.291 360.431 489.427C360.174 489.563 359.964 489.755 359.799 490.005C359.642 490.248 359.564 490.541 359.564 490.883ZM364.799 493.946V488.592H365.602L365.655 489.577V493.946H364.799ZM368.557 493.946V491.205H369.414V493.946H368.557ZM368.557 491.205C368.557 490.676 368.497 490.273 368.375 489.995C368.254 489.716 368.086 489.527 367.872 489.427C367.658 489.32 367.415 489.266 367.144 489.266C366.673 489.266 366.305 489.434 366.041 489.77C365.784 490.098 365.655 490.566 365.655 491.172H365.238C365.238 490.608 365.32 490.123 365.484 489.716C365.648 489.309 365.887 488.999 366.202 488.785C366.516 488.57 366.894 488.463 367.337 488.463C367.758 488.463 368.122 488.549 368.429 488.72C368.743 488.885 368.986 489.149 369.157 489.513C369.335 489.877 369.421 490.355 369.414 490.948V491.205H368.557ZM372.783 494.074C372.262 494.074 371.858 493.939 371.573 493.667C371.287 493.396 371.145 493.014 371.145 492.522V486.921H372.001V492.436C372.001 492.707 372.073 492.918 372.215 493.068C372.365 493.211 372.572 493.282 372.836 493.282C372.922 493.282 373.004 493.271 373.083 493.25C373.168 493.221 373.279 493.157 373.415 493.057L373.747 493.753C373.561 493.874 373.393 493.957 373.243 493.999C373.093 494.049 372.94 494.074 372.783 494.074ZM370.213 489.352V488.592H373.607V489.352H370.213Z" fill="#A4A4AD"/>
<rect x="227.036" y="461.34" width="38.0727" height="38.0727" rx="9.51816" fill="#2BBEAF" fill-opacity="0.22"/>
<path d="M247.262 478.052V488.705L247.297 488.705C247.982 483.323 251.027 479.806 255.591 478.132V467.289C250.343 468.246 247.262 471.714 247.262 478.052Z" fill="#14E5C5"/>
<path d="M236.555 487.475L244.883 494.654V480.416L236.555 473.238V487.475Z" fill="#14E5C5"/>
<rect x="208.595" y="342.958" width="233.195" height="74.9555" rx="8.92328" fill="#37373D" stroke="#37373D" stroke-width="1.18977"/>
<path d="M285.416 374.399V364.405H288.785C289.452 364.405 290.037 364.539 290.541 364.805C291.055 365.062 291.455 365.424 291.741 365.89C292.036 366.347 292.183 366.88 292.183 367.489C292.183 368.089 292.026 368.622 291.712 369.088C291.408 369.555 290.989 369.921 290.456 370.188C289.923 370.445 289.323 370.573 288.657 370.573H286.815V374.399H285.416ZM290.998 374.399L288.628 370.316L289.742 369.574L292.583 374.399H290.998ZM286.815 369.288H288.914C289.257 369.288 289.561 369.212 289.828 369.06C290.104 368.898 290.323 368.684 290.484 368.417C290.656 368.141 290.741 367.832 290.741 367.489C290.741 366.956 290.556 366.523 290.185 366.19C289.813 365.857 289.333 365.69 288.743 365.69H286.815V369.288ZM297.25 374.571C296.555 374.571 295.941 374.414 295.408 374.1C294.875 373.776 294.456 373.333 294.152 372.772C293.847 372.21 293.695 371.563 293.695 370.83C293.695 370.097 293.847 369.45 294.152 368.888C294.456 368.327 294.875 367.889 295.408 367.575C295.951 367.251 296.569 367.089 297.264 367.089C297.921 367.089 298.497 367.256 298.992 367.589C299.487 367.913 299.872 368.379 300.148 368.988C300.434 369.588 300.576 370.297 300.576 371.116H294.808L295.065 370.901C295.065 371.406 295.165 371.844 295.365 372.215C295.565 372.586 295.836 372.872 296.179 373.072C296.522 373.262 296.912 373.357 297.35 373.357C297.826 373.357 298.221 373.248 298.535 373.029C298.858 372.8 299.111 372.515 299.291 372.172L300.462 372.715C300.272 373.086 300.024 373.414 299.72 373.7C299.415 373.976 299.053 374.19 298.635 374.342C298.225 374.495 297.764 374.571 297.25 374.571ZM295.151 370.259L294.88 370.045H299.391L299.134 370.259C299.134 369.84 299.049 369.483 298.877 369.188C298.706 368.884 298.478 368.655 298.192 368.503C297.907 368.341 297.588 368.26 297.236 368.26C296.893 368.26 296.56 368.341 296.236 368.503C295.922 368.655 295.66 368.879 295.451 369.174C295.251 369.469 295.151 369.831 295.151 370.259ZM307.085 377.255V368.589L307.156 367.261H308.427V377.255H307.085ZM304.743 374.571C304.096 374.571 303.53 374.414 303.044 374.1C302.568 373.785 302.192 373.348 301.916 372.786C301.65 372.225 301.517 371.573 301.517 370.83C301.517 370.078 301.65 369.426 301.916 368.874C302.192 368.313 302.568 367.875 303.044 367.561C303.53 367.247 304.096 367.089 304.743 367.089C305.343 367.089 305.862 367.247 306.299 367.561C306.747 367.875 307.089 368.313 307.327 368.874C307.565 369.426 307.684 370.078 307.684 370.83C307.684 371.573 307.565 372.225 307.327 372.786C307.089 373.348 306.747 373.785 306.299 374.1C305.862 374.414 305.343 374.571 304.743 374.571ZM305.057 373.343C305.457 373.343 305.809 373.238 306.114 373.029C306.418 372.81 306.656 372.515 306.828 372.144C306.999 371.763 307.085 371.325 307.085 370.83C307.085 370.335 306.999 369.902 306.828 369.531C306.656 369.15 306.418 368.855 306.114 368.646C305.809 368.427 305.452 368.317 305.043 368.317C304.624 368.317 304.253 368.427 303.929 368.646C303.606 368.855 303.354 369.15 303.173 369.531C302.992 369.902 302.901 370.335 302.901 370.83C302.901 371.325 302.992 371.763 303.173 372.144C303.363 372.515 303.62 372.81 303.944 373.029C304.267 373.238 304.639 373.343 305.057 373.343ZM315.066 374.399L314.981 373.086V367.261H316.323V374.399H315.066ZM310.041 370.916V367.261H311.397V370.916H310.041ZM311.397 370.916C311.397 371.553 311.469 372.044 311.611 372.386C311.764 372.729 311.973 372.967 312.24 373.1C312.506 373.233 312.806 373.305 313.139 373.314C313.72 373.314 314.172 373.11 314.495 372.7C314.819 372.291 314.981 371.715 314.981 370.973H315.566C315.566 371.725 315.452 372.372 315.224 372.915C315.005 373.448 314.69 373.857 314.281 374.142C313.872 374.428 313.372 374.571 312.782 374.571C312.23 374.571 311.745 374.457 311.326 374.228C310.917 374 310.598 373.643 310.369 373.157C310.15 372.672 310.041 372.044 310.041 371.273V370.916H311.397ZM321.371 374.571C320.676 374.571 320.062 374.414 319.529 374.1C318.996 373.776 318.577 373.333 318.272 372.772C317.968 372.21 317.815 371.563 317.815 370.83C317.815 370.097 317.968 369.45 318.272 368.888C318.577 368.327 318.996 367.889 319.529 367.575C320.071 367.251 320.69 367.089 321.385 367.089C322.042 367.089 322.617 367.256 323.112 367.589C323.607 367.913 323.993 368.379 324.269 368.988C324.554 369.588 324.697 370.297 324.697 371.116H318.929L319.186 370.901C319.186 371.406 319.286 371.844 319.486 372.215C319.686 372.586 319.957 372.872 320.3 373.072C320.642 373.262 321.033 373.357 321.47 373.357C321.946 373.357 322.341 373.248 322.655 373.029C322.979 372.8 323.231 372.515 323.412 372.172L324.583 372.715C324.393 373.086 324.145 373.414 323.84 373.7C323.536 373.976 323.174 374.19 322.755 374.342C322.346 374.495 321.885 374.571 321.371 374.571ZM319.272 370.259L319.001 370.045H323.512L323.255 370.259C323.255 369.84 323.169 369.483 322.998 369.188C322.827 368.884 322.598 368.655 322.313 368.503C322.027 368.341 321.708 368.26 321.356 368.26C321.014 368.26 320.68 368.341 320.357 368.503C320.043 368.655 319.781 368.879 319.572 369.174C319.372 369.469 319.272 369.831 319.272 370.259ZM328.593 374.571C328.088 374.571 327.636 374.495 327.236 374.342C326.846 374.19 326.513 373.985 326.237 373.728C325.97 373.471 325.771 373.181 325.637 372.857L326.808 372.343C326.96 372.639 327.189 372.881 327.493 373.072C327.798 373.262 328.136 373.357 328.507 373.357C328.916 373.357 329.254 373.281 329.521 373.129C329.787 372.976 329.92 372.762 329.92 372.486C329.92 372.22 329.821 372.01 329.621 371.858C329.421 371.706 329.13 371.582 328.75 371.487L328.079 371.316C327.412 371.135 326.894 370.863 326.522 370.502C326.161 370.14 325.98 369.731 325.98 369.274C325.98 368.579 326.204 368.041 326.651 367.661C327.098 367.28 327.76 367.089 328.636 367.089C329.064 367.089 329.454 367.151 329.806 367.275C330.168 367.399 330.473 367.575 330.72 367.803C330.977 368.032 331.158 368.303 331.263 368.617L330.12 369.131C330.006 368.846 329.811 368.636 329.535 368.503C329.259 368.36 328.935 368.289 328.564 368.289C328.183 368.289 327.884 368.374 327.665 368.546C327.446 368.708 327.336 368.936 327.336 369.231C327.336 369.393 327.427 369.55 327.608 369.702C327.798 369.845 328.074 369.964 328.436 370.059L329.207 370.245C329.673 370.359 330.058 370.535 330.363 370.773C330.668 371.001 330.896 371.263 331.048 371.558C331.201 371.844 331.277 372.144 331.277 372.458C331.277 372.886 331.158 373.262 330.92 373.586C330.691 373.9 330.373 374.142 329.963 374.314C329.564 374.485 329.107 374.571 328.593 374.571ZM335.443 374.571C334.729 374.571 334.177 374.39 333.787 374.028C333.397 373.657 333.202 373.129 333.202 372.443V365.034H334.558V372.244C334.558 372.596 334.644 372.867 334.815 373.057C334.996 373.238 335.253 373.329 335.586 373.329C335.681 373.329 335.786 373.31 335.9 373.272C336.014 373.233 336.152 373.157 336.314 373.043L336.828 374.1C336.581 374.261 336.343 374.38 336.114 374.457C335.895 374.533 335.672 374.571 335.443 374.571ZM331.988 368.432V367.261H336.585V368.432H331.988ZM346.878 374.399L346.821 373.072V364.405H348.163V374.399H346.878ZM344.48 374.571C343.832 374.571 343.266 374.414 342.781 374.1C342.305 373.785 341.929 373.348 341.653 372.786C341.386 372.225 341.253 371.573 341.253 370.83C341.253 370.078 341.386 369.426 341.653 368.874C341.929 368.313 342.305 367.875 342.781 367.561C343.266 367.247 343.832 367.089 344.48 367.089C345.079 367.089 345.598 367.247 346.036 367.561C346.483 367.875 346.826 368.313 347.064 368.874C347.302 369.426 347.421 370.078 347.421 370.83C347.421 371.573 347.302 372.225 347.064 372.786C346.826 373.348 346.483 373.785 346.036 374.1C345.598 374.414 345.079 374.571 344.48 374.571ZM344.794 373.343C345.194 373.343 345.546 373.238 345.85 373.029C346.155 372.81 346.393 372.515 346.564 372.144C346.736 371.763 346.821 371.325 346.821 370.83C346.821 370.335 346.736 369.902 346.564 369.531C346.393 369.15 346.155 368.855 345.85 368.646C345.546 368.427 345.189 368.317 344.78 368.317C344.361 368.317 343.99 368.427 343.666 368.646C343.342 368.855 343.09 369.15 342.909 369.531C342.728 369.902 342.638 370.335 342.638 370.83C342.638 371.325 342.728 371.763 342.909 372.144C343.1 372.515 343.357 372.81 343.68 373.029C344.004 373.238 344.375 373.343 344.794 373.343ZM353.273 374.571C352.559 374.571 351.931 374.414 351.388 374.1C350.846 373.776 350.417 373.333 350.103 372.772C349.799 372.21 349.647 371.563 349.647 370.83C349.647 370.097 349.799 369.45 350.103 368.888C350.408 368.327 350.832 367.889 351.374 367.575C351.917 367.251 352.54 367.089 353.244 367.089C353.949 367.089 354.572 367.251 355.115 367.575C355.657 367.889 356.081 368.327 356.385 368.888C356.69 369.45 356.842 370.097 356.842 370.83C356.842 371.563 356.69 372.21 356.385 372.772C356.081 373.333 355.657 373.776 355.115 374.1C354.582 374.414 353.968 374.571 353.273 374.571ZM353.273 373.329C353.701 373.329 354.082 373.224 354.415 373.015C354.748 372.796 355.005 372.501 355.186 372.129C355.376 371.758 355.472 371.325 355.472 370.83C355.472 370.335 355.376 369.902 355.186 369.531C355.005 369.16 354.743 368.869 354.401 368.66C354.058 368.441 353.673 368.332 353.244 368.332C352.807 368.332 352.421 368.441 352.088 368.66C351.755 368.869 351.493 369.16 351.303 369.531C351.112 369.902 351.017 370.335 351.017 370.83C351.017 371.325 351.112 371.758 351.303 372.129C351.493 372.501 351.76 372.796 352.102 373.015C352.445 373.224 352.835 373.329 353.273 373.329ZM361.583 374.571C360.87 374.571 360.237 374.414 359.685 374.1C359.132 373.776 358.699 373.333 358.385 372.772C358.081 372.21 357.928 371.563 357.928 370.83C357.928 370.097 358.081 369.45 358.385 368.888C358.699 368.327 359.128 367.889 359.67 367.575C360.222 367.251 360.85 367.089 361.555 367.089C362.25 367.089 362.873 367.251 363.425 367.575C363.987 367.899 364.406 368.36 364.682 368.96L363.454 369.474C363.273 369.122 363.011 368.846 362.668 368.646C362.335 368.446 361.95 368.346 361.512 368.346C361.084 368.346 360.703 368.451 360.37 368.66C360.037 368.869 359.775 369.164 359.585 369.545C359.394 369.916 359.299 370.345 359.299 370.83C359.299 371.316 359.394 371.744 359.585 372.115C359.775 372.486 360.041 372.781 360.384 373C360.727 373.21 361.112 373.314 361.541 373.314C361.978 373.314 362.369 373.205 362.711 372.986C363.054 372.758 363.311 372.453 363.482 372.072L364.724 372.572C364.448 373.2 364.03 373.69 363.468 374.042C362.916 374.395 362.288 374.571 361.583 374.571ZM370.921 374.399L370.835 373.086V367.261H372.177V374.399H370.921ZM365.895 370.916V367.261H367.251V370.916H365.895ZM367.251 370.916C367.251 371.553 367.323 372.044 367.466 372.386C367.618 372.729 367.827 372.967 368.094 373.1C368.36 373.233 368.66 373.305 368.993 373.314C369.574 373.314 370.026 373.11 370.35 372.7C370.673 372.291 370.835 371.715 370.835 370.973H371.42C371.42 371.725 371.306 372.372 371.078 372.915C370.859 373.448 370.545 373.857 370.135 374.142C369.726 374.428 369.226 374.571 368.636 374.571C368.084 374.571 367.599 374.457 367.18 374.228C366.771 374 366.452 373.643 366.223 373.157C366.004 372.672 365.895 372.044 365.895 371.273V370.916H367.251ZM374.069 374.399V367.261H375.34L375.397 368.246C375.626 367.865 375.911 367.58 376.254 367.389C376.596 367.189 376.991 367.089 377.439 367.089C378.01 367.089 378.495 367.223 378.895 367.489C379.295 367.746 379.585 368.141 379.766 368.674C379.975 368.16 380.27 367.77 380.651 367.504C381.032 367.227 381.484 367.089 382.008 367.089C382.817 367.089 383.45 367.356 383.906 367.889C384.363 368.412 384.587 369.222 384.577 370.316V374.399H383.235V370.744C383.235 370.097 383.164 369.607 383.021 369.274C382.888 368.931 382.707 368.693 382.479 368.56C382.25 368.427 381.984 368.355 381.679 368.346C381.146 368.346 380.732 368.551 380.437 368.96C380.152 369.369 380.009 369.945 380.009 370.687V374.399H378.652V370.744C378.652 370.097 378.586 369.607 378.453 369.274C378.319 368.931 378.134 368.693 377.896 368.56C377.667 368.427 377.401 368.355 377.096 368.346C376.563 368.346 376.149 368.551 375.854 368.96C375.569 369.369 375.426 369.945 375.426 370.687V374.399H374.069ZM389.466 374.571C388.771 374.571 388.158 374.414 387.625 374.1C387.092 373.776 386.673 373.333 386.368 372.772C386.064 372.21 385.911 371.563 385.911 370.83C385.911 370.097 386.064 369.45 386.368 368.888C386.673 368.327 387.092 367.889 387.625 367.575C388.167 367.251 388.786 367.089 389.481 367.089C390.137 367.089 390.713 367.256 391.208 367.589C391.703 367.913 392.089 368.379 392.365 368.988C392.65 369.588 392.793 370.297 392.793 371.116H387.025L387.282 370.901C387.282 371.406 387.382 371.844 387.582 372.215C387.782 372.586 388.053 372.872 388.396 373.072C388.738 373.262 389.128 373.357 389.566 373.357C390.042 373.357 390.437 373.248 390.751 373.029C391.075 372.8 391.327 372.515 391.508 372.172L392.679 372.715C392.488 373.086 392.241 373.414 391.936 373.7C391.632 373.976 391.27 374.19 390.851 374.342C390.442 374.495 389.98 374.571 389.466 374.571ZM387.368 370.259L387.096 370.045H391.608L391.351 370.259C391.351 369.84 391.265 369.483 391.094 369.188C390.923 368.884 390.694 368.655 390.409 368.503C390.123 368.341 389.804 368.26 389.452 368.26C389.109 368.26 388.776 368.341 388.453 368.503C388.139 368.655 387.877 368.879 387.667 369.174C387.467 369.469 387.368 369.831 387.368 370.259ZM394.133 374.399V367.261H395.404L395.489 368.574V374.399H394.133ZM399.073 374.399V370.744H400.429V374.399H399.073ZM399.073 370.744C399.073 370.097 398.997 369.607 398.844 369.274C398.702 368.931 398.497 368.693 398.23 368.56C397.973 368.427 397.674 368.355 397.331 368.346C396.75 368.346 396.298 368.551 395.975 368.96C395.651 369.369 395.489 369.945 395.489 370.687H394.904C394.904 369.935 395.013 369.293 395.232 368.76C395.461 368.217 395.779 367.803 396.189 367.518C396.608 367.232 397.103 367.089 397.674 367.089C398.235 367.089 398.721 367.204 399.13 367.432C399.549 367.661 399.868 368.017 400.086 368.503C400.315 368.979 400.429 369.607 400.429 370.388V370.744H399.073ZM404.891 374.571C404.178 374.571 403.625 374.39 403.235 374.028C402.845 373.657 402.65 373.129 402.65 372.443V365.034H404.006V372.244C404.006 372.596 404.092 372.867 404.263 373.057C404.444 373.238 404.701 373.329 405.034 373.329C405.129 373.329 405.234 373.31 405.348 373.272C405.462 373.233 405.601 373.157 405.762 373.043L406.276 374.1C406.029 374.261 405.791 374.38 405.562 374.457C405.344 374.533 405.12 374.571 404.891 374.571ZM401.436 368.432V367.261H406.034V368.432H401.436Z" fill="white"/>
<path d="M290.334 394.005L287.326 386.51H288.236L291.287 394.005H290.334ZM284.242 394.005L287.293 386.51H288.214L285.205 394.005H284.242ZM285.687 391.874V391.06H289.853V391.874H285.687ZM294.456 394.134C293.928 394.134 293.46 394.016 293.053 393.78C292.647 393.538 292.329 393.206 292.1 392.784C291.872 392.363 291.758 391.878 291.758 391.328C291.758 390.778 291.868 390.293 292.09 389.872C292.318 389.451 292.636 389.122 293.043 388.887C293.45 388.644 293.914 388.523 294.435 388.523C294.949 388.523 295.409 388.64 295.816 388.876C296.223 389.112 296.534 389.444 296.748 389.872L295.966 390.225C295.823 389.94 295.616 389.718 295.345 389.561C295.074 389.397 294.763 389.315 294.413 389.315C294.064 389.315 293.753 389.401 293.482 389.572C293.218 389.743 293.007 389.983 292.85 390.289C292.7 390.589 292.625 390.936 292.625 391.328C292.625 391.721 292.7 392.071 292.85 392.378C293.007 392.677 293.221 392.913 293.492 393.084C293.771 393.256 294.085 393.341 294.435 393.341C294.785 393.341 295.095 393.252 295.366 393.074C295.645 392.895 295.855 392.645 295.998 392.324L296.78 392.677C296.566 393.134 296.255 393.491 295.848 393.748C295.441 394.005 294.977 394.134 294.456 394.134ZM299.875 394.134C299.353 394.134 298.95 393.998 298.665 393.727C298.379 393.455 298.236 393.074 298.236 392.581V386.981H299.093V392.495C299.093 392.767 299.164 392.977 299.307 393.127C299.457 393.27 299.664 393.341 299.928 393.341C300.014 393.341 300.096 393.331 300.174 393.309C300.26 393.281 300.371 393.216 300.506 393.116L300.838 393.812C300.653 393.934 300.485 394.016 300.335 394.059C300.185 394.109 300.032 394.134 299.875 394.134ZM297.305 389.411V388.651H300.699V389.411H297.305ZM301.962 394.005V388.651H302.819V394.005H301.962ZM302.401 387.409C302.258 387.409 302.133 387.355 302.026 387.248C301.919 387.141 301.866 387.016 301.866 386.874C301.866 386.724 301.919 386.599 302.026 386.499C302.133 386.392 302.258 386.338 302.401 386.338C302.551 386.338 302.676 386.392 302.776 386.499C302.883 386.599 302.936 386.724 302.936 386.874C302.936 387.016 302.883 387.141 302.776 387.248C302.676 387.355 302.551 387.409 302.401 387.409ZM306.764 394.134C306.242 394.134 305.778 394.016 305.372 393.78C304.972 393.538 304.658 393.206 304.429 392.784C304.201 392.363 304.087 391.878 304.087 391.328C304.087 390.778 304.197 390.293 304.419 389.872C304.647 389.451 304.961 389.122 305.361 388.887C305.768 388.644 306.228 388.523 306.742 388.523C307.27 388.523 307.734 388.644 308.134 388.887C308.541 389.122 308.855 389.451 309.076 389.872C309.305 390.293 309.419 390.778 309.419 391.328C309.419 391.878 309.305 392.363 309.076 392.784C308.855 393.206 308.545 393.538 308.145 393.78C307.745 394.016 307.285 394.134 306.764 394.134ZM306.764 393.341C307.12 393.341 307.431 393.256 307.695 393.084C307.959 392.913 308.166 392.677 308.316 392.378C308.473 392.078 308.552 391.728 308.552 391.328C308.552 390.928 308.473 390.579 308.316 390.279C308.166 389.979 307.956 389.743 307.684 389.572C307.413 389.401 307.099 389.315 306.742 389.315C306.392 389.315 306.082 389.401 305.811 389.572C305.546 389.743 305.336 389.979 305.179 390.279C305.029 390.579 304.954 390.928 304.954 391.328C304.954 391.721 305.029 392.071 305.179 392.378C305.336 392.677 305.55 392.913 305.821 393.084C306.1 393.256 306.414 393.341 306.764 393.341ZM310.609 394.005V388.651H311.412L311.465 389.636V394.005H310.609ZM314.367 394.005V391.264H315.224V394.005H314.367ZM314.367 391.264C314.367 390.736 314.306 390.332 314.185 390.054C314.064 389.775 313.896 389.586 313.682 389.486C313.468 389.379 313.225 389.326 312.954 389.326C312.482 389.326 312.115 389.494 311.851 389.829C311.594 390.157 311.465 390.625 311.465 391.232H311.048C311.048 390.668 311.13 390.182 311.294 389.775C311.458 389.369 311.697 389.058 312.011 388.844C312.325 388.63 312.704 388.523 313.146 388.523C313.567 388.523 313.932 388.608 314.239 388.78C314.553 388.944 314.795 389.208 314.967 389.572C315.145 389.936 315.231 390.414 315.224 391.007V391.264H314.367ZM321.099 394.134C320.706 394.134 320.364 394.077 320.071 393.962C319.778 393.841 319.532 393.684 319.332 393.491C319.139 393.298 319 393.088 318.915 392.859L319.664 392.549C319.785 392.792 319.967 392.988 320.21 393.138C320.453 393.288 320.721 393.363 321.013 393.363C321.349 393.363 321.631 393.298 321.859 393.17C322.088 393.034 322.202 392.845 322.202 392.602C322.202 392.381 322.116 392.203 321.945 392.067C321.781 391.931 321.534 391.821 321.206 391.735L320.692 391.596C320.207 391.467 319.828 391.275 319.557 391.018C319.286 390.753 319.15 390.457 319.15 390.129C319.15 389.622 319.314 389.229 319.643 388.951C319.978 388.665 320.474 388.523 321.131 388.523C321.445 388.523 321.731 388.569 321.988 388.662C322.245 388.755 322.466 388.887 322.652 389.058C322.837 389.222 322.973 389.419 323.059 389.647L322.309 389.979C322.216 389.736 322.063 389.561 321.849 389.454C321.634 389.347 321.374 389.294 321.067 389.294C320.738 389.294 320.481 389.365 320.296 389.508C320.11 389.643 320.017 389.836 320.017 390.086C320.017 390.229 320.092 390.364 320.242 390.493C320.399 390.614 320.628 390.714 320.928 390.793L321.463 390.932C321.813 391.018 322.106 391.146 322.341 391.317C322.577 391.482 322.755 391.671 322.876 391.885C322.998 392.099 323.059 392.328 323.059 392.57C323.059 392.892 322.973 393.17 322.802 393.405C322.63 393.641 322.398 393.823 322.106 393.952C321.813 394.073 321.477 394.134 321.099 394.134ZM326.226 394.134C325.705 394.134 325.302 393.998 325.016 393.727C324.731 393.455 324.588 393.074 324.588 392.581V386.981H325.444V392.495C325.444 392.767 325.516 392.977 325.659 393.127C325.809 393.27 326.016 393.341 326.28 393.341C326.365 393.341 326.447 393.331 326.526 393.309C326.612 393.281 326.722 393.216 326.858 393.116L327.19 393.812C327.004 393.934 326.836 394.016 326.687 394.059C326.537 394.109 326.383 394.134 326.226 394.134ZM323.656 389.411V388.651H327.051V389.411H323.656ZM330.574 394.134C330.052 394.134 329.592 394.016 329.192 393.78C328.792 393.538 328.478 393.206 328.25 392.784C328.029 392.363 327.918 391.878 327.918 391.328C327.918 390.778 328.029 390.293 328.25 389.872C328.478 389.451 328.789 389.122 329.182 388.887C329.581 388.644 330.038 388.523 330.552 388.523C331.052 388.523 331.484 388.648 331.848 388.897C332.212 389.14 332.494 389.483 332.694 389.925C332.894 390.368 332.994 390.889 332.994 391.489H328.571L328.785 391.307C328.785 391.735 328.86 392.103 329.01 392.41C329.167 392.717 329.385 392.952 329.663 393.116C329.942 393.273 330.259 393.352 330.616 393.352C330.995 393.352 331.312 393.263 331.569 393.084C331.834 392.906 332.037 392.67 332.18 392.378L332.919 392.752C332.783 393.031 332.601 393.273 332.372 393.48C332.151 393.687 331.887 393.848 331.58 393.962C331.28 394.077 330.945 394.134 330.574 394.134ZM328.839 390.943L328.614 390.771H332.308L332.083 390.953C332.083 390.611 332.016 390.314 331.88 390.065C331.744 389.815 331.562 389.622 331.334 389.486C331.105 389.351 330.841 389.283 330.541 389.283C330.249 389.283 329.97 389.351 329.706 389.486C329.449 389.622 329.239 389.815 329.074 390.065C328.917 390.307 328.839 390.6 328.839 390.943ZM334.128 396.147V388.651H334.931L334.984 389.636V396.147H334.128ZM336.794 394.134C336.344 394.134 335.948 394.016 335.605 393.78C335.27 393.545 335.009 393.216 334.824 392.795C334.638 392.367 334.545 391.878 334.545 391.328C334.545 390.771 334.638 390.282 334.824 389.861C335.009 389.44 335.27 389.112 335.605 388.876C335.948 388.64 336.344 388.523 336.794 388.523C337.272 388.523 337.693 388.64 338.057 388.876C338.421 389.112 338.703 389.44 338.903 389.861C339.11 390.282 339.214 390.771 339.214 391.328C339.214 391.878 339.11 392.367 338.903 392.795C338.703 393.216 338.421 393.545 338.057 393.78C337.693 394.016 337.272 394.134 336.794 394.134ZM336.601 393.352C336.937 393.352 337.233 393.266 337.49 393.095C337.754 392.924 337.961 392.684 338.111 392.378C338.268 392.071 338.346 391.721 338.346 391.328C338.346 390.936 338.271 390.586 338.122 390.279C337.979 389.972 337.775 389.733 337.511 389.561C337.247 389.39 336.947 389.304 336.612 389.304C336.298 389.304 336.016 389.39 335.766 389.561C335.523 389.733 335.33 389.972 335.188 390.279C335.052 390.586 334.984 390.936 334.984 391.328C334.984 391.721 335.052 392.071 335.188 392.378C335.33 392.684 335.523 392.924 335.766 393.095C336.009 393.266 336.287 393.352 336.601 393.352Z" fill="#A4A4AD"/>
<rect x="227.036" y="361.399" width="38.0727" height="38.0727" rx="9.51816" fill="#E31247" fill-opacity="0.5"/>
<path d="M253.013 380.312V374.943C253.013 373.36 253.013 372.569 252.705 371.965C252.434 371.433 252.002 371.001 251.47 370.73C250.866 370.422 250.075 370.422 248.492 370.422H242.464C240.881 370.422 240.09 370.422 239.486 370.73C238.954 371.001 238.522 371.433 238.251 371.965C237.943 372.569 237.943 373.36 237.943 374.943V384.739C237.943 386.321 237.943 387.113 238.251 387.717C238.522 388.249 238.954 388.681 239.486 388.952C240.09 389.26 240.881 389.26 242.464 389.26H245.949M247.362 378.899H241.71M243.594 382.667H241.71M249.246 375.131H241.71M248.304 386.434L251.129 389.26M251.129 389.26L253.955 386.434M251.129 389.26V383.608" stroke="#1A1A1E" stroke-width="1.78466" stroke-linecap="round" stroke-linejoin="round"/>
<rect x="298.422" y="570.799" width="55.9192" height="55.9192" rx="9.51816" fill="#37373D"/>
<rect x="306.751" y="579.127" width="40.4522" height="39.2624" rx="9.51816" fill="#2BBEAF" fill-opacity="0.5"/>
<g clip-path="url(#clip0_1169_368)">
<path d="M321.424 601.436C321.424 601.436 322.119 600.742 324.201 600.742C326.283 600.742 327.671 602.13 329.753 602.13C331.835 602.13 332.529 601.436 332.529 601.436V593.801C332.529 593.801 331.835 594.495 329.753 594.495C327.671 594.495 326.283 593.107 324.201 593.107C322.119 593.107 321.424 593.801 321.424 593.801M321.424 606.294L321.424 592.413" stroke="white" stroke-width="1.18977" stroke-linecap="round" stroke-linejoin="round"/>
</g>
<defs>
<clipPath id="clip0_1169_368">
<rect width="16.6568" height="16.6568" fill="white" transform="translate(318.648 591.025)"/>
</clipPath>
</defs>
</svg>
