<svg width="641" height="264" viewBox="0 0 641 264" fill="none" xmlns="http://www.w3.org/2000/svg">
<rect width="641" height="264" rx="16" fill="#1A1A1E"/>
<rect x="66.5" y="52.5" width="152.711" height="164" rx="11.5" fill="#232323" stroke="#37373D"/>
<rect x="79.0264" y="65.0264" width="127.658" height="86.8421" rx="10.4211" fill="#FCC504"/>
<path d="M83.7315 172.699C82.9209 172.699 82.1996 172.512 81.5674 172.139C80.9352 171.758 80.4407 171.24 80.0841 170.583C79.7275 169.919 79.5492 169.157 79.5492 168.297C79.5492 167.438 79.7275 166.68 80.0841 166.024C80.4407 165.359 80.9311 164.841 81.5552 164.468C82.1793 164.087 82.8966 163.896 83.7072 163.896C84.234 163.896 84.7365 163.994 85.2147 164.188C85.6929 164.375 86.1185 164.638 86.4913 164.978C86.8723 165.311 87.1641 165.7 87.3667 166.146L86.2968 166.632C86.1428 166.3 85.9321 166.012 85.6646 165.769C85.3971 165.525 85.0932 165.335 84.7527 165.197C84.4204 165.059 84.0719 164.991 83.7072 164.991C83.1398 164.991 82.6332 165.132 82.1874 165.416C81.7416 165.7 81.3931 166.089 81.1418 166.583C80.8906 167.078 80.7649 167.649 80.7649 168.297C80.7649 168.946 80.8906 169.521 81.1418 170.024C81.4012 170.526 81.7538 170.92 82.1996 171.203C82.6535 171.479 83.1682 171.617 83.7436 171.617C84.1165 171.617 84.4691 171.544 84.8014 171.398C85.1337 171.244 85.4295 171.037 85.6889 170.778C85.9564 170.51 86.1712 170.206 86.3333 169.866L87.4032 170.34C87.2005 170.802 86.9128 171.211 86.5399 171.568C86.1671 171.925 85.7375 172.204 85.2512 172.407C84.773 172.601 84.2664 172.699 83.7315 172.699ZM91.3506 172.699C90.7427 172.699 90.2077 172.565 89.7457 172.297C89.2837 172.022 88.919 171.645 88.6515 171.167C88.3922 170.689 88.2625 170.137 88.2625 169.513C88.2625 168.889 88.3922 168.338 88.6515 167.86C88.9109 167.382 89.2716 167.009 89.7336 166.741C90.1956 166.466 90.7265 166.328 91.3263 166.328C91.9261 166.328 92.4569 166.466 92.9189 166.741C93.3809 167.009 93.7416 167.382 94.001 167.86C94.2604 168.338 94.3901 168.889 94.3901 169.513C94.3901 170.137 94.2604 170.689 94.001 171.167C93.7416 171.645 93.3809 172.022 92.9189 172.297C92.4651 172.565 91.9423 172.699 91.3506 172.699ZM91.3506 171.641C91.7153 171.641 92.0395 171.552 92.3232 171.373C92.6069 171.187 92.8257 170.936 92.9797 170.62C93.1418 170.304 93.2229 169.935 93.2229 169.513C93.2229 169.092 93.1418 168.723 92.9797 168.407C92.8257 168.091 92.6028 167.844 92.3111 167.665C92.0193 167.479 91.691 167.386 91.3263 167.386C90.9534 167.386 90.6252 167.479 90.3415 167.665C90.0578 167.844 89.8349 168.091 89.6728 168.407C89.5107 168.723 89.4296 169.092 89.4296 169.513C89.4296 169.935 89.5107 170.304 89.6728 170.62C89.8349 170.936 90.0618 171.187 90.3536 171.373C90.6454 171.552 90.9777 171.641 91.3506 171.641ZM95.6554 172.553V166.474H96.7375L96.7861 167.313C96.9806 166.988 97.2238 166.745 97.5156 166.583C97.8074 166.413 98.1437 166.328 98.5247 166.328C99.011 166.328 99.4244 166.441 99.7648 166.668C100.105 166.887 100.352 167.224 100.506 167.677C100.685 167.24 100.936 166.907 101.26 166.68C101.584 166.445 101.969 166.328 102.415 166.328C103.104 166.328 103.643 166.555 104.032 167.009C104.421 167.455 104.612 168.143 104.604 169.076V172.553H103.461V169.44C103.461 168.889 103.4 168.472 103.278 168.188C103.165 167.896 103.011 167.694 102.816 167.58C102.622 167.467 102.395 167.406 102.136 167.398C101.682 167.398 101.329 167.572 101.078 167.921C100.835 168.269 100.713 168.759 100.713 169.392V172.553H99.5581V169.44C99.5581 168.889 99.5014 168.472 99.3879 168.188C99.2744 167.896 99.1164 167.694 98.9137 167.58C98.7192 167.467 98.4923 167.406 98.2329 167.398C97.779 167.398 97.4264 167.572 97.1752 167.921C96.932 168.269 96.8104 168.759 96.8104 169.392V172.553H95.6554ZM106.141 174.984V166.474H107.223L107.296 167.592V174.984H106.141ZM109.29 172.699C108.779 172.699 108.333 172.565 107.952 172.297C107.579 172.03 107.292 171.657 107.089 171.179C106.886 170.701 106.785 170.145 106.785 169.513C106.785 168.873 106.886 168.318 107.089 167.848C107.292 167.369 107.579 166.997 107.952 166.729C108.333 166.462 108.779 166.328 109.29 166.328C109.833 166.328 110.311 166.462 110.724 166.729C111.138 166.997 111.458 167.369 111.685 167.848C111.92 168.318 112.037 168.873 112.037 169.513C112.037 170.145 111.92 170.701 111.685 171.179C111.458 171.657 111.138 172.03 110.724 172.297C110.311 172.565 109.833 172.699 109.29 172.699ZM109.01 171.653C109.375 171.653 109.695 171.564 109.97 171.386C110.246 171.199 110.461 170.948 110.615 170.632C110.777 170.308 110.858 169.935 110.858 169.513C110.858 169.092 110.781 168.723 110.627 168.407C110.473 168.083 110.258 167.831 109.983 167.653C109.707 167.467 109.387 167.373 109.022 167.373C108.69 167.373 108.39 167.467 108.122 167.653C107.863 167.831 107.66 168.083 107.514 168.407C107.369 168.731 107.296 169.1 107.296 169.513C107.296 169.935 107.369 170.308 107.514 170.632C107.66 170.948 107.863 171.199 108.122 171.386C108.382 171.564 108.678 171.653 109.01 171.653ZM113.299 172.553V164.042H114.454V172.553H113.299ZM116.795 175.13C116.616 175.13 116.418 175.098 116.199 175.033C115.988 174.968 115.769 174.883 115.543 174.778L115.968 173.829C116.146 173.91 116.3 173.971 116.43 174.012C116.568 174.052 116.677 174.072 116.758 174.072C116.961 174.072 117.131 174.016 117.269 173.902C117.415 173.789 117.532 173.631 117.622 173.428L118.327 171.762L120.491 166.474H121.731L118.849 173.307C118.695 173.679 118.533 174.004 118.363 174.279C118.193 174.555 117.982 174.765 117.731 174.911C117.488 175.057 117.176 175.13 116.795 175.13ZM118.011 172.553L115.348 166.474H116.576L118.777 171.75L119.129 172.553H118.011ZM128.783 172.553L125.415 164.042H126.631L130.06 172.553H128.783ZM121.926 172.553L125.354 164.042H126.57L123.202 172.553H121.926ZM123.543 170.279V169.209H128.443V170.279H123.543ZM135.32 172.553L135.272 171.422V164.042H136.415V172.553H135.32ZM133.278 172.699C132.727 172.699 132.244 172.565 131.831 172.297C131.426 172.03 131.106 171.657 130.871 171.179C130.644 170.701 130.53 170.145 130.53 169.513C130.53 168.873 130.644 168.318 130.871 167.848C131.106 167.369 131.426 166.997 131.831 166.729C132.244 166.462 132.727 166.328 133.278 166.328C133.788 166.328 134.23 166.462 134.603 166.729C134.984 166.997 135.276 167.369 135.478 167.848C135.681 168.318 135.782 168.873 135.782 169.513C135.782 170.145 135.681 170.701 135.478 171.179C135.276 171.657 134.984 172.03 134.603 172.297C134.23 172.565 133.788 172.699 133.278 172.699ZM133.545 171.653C133.886 171.653 134.186 171.564 134.445 171.386C134.704 171.199 134.907 170.948 135.053 170.632C135.199 170.308 135.272 169.935 135.272 169.513C135.272 169.092 135.199 168.723 135.053 168.407C134.907 168.083 134.704 167.831 134.445 167.653C134.186 167.467 133.882 167.373 133.533 167.373C133.177 167.373 132.86 167.467 132.585 167.653C132.309 167.831 132.094 168.083 131.94 168.407C131.786 168.723 131.709 169.092 131.709 169.513C131.709 169.935 131.786 170.308 131.94 170.632C132.103 170.948 132.321 171.199 132.597 171.386C132.873 171.564 133.189 171.653 133.545 171.653ZM139.927 172.553L142.358 166.474H143.562L141.021 172.553H139.927ZM139.854 172.553L137.325 166.474H138.504L140.936 172.553H139.854ZM148.043 172.553L147.995 171.495V169.38C147.995 168.934 147.942 168.561 147.837 168.261C147.739 167.961 147.585 167.734 147.375 167.58C147.172 167.426 146.9 167.349 146.56 167.349C146.244 167.349 145.968 167.414 145.733 167.544C145.506 167.673 145.316 167.876 145.162 168.152L144.141 167.763C144.286 167.487 144.469 167.244 144.688 167.033C144.906 166.814 145.17 166.644 145.478 166.522C145.786 166.393 146.147 166.328 146.56 166.328C147.135 166.328 147.614 166.441 147.995 166.668C148.376 166.895 148.659 167.224 148.846 167.653C149.04 168.083 149.133 168.614 149.125 169.246L149.113 172.553H148.043ZM146.256 172.699C145.535 172.699 144.971 172.537 144.566 172.212C144.169 171.88 143.97 171.422 143.97 170.838C143.97 170.214 144.177 169.74 144.59 169.416C145.012 169.084 145.595 168.918 146.341 168.918H148.031V169.829H146.657C146.098 169.829 145.705 169.919 145.478 170.097C145.251 170.267 145.137 170.506 145.137 170.814C145.137 171.098 145.243 171.321 145.454 171.483C145.672 171.637 145.972 171.714 146.353 171.714C146.686 171.714 146.973 171.645 147.216 171.507C147.46 171.361 147.65 171.159 147.788 170.899C147.926 170.64 147.995 170.344 147.995 170.012H148.396C148.396 170.838 148.217 171.495 147.861 171.981C147.512 172.46 146.977 172.699 146.256 172.699ZM150.58 172.553V166.474H151.662L151.735 167.592V172.553H150.58ZM154.786 172.553V169.44H155.941V172.553H154.786ZM154.786 169.44C154.786 168.889 154.721 168.472 154.592 168.188C154.47 167.896 154.296 167.694 154.069 167.58C153.85 167.467 153.595 167.406 153.303 167.398C152.809 167.398 152.424 167.572 152.148 167.921C151.872 168.269 151.735 168.759 151.735 169.392H151.236C151.236 168.751 151.329 168.204 151.516 167.75C151.71 167.288 151.982 166.936 152.33 166.693C152.687 166.449 153.109 166.328 153.595 166.328C154.073 166.328 154.486 166.425 154.835 166.62C155.192 166.814 155.463 167.118 155.649 167.532C155.844 167.937 155.941 168.472 155.941 169.136V169.44H154.786ZM159.741 172.699C159.133 172.699 158.663 172.545 158.331 172.237C157.999 171.921 157.832 171.471 157.832 170.887V164.577H158.987V170.717C158.987 171.017 159.06 171.248 159.206 171.41C159.36 171.564 159.579 171.641 159.863 171.641C159.944 171.641 160.033 171.625 160.13 171.592C160.228 171.56 160.345 171.495 160.483 171.398L160.921 172.297C160.71 172.435 160.507 172.537 160.313 172.601C160.126 172.666 159.936 172.699 159.741 172.699ZM156.799 167.471V166.474H160.714V167.471H156.799ZM165.746 172.553L165.697 171.495V169.38C165.697 168.934 165.644 168.561 165.539 168.261C165.442 167.961 165.288 167.734 165.077 167.58C164.874 167.426 164.603 167.349 164.263 167.349C163.946 167.349 163.671 167.414 163.436 167.544C163.209 167.673 163.018 167.876 162.864 168.152L161.843 167.763C161.989 167.487 162.171 167.244 162.39 167.033C162.609 166.814 162.872 166.644 163.18 166.522C163.488 166.393 163.849 166.328 164.263 166.328C164.838 166.328 165.316 166.441 165.697 166.668C166.078 166.895 166.362 167.224 166.548 167.653C166.743 168.083 166.836 168.614 166.828 169.246L166.816 172.553H165.746ZM163.959 172.699C163.237 172.699 162.674 172.537 162.269 172.212C161.871 171.88 161.673 171.422 161.673 170.838C161.673 170.214 161.88 169.74 162.293 169.416C162.714 169.084 163.298 168.918 164.044 168.918H165.734V169.829H164.36C163.801 169.829 163.407 169.919 163.18 170.097C162.954 170.267 162.84 170.506 162.84 170.814C162.84 171.098 162.945 171.321 163.156 171.483C163.375 171.637 163.675 171.714 164.056 171.714C164.388 171.714 164.676 171.645 164.919 171.507C165.162 171.361 165.353 171.159 165.49 170.899C165.628 170.64 165.697 170.344 165.697 170.012H166.098C166.098 170.838 165.92 171.495 165.563 171.981C165.215 172.46 164.68 172.699 163.959 172.699ZM170.799 175.142C170.394 175.142 170.025 175.102 169.693 175.021C169.36 174.948 169.081 174.863 168.854 174.765C168.627 174.668 168.456 174.583 168.343 174.51L168.781 173.574C168.886 173.639 169.036 173.712 169.231 173.793C169.425 173.882 169.652 173.955 169.911 174.012C170.171 174.077 170.458 174.109 170.775 174.109C171.147 174.109 171.48 174.032 171.772 173.878C172.063 173.732 172.29 173.501 172.452 173.185C172.623 172.869 172.708 172.464 172.708 171.969V166.474H173.863V171.945C173.863 172.642 173.729 173.225 173.461 173.696C173.202 174.174 172.841 174.534 172.379 174.778C171.926 175.021 171.399 175.142 170.799 175.142ZM170.689 172.468C170.138 172.468 169.656 172.342 169.243 172.091C168.837 171.831 168.517 171.475 168.282 171.021C168.055 170.559 167.942 170.028 167.942 169.428C167.942 168.804 168.055 168.261 168.282 167.799C168.517 167.337 168.837 166.976 169.243 166.717C169.656 166.458 170.138 166.328 170.689 166.328C171.192 166.328 171.63 166.458 172.003 166.717C172.383 166.976 172.675 167.341 172.878 167.811C173.089 168.273 173.194 168.816 173.194 169.44C173.194 170.04 173.089 170.571 172.878 171.033C172.675 171.487 172.383 171.839 172.003 172.091C171.63 172.342 171.192 172.468 170.689 172.468ZM170.981 171.495C171.322 171.495 171.618 171.406 171.869 171.228C172.12 171.041 172.319 170.794 172.465 170.486C172.61 170.17 172.683 169.809 172.683 169.404C172.683 168.999 172.61 168.642 172.465 168.334C172.319 168.026 172.116 167.787 171.857 167.617C171.605 167.438 171.31 167.349 170.969 167.349C170.612 167.349 170.296 167.438 170.021 167.617C169.753 167.787 169.543 168.026 169.389 168.334C169.235 168.642 169.158 168.999 169.158 169.404C169.158 169.809 169.235 170.17 169.389 170.486C169.551 170.794 169.765 171.041 170.033 171.228C170.309 171.406 170.625 171.495 170.981 171.495ZM178.152 172.699C177.561 172.699 177.038 172.565 176.584 172.297C176.13 172.022 175.773 171.645 175.514 171.167C175.255 170.689 175.125 170.137 175.125 169.513C175.125 168.889 175.255 168.338 175.514 167.86C175.773 167.382 176.13 167.009 176.584 166.741C177.046 166.466 177.573 166.328 178.164 166.328C178.724 166.328 179.214 166.47 179.636 166.753C180.057 167.029 180.385 167.426 180.62 167.945C180.863 168.456 180.985 169.059 180.985 169.756H176.073L176.292 169.574C176.292 170.004 176.377 170.376 176.547 170.693C176.718 171.009 176.949 171.252 177.24 171.422C177.532 171.584 177.865 171.665 178.237 171.665C178.643 171.665 178.979 171.572 179.246 171.386C179.522 171.191 179.737 170.948 179.891 170.656L180.888 171.118C180.726 171.434 180.515 171.714 180.256 171.957C179.996 172.192 179.688 172.374 179.332 172.504C178.983 172.634 178.59 172.699 178.152 172.699ZM176.365 169.027L176.134 168.845H179.976L179.757 169.027C179.757 168.67 179.684 168.366 179.538 168.115C179.392 167.856 179.198 167.661 178.955 167.532C178.712 167.394 178.44 167.325 178.14 167.325C177.848 167.325 177.565 167.394 177.289 167.532C177.022 167.661 176.799 167.852 176.62 168.103C176.45 168.354 176.365 168.662 176.365 169.027Z" fill="white"/>
<rect x="79.0264" y="184.869" width="127.658" height="20.8421" rx="4.3421" fill="#FCC504"/>
<path d="M112.621 199.21L109.734 191.916H110.776L113.715 199.21H112.621ZM106.743 199.21L109.682 191.916H110.724L107.838 199.21H106.743ZM108.129 197.262V196.345H112.329V197.262H108.129ZM118.224 199.21L118.183 198.241V191.916H119.162V199.21H118.224ZM116.474 199.336C116.001 199.336 115.588 199.221 115.234 198.992C114.886 198.762 114.612 198.443 114.41 198.033C114.216 197.623 114.119 197.147 114.119 196.605C114.119 196.056 114.216 195.58 114.41 195.178C114.612 194.768 114.886 194.448 115.234 194.219C115.588 193.99 116.001 193.875 116.474 193.875C116.911 193.875 117.29 193.99 117.61 194.219C117.936 194.448 118.186 194.768 118.36 195.178C118.534 195.58 118.62 196.056 118.62 196.605C118.62 197.147 118.534 197.623 118.36 198.033C118.186 198.443 117.936 198.762 117.61 198.992C117.29 199.221 116.911 199.336 116.474 199.336ZM116.703 198.439C116.995 198.439 117.252 198.363 117.474 198.21C117.696 198.05 117.87 197.835 117.995 197.564C118.12 197.286 118.183 196.966 118.183 196.605C118.183 196.244 118.12 195.928 117.995 195.657C117.87 195.379 117.696 195.164 117.474 195.011C117.252 194.851 116.991 194.771 116.693 194.771C116.387 194.771 116.116 194.851 115.88 195.011C115.644 195.164 115.459 195.379 115.327 195.657C115.195 195.928 115.129 196.244 115.129 196.605C115.129 196.966 115.195 197.286 115.327 197.564C115.466 197.835 115.654 198.05 115.89 198.21C116.126 198.363 116.397 198.439 116.703 198.439ZM124.351 199.21L124.309 198.241V191.916H125.289V199.21H124.351ZM122.6 199.336C122.128 199.336 121.714 199.221 121.36 198.992C121.013 198.762 120.738 198.443 120.537 198.033C120.342 197.623 120.245 197.147 120.245 196.605C120.245 196.056 120.342 195.58 120.537 195.178C120.738 194.768 121.013 194.448 121.36 194.219C121.714 193.99 122.128 193.875 122.6 193.875C123.038 193.875 123.416 193.99 123.736 194.219C124.063 194.448 124.313 194.768 124.486 195.178C124.66 195.58 124.747 196.056 124.747 196.605C124.747 197.147 124.66 197.623 124.486 198.033C124.313 198.443 124.063 198.762 123.736 198.992C123.416 199.221 123.038 199.336 122.6 199.336ZM122.829 198.439C123.121 198.439 123.378 198.363 123.601 198.21C123.823 198.05 123.997 197.835 124.122 197.564C124.247 197.286 124.309 196.966 124.309 196.605C124.309 196.244 124.247 195.928 124.122 195.657C123.997 195.379 123.823 195.164 123.601 195.011C123.378 194.851 123.118 194.771 122.819 194.771C122.513 194.771 122.242 194.851 122.006 195.011C121.77 195.164 121.586 195.379 121.454 195.657C121.322 195.928 121.256 196.244 121.256 196.605C121.256 196.966 121.322 197.286 121.454 197.564C121.593 197.835 121.78 198.05 122.017 198.21C122.253 198.363 122.524 198.439 122.829 198.439ZM131.219 199.336C130.698 199.336 130.295 199.204 130.01 198.94C129.725 198.669 129.583 198.283 129.583 197.783V192.374H130.573V197.637C130.573 197.894 130.635 198.092 130.76 198.231C130.892 198.363 131.08 198.429 131.323 198.429C131.392 198.429 131.469 198.415 131.552 198.387C131.636 198.359 131.736 198.304 131.854 198.22L132.23 198.992C132.049 199.11 131.875 199.197 131.708 199.252C131.549 199.308 131.385 199.336 131.219 199.336ZM128.697 194.854V194H132.052V194.854H128.697ZM135.521 199.336C135 199.336 134.542 199.221 134.146 198.992C133.75 198.755 133.437 198.432 133.208 198.022C132.986 197.613 132.874 197.14 132.874 196.605C132.874 196.07 132.986 195.598 133.208 195.188C133.43 194.778 133.739 194.458 134.135 194.229C134.531 193.993 134.986 193.875 135.501 193.875C136.015 193.875 136.47 193.993 136.866 194.229C137.262 194.458 137.571 194.778 137.793 195.188C138.015 195.598 138.127 196.07 138.127 196.605C138.127 197.14 138.015 197.613 137.793 198.022C137.571 198.432 137.262 198.755 136.866 198.992C136.477 199.221 136.029 199.336 135.521 199.336ZM135.521 198.429C135.834 198.429 136.112 198.352 136.355 198.2C136.598 198.04 136.786 197.824 136.918 197.554C137.057 197.283 137.126 196.966 137.126 196.605C137.126 196.244 137.057 195.928 136.918 195.657C136.786 195.386 136.595 195.174 136.345 195.021C136.095 194.861 135.813 194.782 135.501 194.782C135.181 194.782 134.9 194.861 134.656 195.021C134.413 195.174 134.222 195.386 134.083 195.657C133.944 195.928 133.875 196.244 133.875 196.605C133.875 196.966 133.944 197.283 134.083 197.554C134.222 197.824 134.417 198.04 134.667 198.2C134.917 198.352 135.202 198.429 135.521 198.429ZM141.808 201.295V194H142.735L142.798 194.959V201.295H141.808ZM144.507 199.336C144.069 199.336 143.687 199.221 143.36 198.992C143.041 198.762 142.794 198.443 142.62 198.033C142.447 197.623 142.36 197.147 142.36 196.605C142.36 196.056 142.447 195.58 142.62 195.178C142.794 194.768 143.041 194.448 143.36 194.219C143.687 193.99 144.069 193.875 144.507 193.875C144.972 193.875 145.382 193.99 145.736 194.219C146.091 194.448 146.365 194.768 146.56 195.178C146.761 195.58 146.862 196.056 146.862 196.605C146.862 197.147 146.761 197.623 146.56 198.033C146.365 198.443 146.091 198.762 145.736 198.992C145.382 199.221 144.972 199.336 144.507 199.336ZM144.267 198.439C144.58 198.439 144.854 198.363 145.09 198.21C145.326 198.05 145.51 197.835 145.642 197.564C145.781 197.286 145.851 196.966 145.851 196.605C145.851 196.244 145.785 195.928 145.653 195.657C145.521 195.379 145.337 195.164 145.101 195.011C144.864 194.851 144.59 194.771 144.277 194.771C143.992 194.771 143.735 194.851 143.506 195.011C143.284 195.164 143.11 195.379 142.985 195.657C142.86 195.935 142.798 196.251 142.798 196.605C142.798 196.966 142.86 197.286 142.985 197.564C143.11 197.835 143.284 198.05 143.506 198.21C143.728 198.363 143.982 198.439 144.267 198.439ZM148.547 196.407C148.547 195.844 148.655 195.386 148.87 195.032C149.086 194.677 149.364 194.413 149.704 194.24C150.045 194.066 150.402 193.979 150.777 193.979V194.917C150.465 194.917 150.166 194.966 149.881 195.063C149.603 195.153 149.374 195.306 149.193 195.521C149.02 195.73 148.933 196.015 148.933 196.376L148.547 196.407ZM147.943 199.21V194H148.933V199.21H147.943ZM153.931 199.336C153.41 199.336 152.952 199.221 152.556 198.992C152.16 198.755 151.847 198.432 151.618 198.022C151.395 197.613 151.284 197.14 151.284 196.605C151.284 196.07 151.395 195.598 151.618 195.188C151.84 194.778 152.149 194.458 152.545 194.229C152.941 193.993 153.396 193.875 153.91 193.875C154.424 193.875 154.88 193.993 155.276 194.229C155.672 194.458 155.981 194.778 156.203 195.188C156.425 195.598 156.536 196.07 156.536 196.605C156.536 197.14 156.425 197.613 156.203 198.022C155.981 198.432 155.672 198.755 155.276 198.992C154.886 199.221 154.438 199.336 153.931 199.336ZM153.931 198.429C154.244 198.429 154.522 198.352 154.765 198.2C155.008 198.04 155.196 197.824 155.328 197.554C155.467 197.283 155.536 196.966 155.536 196.605C155.536 196.244 155.467 195.928 155.328 195.657C155.196 195.386 155.005 195.174 154.754 195.021C154.504 194.861 154.223 194.782 153.91 194.782C153.591 194.782 153.309 194.861 153.066 195.021C152.823 195.174 152.632 195.386 152.493 195.657C152.354 195.928 152.285 196.244 152.285 196.605C152.285 196.966 152.354 197.283 152.493 197.554C152.632 197.824 152.827 198.04 153.077 198.2C153.327 198.352 153.612 198.429 153.931 198.429ZM159.997 199.336C159.476 199.336 159.014 199.221 158.611 198.992C158.208 198.755 157.892 198.432 157.663 198.022C157.44 197.613 157.329 197.14 157.329 196.605C157.329 196.07 157.44 195.598 157.663 195.188C157.892 194.778 158.205 194.458 158.601 194.229C159.004 193.993 159.462 193.875 159.976 193.875C160.483 193.875 160.938 193.993 161.341 194.229C161.751 194.465 162.057 194.802 162.258 195.24L161.362 195.615C161.23 195.358 161.039 195.157 160.789 195.011C160.546 194.865 160.265 194.792 159.945 194.792C159.632 194.792 159.354 194.868 159.111 195.021C158.868 195.174 158.677 195.389 158.538 195.667C158.399 195.938 158.33 196.251 158.33 196.605C158.33 196.96 158.399 197.272 158.538 197.543C158.677 197.814 158.872 198.029 159.122 198.189C159.372 198.342 159.653 198.418 159.966 198.418C160.285 198.418 160.57 198.339 160.82 198.179C161.07 198.012 161.258 197.79 161.383 197.512L162.29 197.877C162.088 198.335 161.783 198.693 161.373 198.95C160.97 199.207 160.511 199.336 159.997 199.336ZM165.572 199.336C165.065 199.336 164.617 199.221 164.228 198.992C163.839 198.755 163.533 198.432 163.311 198.022C163.089 197.613 162.977 197.14 162.977 196.605C162.977 196.07 163.089 195.598 163.311 195.188C163.533 194.778 163.839 194.458 164.228 194.229C164.624 193.993 165.076 193.875 165.583 193.875C166.062 193.875 166.482 193.996 166.844 194.24C167.205 194.476 167.486 194.816 167.688 195.261C167.896 195.699 168 196.216 168 196.814H163.79L163.978 196.657C163.978 197.026 164.051 197.345 164.197 197.616C164.343 197.887 164.541 198.095 164.791 198.241C165.041 198.38 165.326 198.45 165.645 198.45C165.993 198.45 166.281 198.37 166.51 198.21C166.746 198.043 166.93 197.835 167.062 197.585L167.917 197.981C167.778 198.252 167.597 198.491 167.375 198.7C167.153 198.901 166.889 199.058 166.583 199.169C166.284 199.28 165.947 199.336 165.572 199.336ZM164.04 196.188L163.842 196.032H167.135L166.948 196.188C166.948 195.883 166.885 195.622 166.76 195.407C166.635 195.184 166.468 195.018 166.26 194.907C166.052 194.788 165.819 194.729 165.562 194.729C165.312 194.729 165.069 194.788 164.832 194.907C164.603 195.018 164.412 195.181 164.259 195.396C164.113 195.612 164.04 195.876 164.04 196.188ZM170.844 199.336C170.476 199.336 170.146 199.28 169.854 199.169C169.569 199.058 169.326 198.908 169.124 198.721C168.93 198.533 168.784 198.321 168.687 198.085L169.541 197.71C169.652 197.925 169.819 198.102 170.041 198.241C170.264 198.38 170.51 198.45 170.781 198.45C171.08 198.45 171.327 198.394 171.521 198.283C171.716 198.172 171.813 198.016 171.813 197.814C171.813 197.62 171.74 197.467 171.594 197.356C171.448 197.244 171.236 197.154 170.958 197.085L170.469 196.96C169.982 196.828 169.604 196.63 169.333 196.366C169.069 196.102 168.937 195.803 168.937 195.469C168.937 194.962 169.1 194.57 169.427 194.292C169.753 194.014 170.236 193.875 170.875 193.875C171.188 193.875 171.473 193.92 171.73 194.01C171.994 194.101 172.216 194.229 172.397 194.396C172.584 194.563 172.716 194.761 172.793 194.99L171.959 195.365C171.875 195.157 171.733 195.004 171.532 194.907C171.33 194.802 171.094 194.75 170.823 194.75C170.545 194.75 170.326 194.813 170.166 194.938C170.007 195.056 169.927 195.223 169.927 195.438C169.927 195.556 169.993 195.671 170.125 195.782C170.264 195.886 170.465 195.973 170.729 196.042L171.292 196.178C171.632 196.261 171.914 196.39 172.136 196.564C172.358 196.73 172.525 196.921 172.636 197.137C172.747 197.345 172.803 197.564 172.803 197.793C172.803 198.106 172.716 198.38 172.542 198.616C172.376 198.846 172.143 199.023 171.844 199.148C171.552 199.273 171.219 199.336 170.844 199.336ZM175.688 199.336C175.32 199.336 174.99 199.28 174.698 199.169C174.413 199.058 174.17 198.908 173.968 198.721C173.774 198.533 173.628 198.321 173.531 198.085L174.385 197.71C174.496 197.925 174.663 198.102 174.886 198.241C175.108 198.38 175.354 198.45 175.625 198.45C175.924 198.45 176.171 198.394 176.365 198.283C176.56 198.172 176.657 198.016 176.657 197.814C176.657 197.62 176.584 197.467 176.438 197.356C176.292 197.244 176.08 197.154 175.803 197.085L175.313 196.96C174.826 196.828 174.448 196.63 174.177 196.366C173.913 196.102 173.781 195.803 173.781 195.469C173.781 194.962 173.944 194.57 174.271 194.292C174.597 194.014 175.08 193.875 175.719 193.875C176.032 193.875 176.317 193.92 176.574 194.01C176.838 194.101 177.06 194.229 177.241 194.396C177.428 194.563 177.56 194.761 177.637 194.99L176.803 195.365C176.72 195.157 176.577 195.004 176.376 194.907C176.174 194.802 175.938 194.75 175.667 194.75C175.389 194.75 175.17 194.813 175.011 194.938C174.851 195.056 174.771 195.223 174.771 195.438C174.771 195.556 174.837 195.671 174.969 195.782C175.108 195.886 175.309 195.973 175.573 196.042L176.136 196.178C176.476 196.261 176.758 196.39 176.98 196.564C177.202 196.73 177.369 196.921 177.48 197.137C177.592 197.345 177.647 197.564 177.647 197.793C177.647 198.106 177.56 198.38 177.387 198.616C177.22 198.846 176.987 199.023 176.688 199.148C176.397 199.273 176.063 199.336 175.688 199.336Z" fill="white"/>
<path d="M105.796 103.106C105.374 105.074 103.798 106.473 100.819 106.473C97.3733 106.473 95.6438 104.268 95.6438 101.615C95.6438 99.0673 97.3466 96.7703 100.938 96.7703C104.093 96.7703 105.572 98.4073 105.809 100.083H102.773C102.676 99.6807 102.434 99.3282 102.092 99.094C101.75 98.8599 101.334 98.7608 100.924 98.8159C99.5088 98.8159 98.8247 99.9253 98.8247 101.549C98.8247 103.027 99.379 104.4 100.937 104.4C101.793 104.502 102.588 103.945 102.785 103.106H105.796ZM117.464 101.601C117.464 104.216 115.721 106.473 112.077 106.473C108.725 106.473 106.877 104.334 106.877 101.615C106.877 99.0539 108.672 96.7703 112.21 96.7703C115.563 96.7703 117.464 98.9616 117.464 101.601ZM110.057 101.562C110.057 103.186 110.703 104.374 112.221 104.374C113.792 104.374 114.28 103.014 114.28 101.615C114.28 100.004 113.713 98.8159 112.142 98.8159C110.652 98.8159 110.058 100.043 110.058 101.562H110.057ZM127.825 103.133L127.931 98.7901H127.904L125.924 106.262H123.455L121.66 98.7643H121.633L121.806 103.239V106.263H119.112V96.9817H123.429L124.881 102.909H124.894L126.465 96.9817H130.769V106.261H127.825V103.133ZM132.959 96.9817H138.173C140.405 96.9817 141.964 98.0919 141.964 100.006C141.964 101.973 140.499 103.108 138.189 103.108H135.955V106.263H132.959V96.9817ZM135.955 101.074H137.712C138.517 101.074 138.992 100.741 138.992 100.031C138.992 99.4368 138.636 99.014 137.712 99.014H135.955V101.074ZM143.334 96.9817H146.358V104.11H151.335L150.978 106.261H143.334V96.9817ZM153.339 106.261V103.04C153.34 102.91 153.293 102.783 153.207 102.684L149.472 96.9817H153.01L154.99 100.704C155.438 99.7539 156.257 98.3815 157.01 96.9817H160.255L156.44 102.777C156.384 102.872 156.361 102.983 156.374 103.093V106.261H153.339ZM98.615 116.956L98.0208 118.683H94.9972L98.5084 109.404H102.442L106.178 118.683H102.944L102.311 116.954L98.615 116.956ZM101.611 114.804L100.423 111.309H100.37C100.172 112.074 99.7626 113.394 99.2608 114.804H101.611ZM107.18 109.405H111.878C115.23 109.405 116.92 111.45 116.92 113.893C116.92 116.757 114.821 118.685 111.851 118.685H107.18V109.405ZM110.191 116.603H111.497C112.989 116.603 113.744 115.705 113.744 113.963C113.744 112.537 113.15 111.494 111.497 111.481H110.191V116.603ZM120.867 118.683L117.251 109.404H120.537L121.897 113.565C122.235 114.548 122.521 115.548 122.754 116.561H122.781C123.043 115.502 123.36 114.458 123.731 113.433L124.999 109.406H128.233L124.552 118.683H120.867ZM130.808 116.956L130.215 118.683H127.191L130.702 109.404H134.636L138.371 118.683H135.137L134.504 116.954L130.808 116.956ZM133.804 114.804L132.616 111.309H132.563C132.365 112.074 131.956 113.394 131.454 114.804H133.804ZM139.374 118.683V109.405H142.886L146.24 115.133H146.292C146.2 114.249 146.213 112.572 146.213 111.041V109.405H148.919V118.683H145.605L142.041 112.307H142.002C142.085 113.364 142.094 114.604 142.094 116.426V118.683H139.374ZM153.283 111.543H150.204V109.405H159.339V111.543H156.296V118.683H153.283V111.543ZM162.065 116.956L161.473 118.683H158.449L161.961 109.404H165.895L169.629 118.683H166.395L165.761 116.954L162.065 116.956ZM165.061 114.804L163.872 111.309H163.82C163.622 112.074 163.212 113.394 162.711 114.804H165.061ZM180.069 118.684H177.996C177.916 118.407 177.854 118.124 177.812 117.839C177.218 118.499 176.439 118.895 174.732 118.895C173.445 118.981 172.183 118.506 171.273 117.593C170.362 116.68 169.89 115.417 169.98 114.129C169.98 111.489 171.657 109.192 175.313 109.192C178.257 109.192 179.802 110.684 180.079 112.242H177.062C176.807 111.512 176.072 111.064 175.306 111.173C173.735 111.173 173.168 112.467 173.168 113.972C173.168 115.609 173.814 116.862 175.372 116.862C176.692 116.862 177.168 116.113 177.168 115.398V115.304H175.346V113.272H180.071L180.069 118.684ZM189.943 114.988H184.979V116.546H190.524L190.18 118.683H182.007V109.405H190.205V111.543H184.977V112.837H189.941L189.943 114.988Z" fill="black"/>
<rect x="243.5" y="52.5" width="152.711" height="164" rx="11.5" fill="#232323" stroke="#37373D"/>
<rect x="256.026" y="65.0264" width="127.658" height="86.8421" rx="10.4211" fill="#75C6E7"/>
<path d="M303.367 90.5205L337.965 126.423L334.348 129.898L328.845 124.252L323.491 129.463C321.027 131.923 317.699 133.226 314.079 133.08C310.604 133.08 307.276 131.635 304.816 129.029C302.353 126.566 301.05 123.238 301.196 119.617C301.196 116.143 302.644 112.815 305.25 110.355L308.867 106.881L312.341 110.497L308.725 113.972C307.13 115.42 306.261 117.446 306.261 119.617C306.261 121.789 306.987 123.818 308.579 125.409C310.027 127 312.053 127.869 314.224 127.869C316.396 127.869 318.422 127.146 320.016 125.555L325.37 120.343L303.367 97.9033V90.5205Z" fill="#005172"/>
<path fill-rule="evenodd" clip-rule="evenodd" d="M335.07 100.075C337.53 102.538 338.833 105.866 338.69 109.486C338.69 112.961 337.242 116.289 334.636 118.749L334.202 119.183L330.727 115.566L331.162 115.132C332.753 113.683 333.621 111.658 333.621 109.486C333.621 107.315 332.899 105.286 331.307 103.695C330.439 102.826 329.57 102.104 328.41 101.669V96.3121C331.016 96.8922 333.333 98.1951 335.07 100.075ZM306.695 85.455L304.235 87.9148L307.71 91.535L310.17 89.2177C312.633 86.9038 316.396 86.9038 318.713 89.3636C321.027 91.8234 321.027 95.5894 318.567 97.9033L316.107 100.221L319.582 103.841L322.041 101.523C326.53 97.3265 326.53 90.2321 322.33 85.7434C318.133 81.4006 311.184 81.2581 306.695 85.455Z" fill="#3095B4"/>
<path d="M258.846 176.026V167.516H261.472C262.282 167.516 263 167.698 263.624 168.063C264.256 168.42 264.75 168.918 265.107 169.558C265.464 170.199 265.642 170.936 265.642 171.771C265.642 172.598 265.464 173.331 265.107 173.972C264.75 174.612 264.256 175.115 263.624 175.479C263 175.844 262.282 176.026 261.472 176.026H258.846ZM260.037 174.908H261.472C261.885 174.908 262.27 174.831 262.627 174.677C262.983 174.515 263.296 174.292 263.563 174.008C263.839 173.716 264.049 173.38 264.195 172.999C264.349 172.618 264.426 172.209 264.426 171.771C264.426 171.333 264.349 170.924 264.195 170.543C264.049 170.162 263.839 169.83 263.563 169.546C263.296 169.254 262.983 169.032 262.627 168.878C262.27 168.715 261.885 168.634 261.472 168.634H260.037V174.908ZM271.106 176.026L271.033 174.908V169.947H272.176V176.026H271.106ZM266.826 173.06V169.947H267.981V173.06H266.826ZM267.981 173.06C267.981 173.603 268.042 174.02 268.164 174.312C268.293 174.604 268.472 174.807 268.699 174.92C268.926 175.033 269.181 175.094 269.465 175.102C269.959 175.102 270.344 174.928 270.62 174.58C270.895 174.231 271.033 173.741 271.033 173.108H271.531C271.531 173.749 271.434 174.3 271.24 174.762C271.053 175.216 270.786 175.564 270.437 175.808C270.089 176.051 269.663 176.172 269.161 176.172C268.69 176.172 268.277 176.075 267.92 175.88C267.572 175.686 267.3 175.382 267.106 174.969C266.919 174.555 266.826 174.02 266.826 173.364V173.06H267.981ZM273.787 176.026V169.947H274.869L274.942 171.066V176.026H273.787ZM277.994 176.026V172.914H279.149V176.026H277.994ZM277.994 172.914C277.994 172.363 277.929 171.945 277.799 171.662C277.678 171.37 277.503 171.167 277.277 171.054C277.058 170.94 276.802 170.88 276.511 170.871C276.016 170.871 275.631 171.046 275.356 171.394C275.08 171.743 274.942 172.233 274.942 172.865H274.444C274.444 172.225 274.537 171.678 274.723 171.224C274.918 170.762 275.189 170.409 275.538 170.166C275.895 169.923 276.316 169.802 276.802 169.802C277.281 169.802 277.694 169.899 278.042 170.093C278.399 170.288 278.671 170.592 278.857 171.005C279.052 171.41 279.149 171.945 279.149 172.61V172.914H277.994ZM285.905 176.197C285.419 176.197 284.985 176.103 284.604 175.917C284.231 175.722 283.935 175.455 283.716 175.115C283.498 174.774 283.388 174.389 283.388 173.96C283.388 173.611 283.453 173.299 283.583 173.023C283.72 172.748 283.899 172.497 284.118 172.27C284.345 172.035 284.592 171.824 284.859 171.637L286.099 170.786C286.286 170.657 286.472 170.523 286.659 170.385C286.845 170.239 287.003 170.077 287.133 169.899C287.271 169.712 287.339 169.506 287.339 169.279C287.339 168.987 287.234 168.756 287.023 168.586C286.821 168.416 286.561 168.33 286.245 168.33C285.97 168.33 285.735 168.42 285.54 168.598C285.346 168.776 285.248 168.999 285.248 169.267C285.248 169.494 285.317 169.7 285.455 169.887C285.601 170.065 285.775 170.28 285.978 170.531L287.51 172.367L290.525 176.026H289.115L286.598 172.999L285.066 171.151C284.871 170.9 284.701 170.673 284.555 170.47C284.409 170.268 284.296 170.069 284.215 169.874C284.142 169.672 284.105 169.465 284.105 169.254C284.105 168.89 284.199 168.565 284.385 168.282C284.572 167.99 284.823 167.763 285.139 167.601C285.463 167.431 285.82 167.346 286.209 167.346C286.638 167.346 287.023 167.427 287.364 167.589C287.704 167.751 287.972 167.978 288.166 168.27C288.361 168.561 288.458 168.902 288.458 169.291C288.458 169.615 288.373 169.919 288.203 170.203C288.032 170.478 287.797 170.746 287.498 171.005C287.198 171.265 286.853 171.528 286.464 171.795L285.577 172.415C285.406 172.529 285.244 172.659 285.09 172.805C284.944 172.942 284.823 173.1 284.726 173.279C284.636 173.457 284.592 173.676 284.592 173.935C284.592 174.3 284.717 174.6 284.969 174.835C285.22 175.062 285.548 175.175 285.953 175.175C286.351 175.175 286.728 175.11 287.084 174.981C287.441 174.843 287.753 174.653 288.02 174.409C288.296 174.158 288.511 173.854 288.665 173.498C288.819 173.141 288.896 172.744 288.896 172.306H290.014C290.014 173.06 289.836 173.733 289.479 174.324C289.131 174.908 288.648 175.366 288.032 175.698C287.416 176.03 286.707 176.197 285.905 176.197ZM294.655 176.026V167.516H297.39C297.974 167.516 298.472 167.605 298.885 167.783C299.307 167.962 299.631 168.225 299.858 168.574C300.093 168.922 300.211 169.352 300.211 169.862C300.211 170.251 300.117 170.6 299.931 170.908C299.753 171.208 299.501 171.455 299.177 171.65C299.599 171.852 299.919 172.124 300.138 172.464C300.365 172.805 300.478 173.21 300.478 173.68C300.478 174.174 300.365 174.6 300.138 174.956C299.919 175.305 299.607 175.572 299.202 175.759C298.796 175.937 298.31 176.026 297.743 176.026H294.655ZM295.834 174.944H297.67C298.172 174.944 298.561 174.827 298.837 174.592C299.121 174.349 299.262 174.024 299.262 173.619C299.262 173.165 299.1 172.817 298.776 172.574C298.46 172.322 298.014 172.197 297.439 172.197H295.834V174.944ZM295.834 171.175H297.585C298.022 171.175 298.367 171.058 298.618 170.823C298.877 170.588 299.007 170.264 299.007 169.85C299.007 169.421 298.861 169.092 298.569 168.865C298.278 168.63 297.868 168.513 297.341 168.513H295.834V171.175ZM302.513 172.756C302.513 172.099 302.638 171.564 302.889 171.151C303.141 170.738 303.465 170.43 303.862 170.227C304.259 170.024 304.677 169.923 305.114 169.923V171.017C304.75 171.017 304.401 171.074 304.069 171.188C303.745 171.293 303.477 171.471 303.266 171.722C303.064 171.966 302.962 172.298 302.962 172.719L302.513 172.756ZM301.807 176.026V169.947H302.962V176.026H301.807ZM309.778 176.026L309.73 174.969V172.853C309.73 172.407 309.677 172.035 309.572 171.735C309.475 171.435 309.321 171.208 309.11 171.054C308.907 170.9 308.636 170.823 308.295 170.823C307.979 170.823 307.704 170.888 307.468 171.017C307.242 171.147 307.051 171.35 306.897 171.625L305.876 171.236C306.022 170.961 306.204 170.717 306.423 170.507C306.642 170.288 306.905 170.118 307.213 169.996C307.521 169.866 307.882 169.802 308.295 169.802C308.871 169.802 309.349 169.915 309.73 170.142C310.111 170.369 310.394 170.697 310.581 171.127C310.775 171.556 310.869 172.087 310.861 172.719L310.848 176.026H309.778ZM307.991 176.172C307.27 176.172 306.707 176.01 306.301 175.686C305.904 175.354 305.706 174.896 305.706 174.312C305.706 173.688 305.912 173.214 306.326 172.89C306.747 172.557 307.331 172.391 308.076 172.391H309.766V173.303H308.392C307.833 173.303 307.44 173.392 307.213 173.57C306.986 173.741 306.873 173.98 306.873 174.288C306.873 174.571 306.978 174.794 307.189 174.956C307.408 175.11 307.708 175.187 308.089 175.187C308.421 175.187 308.709 175.119 308.952 174.981C309.195 174.835 309.385 174.632 309.523 174.373C309.661 174.114 309.73 173.818 309.73 173.485H310.131C310.131 174.312 309.953 174.969 309.596 175.455C309.248 175.933 308.713 176.172 307.991 176.172ZM316.765 176.026L316.716 174.896V167.516H317.859V176.026H316.765ZM314.722 176.172C314.171 176.172 313.689 176.039 313.275 175.771C312.87 175.504 312.55 175.131 312.315 174.653C312.088 174.174 311.974 173.619 311.974 172.987C311.974 172.347 312.088 171.791 312.315 171.321C312.55 170.843 312.87 170.47 313.275 170.203C313.689 169.935 314.171 169.802 314.722 169.802C315.233 169.802 315.675 169.935 316.047 170.203C316.428 170.47 316.72 170.843 316.923 171.321C317.125 171.791 317.227 172.347 317.227 172.987C317.227 173.619 317.125 174.174 316.923 174.653C316.72 175.131 316.428 175.504 316.047 175.771C315.675 176.039 315.233 176.172 314.722 176.172ZM314.99 175.127C315.33 175.127 315.63 175.038 315.889 174.859C316.149 174.673 316.351 174.422 316.497 174.105C316.643 173.781 316.716 173.408 316.716 172.987C316.716 172.565 316.643 172.197 316.497 171.881C316.351 171.556 316.149 171.305 315.889 171.127C315.63 170.94 315.326 170.847 314.977 170.847C314.621 170.847 314.305 170.94 314.029 171.127C313.754 171.305 313.539 171.556 313.385 171.881C313.231 172.197 313.154 172.565 313.154 172.987C313.154 173.408 313.231 173.781 313.385 174.105C313.547 174.422 313.766 174.673 314.041 174.859C314.317 175.038 314.633 175.127 314.99 175.127ZM321.639 176.172C321.209 176.172 320.824 176.107 320.484 175.978C320.151 175.848 319.868 175.674 319.633 175.455C319.406 175.236 319.235 174.989 319.122 174.713L320.119 174.276C320.249 174.527 320.443 174.734 320.703 174.896C320.962 175.058 321.25 175.139 321.566 175.139C321.914 175.139 322.202 175.074 322.429 174.944C322.656 174.815 322.769 174.632 322.769 174.397C322.769 174.17 322.684 173.992 322.514 173.862C322.344 173.733 322.097 173.627 321.772 173.546L321.201 173.4C320.634 173.246 320.192 173.015 319.876 172.707C319.568 172.399 319.414 172.051 319.414 171.662C319.414 171.07 319.604 170.612 319.985 170.288C320.366 169.964 320.929 169.802 321.675 169.802C322.04 169.802 322.372 169.854 322.672 169.96C322.98 170.065 323.239 170.215 323.45 170.409C323.669 170.604 323.823 170.835 323.912 171.102L322.94 171.54C322.842 171.297 322.676 171.119 322.441 171.005C322.206 170.884 321.93 170.823 321.614 170.823C321.29 170.823 321.035 170.896 320.848 171.042C320.662 171.179 320.569 171.374 320.569 171.625C320.569 171.763 320.646 171.897 320.8 172.026C320.962 172.148 321.197 172.249 321.505 172.33L322.161 172.488C322.559 172.586 322.887 172.736 323.146 172.938C323.406 173.133 323.6 173.356 323.73 173.607C323.86 173.85 323.924 174.105 323.924 174.373C323.924 174.738 323.823 175.058 323.62 175.333C323.426 175.601 323.154 175.808 322.806 175.953C322.465 176.099 322.076 176.172 321.639 176.172ZM327.472 176.172C326.864 176.172 326.394 176.018 326.062 175.71C325.73 175.394 325.564 174.944 325.564 174.361V168.051H326.719V174.191C326.719 174.49 326.791 174.721 326.937 174.884C327.091 175.038 327.31 175.115 327.594 175.115C327.675 175.115 327.764 175.098 327.861 175.066C327.959 175.033 328.076 174.969 328.214 174.871L328.652 175.771C328.441 175.909 328.238 176.01 328.044 176.075C327.857 176.14 327.667 176.172 327.472 176.172ZM324.53 170.944V169.947H328.445V170.944H324.53ZM330.497 172.756C330.497 172.099 330.623 171.564 330.874 171.151C331.125 170.738 331.449 170.43 331.847 170.227C332.244 170.024 332.661 169.923 333.099 169.923V171.017C332.734 171.017 332.386 171.074 332.053 171.188C331.729 171.293 331.462 171.471 331.251 171.722C331.048 171.966 330.947 172.298 330.947 172.719L330.497 172.756ZM329.792 176.026V169.947H330.947V176.026H329.792ZM336.717 176.172C336.126 176.172 335.603 176.039 335.149 175.771C334.695 175.495 334.339 175.119 334.079 174.64C333.82 174.162 333.69 173.611 333.69 172.987C333.69 172.363 333.82 171.812 334.079 171.333C334.339 170.855 334.695 170.482 335.149 170.215C335.611 169.939 336.138 169.802 336.73 169.802C337.289 169.802 337.779 169.943 338.201 170.227C338.622 170.503 338.95 170.9 339.185 171.419C339.429 171.929 339.55 172.533 339.55 173.23H334.638L334.857 173.048C334.857 173.477 334.942 173.85 335.113 174.166C335.283 174.482 335.514 174.725 335.806 174.896C336.097 175.058 336.43 175.139 336.803 175.139C337.208 175.139 337.544 175.046 337.812 174.859C338.087 174.665 338.302 174.422 338.456 174.13L339.453 174.592C339.291 174.908 339.08 175.187 338.821 175.431C338.561 175.666 338.253 175.848 337.897 175.978C337.548 176.107 337.155 176.172 336.717 176.172ZM334.93 172.501L334.699 172.318H338.541L338.322 172.501C338.322 172.144 338.249 171.84 338.103 171.589C337.958 171.329 337.763 171.135 337.52 171.005C337.277 170.867 337.005 170.798 336.705 170.798C336.413 170.798 336.13 170.867 335.854 171.005C335.587 171.135 335.364 171.325 335.186 171.577C335.015 171.828 334.93 172.136 334.93 172.501ZM343.378 176.172C342.786 176.172 342.264 176.039 341.81 175.771C341.356 175.495 340.999 175.119 340.74 174.64C340.481 174.162 340.351 173.611 340.351 172.987C340.351 172.363 340.481 171.812 340.74 171.333C340.999 170.855 341.356 170.482 341.81 170.215C342.272 169.939 342.799 169.802 343.39 169.802C343.95 169.802 344.44 169.943 344.861 170.227C345.283 170.503 345.611 170.9 345.846 171.419C346.089 171.929 346.211 172.533 346.211 173.23H341.299L341.518 173.048C341.518 173.477 341.603 173.85 341.773 174.166C341.944 174.482 342.175 174.725 342.466 174.896C342.758 175.058 343.09 175.139 343.463 175.139C343.869 175.139 344.205 175.046 344.472 174.859C344.748 174.665 344.963 174.422 345.117 174.13L346.114 174.592C345.952 174.908 345.741 175.187 345.481 175.431C345.222 175.666 344.914 175.848 344.557 175.978C344.209 176.107 343.816 176.172 343.378 176.172ZM341.591 172.501L341.36 172.318H345.202L344.983 172.501C344.983 172.144 344.91 171.84 344.764 171.589C344.618 171.329 344.424 171.135 344.181 171.005C343.937 170.867 343.666 170.798 343.366 170.798C343.074 170.798 342.791 170.867 342.515 171.005C342.247 171.135 342.025 171.325 341.846 171.577C341.676 171.828 341.591 172.136 341.591 172.501ZM349.698 176.172C349.091 176.172 348.62 176.018 348.288 175.71C347.956 175.394 347.79 174.944 347.79 174.361V168.051H348.945V174.191C348.945 174.49 349.018 174.721 349.163 174.884C349.317 175.038 349.536 175.115 349.82 175.115C349.901 175.115 349.99 175.098 350.087 175.066C350.185 175.033 350.302 174.969 350.44 174.871L350.878 175.771C350.667 175.909 350.464 176.01 350.27 176.075C350.083 176.14 349.893 176.172 349.698 176.172ZM346.756 170.944V169.947H350.671V170.944H346.756Z" fill="white"/>
<rect x="258" y="185" width="127.658" height="20.8421" rx="4.3421" fill="#75C6E7"/>
<path d="M291.595 199.342L288.708 192.047H289.75L292.689 199.342H291.595ZM285.717 199.342L288.656 192.047H289.698L286.811 199.342H285.717ZM287.103 197.393V196.476H291.303V197.393H287.103ZM297.198 199.342L297.156 198.373V192.047H298.136V199.342H297.198ZM295.447 199.467C294.975 199.467 294.562 199.352 294.207 199.123C293.86 198.894 293.585 198.574 293.384 198.164C293.189 197.754 293.092 197.278 293.092 196.737C293.092 196.188 293.189 195.712 293.384 195.309C293.585 194.899 293.86 194.579 294.207 194.35C294.562 194.121 294.975 194.006 295.447 194.006C295.885 194.006 296.264 194.121 296.583 194.35C296.91 194.579 297.16 194.899 297.334 195.309C297.507 195.712 297.594 196.188 297.594 196.737C297.594 197.278 297.507 197.754 297.334 198.164C297.16 198.574 296.91 198.894 296.583 199.123C296.264 199.352 295.885 199.467 295.447 199.467ZM295.677 198.571C295.968 198.571 296.225 198.494 296.448 198.341C296.67 198.182 296.844 197.966 296.969 197.695C297.094 197.417 297.156 197.098 297.156 196.737C297.156 196.375 297.094 196.059 296.969 195.788C296.844 195.51 296.67 195.295 296.448 195.142C296.225 194.982 295.965 194.902 295.666 194.902C295.361 194.902 295.09 194.982 294.853 195.142C294.617 195.295 294.433 195.51 294.301 195.788C294.169 196.059 294.103 196.375 294.103 196.737C294.103 197.098 294.169 197.417 294.301 197.695C294.44 197.966 294.628 198.182 294.864 198.341C295.1 198.494 295.371 198.571 295.677 198.571ZM303.325 199.342L303.283 198.373V192.047H304.262V199.342H303.325ZM301.574 199.467C301.101 199.467 300.688 199.352 300.334 199.123C299.986 198.894 299.712 198.574 299.51 198.164C299.316 197.754 299.219 197.278 299.219 196.737C299.219 196.188 299.316 195.712 299.51 195.309C299.712 194.899 299.986 194.579 300.334 194.35C300.688 194.121 301.101 194.006 301.574 194.006C302.011 194.006 302.39 194.121 302.71 194.35C303.036 194.579 303.286 194.899 303.46 195.309C303.634 195.712 303.721 196.188 303.721 196.737C303.721 197.278 303.634 197.754 303.46 198.164C303.286 198.574 303.036 198.894 302.71 199.123C302.39 199.352 302.011 199.467 301.574 199.467ZM301.803 198.571C302.095 198.571 302.352 198.494 302.574 198.341C302.797 198.182 302.97 197.966 303.095 197.695C303.22 197.417 303.283 197.098 303.283 196.737C303.283 196.375 303.22 196.059 303.095 195.788C302.97 195.51 302.797 195.295 302.574 195.142C302.352 194.982 302.091 194.902 301.793 194.902C301.487 194.902 301.216 194.982 300.98 195.142C300.744 195.295 300.559 195.51 300.427 195.788C300.295 196.059 300.229 196.375 300.229 196.737C300.229 197.098 300.295 197.417 300.427 197.695C300.566 197.966 300.754 198.182 300.99 198.341C301.226 198.494 301.497 198.571 301.803 198.571ZM310.192 199.467C309.671 199.467 309.268 199.335 308.983 199.071C308.699 198.8 308.556 198.414 308.556 197.914V192.506H309.546V197.768C309.546 198.025 309.609 198.223 309.734 198.362C309.866 198.494 310.053 198.56 310.297 198.56C310.366 198.56 310.442 198.546 310.526 198.519C310.609 198.491 310.71 198.435 310.828 198.352L311.203 199.123C311.023 199.241 310.849 199.328 310.682 199.383C310.522 199.439 310.359 199.467 310.192 199.467ZM307.67 194.986V194.131H311.026V194.986H307.67ZM314.495 199.467C313.974 199.467 313.515 199.352 313.119 199.123C312.723 198.887 312.411 198.564 312.182 198.154C311.959 197.744 311.848 197.271 311.848 196.737C311.848 196.202 311.959 195.729 312.182 195.319C312.404 194.909 312.713 194.59 313.109 194.361C313.505 194.124 313.96 194.006 314.474 194.006C314.988 194.006 315.443 194.124 315.839 194.361C316.235 194.59 316.544 194.909 316.767 195.319C316.989 195.729 317.1 196.202 317.1 196.737C317.1 197.271 316.989 197.744 316.767 198.154C316.544 198.564 316.235 198.887 315.839 199.123C315.45 199.352 315.002 199.467 314.495 199.467ZM314.495 198.56C314.808 198.56 315.086 198.484 315.329 198.331C315.572 198.171 315.759 197.956 315.891 197.685C316.03 197.414 316.1 197.098 316.1 196.737C316.1 196.375 316.03 196.059 315.891 195.788C315.759 195.517 315.568 195.305 315.318 195.153C315.068 194.993 314.787 194.913 314.474 194.913C314.155 194.913 313.873 194.993 313.63 195.153C313.387 195.305 313.196 195.517 313.057 195.788C312.918 196.059 312.848 196.375 312.848 196.737C312.848 197.098 312.918 197.414 313.057 197.685C313.196 197.956 313.39 198.171 313.64 198.331C313.891 198.484 314.175 198.56 314.495 198.56ZM320.781 201.426V194.131H321.709L321.771 195.09V201.426H320.781ZM323.48 199.467C323.043 199.467 322.66 199.352 322.334 199.123C322.014 198.894 321.768 198.574 321.594 198.164C321.42 197.754 321.333 197.278 321.333 196.737C321.333 196.188 321.42 195.712 321.594 195.309C321.768 194.899 322.014 194.579 322.334 194.35C322.66 194.121 323.043 194.006 323.48 194.006C323.946 194.006 324.356 194.121 324.71 194.35C325.064 194.579 325.339 194.899 325.533 195.309C325.735 195.712 325.835 196.188 325.835 196.737C325.835 197.278 325.735 197.754 325.533 198.164C325.339 198.574 325.064 198.894 324.71 199.123C324.356 199.352 323.946 199.467 323.48 199.467ZM323.241 198.571C323.553 198.571 323.828 198.494 324.064 198.341C324.3 198.182 324.484 197.966 324.616 197.695C324.755 197.417 324.825 197.098 324.825 196.737C324.825 196.375 324.759 196.059 324.627 195.788C324.495 195.51 324.31 195.295 324.074 195.142C323.838 194.982 323.564 194.902 323.251 194.902C322.966 194.902 322.709 194.982 322.48 195.142C322.257 195.295 322.084 195.51 321.959 195.788C321.834 196.066 321.771 196.382 321.771 196.737C321.771 197.098 321.834 197.417 321.959 197.695C322.084 197.966 322.257 198.182 322.48 198.341C322.702 198.494 322.956 198.571 323.241 198.571ZM327.521 196.539C327.521 195.976 327.629 195.517 327.844 195.163C328.059 194.809 328.337 194.545 328.678 194.371C329.018 194.197 329.376 194.11 329.751 194.11V195.048C329.438 195.048 329.14 195.097 328.855 195.194C328.577 195.285 328.348 195.437 328.167 195.653C327.993 195.861 327.907 196.146 327.907 196.507L327.521 196.539ZM326.917 199.342V194.131H327.907V199.342H326.917ZM332.905 199.467C332.384 199.467 331.925 199.352 331.529 199.123C331.133 198.887 330.821 198.564 330.591 198.154C330.369 197.744 330.258 197.271 330.258 196.737C330.258 196.202 330.369 195.729 330.591 195.319C330.814 194.909 331.123 194.59 331.519 194.361C331.915 194.124 332.37 194.006 332.884 194.006C333.398 194.006 333.853 194.124 334.249 194.361C334.645 194.59 334.954 194.909 335.177 195.319C335.399 195.729 335.51 196.202 335.51 196.737C335.51 197.271 335.399 197.744 335.177 198.154C334.954 198.564 334.645 198.887 334.249 199.123C333.86 199.352 333.412 199.467 332.905 199.467ZM332.905 198.56C333.217 198.56 333.495 198.484 333.739 198.331C333.982 198.171 334.169 197.956 334.301 197.685C334.44 197.414 334.51 197.098 334.51 196.737C334.51 196.375 334.44 196.059 334.301 195.788C334.169 195.517 333.978 195.305 333.728 195.153C333.478 194.993 333.197 194.913 332.884 194.913C332.564 194.913 332.283 194.993 332.04 195.153C331.797 195.305 331.606 195.517 331.467 195.788C331.328 196.059 331.258 196.375 331.258 196.737C331.258 197.098 331.328 197.414 331.467 197.685C331.606 197.956 331.8 198.171 332.05 198.331C332.3 198.484 332.585 198.56 332.905 198.56ZM338.971 199.467C338.45 199.467 337.988 199.352 337.585 199.123C337.182 198.887 336.866 198.564 336.636 198.154C336.414 197.744 336.303 197.271 336.303 196.737C336.303 196.202 336.414 195.729 336.636 195.319C336.866 194.909 337.178 194.59 337.574 194.361C337.977 194.124 338.436 194.006 338.95 194.006C339.457 194.006 339.912 194.124 340.315 194.361C340.725 194.597 341.031 194.934 341.232 195.371L340.336 195.747C340.204 195.489 340.013 195.288 339.763 195.142C339.52 194.996 339.238 194.923 338.919 194.923C338.606 194.923 338.328 195 338.085 195.153C337.842 195.305 337.651 195.521 337.512 195.799C337.373 196.07 337.303 196.382 337.303 196.737C337.303 197.091 337.373 197.403 337.512 197.674C337.651 197.945 337.845 198.161 338.095 198.321C338.345 198.473 338.627 198.55 338.939 198.55C339.259 198.55 339.544 198.47 339.794 198.31C340.044 198.143 340.232 197.921 340.357 197.643L341.263 198.008C341.062 198.466 340.756 198.824 340.346 199.081C339.943 199.338 339.485 199.467 338.971 199.467ZM344.546 199.467C344.039 199.467 343.591 199.352 343.202 199.123C342.813 198.887 342.507 198.564 342.285 198.154C342.062 197.744 341.951 197.271 341.951 196.737C341.951 196.202 342.062 195.729 342.285 195.319C342.507 194.909 342.813 194.59 343.202 194.361C343.598 194.124 344.049 194.006 344.556 194.006C345.036 194.006 345.456 194.128 345.817 194.371C346.179 194.607 346.46 194.948 346.661 195.392C346.87 195.83 346.974 196.347 346.974 196.945H342.764L342.951 196.789C342.951 197.157 343.024 197.476 343.17 197.747C343.316 198.018 343.514 198.227 343.764 198.373C344.014 198.512 344.299 198.581 344.619 198.581C344.966 198.581 345.255 198.501 345.484 198.341C345.72 198.175 345.904 197.966 346.036 197.716L346.891 198.112C346.752 198.383 346.571 198.623 346.349 198.831C346.126 199.033 345.862 199.189 345.557 199.3C345.258 199.411 344.921 199.467 344.546 199.467ZM343.014 196.32L342.816 196.163H346.109L345.921 196.32C345.921 196.014 345.859 195.753 345.734 195.538C345.609 195.316 345.442 195.149 345.234 195.038C345.025 194.92 344.793 194.861 344.535 194.861C344.285 194.861 344.042 194.92 343.806 195.038C343.577 195.149 343.386 195.312 343.233 195.528C343.087 195.743 343.014 196.007 343.014 196.32ZM349.817 199.467C349.449 199.467 349.119 199.411 348.827 199.3C348.543 199.189 348.299 199.04 348.098 198.852C347.903 198.664 347.758 198.453 347.66 198.216L348.515 197.841C348.626 198.057 348.793 198.234 349.015 198.373C349.237 198.512 349.484 198.581 349.755 198.581C350.054 198.581 350.3 198.525 350.495 198.414C350.689 198.303 350.787 198.147 350.787 197.945C350.787 197.751 350.714 197.598 350.568 197.487C350.422 197.376 350.21 197.285 349.932 197.216L349.442 197.091C348.956 196.959 348.577 196.761 348.306 196.497C348.042 196.233 347.91 195.934 347.91 195.601C347.91 195.093 348.074 194.701 348.4 194.423C348.727 194.145 349.21 194.006 349.849 194.006C350.161 194.006 350.446 194.051 350.703 194.142C350.967 194.232 351.19 194.361 351.37 194.527C351.558 194.694 351.69 194.892 351.766 195.121L350.932 195.496C350.849 195.288 350.707 195.135 350.505 195.038C350.304 194.934 350.068 194.882 349.797 194.882C349.519 194.882 349.3 194.944 349.14 195.069C348.98 195.187 348.9 195.354 348.9 195.569C348.9 195.687 348.966 195.802 349.098 195.913C349.237 196.017 349.439 196.104 349.703 196.174L350.266 196.309C350.606 196.393 350.887 196.521 351.11 196.695C351.332 196.862 351.499 197.053 351.61 197.268C351.721 197.476 351.777 197.695 351.777 197.925C351.777 198.237 351.69 198.512 351.516 198.748C351.349 198.977 351.117 199.154 350.818 199.279C350.526 199.404 350.193 199.467 349.817 199.467ZM354.662 199.467C354.293 199.467 353.963 199.411 353.672 199.3C353.387 199.189 353.144 199.04 352.942 198.852C352.748 198.664 352.602 198.453 352.504 198.216L353.359 197.841C353.47 198.057 353.637 198.234 353.859 198.373C354.081 198.512 354.328 198.581 354.599 198.581C354.898 198.581 355.144 198.525 355.339 198.414C355.533 198.303 355.631 198.147 355.631 197.945C355.631 197.751 355.558 197.598 355.412 197.487C355.266 197.376 355.054 197.285 354.776 197.216L354.286 197.091C353.8 196.959 353.421 196.761 353.151 196.497C352.887 196.233 352.755 195.934 352.755 195.601C352.755 195.093 352.918 194.701 353.244 194.423C353.571 194.145 354.054 194.006 354.693 194.006C355.005 194.006 355.29 194.051 355.547 194.142C355.811 194.232 356.034 194.361 356.214 194.527C356.402 194.694 356.534 194.892 356.61 195.121L355.777 195.496C355.693 195.288 355.551 195.135 355.349 195.038C355.148 194.934 354.912 194.882 354.641 194.882C354.363 194.882 354.144 194.944 353.984 195.069C353.824 195.187 353.745 195.354 353.745 195.569C353.745 195.687 353.811 195.802 353.943 195.913C354.081 196.017 354.283 196.104 354.547 196.174L355.11 196.309C355.45 196.393 355.731 196.521 355.954 196.695C356.176 196.862 356.343 197.053 356.454 197.268C356.565 197.476 356.621 197.695 356.621 197.925C356.621 198.237 356.534 198.512 356.36 198.748C356.193 198.977 355.961 199.154 355.662 199.279C355.37 199.404 355.037 199.467 354.662 199.467Z" fill="white"/>
<rect x="421.5" y="52.5" width="152.711" height="164" rx="11.5" stroke="#37373D" stroke-dasharray="2 2"/>
<rect x="445.5" y="122.5" width="104" height="29" rx="3.8421" stroke="#37373D"/>
<path d="M468.302 140L465.415 132.705H466.457L469.396 140H468.302ZM462.424 140L465.363 132.705H466.405L463.518 140H462.424ZM463.81 138.051V137.134H468.01V138.051H463.81ZM473.905 140L473.863 139.031V132.705H474.843V140H473.905ZM472.154 140.125C471.682 140.125 471.269 140.01 470.914 139.781C470.567 139.552 470.292 139.232 470.091 138.822C469.896 138.413 469.799 137.937 469.799 137.395C469.799 136.846 469.896 136.37 470.091 135.967C470.292 135.557 470.567 135.238 470.914 135.008C471.269 134.779 471.682 134.664 472.154 134.664C472.592 134.664 472.971 134.779 473.29 135.008C473.617 135.238 473.867 135.557 474.041 135.967C474.214 136.37 474.301 136.846 474.301 137.395C474.301 137.937 474.214 138.413 474.041 138.822C473.867 139.232 473.617 139.552 473.29 139.781C472.971 140.01 472.592 140.125 472.154 140.125ZM472.384 139.229C472.675 139.229 472.932 139.152 473.155 139C473.377 138.84 473.551 138.624 473.676 138.353C473.801 138.076 473.863 137.756 473.863 137.395C473.863 137.033 473.801 136.717 473.676 136.446C473.551 136.169 473.377 135.953 473.155 135.8C472.932 135.641 472.672 135.561 472.373 135.561C472.067 135.561 471.797 135.641 471.56 135.8C471.324 135.953 471.14 136.169 471.008 136.446C470.876 136.717 470.81 137.033 470.81 137.395C470.81 137.756 470.876 138.076 471.008 138.353C471.147 138.624 471.335 138.84 471.571 139C471.807 139.152 472.078 139.229 472.384 139.229ZM480.031 140L479.99 139.031V132.705H480.969V140H480.031ZM478.281 140.125C477.808 140.125 477.395 140.01 477.041 139.781C476.693 139.552 476.419 139.232 476.217 138.822C476.023 138.413 475.926 137.937 475.926 137.395C475.926 136.846 476.023 136.37 476.217 135.967C476.419 135.557 476.693 135.238 477.041 135.008C477.395 134.779 477.808 134.664 478.281 134.664C478.718 134.664 479.097 134.779 479.417 135.008C479.743 135.238 479.993 135.557 480.167 135.967C480.341 136.37 480.427 136.846 480.427 137.395C480.427 137.937 480.341 138.413 480.167 138.822C479.993 139.232 479.743 139.552 479.417 139.781C479.097 140.01 478.718 140.125 478.281 140.125ZM478.51 139.229C478.802 139.229 479.059 139.152 479.281 139C479.503 138.84 479.677 138.624 479.802 138.353C479.927 138.076 479.99 137.756 479.99 137.395C479.99 137.033 479.927 136.717 479.802 136.446C479.677 136.169 479.503 135.953 479.281 135.8C479.059 135.641 478.798 135.561 478.5 135.561C478.194 135.561 477.923 135.641 477.687 135.8C477.451 135.953 477.266 136.169 477.134 136.446C477.002 136.717 476.936 137.033 476.936 137.395C476.936 137.756 477.002 138.076 477.134 138.353C477.273 138.624 477.461 138.84 477.697 139C477.933 139.152 478.204 139.229 478.51 139.229ZM486.899 140.125C486.378 140.125 485.975 139.993 485.69 139.729C485.406 139.458 485.263 139.073 485.263 138.572V133.164H486.253V138.426C486.253 138.683 486.316 138.881 486.441 139.02C486.573 139.152 486.76 139.218 487.004 139.218C487.073 139.218 487.149 139.205 487.233 139.177C487.316 139.149 487.417 139.093 487.535 139.01L487.91 139.781C487.73 139.899 487.556 139.986 487.389 140.042C487.229 140.097 487.066 140.125 486.899 140.125ZM484.377 135.644V134.789H487.733V135.644H484.377ZM491.202 140.125C490.681 140.125 490.222 140.01 489.826 139.781C489.43 139.545 489.118 139.222 488.888 138.812C488.666 138.402 488.555 137.93 488.555 137.395C488.555 136.86 488.666 136.387 488.888 135.977C489.111 135.568 489.42 135.248 489.816 135.019C490.212 134.783 490.667 134.664 491.181 134.664C491.695 134.664 492.15 134.783 492.546 135.019C492.942 135.248 493.251 135.568 493.474 135.977C493.696 136.387 493.807 136.86 493.807 137.395C493.807 137.93 493.696 138.402 493.474 138.812C493.251 139.222 492.942 139.545 492.546 139.781C492.157 140.01 491.709 140.125 491.202 140.125ZM491.202 139.218C491.515 139.218 491.792 139.142 492.036 138.989C492.279 138.829 492.466 138.614 492.598 138.343C492.737 138.072 492.807 137.756 492.807 137.395C492.807 137.033 492.737 136.717 492.598 136.446C492.466 136.175 492.275 135.964 492.025 135.811C491.775 135.651 491.494 135.571 491.181 135.571C490.862 135.571 490.58 135.651 490.337 135.811C490.094 135.964 489.903 136.175 489.764 136.446C489.625 136.717 489.555 137.033 489.555 137.395C489.555 137.756 489.625 138.072 489.764 138.343C489.903 138.614 490.097 138.829 490.347 138.989C490.598 139.142 490.882 139.218 491.202 139.218ZM497.488 142.084V134.789H498.416L498.478 135.748V142.084H497.488ZM500.187 140.125C499.75 140.125 499.367 140.01 499.041 139.781C498.721 139.552 498.475 139.232 498.301 138.822C498.127 138.413 498.04 137.937 498.04 137.395C498.04 136.846 498.127 136.37 498.301 135.967C498.475 135.557 498.721 135.238 499.041 135.008C499.367 134.779 499.75 134.664 500.187 134.664C500.653 134.664 501.063 134.779 501.417 135.008C501.771 135.238 502.046 135.557 502.24 135.967C502.442 136.37 502.542 136.846 502.542 137.395C502.542 137.937 502.442 138.413 502.24 138.822C502.046 139.232 501.771 139.552 501.417 139.781C501.063 140.01 500.653 140.125 500.187 140.125ZM499.948 139.229C500.26 139.229 500.535 139.152 500.771 139C501.007 138.84 501.191 138.624 501.323 138.353C501.462 138.076 501.532 137.756 501.532 137.395C501.532 137.033 501.466 136.717 501.334 136.446C501.202 136.169 501.017 135.953 500.781 135.8C500.545 135.641 500.271 135.561 499.958 135.561C499.673 135.561 499.416 135.641 499.187 135.8C498.964 135.953 498.791 136.169 498.666 136.446C498.541 136.724 498.478 137.04 498.478 137.395C498.478 137.756 498.541 138.076 498.666 138.353C498.791 138.624 498.964 138.84 499.187 139C499.409 139.152 499.663 139.229 499.948 139.229ZM504.228 137.197C504.228 136.634 504.336 136.175 504.551 135.821C504.766 135.467 505.044 135.203 505.385 135.029C505.725 134.855 506.083 134.769 506.458 134.769V135.707C506.145 135.707 505.847 135.755 505.562 135.852C505.284 135.943 505.055 136.096 504.874 136.311C504.7 136.519 504.614 136.804 504.614 137.165L504.228 137.197ZM503.624 140V134.789H504.614V140H503.624ZM509.612 140.125C509.091 140.125 508.632 140.01 508.236 139.781C507.84 139.545 507.528 139.222 507.298 138.812C507.076 138.402 506.965 137.93 506.965 137.395C506.965 136.86 507.076 136.387 507.298 135.977C507.521 135.568 507.83 135.248 508.226 135.019C508.622 134.783 509.077 134.664 509.591 134.664C510.105 134.664 510.56 134.783 510.956 135.019C511.352 135.248 511.661 135.568 511.884 135.977C512.106 136.387 512.217 136.86 512.217 137.395C512.217 137.93 512.106 138.402 511.884 138.812C511.661 139.222 511.352 139.545 510.956 139.781C510.567 140.01 510.119 140.125 509.612 140.125ZM509.612 139.218C509.924 139.218 510.202 139.142 510.446 138.989C510.689 138.829 510.876 138.614 511.008 138.343C511.147 138.072 511.217 137.756 511.217 137.395C511.217 137.033 511.147 136.717 511.008 136.446C510.876 136.175 510.685 135.964 510.435 135.811C510.185 135.651 509.904 135.571 509.591 135.571C509.271 135.571 508.99 135.651 508.747 135.811C508.504 135.964 508.313 136.175 508.174 136.446C508.035 136.717 507.965 137.033 507.965 137.395C507.965 137.756 508.035 138.072 508.174 138.343C508.313 138.614 508.507 138.829 508.757 138.989C509.007 139.142 509.292 139.218 509.612 139.218ZM515.678 140.125C515.157 140.125 514.695 140.01 514.292 139.781C513.889 139.545 513.573 139.222 513.343 138.812C513.121 138.402 513.01 137.93 513.01 137.395C513.01 136.86 513.121 136.387 513.343 135.977C513.573 135.568 513.885 135.248 514.281 135.019C514.684 134.783 515.143 134.664 515.657 134.664C516.164 134.664 516.619 134.783 517.022 135.019C517.432 135.255 517.738 135.592 517.939 136.03L517.043 136.405C516.911 136.148 516.72 135.946 516.47 135.8C516.227 135.654 515.945 135.581 515.626 135.581C515.313 135.581 515.035 135.658 514.792 135.811C514.549 135.964 514.358 136.179 514.219 136.457C514.08 136.728 514.01 137.04 514.01 137.395C514.01 137.749 514.08 138.062 514.219 138.333C514.358 138.604 514.552 138.819 514.802 138.979C515.052 139.132 515.334 139.208 515.646 139.208C515.966 139.208 516.251 139.128 516.501 138.968C516.751 138.802 516.939 138.579 517.064 138.301L517.97 138.666C517.769 139.125 517.463 139.482 517.053 139.739C516.65 139.997 516.192 140.125 515.678 140.125ZM521.253 140.125C520.746 140.125 520.298 140.01 519.909 139.781C519.519 139.545 519.214 139.222 518.991 138.812C518.769 138.402 518.658 137.93 518.658 137.395C518.658 136.86 518.769 136.387 518.991 135.977C519.214 135.568 519.519 135.248 519.909 135.019C520.305 134.783 520.756 134.664 521.263 134.664C521.743 134.664 522.163 134.786 522.524 135.029C522.885 135.265 523.167 135.606 523.368 136.05C523.577 136.488 523.681 137.006 523.681 137.603H519.471L519.658 137.447C519.658 137.815 519.731 138.135 519.877 138.406C520.023 138.677 520.221 138.885 520.471 139.031C520.721 139.17 521.006 139.239 521.326 139.239C521.673 139.239 521.961 139.159 522.191 139C522.427 138.833 522.611 138.624 522.743 138.374L523.598 138.77C523.459 139.041 523.278 139.281 523.056 139.489C522.833 139.691 522.569 139.847 522.264 139.958C521.965 140.069 521.628 140.125 521.253 140.125ZM519.721 136.978L519.523 136.822H522.816L522.628 136.978C522.628 136.672 522.566 136.412 522.441 136.196C522.316 135.974 522.149 135.807 521.941 135.696C521.732 135.578 521.499 135.519 521.242 135.519C520.992 135.519 520.749 135.578 520.513 135.696C520.284 135.807 520.093 135.971 519.94 136.186C519.794 136.401 519.721 136.665 519.721 136.978ZM526.524 140.125C526.156 140.125 525.826 140.069 525.534 139.958C525.25 139.847 525.006 139.698 524.805 139.51C524.61 139.323 524.464 139.111 524.367 138.875L525.222 138.499C525.333 138.715 525.5 138.892 525.722 139.031C525.944 139.17 526.191 139.239 526.462 139.239C526.761 139.239 527.007 139.184 527.202 139.073C527.396 138.961 527.494 138.805 527.494 138.604C527.494 138.409 527.421 138.256 527.275 138.145C527.129 138.034 526.917 137.944 526.639 137.874L526.149 137.749C525.663 137.617 525.284 137.419 525.013 137.155C524.749 136.891 524.617 136.592 524.617 136.259C524.617 135.752 524.781 135.359 525.107 135.081C525.434 134.803 525.916 134.664 526.556 134.664C526.868 134.664 527.153 134.71 527.41 134.8C527.674 134.89 527.896 135.019 528.077 135.185C528.265 135.352 528.397 135.55 528.473 135.779L527.639 136.155C527.556 135.946 527.414 135.793 527.212 135.696C527.011 135.592 526.774 135.54 526.504 135.54C526.226 135.54 526.007 135.602 525.847 135.727C525.687 135.845 525.607 136.012 525.607 136.228C525.607 136.346 525.673 136.46 525.805 136.571C525.944 136.676 526.146 136.763 526.41 136.832L526.972 136.967C527.313 137.051 527.594 137.179 527.817 137.353C528.039 137.52 528.206 137.711 528.317 137.926C528.428 138.135 528.484 138.353 528.484 138.583C528.484 138.895 528.397 139.17 528.223 139.406C528.056 139.635 527.824 139.812 527.525 139.937C527.233 140.063 526.9 140.125 526.524 140.125ZM531.369 140.125C531 140.125 530.67 140.069 530.379 139.958C530.094 139.847 529.851 139.698 529.649 139.51C529.455 139.323 529.309 139.111 529.211 138.875L530.066 138.499C530.177 138.715 530.344 138.892 530.566 139.031C530.788 139.17 531.035 139.239 531.306 139.239C531.605 139.239 531.851 139.184 532.046 139.073C532.24 138.961 532.338 138.805 532.338 138.604C532.338 138.409 532.265 138.256 532.119 138.145C531.973 138.034 531.761 137.944 531.483 137.874L530.993 137.749C530.507 137.617 530.128 137.419 529.857 137.155C529.593 136.891 529.461 136.592 529.461 136.259C529.461 135.752 529.625 135.359 529.951 135.081C530.278 134.803 530.761 134.664 531.4 134.664C531.712 134.664 531.997 134.71 532.254 134.8C532.518 134.89 532.741 135.019 532.921 135.185C533.109 135.352 533.241 135.55 533.317 135.779L532.484 136.155C532.4 135.946 532.258 135.793 532.056 135.696C531.855 135.592 531.619 135.54 531.348 135.54C531.07 135.54 530.851 135.602 530.691 135.727C530.531 135.845 530.451 136.012 530.451 136.228C530.451 136.346 530.517 136.46 530.649 136.571C530.788 136.676 530.99 136.763 531.254 136.832L531.817 136.967C532.157 137.051 532.438 137.179 532.661 137.353C532.883 137.52 533.05 137.711 533.161 137.926C533.272 138.135 533.328 138.353 533.328 138.583C533.328 138.895 533.241 139.17 533.067 139.406C532.9 139.635 532.668 139.812 532.369 139.937C532.077 140.063 531.744 140.125 531.369 140.125Z" fill="#A4A4AD"/>
</svg>
