<svg width="650" height="264" viewBox="0 0 650 264" fill="none" xmlns="http://www.w3.org/2000/svg">
<rect width="650" height="264" rx="16" fill="#1A1A1E"/>
<rect x="96.5" y="51.5" width="284" height="117" rx="8.5" fill="#1A1A1E" stroke="#37373D"/>
<rect opacity="0.1" x="287" y="65" width="59" height="22" rx="11" fill="#FF0000"/>
<path d="M297.068 80V71.6H298.28L303.032 78.032V71.6H304.22V80H303.032L298.244 73.508V80H297.068ZM308.797 80.144C308.197 80.144 307.669 80.012 307.213 79.748C306.757 79.476 306.397 79.104 306.133 78.632C305.877 78.16 305.749 77.616 305.749 77C305.749 76.384 305.877 75.84 306.133 75.368C306.389 74.896 306.745 74.528 307.201 74.264C307.657 73.992 308.181 73.856 308.773 73.856C309.365 73.856 309.889 73.992 310.345 74.264C310.801 74.528 311.157 74.896 311.413 75.368C311.669 75.84 311.797 76.384 311.797 77C311.797 77.616 311.669 78.16 311.413 78.632C311.157 79.104 310.801 79.476 310.345 79.748C309.897 80.012 309.381 80.144 308.797 80.144ZM308.797 79.1C309.157 79.1 309.477 79.012 309.757 78.836C310.037 78.652 310.253 78.404 310.405 78.092C310.565 77.78 310.645 77.416 310.645 77C310.645 76.584 310.565 76.22 310.405 75.908C310.253 75.596 310.033 75.352 309.745 75.176C309.457 74.992 309.133 74.9 308.773 74.9C308.405 74.9 308.081 74.992 307.801 75.176C307.521 75.352 307.301 75.596 307.141 75.908C306.981 76.22 306.901 76.584 306.901 77C306.901 77.416 306.981 77.78 307.141 78.092C307.301 78.404 307.525 78.652 307.813 78.836C308.101 79.012 308.429 79.1 308.797 79.1ZM315.362 80.144C314.762 80.144 314.298 79.992 313.97 79.688C313.642 79.376 313.478 78.932 313.478 78.356V72.128H314.618V78.188C314.618 78.484 314.69 78.712 314.834 78.872C314.986 79.024 315.202 79.1 315.482 79.1C315.562 79.1 315.65 79.084 315.746 79.052C315.842 79.02 315.958 78.956 316.094 78.86L316.526 79.748C316.318 79.884 316.118 79.984 315.926 80.048C315.742 80.112 315.554 80.144 315.362 80.144ZM312.458 74.984V74H316.322V74.984H312.458ZM320.581 80V71.6H321.721V80H320.581ZM323.372 80V74H324.512V80H323.372ZM323.948 72.728C323.764 72.728 323.604 72.66 323.468 72.524C323.332 72.38 323.264 72.216 323.264 72.032C323.264 71.84 323.332 71.68 323.468 71.552C323.604 71.416 323.764 71.348 323.948 71.348C324.14 71.348 324.3 71.416 324.428 71.552C324.564 71.68 324.632 71.84 324.632 72.032C324.632 72.216 324.564 72.38 324.428 72.524C324.3 72.66 324.14 72.728 323.948 72.728ZM328.067 80L330.467 74H331.655L329.147 80H328.067ZM327.995 80L325.499 74H326.663L329.063 80H327.995ZM335.046 80.144C334.462 80.144 333.946 80.012 333.498 79.748C333.05 79.476 332.698 79.104 332.442 78.632C332.186 78.16 332.058 77.616 332.058 77C332.058 76.384 332.186 75.84 332.442 75.368C332.698 74.896 333.05 74.528 333.498 74.264C333.954 73.992 334.474 73.856 335.058 73.856C335.61 73.856 336.094 73.996 336.51 74.276C336.926 74.548 337.25 74.94 337.482 75.452C337.722 75.956 337.842 76.552 337.842 77.24H332.994L333.21 77.06C333.21 77.484 333.294 77.852 333.462 78.164C333.63 78.476 333.858 78.716 334.146 78.884C334.434 79.044 334.762 79.124 335.13 79.124C335.53 79.124 335.862 79.032 336.126 78.848C336.398 78.656 336.61 78.416 336.762 78.128L337.746 78.584C337.586 78.896 337.378 79.172 337.122 79.412C336.866 79.644 336.562 79.824 336.21 79.952C335.866 80.08 335.478 80.144 335.046 80.144ZM333.282 76.52L333.054 76.34H336.846L336.63 76.52C336.63 76.168 336.558 75.868 336.414 75.62C336.27 75.364 336.078 75.172 335.838 75.044C335.598 74.908 335.33 74.84 335.034 74.84C334.746 74.84 334.466 74.908 334.194 75.044C333.93 75.172 333.71 75.36 333.534 75.608C333.366 75.856 333.282 76.16 333.282 76.52Z" fill="#FF0000"/>
<path fill-rule="evenodd" clip-rule="evenodd" d="M353.875 71.5C353.875 70.8787 354.379 70.375 355 70.375C355.621 70.375 356.125 70.8787 356.125 71.5C356.125 72.1213 355.621 72.625 355 72.625C354.379 72.625 353.875 72.1213 353.875 71.5ZM353.875 76C353.875 75.3787 354.379 74.875 355 74.875C355.621 74.875 356.125 75.3787 356.125 76C356.125 76.6213 355.621 77.125 355 77.125C354.379 77.125 353.875 76.6213 353.875 76ZM353.875 80.5C353.875 79.8787 354.379 79.375 355 79.375C355.621 79.375 356.125 79.8787 356.125 80.5C356.125 81.1213 355.621 81.625 355 81.625C354.379 81.625 353.875 81.1213 353.875 80.5Z" fill="#A4A4AD"/>
<rect x="97.25" y="129.25" width="282.5" height="0.5" rx="0.25" fill="#1A1A1E" stroke="#37373D" stroke-width="0.5"/>
<rect opacity="0.4" x="113" y="65" width="47" height="22" rx="11" fill="#FCAC04"/>
<path d="M126.068 80V71.6H128.9C129.46 71.6 129.952 71.712 130.376 71.936C130.808 72.152 131.144 72.456 131.384 72.848C131.632 73.232 131.756 73.68 131.756 74.192C131.756 74.696 131.624 75.144 131.36 75.536C131.104 75.928 130.752 76.236 130.304 76.46C129.856 76.676 129.352 76.784 128.792 76.784H127.244V80H126.068ZM130.76 80L128.768 76.568L129.704 75.944L132.092 80H130.76ZM127.244 75.704H129.008C129.296 75.704 129.552 75.64 129.776 75.512C130.008 75.376 130.192 75.196 130.328 74.972C130.472 74.74 130.544 74.48 130.544 74.192C130.544 73.744 130.388 73.38 130.076 73.1C129.764 72.82 129.36 72.68 128.864 72.68H127.244V75.704ZM133.434 80V74H134.574V80H133.434ZM134.01 72.728C133.826 72.728 133.666 72.66 133.53 72.524C133.394 72.38 133.326 72.216 133.326 72.032C133.326 71.84 133.394 71.68 133.53 71.552C133.666 71.416 133.826 71.348 134.01 71.348C134.202 71.348 134.362 71.416 134.49 71.552C134.626 71.68 134.694 71.84 134.694 72.032C134.694 72.216 134.626 72.38 134.49 72.524C134.362 72.66 134.202 72.728 134.01 72.728ZM138.393 80.144C137.969 80.144 137.589 80.08 137.253 79.952C136.925 79.824 136.645 79.652 136.413 79.436C136.189 79.22 136.021 78.976 135.909 78.704L136.893 78.272C137.021 78.52 137.213 78.724 137.469 78.884C137.725 79.044 138.009 79.124 138.321 79.124C138.665 79.124 138.949 79.06 139.173 78.932C139.397 78.804 139.509 78.624 139.509 78.392C139.509 78.168 139.425 77.992 139.257 77.864C139.089 77.736 138.845 77.632 138.525 77.552L137.961 77.408C137.401 77.256 136.965 77.028 136.653 76.724C136.349 76.42 136.197 76.076 136.197 75.692C136.197 75.108 136.385 74.656 136.761 74.336C137.137 74.016 137.693 73.856 138.429 73.856C138.789 73.856 139.117 73.908 139.413 74.012C139.717 74.116 139.973 74.264 140.181 74.456C140.397 74.648 140.549 74.876 140.637 75.14L139.677 75.572C139.581 75.332 139.417 75.156 139.185 75.044C138.953 74.924 138.681 74.864 138.369 74.864C138.049 74.864 137.797 74.936 137.613 75.08C137.429 75.216 137.337 75.408 137.337 75.656C137.337 75.792 137.413 75.924 137.565 76.052C137.725 76.172 137.957 76.272 138.261 76.352L138.909 76.508C139.301 76.604 139.625 76.752 139.881 76.952C140.137 77.144 140.329 77.364 140.457 77.612C140.585 77.852 140.649 78.104 140.649 78.368C140.649 78.728 140.549 79.044 140.349 79.316C140.157 79.58 139.889 79.784 139.545 79.928C139.209 80.072 138.825 80.144 138.393 80.144ZM142.939 78.188L142.231 77.408L145.387 74H146.779L142.939 78.188ZM141.835 80V71.6H142.975V80H141.835ZM145.639 80L143.431 76.712L144.175 75.92L147.007 80H145.639Z" fill="white"/>
<path d="M120.698 112.168C119.709 112.168 118.827 111.953 118.052 111.524C117.287 111.085 116.685 110.488 116.246 109.732C115.817 108.967 115.602 108.094 115.602 107.114C115.602 106.115 115.817 105.238 116.246 104.482C116.685 103.717 117.287 103.119 118.052 102.69C118.827 102.251 119.709 102.032 120.698 102.032C121.239 102.032 121.757 102.121 122.252 102.298C122.756 102.466 123.209 102.704 123.61 103.012C124.021 103.311 124.352 103.656 124.604 104.048L123.498 104.776C123.311 104.487 123.069 104.23 122.77 104.006C122.471 103.782 122.14 103.609 121.776 103.488C121.421 103.357 121.062 103.292 120.698 103.292C119.979 103.292 119.34 103.455 118.78 103.782C118.229 104.109 117.795 104.557 117.478 105.126C117.161 105.695 117.002 106.358 117.002 107.114C117.002 107.851 117.156 108.505 117.464 109.074C117.781 109.643 118.22 110.091 118.78 110.418C119.349 110.745 119.998 110.908 120.726 110.908C121.314 110.908 121.837 110.787 122.294 110.544C122.761 110.301 123.125 109.961 123.386 109.522C123.657 109.083 123.792 108.575 123.792 107.996L125.122 107.87C125.122 108.738 124.931 109.494 124.548 110.138C124.175 110.782 123.657 111.281 122.994 111.636C122.331 111.991 121.566 112.168 120.698 112.168ZM121.412 108.08V106.932H125.122V107.94L124.422 108.08H121.412ZM126.506 112V102.2H127.836V112H126.506ZM132.842 112.168C132.142 112.168 131.526 112.014 130.994 111.706C130.462 111.389 130.042 110.955 129.734 110.404C129.435 109.853 129.286 109.219 129.286 108.5C129.286 107.781 129.435 107.147 129.734 106.596C130.033 106.045 130.448 105.616 130.98 105.308C131.512 104.991 132.123 104.832 132.814 104.832C133.505 104.832 134.116 104.991 134.648 105.308C135.18 105.616 135.595 106.045 135.894 106.596C136.193 107.147 136.342 107.781 136.342 108.5C136.342 109.219 136.193 109.853 135.894 110.404C135.595 110.955 135.18 111.389 134.648 111.706C134.125 112.014 133.523 112.168 132.842 112.168ZM132.842 110.95C133.262 110.95 133.635 110.847 133.962 110.642C134.289 110.427 134.541 110.138 134.718 109.774C134.905 109.41 134.998 108.985 134.998 108.5C134.998 108.015 134.905 107.59 134.718 107.226C134.541 106.862 134.284 106.577 133.948 106.372C133.612 106.157 133.234 106.05 132.814 106.05C132.385 106.05 132.007 106.157 131.68 106.372C131.353 106.577 131.097 106.862 130.91 107.226C130.723 107.59 130.63 108.015 130.63 108.5C130.63 108.985 130.723 109.41 130.91 109.774C131.097 110.138 131.358 110.427 131.694 110.642C132.03 110.847 132.413 110.95 132.842 110.95ZM137.799 112V102.2H139.129V110.698L139.059 112H137.799ZM141.425 112.168C140.837 112.168 140.324 112.014 139.885 111.706C139.456 111.398 139.124 110.969 138.891 110.418C138.658 109.867 138.541 109.228 138.541 108.5C138.541 107.763 138.658 107.123 138.891 106.582C139.124 106.031 139.456 105.602 139.885 105.294C140.324 104.986 140.837 104.832 141.425 104.832C142.05 104.832 142.601 104.986 143.077 105.294C143.553 105.602 143.922 106.031 144.183 106.582C144.454 107.123 144.589 107.763 144.589 108.5C144.589 109.228 144.454 109.867 144.183 110.418C143.922 110.969 143.553 111.398 143.077 111.706C142.601 112.014 142.05 112.168 141.425 112.168ZM141.103 110.964C141.523 110.964 141.892 110.861 142.209 110.656C142.526 110.441 142.774 110.152 142.951 109.788C143.138 109.415 143.231 108.985 143.231 108.5C143.231 108.015 143.142 107.59 142.965 107.226C142.788 106.853 142.54 106.563 142.223 106.358C141.906 106.143 141.537 106.036 141.117 106.036C140.734 106.036 140.389 106.143 140.081 106.358C139.782 106.563 139.549 106.853 139.381 107.226C139.213 107.599 139.129 108.024 139.129 108.5C139.129 108.985 139.213 109.415 139.381 109.788C139.549 110.152 139.782 110.441 140.081 110.656C140.38 110.861 140.72 110.964 141.103 110.964ZM150.341 112L150.285 110.782V108.346C150.285 107.833 150.224 107.403 150.103 107.058C149.991 106.713 149.814 106.451 149.571 106.274C149.338 106.097 149.025 106.008 148.633 106.008C148.269 106.008 147.952 106.083 147.681 106.232C147.42 106.381 147.2 106.615 147.023 106.932L145.847 106.484C146.015 106.167 146.225 105.887 146.477 105.644C146.729 105.392 147.032 105.196 147.387 105.056C147.742 104.907 148.157 104.832 148.633 104.832C149.296 104.832 149.846 104.963 150.285 105.224C150.724 105.485 151.05 105.863 151.265 106.358C151.489 106.853 151.596 107.464 151.587 108.192L151.573 112H150.341ZM148.283 112.168C147.452 112.168 146.804 111.981 146.337 111.608C145.88 111.225 145.651 110.698 145.651 110.026C145.651 109.307 145.889 108.761 146.365 108.388C146.85 108.005 147.522 107.814 148.381 107.814H150.327V108.864H148.745C148.101 108.864 147.648 108.967 147.387 109.172C147.126 109.368 146.995 109.643 146.995 109.998C146.995 110.325 147.116 110.581 147.359 110.768C147.611 110.945 147.956 111.034 148.395 111.034C148.778 111.034 149.109 110.955 149.389 110.796C149.669 110.628 149.888 110.395 150.047 110.096C150.206 109.797 150.285 109.457 150.285 109.074H150.747C150.747 110.026 150.542 110.782 150.131 111.342C149.73 111.893 149.114 112.168 148.283 112.168ZM153.262 112V102.2H154.592V112H153.262ZM160.664 108.234C160.664 107.478 160.808 106.862 161.098 106.386C161.387 105.91 161.76 105.555 162.218 105.322C162.675 105.089 163.156 104.972 163.66 104.972V106.232C163.24 106.232 162.838 106.297 162.456 106.428C162.082 106.549 161.774 106.755 161.532 107.044C161.298 107.324 161.182 107.707 161.182 108.192L160.664 108.234ZM159.852 112V105H161.182V112H159.852ZM164.817 112V105H166.147V112H164.817ZM165.489 103.516C165.274 103.516 165.087 103.437 164.929 103.278C164.77 103.11 164.691 102.919 164.691 102.704C164.691 102.48 164.77 102.293 164.929 102.144C165.087 101.985 165.274 101.906 165.489 101.906C165.713 101.906 165.899 101.985 166.049 102.144C166.207 102.293 166.287 102.48 166.287 102.704C166.287 102.919 166.207 103.11 166.049 103.278C165.899 103.437 165.713 103.516 165.489 103.516ZM170.602 112.168C170.107 112.168 169.664 112.093 169.272 111.944C168.889 111.795 168.563 111.594 168.292 111.342C168.031 111.09 167.835 110.805 167.704 110.488L168.852 109.984C169.001 110.273 169.225 110.511 169.524 110.698C169.823 110.885 170.154 110.978 170.518 110.978C170.919 110.978 171.251 110.903 171.512 110.754C171.773 110.605 171.904 110.395 171.904 110.124C171.904 109.863 171.806 109.657 171.61 109.508C171.414 109.359 171.129 109.237 170.756 109.144L170.098 108.976C169.445 108.799 168.936 108.533 168.572 108.178C168.217 107.823 168.04 107.422 168.04 106.974C168.04 106.293 168.259 105.765 168.698 105.392C169.137 105.019 169.785 104.832 170.644 104.832C171.064 104.832 171.447 104.893 171.792 105.014C172.147 105.135 172.445 105.308 172.688 105.532C172.94 105.756 173.117 106.022 173.22 106.33L172.1 106.834C171.988 106.554 171.797 106.349 171.526 106.218C171.255 106.078 170.938 106.008 170.574 106.008C170.201 106.008 169.907 106.092 169.692 106.26C169.477 106.419 169.37 106.643 169.37 106.932C169.37 107.091 169.459 107.245 169.636 107.394C169.823 107.534 170.093 107.651 170.448 107.744L171.204 107.926C171.661 108.038 172.039 108.211 172.338 108.444C172.637 108.668 172.861 108.925 173.01 109.214C173.159 109.494 173.234 109.788 173.234 110.096C173.234 110.516 173.117 110.885 172.884 111.202C172.66 111.51 172.347 111.748 171.946 111.916C171.554 112.084 171.106 112.168 170.602 112.168ZM175.905 109.886L175.079 108.976L178.761 105H180.385L175.905 109.886ZM174.617 112V102.2H175.947V112H174.617ZM179.055 112L176.479 108.164L177.347 107.24L180.651 112H179.055ZM189.333 112L189.277 110.782V108.346C189.277 107.833 189.217 107.403 189.095 107.058C188.983 106.713 188.806 106.451 188.563 106.274C188.33 106.097 188.017 106.008 187.625 106.008C187.261 106.008 186.944 106.083 186.673 106.232C186.412 106.381 186.193 106.615 186.015 106.932L184.839 106.484C185.007 106.167 185.217 105.887 185.469 105.644C185.721 105.392 186.025 105.196 186.379 105.056C186.734 104.907 187.149 104.832 187.625 104.832C188.288 104.832 188.839 104.963 189.277 105.224C189.716 105.485 190.043 105.863 190.257 106.358C190.481 106.853 190.589 107.464 190.579 108.192L190.565 112H189.333ZM187.275 112.168C186.445 112.168 185.796 111.981 185.329 111.608C184.872 111.225 184.643 110.698 184.643 110.026C184.643 109.307 184.881 108.761 185.357 108.388C185.843 108.005 186.515 107.814 187.373 107.814H189.319V108.864H187.737C187.093 108.864 186.641 108.967 186.379 109.172C186.118 109.368 185.987 109.643 185.987 109.998C185.987 110.325 186.109 110.581 186.351 110.768C186.603 110.945 186.949 111.034 187.387 111.034C187.77 111.034 188.101 110.955 188.381 110.796C188.661 110.628 188.881 110.395 189.039 110.096C189.198 109.797 189.277 109.457 189.277 109.074H189.739C189.739 110.026 189.534 110.782 189.123 111.342C188.722 111.893 188.106 112.168 187.275 112.168ZM194.76 112.168C194.265 112.168 193.822 112.093 193.43 111.944C193.047 111.795 192.721 111.594 192.45 111.342C192.189 111.09 191.993 110.805 191.862 110.488L193.01 109.984C193.159 110.273 193.383 110.511 193.682 110.698C193.981 110.885 194.312 110.978 194.676 110.978C195.077 110.978 195.409 110.903 195.67 110.754C195.931 110.605 196.062 110.395 196.062 110.124C196.062 109.863 195.964 109.657 195.768 109.508C195.572 109.359 195.287 109.237 194.914 109.144L194.256 108.976C193.603 108.799 193.094 108.533 192.73 108.178C192.375 107.823 192.198 107.422 192.198 106.974C192.198 106.293 192.417 105.765 192.856 105.392C193.295 105.019 193.943 104.832 194.802 104.832C195.222 104.832 195.605 104.893 195.95 105.014C196.305 105.135 196.603 105.308 196.846 105.532C197.098 105.756 197.275 106.022 197.378 106.33L196.258 106.834C196.146 106.554 195.955 106.349 195.684 106.218C195.413 106.078 195.096 106.008 194.732 106.008C194.359 106.008 194.065 106.092 193.85 106.26C193.635 106.419 193.528 106.643 193.528 106.932C193.528 107.091 193.617 107.245 193.794 107.394C193.981 107.534 194.251 107.651 194.606 107.744L195.362 107.926C195.819 108.038 196.197 108.211 196.496 108.444C196.795 108.668 197.019 108.925 197.168 109.214C197.317 109.494 197.392 109.788 197.392 110.096C197.392 110.516 197.275 110.885 197.042 111.202C196.818 111.51 196.505 111.748 196.104 111.916C195.712 112.084 195.264 112.168 194.76 112.168ZM201.268 112.168C200.773 112.168 200.33 112.093 199.938 111.944C199.555 111.795 199.229 111.594 198.958 111.342C198.697 111.09 198.501 110.805 198.37 110.488L199.518 109.984C199.667 110.273 199.891 110.511 200.19 110.698C200.489 110.885 200.82 110.978 201.184 110.978C201.585 110.978 201.917 110.903 202.178 110.754C202.439 110.605 202.57 110.395 202.57 110.124C202.57 109.863 202.472 109.657 202.276 109.508C202.08 109.359 201.795 109.237 201.422 109.144L200.764 108.976C200.111 108.799 199.602 108.533 199.238 108.178C198.883 107.823 198.706 107.422 198.706 106.974C198.706 106.293 198.925 105.765 199.364 105.392C199.803 105.019 200.451 104.832 201.31 104.832C201.73 104.832 202.113 104.893 202.458 105.014C202.813 105.135 203.111 105.308 203.354 105.532C203.606 105.756 203.783 106.022 203.886 106.33L202.766 106.834C202.654 106.554 202.463 106.349 202.192 106.218C201.921 106.078 201.604 106.008 201.24 106.008C200.867 106.008 200.573 106.092 200.358 106.26C200.143 106.419 200.036 106.643 200.036 106.932C200.036 107.091 200.125 107.245 200.302 107.394C200.489 107.534 200.759 107.651 201.114 107.744L201.87 107.926C202.327 108.038 202.705 108.211 203.004 108.444C203.303 108.668 203.527 108.925 203.676 109.214C203.825 109.494 203.9 109.788 203.9 110.096C203.9 110.516 203.783 110.885 203.55 111.202C203.326 111.51 203.013 111.748 202.612 111.916C202.22 112.084 201.772 112.168 201.268 112.168ZM208.377 112.168C207.696 112.168 207.094 112.014 206.571 111.706C206.049 111.389 205.638 110.955 205.339 110.404C205.041 109.853 204.891 109.219 204.891 108.5C204.891 107.781 205.041 107.147 205.339 106.596C205.638 106.045 206.049 105.616 206.571 105.308C207.103 104.991 207.71 104.832 208.391 104.832C209.035 104.832 209.6 104.995 210.085 105.322C210.571 105.639 210.949 106.097 211.219 106.694C211.499 107.282 211.639 107.977 211.639 108.78H205.983L206.235 108.57C206.235 109.065 206.333 109.494 206.529 109.858C206.725 110.222 206.991 110.502 207.327 110.698C207.663 110.885 208.046 110.978 208.475 110.978C208.942 110.978 209.329 110.871 209.637 110.656C209.955 110.432 210.202 110.152 210.379 109.816L211.527 110.348C211.341 110.712 211.098 111.034 210.799 111.314C210.501 111.585 210.146 111.795 209.735 111.944C209.334 112.093 208.881 112.168 208.377 112.168ZM206.319 107.94L206.053 107.73H210.477L210.225 107.94C210.225 107.529 210.141 107.179 209.973 106.89C209.805 106.591 209.581 106.367 209.301 106.218C209.021 106.059 208.709 105.98 208.363 105.98C208.027 105.98 207.701 106.059 207.383 106.218C207.075 106.367 206.819 106.587 206.613 106.876C206.417 107.165 206.319 107.52 206.319 107.94ZM215.459 112.168C214.965 112.168 214.521 112.093 214.129 111.944C213.747 111.795 213.42 111.594 213.149 111.342C212.888 111.09 212.692 110.805 212.561 110.488L213.709 109.984C213.859 110.273 214.083 110.511 214.381 110.698C214.68 110.885 215.011 110.978 215.375 110.978C215.777 110.978 216.108 110.903 216.369 110.754C216.631 110.605 216.761 110.395 216.761 110.124C216.761 109.863 216.663 109.657 216.467 109.508C216.271 109.359 215.987 109.237 215.613 109.144L214.955 108.976C214.302 108.799 213.793 108.533 213.429 108.178C213.075 107.823 212.897 107.422 212.897 106.974C212.897 106.293 213.117 105.765 213.555 105.392C213.994 105.019 214.643 104.832 215.501 104.832C215.921 104.832 216.304 104.893 216.649 105.014C217.004 105.135 217.303 105.308 217.545 105.532C217.797 105.756 217.975 106.022 218.077 106.33L216.957 106.834C216.845 106.554 216.654 106.349 216.383 106.218C216.113 106.078 215.795 106.008 215.431 106.008C215.058 106.008 214.764 106.092 214.549 106.26C214.335 106.419 214.227 106.643 214.227 106.932C214.227 107.091 214.316 107.245 214.493 107.394C214.68 107.534 214.951 107.651 215.305 107.744L216.061 107.926C216.519 108.038 216.897 108.211 217.195 108.444C217.494 108.668 217.718 108.925 217.867 109.214C218.017 109.494 218.091 109.788 218.091 110.096C218.091 110.516 217.975 110.885 217.741 111.202C217.517 111.51 217.205 111.748 216.803 111.916C216.411 112.084 215.963 112.168 215.459 112.168ZM221.967 112.168C221.472 112.168 221.029 112.093 220.637 111.944C220.254 111.795 219.928 111.594 219.657 111.342C219.396 111.09 219.2 110.805 219.069 110.488L220.217 109.984C220.366 110.273 220.59 110.511 220.889 110.698C221.188 110.885 221.519 110.978 221.883 110.978C222.284 110.978 222.616 110.903 222.877 110.754C223.138 110.605 223.269 110.395 223.269 110.124C223.269 109.863 223.171 109.657 222.975 109.508C222.779 109.359 222.494 109.237 222.121 109.144L221.463 108.976C220.81 108.799 220.301 108.533 219.937 108.178C219.582 107.823 219.405 107.422 219.405 106.974C219.405 106.293 219.624 105.765 220.063 105.392C220.502 105.019 221.15 104.832 222.009 104.832C222.429 104.832 222.812 104.893 223.157 105.014C223.512 105.135 223.81 105.308 224.053 105.532C224.305 105.756 224.482 106.022 224.585 106.33L223.465 106.834C223.353 106.554 223.162 106.349 222.891 106.218C222.62 106.078 222.303 106.008 221.939 106.008C221.566 106.008 221.272 106.092 221.057 106.26C220.842 106.419 220.735 106.643 220.735 106.932C220.735 107.091 220.824 107.245 221.001 107.394C221.188 107.534 221.458 107.651 221.813 107.744L222.569 107.926C223.026 108.038 223.404 108.211 223.703 108.444C224.002 108.668 224.226 108.925 224.375 109.214C224.524 109.494 224.599 109.788 224.599 110.096C224.599 110.516 224.482 110.885 224.249 111.202C224.025 111.51 223.712 111.748 223.311 111.916C222.919 112.084 222.471 112.168 221.967 112.168ZM225.983 112V105H227.229L227.285 105.966C227.509 105.593 227.789 105.313 228.125 105.126C228.461 104.93 228.848 104.832 229.287 104.832C229.847 104.832 230.323 104.963 230.715 105.224C231.107 105.476 231.391 105.863 231.569 106.386C231.774 105.882 232.063 105.499 232.437 105.238C232.81 104.967 233.253 104.832 233.767 104.832C234.56 104.832 235.181 105.093 235.629 105.616C236.077 106.129 236.296 106.923 236.287 107.996V112H234.971V108.416C234.971 107.781 234.901 107.301 234.761 106.974C234.63 106.638 234.453 106.405 234.229 106.274C234.005 106.143 233.743 106.073 233.445 106.064C232.922 106.064 232.516 106.265 232.227 106.666C231.947 107.067 231.807 107.632 231.807 108.36V112H230.477V108.416C230.477 107.781 230.411 107.301 230.281 106.974C230.15 106.638 229.968 106.405 229.735 106.274C229.511 106.143 229.249 106.073 228.951 106.064C228.428 106.064 228.022 106.265 227.733 106.666C227.453 107.067 227.313 107.632 227.313 108.36V112H225.983ZM241.081 112.168C240.399 112.168 239.797 112.014 239.275 111.706C238.752 111.389 238.341 110.955 238.043 110.404C237.744 109.853 237.595 109.219 237.595 108.5C237.595 107.781 237.744 107.147 238.043 106.596C238.341 106.045 238.752 105.616 239.275 105.308C239.807 104.991 240.413 104.832 241.095 104.832C241.739 104.832 242.303 104.995 242.789 105.322C243.274 105.639 243.652 106.097 243.923 106.694C244.203 107.282 244.343 107.977 244.343 108.78H238.687L238.939 108.57C238.939 109.065 239.037 109.494 239.233 109.858C239.429 110.222 239.695 110.502 240.031 110.698C240.367 110.885 240.749 110.978 241.178 110.978C241.645 110.978 242.033 110.871 242.341 110.656C242.658 110.432 242.905 110.152 243.083 109.816L244.231 110.348C244.044 110.712 243.801 111.034 243.503 111.314C243.204 111.585 242.849 111.795 242.439 111.944C242.037 112.093 241.585 112.168 241.081 112.168ZM239.023 107.94L238.757 107.73H243.181L242.929 107.94C242.929 107.529 242.845 107.179 242.677 106.89C242.509 106.591 242.285 106.367 242.005 106.218C241.725 106.059 241.412 105.98 241.067 105.98C240.731 105.98 240.404 106.059 240.087 106.218C239.779 106.367 239.522 106.587 239.317 106.876C239.121 107.165 239.023 107.52 239.023 107.94ZM245.656 112V105H246.902L246.986 106.288V112H245.656ZM250.5 112V108.416H251.83V112H250.5ZM250.5 108.416C250.5 107.781 250.426 107.301 250.276 106.974C250.136 106.638 249.936 106.405 249.674 106.274C249.422 106.143 249.128 106.073 248.792 106.064C248.223 106.064 247.78 106.265 247.462 106.666C247.145 107.067 246.986 107.632 246.986 108.36H246.412C246.412 107.623 246.52 106.993 246.734 106.47C246.958 105.938 247.271 105.532 247.672 105.252C248.083 104.972 248.568 104.832 249.128 104.832C249.679 104.832 250.155 104.944 250.556 105.168C250.967 105.392 251.28 105.742 251.494 106.218C251.718 106.685 251.83 107.301 251.83 108.066V108.416H250.5ZM256.206 112.168C255.506 112.168 254.965 111.991 254.582 111.636C254.199 111.272 254.008 110.754 254.008 110.082V102.816H255.338V109.886C255.338 110.231 255.422 110.497 255.59 110.684C255.767 110.861 256.019 110.95 256.346 110.95C256.439 110.95 256.542 110.931 256.654 110.894C256.766 110.857 256.901 110.782 257.06 110.67L257.564 111.706C257.321 111.865 257.088 111.981 256.864 112.056C256.649 112.131 256.43 112.168 256.206 112.168ZM252.818 106.148V105H257.326V106.148H252.818Z" fill="white"/>
<path d="M113.89 152V145H114.87V151.1H118.12V152H113.89ZM121.974 152L121.934 151.13V149.39C121.934 149.023 121.891 148.717 121.804 148.47C121.724 148.223 121.597 148.037 121.424 147.91C121.257 147.783 121.034 147.72 120.754 147.72C120.494 147.72 120.267 147.773 120.074 147.88C119.887 147.987 119.731 148.153 119.604 148.38L118.764 148.06C118.884 147.833 119.034 147.633 119.214 147.46C119.394 147.28 119.611 147.14 119.864 147.04C120.117 146.933 120.414 146.88 120.754 146.88C121.227 146.88 121.621 146.973 121.934 147.16C122.247 147.347 122.481 147.617 122.634 147.97C122.794 148.323 122.871 148.76 122.864 149.28L122.854 152H121.974ZM120.504 152.12C119.911 152.12 119.447 151.987 119.114 151.72C118.787 151.447 118.624 151.07 118.624 150.59C118.624 150.077 118.794 149.687 119.134 149.42C119.481 149.147 119.961 149.01 120.574 149.01H121.964V149.76H120.834C120.374 149.76 120.051 149.833 119.864 149.98C119.677 150.12 119.584 150.317 119.584 150.57C119.584 150.803 119.671 150.987 119.844 151.12C120.024 151.247 120.271 151.31 120.584 151.31C120.857 151.31 121.094 151.253 121.294 151.14C121.494 151.02 121.651 150.853 121.764 150.64C121.877 150.427 121.934 150.183 121.934 149.91H122.264C122.264 150.59 122.117 151.13 121.824 151.53C121.537 151.923 121.097 152.12 120.504 152.12ZM125.85 152.12C125.497 152.12 125.18 152.067 124.9 151.96C124.627 151.853 124.394 151.71 124.2 151.53C124.014 151.35 123.874 151.147 123.78 150.92L124.6 150.56C124.707 150.767 124.867 150.937 125.08 151.07C125.294 151.203 125.53 151.27 125.79 151.27C126.077 151.27 126.314 151.217 126.5 151.11C126.687 151.003 126.78 150.853 126.78 150.66C126.78 150.473 126.71 150.327 126.57 150.22C126.43 150.113 126.227 150.027 125.96 149.96L125.49 149.84C125.024 149.713 124.66 149.523 124.4 149.27C124.147 149.017 124.02 148.73 124.02 148.41C124.02 147.923 124.177 147.547 124.49 147.28C124.804 147.013 125.267 146.88 125.88 146.88C126.18 146.88 126.454 146.923 126.7 147.01C126.954 147.097 127.167 147.22 127.34 147.38C127.52 147.54 127.647 147.73 127.72 147.95L126.92 148.31C126.84 148.11 126.704 147.963 126.51 147.87C126.317 147.77 126.09 147.72 125.83 147.72C125.564 147.72 125.354 147.78 125.2 147.9C125.047 148.013 124.97 148.173 124.97 148.38C124.97 148.493 125.034 148.603 125.16 148.71C125.294 148.81 125.487 148.893 125.74 148.96L126.28 149.09C126.607 149.17 126.877 149.293 127.09 149.46C127.304 149.62 127.464 149.803 127.57 150.01C127.677 150.21 127.73 150.42 127.73 150.64C127.73 150.94 127.647 151.203 127.48 151.43C127.32 151.65 127.097 151.82 126.81 151.94C126.53 152.06 126.21 152.12 125.85 152.12ZM130.649 152.12C130.149 152.12 129.762 151.993 129.489 151.74C129.215 151.48 129.079 151.11 129.079 150.63V145.44H130.029V150.49C130.029 150.737 130.089 150.927 130.209 151.06C130.335 151.187 130.515 151.25 130.749 151.25C130.815 151.25 130.889 151.237 130.969 151.21C131.049 151.183 131.145 151.13 131.259 151.05L131.619 151.79C131.445 151.903 131.279 151.987 131.119 152.04C130.965 152.093 130.809 152.12 130.649 152.12ZM128.229 147.82V147H131.449V147.82H128.229ZM138.398 152L138.338 151.08V147H139.278V152H138.398ZM134.878 149.56V147H135.828V149.56H134.878ZM135.828 149.56C135.828 150.007 135.878 150.35 135.978 150.59C136.085 150.83 136.231 150.997 136.418 151.09C136.605 151.183 136.815 151.233 137.048 151.24C137.455 151.24 137.771 151.097 137.998 150.81C138.225 150.523 138.338 150.12 138.338 149.6H138.748C138.748 150.127 138.668 150.58 138.508 150.96C138.355 151.333 138.135 151.62 137.848 151.82C137.561 152.02 137.211 152.12 136.798 152.12C136.411 152.12 136.071 152.04 135.778 151.88C135.491 151.72 135.268 151.47 135.108 151.13C134.955 150.79 134.878 150.35 134.878 149.81V149.56H135.828ZM140.653 154V147H141.543L141.603 147.92V154H140.653ZM143.243 152.12C142.823 152.12 142.457 152.01 142.143 151.79C141.837 151.57 141.6 151.263 141.433 150.87C141.267 150.477 141.183 150.02 141.183 149.5C141.183 148.973 141.267 148.517 141.433 148.13C141.6 147.737 141.837 147.43 142.143 147.21C142.457 146.99 142.823 146.88 143.243 146.88C143.69 146.88 144.083 146.99 144.423 147.21C144.763 147.43 145.027 147.737 145.213 148.13C145.407 148.517 145.503 148.973 145.503 149.5C145.503 150.02 145.407 150.477 145.213 150.87C145.027 151.263 144.763 151.57 144.423 151.79C144.083 152.01 143.69 152.12 143.243 152.12ZM143.013 151.26C143.313 151.26 143.577 151.187 143.803 151.04C144.03 150.887 144.207 150.68 144.333 150.42C144.467 150.153 144.533 149.847 144.533 149.5C144.533 149.153 144.47 148.85 144.343 148.59C144.217 148.323 144.04 148.117 143.813 147.97C143.587 147.817 143.323 147.74 143.023 147.74C142.75 147.74 142.503 147.817 142.283 147.97C142.07 148.117 141.903 148.323 141.783 148.59C141.663 148.857 141.603 149.16 141.603 149.5C141.603 149.847 141.663 150.153 141.783 150.42C141.903 150.68 142.07 150.887 142.283 151.04C142.497 151.187 142.74 151.26 143.013 151.26ZM150.201 152L150.161 151.07V145H151.101V152H150.201ZM148.521 152.12C148.068 152.12 147.671 152.01 147.331 151.79C146.998 151.57 146.734 151.263 146.541 150.87C146.354 150.477 146.261 150.02 146.261 149.5C146.261 148.973 146.354 148.517 146.541 148.13C146.734 147.737 146.998 147.43 147.331 147.21C147.671 146.99 148.068 146.88 148.521 146.88C148.941 146.88 149.304 146.99 149.611 147.21C149.924 147.43 150.164 147.737 150.331 148.13C150.498 148.517 150.581 148.973 150.581 149.5C150.581 150.02 150.498 150.477 150.331 150.87C150.164 151.263 149.924 151.57 149.611 151.79C149.304 152.01 148.941 152.12 148.521 152.12ZM148.741 151.26C149.021 151.26 149.268 151.187 149.481 151.04C149.694 150.887 149.861 150.68 149.981 150.42C150.101 150.153 150.161 149.847 150.161 149.5C150.161 149.153 150.101 148.85 149.981 148.59C149.861 148.323 149.694 148.117 149.481 147.97C149.268 147.817 149.018 147.74 148.731 147.74C148.438 147.74 148.178 147.817 147.951 147.97C147.724 148.117 147.548 148.323 147.421 148.59C147.294 148.85 147.231 149.153 147.231 149.5C147.231 149.847 147.294 150.153 147.421 150.42C147.554 150.68 147.734 150.887 147.961 151.04C148.188 151.187 148.448 151.26 148.741 151.26ZM155.49 152L155.45 151.13V149.39C155.45 149.023 155.406 148.717 155.32 148.47C155.24 148.223 155.113 148.037 154.94 147.91C154.773 147.783 154.55 147.72 154.27 147.72C154.01 147.72 153.783 147.773 153.59 147.88C153.403 147.987 153.246 148.153 153.12 148.38L152.28 148.06C152.4 147.833 152.55 147.633 152.73 147.46C152.91 147.28 153.126 147.14 153.38 147.04C153.633 146.933 153.93 146.88 154.27 146.88C154.743 146.88 155.136 146.973 155.45 147.16C155.763 147.347 155.996 147.617 156.15 147.97C156.31 148.323 156.386 148.76 156.38 149.28L156.37 152H155.49ZM154.02 152.12C153.426 152.12 152.963 151.987 152.63 151.72C152.303 151.447 152.14 151.07 152.14 150.59C152.14 150.077 152.31 149.687 152.65 149.42C152.996 149.147 153.476 149.01 154.09 149.01H155.48V149.76H154.35C153.89 149.76 153.566 149.833 153.38 149.98C153.193 150.12 153.1 150.317 153.1 150.57C153.1 150.803 153.186 150.987 153.36 151.12C153.54 151.247 153.786 151.31 154.1 151.31C154.373 151.31 154.61 151.253 154.81 151.14C155.01 151.02 155.166 150.853 155.28 150.64C155.393 150.427 155.45 150.183 155.45 149.91H155.78C155.78 150.59 155.633 151.13 155.34 151.53C155.053 151.923 154.613 152.12 154.02 152.12ZM159.506 152.12C159.006 152.12 158.619 151.993 158.346 151.74C158.073 151.48 157.936 151.11 157.936 150.63V145.44H158.886V150.49C158.886 150.737 158.946 150.927 159.066 151.06C159.193 151.187 159.373 151.25 159.606 151.25C159.673 151.25 159.746 151.237 159.826 151.21C159.906 151.183 160.003 151.13 160.116 151.05L160.476 151.79C160.303 151.903 160.136 151.987 159.976 152.04C159.823 152.093 159.666 152.12 159.506 152.12ZM157.086 147.82V147H160.306V147.82H157.086ZM163.585 152.12C163.098 152.12 162.668 152.01 162.295 151.79C161.922 151.563 161.628 151.253 161.415 150.86C161.202 150.467 161.095 150.013 161.095 149.5C161.095 148.987 161.202 148.533 161.415 148.14C161.628 147.747 161.922 147.44 162.295 147.22C162.675 146.993 163.108 146.88 163.595 146.88C164.055 146.88 164.458 146.997 164.805 147.23C165.152 147.457 165.422 147.783 165.615 148.21C165.815 148.63 165.915 149.127 165.915 149.7H161.875L162.055 149.55C162.055 149.903 162.125 150.21 162.265 150.47C162.405 150.73 162.595 150.93 162.835 151.07C163.075 151.203 163.348 151.27 163.655 151.27C163.988 151.27 164.265 151.193 164.485 151.04C164.712 150.88 164.888 150.68 165.015 150.44L165.835 150.82C165.702 151.08 165.528 151.31 165.315 151.51C165.102 151.703 164.848 151.853 164.555 151.96C164.268 152.067 163.945 152.12 163.585 152.12ZM162.115 149.1L161.925 148.95H165.085L164.905 149.1C164.905 148.807 164.845 148.557 164.725 148.35C164.605 148.137 164.445 147.977 164.245 147.87C164.045 147.757 163.822 147.7 163.575 147.7C163.335 147.7 163.102 147.757 162.875 147.87C162.655 147.977 162.472 148.133 162.325 148.34C162.185 148.547 162.115 148.8 162.115 149.1ZM170.513 152L170.473 151.07V145H171.413V152H170.513ZM168.833 152.12C168.38 152.12 167.983 152.01 167.643 151.79C167.31 151.57 167.047 151.263 166.853 150.87C166.667 150.477 166.573 150.02 166.573 149.5C166.573 148.973 166.667 148.517 166.853 148.13C167.047 147.737 167.31 147.43 167.643 147.21C167.983 146.99 168.38 146.88 168.833 146.88C169.253 146.88 169.617 146.99 169.923 147.21C170.237 147.43 170.477 147.737 170.643 148.13C170.81 148.517 170.893 148.973 170.893 149.5C170.893 150.02 170.81 150.477 170.643 150.87C170.477 151.263 170.237 151.57 169.923 151.79C169.617 152.01 169.253 152.12 168.833 152.12ZM169.053 151.26C169.333 151.26 169.58 151.187 169.793 151.04C170.007 150.887 170.173 150.68 170.293 150.42C170.413 150.153 170.473 149.847 170.473 149.5C170.473 149.153 170.413 148.85 170.293 148.59C170.173 148.323 170.007 148.117 169.793 147.97C169.58 147.817 169.33 147.74 169.043 147.74C168.75 147.74 168.49 147.817 168.263 147.97C168.037 148.117 167.86 148.323 167.733 148.59C167.607 148.85 167.543 149.153 167.543 149.5C167.543 149.847 167.607 150.153 167.733 150.42C167.867 150.68 168.047 150.887 168.273 151.04C168.5 151.187 168.76 151.26 169.053 151.26ZM173.392 148.23C173.226 148.23 173.079 148.17 172.952 148.05C172.832 147.93 172.772 147.783 172.772 147.61C172.772 147.437 172.832 147.29 172.952 147.17C173.079 147.05 173.226 146.99 173.392 146.99C173.566 146.99 173.712 147.05 173.832 147.17C173.959 147.29 174.022 147.437 174.022 147.61C174.022 147.783 173.959 147.93 173.832 148.05C173.712 148.17 173.566 148.23 173.392 148.23ZM173.412 152.02C173.239 152.02 173.089 151.96 172.962 151.84C172.842 151.713 172.782 151.563 172.782 151.39C172.782 151.223 172.842 151.08 172.962 150.96C173.089 150.833 173.239 150.77 173.412 150.77C173.579 150.77 173.722 150.833 173.842 150.96C173.969 151.08 174.032 151.223 174.032 151.39C174.032 151.563 173.969 151.713 173.842 151.84C173.722 151.96 173.579 152.02 173.412 152.02ZM179.28 152V145.53L179.37 145H180.24V152H179.28ZM177.73 146.91V146.02C177.877 146.027 178.047 145.98 178.24 145.88C178.44 145.78 178.64 145.65 178.84 145.49C179.04 145.33 179.217 145.163 179.37 144.99L179.98 145.65C179.753 145.89 179.517 146.107 179.27 146.3C179.023 146.493 178.77 146.647 178.51 146.76C178.257 146.873 177.997 146.923 177.73 146.91ZM184.661 152V145H188.901V145.9H185.641V148.1H188.481V149H185.641V152H184.661ZM192.042 152.12C191.555 152.12 191.125 152.01 190.752 151.79C190.379 151.563 190.085 151.253 189.872 150.86C189.659 150.467 189.552 150.013 189.552 149.5C189.552 148.987 189.659 148.533 189.872 148.14C190.085 147.747 190.379 147.44 190.752 147.22C191.132 146.993 191.565 146.88 192.052 146.88C192.512 146.88 192.915 146.997 193.262 147.23C193.609 147.457 193.879 147.783 194.072 148.21C194.272 148.63 194.372 149.127 194.372 149.7H190.332L190.512 149.55C190.512 149.903 190.582 150.21 190.722 150.47C190.862 150.73 191.052 150.93 191.292 151.07C191.532 151.203 191.805 151.27 192.112 151.27C192.445 151.27 192.722 151.193 192.942 151.04C193.169 150.88 193.345 150.68 193.472 150.44L194.292 150.82C194.159 151.08 193.985 151.31 193.772 151.51C193.559 151.703 193.305 151.853 193.012 151.96C192.725 152.067 192.402 152.12 192.042 152.12ZM190.572 149.1L190.382 148.95H193.542L193.362 149.1C193.362 148.807 193.302 148.557 193.182 148.35C193.062 148.137 192.902 147.977 192.702 147.87C192.502 147.757 192.279 147.7 192.032 147.7C191.792 147.7 191.559 147.757 191.332 147.87C191.112 147.977 190.929 148.133 190.782 148.34C190.642 148.547 190.572 148.8 190.572 149.1ZM195.31 152V145H196.26V151.07L196.21 152H195.31ZM197.9 152.12C197.48 152.12 197.114 152.01 196.8 151.79C196.494 151.57 196.257 151.263 196.09 150.87C195.924 150.477 195.84 150.02 195.84 149.5C195.84 148.973 195.924 148.517 196.09 148.13C196.257 147.737 196.494 147.43 196.8 147.21C197.114 146.99 197.48 146.88 197.9 146.88C198.347 146.88 198.74 146.99 199.08 147.21C199.42 147.43 199.684 147.737 199.87 148.13C200.064 148.517 200.16 148.973 200.16 149.5C200.16 150.02 200.064 150.477 199.87 150.87C199.684 151.263 199.42 151.57 199.08 151.79C198.74 152.01 198.347 152.12 197.9 152.12ZM197.67 151.26C197.97 151.26 198.234 151.187 198.46 151.04C198.687 150.887 198.864 150.68 198.99 150.42C199.124 150.153 199.19 149.847 199.19 149.5C199.19 149.153 199.127 148.85 199 148.59C198.874 148.323 198.697 148.117 198.47 147.97C198.244 147.817 197.98 147.74 197.68 147.74C197.407 147.74 197.16 147.817 196.94 147.97C196.727 148.117 196.56 148.323 196.44 148.59C196.32 148.857 196.26 149.16 196.26 149.5C196.26 149.847 196.32 150.153 196.44 150.42C196.56 150.68 196.727 150.887 196.94 151.04C197.154 151.187 197.397 151.26 197.67 151.26ZM200.909 153.15L201.489 150.97H202.519L201.679 153.15H200.909ZM205.894 152V151.21C205.894 151.003 205.941 150.79 206.034 150.57C206.134 150.343 206.274 150.12 206.454 149.9C206.641 149.68 206.861 149.477 207.114 149.29L208.464 148.29C208.624 148.177 208.767 148.047 208.894 147.9C209.027 147.747 209.131 147.59 209.204 147.43C209.284 147.263 209.324 147.1 209.324 146.94C209.324 146.727 209.271 146.533 209.164 146.36C209.057 146.18 208.907 146.04 208.714 145.94C208.521 145.833 208.291 145.78 208.024 145.78C207.771 145.78 207.547 145.83 207.354 145.93C207.167 146.023 207.011 146.15 206.884 146.31C206.757 146.47 206.667 146.64 206.614 146.82L205.604 146.63C205.677 146.323 205.821 146.037 206.034 145.77C206.247 145.503 206.521 145.29 206.854 145.13C207.187 144.963 207.564 144.88 207.984 144.88C208.464 144.88 208.877 144.97 209.224 145.15C209.577 145.323 209.851 145.567 210.044 145.88C210.237 146.187 210.334 146.54 210.334 146.94C210.334 147.327 210.227 147.683 210.014 148.01C209.807 148.337 209.507 148.653 209.114 148.96L207.864 149.9C207.617 150.087 207.421 150.28 207.274 150.48C207.134 150.68 207.047 150.893 207.014 151.12H210.424V152H205.894ZM214.189 152.12C213.649 152.12 213.169 151.967 212.749 151.66C212.329 151.347 211.999 150.92 211.759 150.38C211.525 149.833 211.409 149.207 211.409 148.5C211.409 147.793 211.525 147.17 211.759 146.63C211.999 146.083 212.325 145.657 212.739 145.35C213.159 145.037 213.642 144.88 214.189 144.88C214.735 144.88 215.215 145.037 215.629 145.35C216.049 145.657 216.379 146.083 216.619 146.63C216.859 147.17 216.979 147.793 216.979 148.5C216.979 149.207 216.859 149.833 216.619 150.38C216.385 150.92 216.059 151.347 215.639 151.66C215.219 151.967 214.735 152.12 214.189 152.12ZM214.189 151.22C214.542 151.22 214.855 151.103 215.129 150.87C215.409 150.637 215.625 150.317 215.779 149.91C215.932 149.503 216.009 149.033 216.009 148.5C216.009 147.967 215.932 147.497 215.779 147.09C215.625 146.677 215.409 146.353 215.129 146.12C214.855 145.887 214.542 145.77 214.189 145.77C213.835 145.77 213.522 145.887 213.249 146.12C212.975 146.353 212.762 146.677 212.609 147.09C212.455 147.497 212.379 147.967 212.379 148.5C212.379 149.033 212.455 149.507 212.609 149.92C212.762 150.327 212.975 150.647 213.249 150.88C213.522 151.107 213.835 151.22 214.189 151.22ZM217.964 152V151.21C217.964 151.003 218.011 150.79 218.104 150.57C218.204 150.343 218.344 150.12 218.524 149.9C218.711 149.68 218.931 149.477 219.184 149.29L220.534 148.29C220.694 148.177 220.838 148.047 220.964 147.9C221.098 147.747 221.201 147.59 221.274 147.43C221.354 147.263 221.394 147.1 221.394 146.94C221.394 146.727 221.341 146.533 221.234 146.36C221.128 146.18 220.978 146.04 220.784 145.94C220.591 145.833 220.361 145.78 220.094 145.78C219.841 145.78 219.618 145.83 219.424 145.93C219.238 146.023 219.081 146.15 218.954 146.31C218.828 146.47 218.738 146.64 218.684 146.82L217.674 146.63C217.748 146.323 217.891 146.037 218.104 145.77C218.318 145.503 218.591 145.29 218.924 145.13C219.258 144.963 219.634 144.88 220.054 144.88C220.534 144.88 220.948 144.97 221.294 145.15C221.648 145.323 221.921 145.567 222.114 145.88C222.308 146.187 222.404 146.54 222.404 146.94C222.404 147.327 222.298 147.683 222.084 148.01C221.878 148.337 221.578 148.653 221.184 148.96L219.934 149.9C219.688 150.087 219.491 150.28 219.344 150.48C219.204 150.68 219.118 150.893 219.084 151.12H222.494V152H217.964ZM225.769 152.12C225.409 152.12 225.082 152.067 224.789 151.96C224.495 151.853 224.249 151.707 224.049 151.52C223.849 151.333 223.695 151.13 223.589 150.91L224.439 150.52C224.505 150.613 224.589 150.72 224.689 150.84C224.789 150.953 224.922 151.05 225.089 151.13C225.255 151.21 225.462 151.25 225.709 151.25C226.129 151.25 226.462 151.13 226.709 150.89C226.962 150.65 227.089 150.347 227.089 149.98C227.089 149.707 227.015 149.477 226.869 149.29C226.722 149.097 226.505 148.95 226.219 148.85C225.939 148.75 225.595 148.7 225.189 148.7H224.939V147.96H225.169C225.582 147.96 225.962 148.007 226.309 148.1C226.662 148.193 226.972 148.333 227.239 148.52C227.505 148.7 227.712 148.92 227.859 149.18C228.005 149.44 228.079 149.737 228.079 150.07C228.079 150.483 227.972 150.847 227.759 151.16C227.552 151.467 227.272 151.703 226.919 151.87C226.572 152.037 226.189 152.12 225.769 152.12ZM224.939 148.58V147.87H225.189C225.735 147.87 226.162 147.777 226.469 147.59C226.775 147.403 226.929 147.14 226.929 146.8C226.929 146.607 226.875 146.433 226.769 146.28C226.669 146.12 226.525 145.993 226.339 145.9C226.159 145.8 225.942 145.75 225.689 145.75C225.529 145.75 225.372 145.777 225.219 145.83C225.072 145.877 224.935 145.95 224.809 146.05C224.682 146.143 224.572 146.267 224.479 146.42L223.659 146.05C223.772 145.803 223.932 145.593 224.139 145.42C224.345 145.247 224.585 145.113 224.859 145.02C225.132 144.927 225.422 144.88 225.729 144.88C226.149 144.88 226.522 144.96 226.849 145.12C227.175 145.28 227.432 145.5 227.619 145.78C227.812 146.06 227.909 146.377 227.909 146.73C227.909 147.03 227.835 147.297 227.689 147.53C227.549 147.757 227.352 147.95 227.099 148.11C226.845 148.263 226.552 148.38 226.219 148.46C225.892 148.54 225.539 148.58 225.159 148.58H224.939Z" fill="#A4A4AD"/>
<rect x="261.5" y="95.5" width="284" height="117" rx="8.5" fill="#1A1A1E" stroke="#37373D"/>
<rect opacity="0.4" x="278" y="109" width="84" height="22" rx="11" fill="#2BBEAF"/>
<path d="M291.068 124V115.6H292.316L295.1 119.716L297.872 115.6H299.12V124H297.944V117.496L295.088 121.708L292.244 117.508V124H291.068ZM303.688 124.144C303.088 124.144 302.56 124.012 302.104 123.748C301.648 123.476 301.288 123.104 301.024 122.632C300.768 122.16 300.64 121.616 300.64 121C300.64 120.384 300.768 119.84 301.024 119.368C301.28 118.896 301.636 118.528 302.092 118.264C302.548 117.992 303.072 117.856 303.664 117.856C304.256 117.856 304.78 117.992 305.236 118.264C305.692 118.528 306.048 118.896 306.304 119.368C306.56 119.84 306.688 120.384 306.688 121C306.688 121.616 306.56 122.16 306.304 122.632C306.048 123.104 305.692 123.476 305.236 123.748C304.788 124.012 304.272 124.144 303.688 124.144ZM303.688 123.1C304.048 123.1 304.368 123.012 304.648 122.836C304.928 122.652 305.144 122.404 305.296 122.092C305.456 121.78 305.536 121.416 305.536 121C305.536 120.584 305.456 120.22 305.296 119.908C305.144 119.596 304.924 119.352 304.636 119.176C304.348 118.992 304.024 118.9 303.664 118.9C303.296 118.9 302.972 118.992 302.692 119.176C302.412 119.352 302.192 119.596 302.032 119.908C301.872 120.22 301.792 120.584 301.792 121C301.792 121.416 301.872 121.78 302.032 122.092C302.192 122.404 302.416 122.652 302.704 122.836C302.992 123.012 303.32 123.1 303.688 123.1ZM307.937 124V118H309.005L309.077 119.104V124H307.937ZM312.089 124V120.928H313.229V124H312.089ZM312.089 120.928C312.089 120.384 312.025 119.972 311.897 119.692C311.777 119.404 311.605 119.204 311.381 119.092C311.165 118.98 310.913 118.92 310.625 118.912C310.137 118.912 309.757 119.084 309.485 119.428C309.213 119.772 309.077 120.256 309.077 120.88H308.585C308.585 120.248 308.677 119.708 308.861 119.26C309.053 118.804 309.321 118.456 309.665 118.216C310.017 117.976 310.433 117.856 310.913 117.856C311.385 117.856 311.793 117.952 312.137 118.144C312.489 118.336 312.757 118.636 312.941 119.044C313.133 119.444 313.229 119.972 313.229 120.628V120.928H312.089ZM314.735 124V118H315.875V124H314.735ZM315.311 116.728C315.127 116.728 314.967 116.66 314.831 116.524C314.695 116.38 314.627 116.216 314.627 116.032C314.627 115.84 314.695 115.68 314.831 115.552C314.967 115.416 315.127 115.348 315.311 115.348C315.503 115.348 315.663 115.416 315.791 115.552C315.927 115.68 315.995 115.84 315.995 116.032C315.995 116.216 315.927 116.38 315.791 116.524C315.663 116.66 315.503 116.728 315.311 116.728ZM319.862 124.144C319.262 124.144 318.798 123.992 318.47 123.688C318.142 123.376 317.978 122.932 317.978 122.356V116.128H319.118V122.188C319.118 122.484 319.19 122.712 319.334 122.872C319.486 123.024 319.702 123.1 319.982 123.1C320.062 123.1 320.15 123.084 320.246 123.052C320.342 123.02 320.458 122.956 320.594 122.86L321.026 123.748C320.818 123.884 320.618 123.984 320.426 124.048C320.242 124.112 320.054 124.144 319.862 124.144ZM316.958 118.984V118H320.822V118.984H316.958ZM324.817 124.144C324.217 124.144 323.689 124.012 323.233 123.748C322.777 123.476 322.417 123.104 322.153 122.632C321.897 122.16 321.769 121.616 321.769 121C321.769 120.384 321.897 119.84 322.153 119.368C322.409 118.896 322.765 118.528 323.221 118.264C323.677 117.992 324.201 117.856 324.793 117.856C325.385 117.856 325.909 117.992 326.365 118.264C326.821 118.528 327.177 118.896 327.433 119.368C327.689 119.84 327.817 120.384 327.817 121C327.817 121.616 327.689 122.16 327.433 122.632C327.177 123.104 326.821 123.476 326.365 123.748C325.917 124.012 325.401 124.144 324.817 124.144ZM324.817 123.1C325.177 123.1 325.497 123.012 325.777 122.836C326.057 122.652 326.273 122.404 326.425 122.092C326.585 121.78 326.665 121.416 326.665 121C326.665 120.584 326.585 120.22 326.425 119.908C326.273 119.596 326.053 119.352 325.765 119.176C325.477 118.992 325.153 118.9 324.793 118.9C324.425 118.9 324.101 118.992 323.821 119.176C323.541 119.352 323.321 119.596 323.161 119.908C323.001 120.22 322.921 120.584 322.921 121C322.921 121.416 323.001 121.78 323.161 122.092C323.321 122.404 323.545 122.652 323.833 122.836C324.121 123.012 324.449 123.1 324.817 123.1ZM329.761 120.772C329.761 120.124 329.885 119.596 330.133 119.188C330.381 118.78 330.701 118.476 331.093 118.276C331.485 118.076 331.897 117.976 332.329 117.976V119.056C331.969 119.056 331.625 119.112 331.297 119.224C330.977 119.328 330.713 119.504 330.505 119.752C330.305 119.992 330.205 120.32 330.205 120.736L329.761 120.772ZM329.065 124V118H330.205V124H329.065ZM333.321 124V118H334.461V124H333.321ZM333.897 116.728C333.713 116.728 333.553 116.66 333.417 116.524C333.281 116.38 333.213 116.216 333.213 116.032C333.213 115.84 333.281 115.68 333.417 115.552C333.553 115.416 333.713 115.348 333.897 115.348C334.089 115.348 334.249 115.416 334.377 115.552C334.513 115.68 334.581 115.84 334.581 116.032C334.581 116.216 334.513 116.38 334.377 116.524C334.249 116.66 334.089 116.728 333.897 116.728ZM336.132 124V118H337.2L337.272 119.104V124H336.132ZM340.284 124V120.928H341.424V124H340.284ZM340.284 120.928C340.284 120.384 340.22 119.972 340.092 119.692C339.972 119.404 339.8 119.204 339.576 119.092C339.36 118.98 339.108 118.92 338.82 118.912C338.332 118.912 337.952 119.084 337.68 119.428C337.408 119.772 337.272 120.256 337.272 120.88H336.78C336.78 120.248 336.872 119.708 337.056 119.26C337.248 118.804 337.516 118.456 337.86 118.216C338.212 117.976 338.628 117.856 339.108 117.856C339.58 117.856 339.988 117.952 340.332 118.144C340.684 118.336 340.952 118.636 341.136 119.044C341.328 119.444 341.424 119.972 341.424 120.628V120.928H340.284ZM345.342 126.556C344.942 126.556 344.578 126.516 344.25 126.436C343.922 126.364 343.646 126.28 343.422 126.184C343.198 126.088 343.03 126.004 342.918 125.932L343.35 125.008C343.454 125.072 343.602 125.144 343.794 125.224C343.986 125.312 344.21 125.384 344.466 125.44C344.722 125.504 345.006 125.536 345.318 125.536C345.686 125.536 346.014 125.46 346.302 125.308C346.59 125.164 346.814 124.936 346.974 124.624C347.142 124.312 347.226 123.912 347.226 123.424V118H348.366V123.4C348.366 124.088 348.234 124.664 347.97 125.128C347.714 125.6 347.358 125.956 346.902 126.196C346.454 126.436 345.934 126.556 345.342 126.556ZM345.234 123.916C344.69 123.916 344.214 123.792 343.806 123.544C343.406 123.288 343.09 122.936 342.858 122.488C342.634 122.032 342.522 121.508 342.522 120.916C342.522 120.3 342.634 119.764 342.858 119.308C343.09 118.852 343.406 118.496 343.806 118.24C344.214 117.984 344.69 117.856 345.234 117.856C345.73 117.856 346.162 117.984 346.53 118.24C346.906 118.496 347.194 118.856 347.394 119.32C347.602 119.776 347.706 120.312 347.706 120.928C347.706 121.52 347.602 122.044 347.394 122.5C347.194 122.948 346.906 123.296 346.53 123.544C346.162 123.792 345.73 123.916 345.234 123.916ZM345.522 122.956C345.858 122.956 346.15 122.868 346.398 122.692C346.646 122.508 346.842 122.264 346.986 121.96C347.13 121.648 347.202 121.292 347.202 120.892C347.202 120.492 347.13 120.14 346.986 119.836C346.842 119.532 346.642 119.296 346.386 119.128C346.138 118.952 345.846 118.864 345.51 118.864C345.158 118.864 344.846 118.952 344.574 119.128C344.31 119.296 344.102 119.532 343.95 119.836C343.798 120.14 343.722 120.492 343.722 120.892C343.722 121.292 343.798 121.648 343.95 121.96C344.11 122.264 344.322 122.508 344.586 122.692C344.858 122.868 345.17 122.956 345.522 122.956Z" fill="white"/>
<path fill-rule="evenodd" clip-rule="evenodd" d="M518.875 115.5C518.875 114.879 519.379 114.375 520 114.375C520.621 114.375 521.125 114.879 521.125 115.5C521.125 116.121 520.621 116.625 520 116.625C519.379 116.625 518.875 116.121 518.875 115.5ZM518.875 120C518.875 119.379 519.379 118.875 520 118.875C520.621 118.875 521.125 119.379 521.125 120C521.125 120.621 520.621 121.125 520 121.125C519.379 121.125 518.875 120.621 518.875 120ZM518.875 124.5C518.875 123.879 519.379 123.375 520 123.375C520.621 123.375 521.125 123.879 521.125 124.5C521.125 125.121 520.621 125.625 520 125.625C519.379 125.625 518.875 125.121 518.875 124.5Z" fill="#A4A4AD"/>
<rect x="262.25" y="173.25" width="282.5" height="0.5" rx="0.25" stroke="#37373D" stroke-width="0.5"/>
<path d="M287.896 156V146.2H289.268V156H287.896ZM281.246 156V146.2H282.618V156H281.246ZM282.394 151.59V150.33H288.33V151.59H282.394ZM291.522 156V149H292.852V156H291.522ZM292.194 147.516C291.979 147.516 291.792 147.437 291.634 147.278C291.475 147.11 291.396 146.919 291.396 146.704C291.396 146.48 291.475 146.293 291.634 146.144C291.792 145.985 291.979 145.906 292.194 145.906C292.418 145.906 292.604 145.985 292.754 146.144C292.912 146.293 292.992 146.48 292.992 146.704C292.992 146.919 292.912 147.11 292.754 147.278C292.604 147.437 292.418 147.516 292.194 147.516ZM297.699 158.982C297.232 158.982 296.808 158.935 296.425 158.842C296.042 158.758 295.72 158.66 295.459 158.548C295.198 158.436 295.002 158.338 294.871 158.254L295.375 157.176C295.496 157.251 295.669 157.335 295.893 157.428C296.117 157.531 296.378 157.615 296.677 157.68C296.976 157.755 297.307 157.792 297.671 157.792C298.1 157.792 298.483 157.703 298.819 157.526C299.155 157.358 299.416 157.092 299.603 156.728C299.799 156.364 299.897 155.897 299.897 155.328V149H301.227V155.3C301.227 156.103 301.073 156.775 300.765 157.316C300.466 157.867 300.051 158.282 299.519 158.562C298.996 158.842 298.39 158.982 297.699 158.982ZM297.573 155.902C296.938 155.902 296.383 155.757 295.907 155.468C295.44 155.169 295.072 154.759 294.801 154.236C294.54 153.704 294.409 153.093 294.409 152.402C294.409 151.683 294.54 151.058 294.801 150.526C295.072 149.994 295.44 149.579 295.907 149.28C296.383 148.981 296.938 148.832 297.573 148.832C298.152 148.832 298.656 148.981 299.085 149.28C299.524 149.579 299.86 149.999 300.093 150.54C300.336 151.072 300.457 151.697 300.457 152.416C300.457 153.107 300.336 153.718 300.093 154.25C299.86 154.773 299.524 155.179 299.085 155.468C298.656 155.757 298.152 155.902 297.573 155.902ZM297.909 154.782C298.301 154.782 298.642 154.679 298.931 154.474C299.22 154.259 299.449 153.975 299.617 153.62C299.785 153.256 299.869 152.841 299.869 152.374C299.869 151.907 299.785 151.497 299.617 151.142C299.449 150.787 299.216 150.512 298.917 150.316C298.628 150.111 298.287 150.008 297.895 150.008C297.484 150.008 297.12 150.111 296.803 150.316C296.495 150.512 296.252 150.787 296.075 151.142C295.898 151.497 295.809 151.907 295.809 152.374C295.809 152.841 295.898 153.256 296.075 153.62C296.262 153.975 296.509 154.259 296.817 154.474C297.134 154.679 297.498 154.782 297.909 154.782ZM303.086 156V146.2H304.402V156H303.086ZM307.93 156V152.416H309.246V156H307.93ZM307.93 152.416C307.93 151.781 307.856 151.301 307.706 150.974C307.557 150.638 307.352 150.405 307.09 150.274C306.838 150.143 306.549 150.073 306.222 150.064C305.644 150.064 305.196 150.265 304.878 150.666C304.561 151.067 304.402 151.632 304.402 152.36H303.842C303.842 151.623 303.95 150.993 304.164 150.47C304.388 149.938 304.701 149.532 305.102 149.252C305.513 148.972 305.998 148.832 306.558 148.832C307.109 148.832 307.585 148.944 307.986 149.168C308.388 149.392 308.7 149.742 308.924 150.218C309.148 150.685 309.256 151.301 309.246 152.066V152.416H307.93ZM315.15 152.234C315.15 151.478 315.295 150.862 315.584 150.386C315.873 149.91 316.247 149.555 316.704 149.322C317.161 149.089 317.642 148.972 318.146 148.972V150.232C317.726 150.232 317.325 150.297 316.942 150.428C316.569 150.549 316.261 150.755 316.018 151.044C315.785 151.324 315.668 151.707 315.668 152.192L315.15 152.234ZM314.338 156V149H315.668V156H314.338ZM319.303 156V149H320.633V156H319.303ZM319.975 147.516C319.76 147.516 319.574 147.437 319.415 147.278C319.256 147.11 319.177 146.919 319.177 146.704C319.177 146.48 319.256 146.293 319.415 146.144C319.574 145.985 319.76 145.906 319.975 145.906C320.199 145.906 320.386 145.985 320.535 146.144C320.694 146.293 320.773 146.48 320.773 146.704C320.773 146.919 320.694 147.11 320.535 147.278C320.386 147.437 320.199 147.516 319.975 147.516ZM325.088 156.168C324.594 156.168 324.15 156.093 323.758 155.944C323.376 155.795 323.049 155.594 322.778 155.342C322.517 155.09 322.321 154.805 322.19 154.488L323.338 153.984C323.488 154.273 323.712 154.511 324.01 154.698C324.309 154.885 324.64 154.978 325.004 154.978C325.406 154.978 325.737 154.903 325.998 154.754C326.26 154.605 326.39 154.395 326.39 154.124C326.39 153.863 326.292 153.657 326.096 153.508C325.9 153.359 325.616 153.237 325.242 153.144L324.584 152.976C323.931 152.799 323.422 152.533 323.058 152.178C322.704 151.823 322.526 151.422 322.526 150.974C322.526 150.293 322.746 149.765 323.184 149.392C323.623 149.019 324.272 148.832 325.13 148.832C325.55 148.832 325.933 148.893 326.278 149.014C326.633 149.135 326.932 149.308 327.174 149.532C327.426 149.756 327.604 150.022 327.706 150.33L326.586 150.834C326.474 150.554 326.283 150.349 326.012 150.218C325.742 150.078 325.424 150.008 325.06 150.008C324.687 150.008 324.393 150.092 324.178 150.26C323.964 150.419 323.856 150.643 323.856 150.932C323.856 151.091 323.945 151.245 324.122 151.394C324.309 151.534 324.58 151.651 324.934 151.744L325.69 151.926C326.148 152.038 326.526 152.211 326.824 152.444C327.123 152.668 327.347 152.925 327.496 153.214C327.646 153.494 327.72 153.788 327.72 154.096C327.72 154.516 327.604 154.885 327.37 155.202C327.146 155.51 326.834 155.748 326.432 155.916C326.04 156.084 325.592 156.168 325.088 156.168ZM330.392 153.886L329.566 152.976L333.248 149H334.872L330.392 153.886ZM329.104 156V146.2H330.434V156H329.104ZM333.542 156L330.966 152.164L331.834 151.24L335.138 156H333.542ZM339.522 156V149H340.768L340.824 149.966C341.048 149.593 341.328 149.313 341.664 149.126C342 148.93 342.387 148.832 342.826 148.832C343.386 148.832 343.862 148.963 344.254 149.224C344.646 149.476 344.93 149.863 345.108 150.386C345.313 149.882 345.602 149.499 345.976 149.238C346.349 148.967 346.792 148.832 347.306 148.832C348.099 148.832 348.72 149.093 349.168 149.616C349.616 150.129 349.835 150.923 349.826 151.996V156H348.51V152.416C348.51 151.781 348.44 151.301 348.3 150.974C348.169 150.638 347.992 150.405 347.768 150.274C347.544 150.143 347.282 150.073 346.984 150.064C346.461 150.064 346.055 150.265 345.766 150.666C345.486 151.067 345.346 151.632 345.346 152.36V156H344.016V152.416C344.016 151.781 343.95 151.301 343.82 150.974C343.689 150.638 343.507 150.405 343.274 150.274C343.05 150.143 342.788 150.073 342.49 150.064C341.967 150.064 341.561 150.265 341.272 150.666C340.992 151.067 340.852 151.632 340.852 152.36V156H339.522ZM354.69 156.168C353.99 156.168 353.374 156.014 352.842 155.706C352.31 155.389 351.89 154.955 351.582 154.404C351.283 153.853 351.134 153.219 351.134 152.5C351.134 151.781 351.283 151.147 351.582 150.596C351.88 150.045 352.296 149.616 352.828 149.308C353.36 148.991 353.971 148.832 354.662 148.832C355.352 148.832 355.964 148.991 356.496 149.308C357.028 149.616 357.443 150.045 357.742 150.596C358.04 151.147 358.19 151.781 358.19 152.5C358.19 153.219 358.04 153.853 357.742 154.404C357.443 154.955 357.028 155.389 356.496 155.706C355.973 156.014 355.371 156.168 354.69 156.168ZM354.69 154.95C355.11 154.95 355.483 154.847 355.81 154.642C356.136 154.427 356.388 154.138 356.566 153.774C356.752 153.41 356.846 152.985 356.846 152.5C356.846 152.015 356.752 151.59 356.566 151.226C356.388 150.862 356.132 150.577 355.796 150.372C355.46 150.157 355.082 150.05 354.662 150.05C354.232 150.05 353.854 150.157 353.528 150.372C353.201 150.577 352.944 150.862 352.758 151.226C352.571 151.59 352.478 152.015 352.478 152.5C352.478 152.985 352.571 153.41 352.758 153.774C352.944 154.138 353.206 154.427 353.542 154.642C353.878 154.847 354.26 154.95 354.69 154.95ZM359.647 156V149H360.893L360.977 150.288V156H359.647ZM364.491 156V152.416H365.821V156H364.491ZM364.491 152.416C364.491 151.781 364.416 151.301 364.267 150.974C364.127 150.638 363.926 150.405 363.665 150.274C363.413 150.143 363.119 150.073 362.783 150.064C362.213 150.064 361.77 150.265 361.453 150.666C361.135 151.067 360.977 151.632 360.977 152.36H360.403C360.403 151.623 360.51 150.993 360.725 150.47C360.949 149.938 361.261 149.532 361.663 149.252C362.073 148.972 362.559 148.832 363.119 148.832C363.669 148.832 364.145 148.944 364.547 149.168C364.957 149.392 365.27 149.742 365.485 150.218C365.709 150.685 365.821 151.301 365.821 152.066V152.416H364.491ZM367.578 156V149H368.908V156H367.578ZM368.25 147.516C368.036 147.516 367.849 147.437 367.69 147.278C367.532 147.11 367.452 146.919 367.452 146.704C367.452 146.48 367.532 146.293 367.69 146.144C367.849 145.985 368.036 145.906 368.25 145.906C368.474 145.906 368.661 145.985 368.81 146.144C368.969 146.293 369.048 146.48 369.048 146.704C369.048 146.919 368.969 147.11 368.81 147.278C368.661 147.437 368.474 147.516 368.25 147.516ZM373.56 156.168C372.86 156.168 372.318 155.991 371.936 155.636C371.553 155.272 371.362 154.754 371.362 154.082V146.816H372.692V153.886C372.692 154.231 372.776 154.497 372.944 154.684C373.121 154.861 373.373 154.95 373.7 154.95C373.793 154.95 373.896 154.931 374.008 154.894C374.12 154.857 374.255 154.782 374.414 154.67L374.918 155.706C374.675 155.865 374.442 155.981 374.218 156.056C374.003 156.131 373.784 156.168 373.56 156.168ZM370.172 150.148V149H374.68V150.148H370.172ZM379.34 156.168C378.64 156.168 378.024 156.014 377.492 155.706C376.96 155.389 376.54 154.955 376.232 154.404C375.933 153.853 375.784 153.219 375.784 152.5C375.784 151.781 375.933 151.147 376.232 150.596C376.531 150.045 376.946 149.616 377.478 149.308C378.01 148.991 378.621 148.832 379.312 148.832C380.003 148.832 380.614 148.991 381.146 149.308C381.678 149.616 382.093 150.045 382.392 150.596C382.691 151.147 382.84 151.781 382.84 152.5C382.84 153.219 382.691 153.853 382.392 154.404C382.093 154.955 381.678 155.389 381.146 155.706C380.623 156.014 380.021 156.168 379.34 156.168ZM379.34 154.95C379.76 154.95 380.133 154.847 380.46 154.642C380.787 154.427 381.039 154.138 381.216 153.774C381.403 153.41 381.496 152.985 381.496 152.5C381.496 152.015 381.403 151.59 381.216 151.226C381.039 150.862 380.782 150.577 380.446 150.372C380.11 150.157 379.732 150.05 379.312 150.05C378.883 150.05 378.505 150.157 378.178 150.372C377.851 150.577 377.595 150.862 377.408 151.226C377.221 151.59 377.128 152.015 377.128 152.5C377.128 152.985 377.221 153.41 377.408 153.774C377.595 154.138 377.856 154.427 378.192 154.642C378.528 154.847 378.911 154.95 379.34 154.95ZM385.109 152.234C385.109 151.478 385.254 150.862 385.543 150.386C385.832 149.91 386.206 149.555 386.663 149.322C387.12 149.089 387.601 148.972 388.105 148.972V150.232C387.685 150.232 387.284 150.297 386.901 150.428C386.528 150.549 386.22 150.755 385.977 151.044C385.744 151.324 385.627 151.707 385.627 152.192L385.109 152.234ZM384.297 156V149H385.627V156H384.297ZM389.262 156V149H390.592V156H389.262ZM389.934 147.516C389.719 147.516 389.533 147.437 389.374 147.278C389.215 147.11 389.136 146.919 389.136 146.704C389.136 146.48 389.215 146.293 389.374 146.144C389.533 145.985 389.719 145.906 389.934 145.906C390.158 145.906 390.345 145.985 390.494 146.144C390.653 146.293 390.732 146.48 390.732 146.704C390.732 146.919 390.653 147.11 390.494 147.278C390.345 147.437 390.158 147.516 389.934 147.516ZM392.541 156V149H393.787L393.871 150.288V156H392.541ZM397.385 156V152.416H398.715V156H397.385ZM397.385 152.416C397.385 151.781 397.311 151.301 397.161 150.974C397.021 150.638 396.821 150.405 396.559 150.274C396.307 150.143 396.013 150.073 395.677 150.064C395.108 150.064 394.665 150.265 394.347 150.666C394.03 151.067 393.871 151.632 393.871 152.36H393.297C393.297 151.623 393.405 150.993 393.619 150.47C393.843 149.938 394.156 149.532 394.557 149.252C394.968 148.972 395.453 148.832 396.013 148.832C396.564 148.832 397.04 148.944 397.441 149.168C397.852 149.392 398.165 149.742 398.379 150.218C398.603 150.685 398.715 151.301 398.715 152.066V152.416H397.385ZM403.287 158.982C402.82 158.982 402.396 158.935 402.013 158.842C401.63 158.758 401.308 158.66 401.047 158.548C400.786 158.436 400.59 158.338 400.459 158.254L400.963 157.176C401.084 157.251 401.257 157.335 401.481 157.428C401.705 157.531 401.966 157.615 402.265 157.68C402.564 157.755 402.895 157.792 403.259 157.792C403.688 157.792 404.071 157.703 404.407 157.526C404.743 157.358 405.004 157.092 405.191 156.728C405.387 156.364 405.485 155.897 405.485 155.328V149H406.815V155.3C406.815 156.103 406.661 156.775 406.353 157.316C406.054 157.867 405.639 158.282 405.107 158.562C404.584 158.842 403.978 158.982 403.287 158.982ZM403.161 155.902C402.526 155.902 401.971 155.757 401.495 155.468C401.028 155.169 400.66 154.759 400.389 154.236C400.128 153.704 399.997 153.093 399.997 152.402C399.997 151.683 400.128 151.058 400.389 150.526C400.66 149.994 401.028 149.579 401.495 149.28C401.971 148.981 402.526 148.832 403.161 148.832C403.74 148.832 404.244 148.981 404.673 149.28C405.112 149.579 405.448 149.999 405.681 150.54C405.924 151.072 406.045 151.697 406.045 152.416C406.045 153.107 405.924 153.718 405.681 154.25C405.448 154.773 405.112 155.179 404.673 155.468C404.244 155.757 403.74 155.902 403.161 155.902ZM403.497 154.782C403.889 154.782 404.23 154.679 404.519 154.474C404.808 154.259 405.037 153.975 405.205 153.62C405.373 153.256 405.457 152.841 405.457 152.374C405.457 151.907 405.373 151.497 405.205 151.142C405.037 150.787 404.804 150.512 404.505 150.316C404.216 150.111 403.875 150.008 403.483 150.008C403.072 150.008 402.708 150.111 402.391 150.316C402.083 150.512 401.84 150.787 401.663 151.142C401.486 151.497 401.397 151.907 401.397 152.374C401.397 152.841 401.486 153.256 401.663 153.62C401.85 153.975 402.097 154.259 402.405 154.474C402.722 154.679 403.086 154.782 403.497 154.782ZM414.584 156.168C414.09 156.168 413.646 156.093 413.254 155.944C412.872 155.795 412.545 155.594 412.274 155.342C412.013 155.09 411.817 154.805 411.686 154.488L412.834 153.984C412.984 154.273 413.208 154.511 413.506 154.698C413.805 154.885 414.136 154.978 414.5 154.978C414.902 154.978 415.233 154.903 415.494 154.754C415.756 154.605 415.886 154.395 415.886 154.124C415.886 153.863 415.788 153.657 415.592 153.508C415.396 153.359 415.112 153.237 414.738 153.144L414.08 152.976C413.427 152.799 412.918 152.533 412.554 152.178C412.2 151.823 412.022 151.422 412.022 150.974C412.022 150.293 412.242 149.765 412.68 149.392C413.119 149.019 413.768 148.832 414.626 148.832C415.046 148.832 415.429 148.893 415.774 149.014C416.129 149.135 416.428 149.308 416.67 149.532C416.922 149.756 417.1 150.022 417.202 150.33L416.082 150.834C415.97 150.554 415.779 150.349 415.508 150.218C415.238 150.078 414.92 150.008 414.556 150.008C414.183 150.008 413.889 150.092 413.674 150.26C413.46 150.419 413.352 150.643 413.352 150.932C413.352 151.091 413.441 151.245 413.618 151.394C413.805 151.534 414.076 151.651 414.43 151.744L415.186 151.926C415.644 152.038 416.022 152.211 416.32 152.444C416.619 152.668 416.843 152.925 416.992 153.214C417.142 153.494 417.216 153.788 417.216 154.096C417.216 154.516 417.1 154.885 416.866 155.202C416.642 155.51 416.33 155.748 415.928 155.916C415.536 156.084 415.088 156.168 414.584 156.168ZM421.694 156.168C421.012 156.168 420.41 156.014 419.888 155.706C419.365 155.389 418.954 154.955 418.656 154.404C418.357 153.853 418.208 153.219 418.208 152.5C418.208 151.781 418.357 151.147 418.656 150.596C418.954 150.045 419.365 149.616 419.888 149.308C420.42 148.991 421.026 148.832 421.708 148.832C422.352 148.832 422.916 148.995 423.402 149.322C423.887 149.639 424.265 150.097 424.536 150.694C424.816 151.282 424.956 151.977 424.956 152.78H419.3L419.552 152.57C419.552 153.065 419.65 153.494 419.846 153.858C420.042 154.222 420.308 154.502 420.644 154.698C420.98 154.885 421.362 154.978 421.792 154.978C422.258 154.978 422.646 154.871 422.954 154.656C423.271 154.432 423.518 154.152 423.696 153.816L424.844 154.348C424.657 154.712 424.414 155.034 424.116 155.314C423.817 155.585 423.462 155.795 423.052 155.944C422.65 156.093 422.198 156.168 421.694 156.168ZM419.636 151.94L419.37 151.73H423.794L423.542 151.94C423.542 151.529 423.458 151.179 423.29 150.89C423.122 150.591 422.898 150.367 422.618 150.218C422.338 150.059 422.025 149.98 421.68 149.98C421.344 149.98 421.017 150.059 420.7 150.218C420.392 150.367 420.135 150.587 419.93 150.876C419.734 151.165 419.636 151.52 419.636 151.94ZM428.972 156.168C428.272 156.168 427.73 155.991 427.348 155.636C426.965 155.272 426.774 154.754 426.774 154.082V146.816H428.104V153.886C428.104 154.231 428.188 154.497 428.356 154.684C428.533 154.861 428.785 154.95 429.112 154.95C429.205 154.95 429.308 154.931 429.42 154.894C429.532 154.857 429.667 154.782 429.826 154.67L430.33 155.706C430.087 155.865 429.854 155.981 429.63 156.056C429.415 156.131 429.196 156.168 428.972 156.168ZM425.584 150.148V149H430.092V150.148H425.584ZM436.403 156L436.319 154.712V149H437.635V156H436.403ZM431.475 152.584V149H432.805V152.584H431.475ZM432.805 152.584C432.805 153.209 432.875 153.69 433.015 154.026C433.164 154.362 433.369 154.595 433.631 154.726C433.892 154.857 434.186 154.927 434.513 154.936C435.082 154.936 435.525 154.735 435.843 154.334C436.16 153.933 436.319 153.368 436.319 152.64H436.893C436.893 153.377 436.781 154.012 436.557 154.544C436.342 155.067 436.034 155.468 435.633 155.748C435.231 156.028 434.741 156.168 434.163 156.168C433.621 156.168 433.145 156.056 432.735 155.832C432.333 155.608 432.021 155.258 431.797 154.782C431.582 154.306 431.475 153.69 431.475 152.934V152.584H432.805ZM439.56 158.8V149H440.806L440.89 150.288V158.8H439.56ZM443.186 156.168C442.598 156.168 442.085 156.014 441.646 155.706C441.217 155.398 440.886 154.969 440.652 154.418C440.419 153.867 440.302 153.228 440.302 152.5C440.302 151.763 440.419 151.123 440.652 150.582C440.886 150.031 441.217 149.602 441.646 149.294C442.085 148.986 442.598 148.832 443.186 148.832C443.812 148.832 444.362 148.986 444.838 149.294C445.314 149.602 445.683 150.031 445.944 150.582C446.215 151.123 446.35 151.763 446.35 152.5C446.35 153.228 446.215 153.867 445.944 154.418C445.683 154.969 445.314 155.398 444.838 155.706C444.362 156.014 443.812 156.168 443.186 156.168ZM442.864 154.964C443.284 154.964 443.653 154.861 443.97 154.656C444.288 154.441 444.535 154.152 444.712 153.788C444.899 153.415 444.992 152.985 444.992 152.5C444.992 152.015 444.904 151.59 444.726 151.226C444.549 150.853 444.302 150.563 443.984 150.358C443.667 150.143 443.298 150.036 442.878 150.036C442.496 150.036 442.15 150.143 441.842 150.358C441.544 150.563 441.31 150.853 441.142 151.226C440.974 151.599 440.89 152.024 440.89 152.5C440.89 152.985 440.974 153.415 441.142 153.788C441.31 154.152 441.544 154.441 441.842 154.656C442.141 154.861 442.482 154.964 442.864 154.964Z" fill="white"/>
<path d="M278.89 196V189H279.87V195.1H283.12V196H278.89ZM286.974 196L286.934 195.13V193.39C286.934 193.023 286.891 192.717 286.804 192.47C286.724 192.223 286.597 192.037 286.424 191.91C286.257 191.783 286.034 191.72 285.754 191.72C285.494 191.72 285.267 191.773 285.074 191.88C284.887 191.987 284.731 192.153 284.604 192.38L283.764 192.06C283.884 191.833 284.034 191.633 284.214 191.46C284.394 191.28 284.611 191.14 284.864 191.04C285.117 190.933 285.414 190.88 285.754 190.88C286.227 190.88 286.621 190.973 286.934 191.16C287.247 191.347 287.481 191.617 287.634 191.97C287.794 192.323 287.871 192.76 287.864 193.28L287.854 196H286.974ZM285.504 196.12C284.911 196.12 284.447 195.987 284.114 195.72C283.787 195.447 283.624 195.07 283.624 194.59C283.624 194.077 283.794 193.687 284.134 193.42C284.481 193.147 284.961 193.01 285.574 193.01H286.964V193.76H285.834C285.374 193.76 285.051 193.833 284.864 193.98C284.677 194.12 284.584 194.317 284.584 194.57C284.584 194.803 284.671 194.987 284.844 195.12C285.024 195.247 285.271 195.31 285.584 195.31C285.857 195.31 286.094 195.253 286.294 195.14C286.494 195.02 286.651 194.853 286.764 194.64C286.877 194.427 286.934 194.183 286.934 193.91H287.264C287.264 194.59 287.117 195.13 286.824 195.53C286.537 195.923 286.097 196.12 285.504 196.12ZM290.85 196.12C290.497 196.12 290.18 196.067 289.9 195.96C289.627 195.853 289.394 195.71 289.2 195.53C289.014 195.35 288.874 195.147 288.78 194.92L289.6 194.56C289.707 194.767 289.867 194.937 290.08 195.07C290.294 195.203 290.53 195.27 290.79 195.27C291.077 195.27 291.314 195.217 291.5 195.11C291.687 195.003 291.78 194.853 291.78 194.66C291.78 194.473 291.71 194.327 291.57 194.22C291.43 194.113 291.227 194.027 290.96 193.96L290.49 193.84C290.024 193.713 289.66 193.523 289.4 193.27C289.147 193.017 289.02 192.73 289.02 192.41C289.02 191.923 289.177 191.547 289.49 191.28C289.804 191.013 290.267 190.88 290.88 190.88C291.18 190.88 291.454 190.923 291.7 191.01C291.954 191.097 292.167 191.22 292.34 191.38C292.52 191.54 292.647 191.73 292.72 191.95L291.92 192.31C291.84 192.11 291.704 191.963 291.51 191.87C291.317 191.77 291.09 191.72 290.83 191.72C290.564 191.72 290.354 191.78 290.2 191.9C290.047 192.013 289.97 192.173 289.97 192.38C289.97 192.493 290.034 192.603 290.16 192.71C290.294 192.81 290.487 192.893 290.74 192.96L291.28 193.09C291.607 193.17 291.877 193.293 292.09 193.46C292.304 193.62 292.464 193.803 292.57 194.01C292.677 194.21 292.73 194.42 292.73 194.64C292.73 194.94 292.647 195.203 292.48 195.43C292.32 195.65 292.097 195.82 291.81 195.94C291.53 196.06 291.21 196.12 290.85 196.12ZM295.649 196.12C295.149 196.12 294.762 195.993 294.489 195.74C294.215 195.48 294.079 195.11 294.079 194.63V189.44H295.029V194.49C295.029 194.737 295.089 194.927 295.209 195.06C295.335 195.187 295.515 195.25 295.749 195.25C295.815 195.25 295.889 195.237 295.969 195.21C296.049 195.183 296.145 195.13 296.259 195.05L296.619 195.79C296.445 195.903 296.279 195.987 296.119 196.04C295.965 196.093 295.809 196.12 295.649 196.12ZM293.229 191.82V191H296.449V191.82H293.229ZM303.398 196L303.338 195.08V191H304.278V196H303.398ZM299.878 193.56V191H300.828V193.56H299.878ZM300.828 193.56C300.828 194.007 300.878 194.35 300.978 194.59C301.085 194.83 301.231 194.997 301.418 195.09C301.605 195.183 301.815 195.233 302.048 195.24C302.455 195.24 302.771 195.097 302.998 194.81C303.225 194.523 303.338 194.12 303.338 193.6H303.748C303.748 194.127 303.668 194.58 303.508 194.96C303.355 195.333 303.135 195.62 302.848 195.82C302.561 196.02 302.211 196.12 301.798 196.12C301.411 196.12 301.071 196.04 300.778 195.88C300.491 195.72 300.268 195.47 300.108 195.13C299.955 194.79 299.878 194.35 299.878 193.81V193.56H300.828ZM305.653 198V191H306.543L306.603 191.92V198H305.653ZM308.243 196.12C307.823 196.12 307.457 196.01 307.143 195.79C306.837 195.57 306.6 195.263 306.433 194.87C306.267 194.477 306.183 194.02 306.183 193.5C306.183 192.973 306.267 192.517 306.433 192.13C306.6 191.737 306.837 191.43 307.143 191.21C307.457 190.99 307.823 190.88 308.243 190.88C308.69 190.88 309.083 190.99 309.423 191.21C309.763 191.43 310.027 191.737 310.213 192.13C310.407 192.517 310.503 192.973 310.503 193.5C310.503 194.02 310.407 194.477 310.213 194.87C310.027 195.263 309.763 195.57 309.423 195.79C309.083 196.01 308.69 196.12 308.243 196.12ZM308.013 195.26C308.313 195.26 308.577 195.187 308.803 195.04C309.03 194.887 309.207 194.68 309.333 194.42C309.467 194.153 309.533 193.847 309.533 193.5C309.533 193.153 309.47 192.85 309.343 192.59C309.217 192.323 309.04 192.117 308.813 191.97C308.587 191.817 308.323 191.74 308.023 191.74C307.75 191.74 307.503 191.817 307.283 191.97C307.07 192.117 306.903 192.323 306.783 192.59C306.663 192.857 306.603 193.16 306.603 193.5C306.603 193.847 306.663 194.153 306.783 194.42C306.903 194.68 307.07 194.887 307.283 195.04C307.497 195.187 307.74 195.26 308.013 195.26ZM315.201 196L315.161 195.07V189H316.101V196H315.201ZM313.521 196.12C313.068 196.12 312.671 196.01 312.331 195.79C311.998 195.57 311.734 195.263 311.541 194.87C311.354 194.477 311.261 194.02 311.261 193.5C311.261 192.973 311.354 192.517 311.541 192.13C311.734 191.737 311.998 191.43 312.331 191.21C312.671 190.99 313.068 190.88 313.521 190.88C313.941 190.88 314.304 190.99 314.611 191.21C314.924 191.43 315.164 191.737 315.331 192.13C315.498 192.517 315.581 192.973 315.581 193.5C315.581 194.02 315.498 194.477 315.331 194.87C315.164 195.263 314.924 195.57 314.611 195.79C314.304 196.01 313.941 196.12 313.521 196.12ZM313.741 195.26C314.021 195.26 314.268 195.187 314.481 195.04C314.694 194.887 314.861 194.68 314.981 194.42C315.101 194.153 315.161 193.847 315.161 193.5C315.161 193.153 315.101 192.85 314.981 192.59C314.861 192.323 314.694 192.117 314.481 191.97C314.268 191.817 314.018 191.74 313.731 191.74C313.438 191.74 313.178 191.817 312.951 191.97C312.724 192.117 312.548 192.323 312.421 192.59C312.294 192.85 312.231 193.153 312.231 193.5C312.231 193.847 312.294 194.153 312.421 194.42C312.554 194.68 312.734 194.887 312.961 195.04C313.188 195.187 313.448 195.26 313.741 195.26ZM320.49 196L320.45 195.13V193.39C320.45 193.023 320.406 192.717 320.32 192.47C320.24 192.223 320.113 192.037 319.94 191.91C319.773 191.783 319.55 191.72 319.27 191.72C319.01 191.72 318.783 191.773 318.59 191.88C318.403 191.987 318.246 192.153 318.12 192.38L317.28 192.06C317.4 191.833 317.55 191.633 317.73 191.46C317.91 191.28 318.126 191.14 318.38 191.04C318.633 190.933 318.93 190.88 319.27 190.88C319.743 190.88 320.136 190.973 320.45 191.16C320.763 191.347 320.996 191.617 321.15 191.97C321.31 192.323 321.386 192.76 321.38 193.28L321.37 196H320.49ZM319.02 196.12C318.426 196.12 317.963 195.987 317.63 195.72C317.303 195.447 317.14 195.07 317.14 194.59C317.14 194.077 317.31 193.687 317.65 193.42C317.996 193.147 318.476 193.01 319.09 193.01H320.48V193.76H319.35C318.89 193.76 318.566 193.833 318.38 193.98C318.193 194.12 318.1 194.317 318.1 194.57C318.1 194.803 318.186 194.987 318.36 195.12C318.54 195.247 318.786 195.31 319.1 195.31C319.373 195.31 319.61 195.253 319.81 195.14C320.01 195.02 320.166 194.853 320.28 194.64C320.393 194.427 320.45 194.183 320.45 193.91H320.78C320.78 194.59 320.633 195.13 320.34 195.53C320.053 195.923 319.613 196.12 319.02 196.12ZM324.506 196.12C324.006 196.12 323.619 195.993 323.346 195.74C323.073 195.48 322.936 195.11 322.936 194.63V189.44H323.886V194.49C323.886 194.737 323.946 194.927 324.066 195.06C324.193 195.187 324.373 195.25 324.606 195.25C324.673 195.25 324.746 195.237 324.826 195.21C324.906 195.183 325.003 195.13 325.116 195.05L325.476 195.79C325.303 195.903 325.136 195.987 324.976 196.04C324.823 196.093 324.666 196.12 324.506 196.12ZM322.086 191.82V191H325.306V191.82H322.086ZM328.585 196.12C328.098 196.12 327.668 196.01 327.295 195.79C326.922 195.563 326.628 195.253 326.415 194.86C326.202 194.467 326.095 194.013 326.095 193.5C326.095 192.987 326.202 192.533 326.415 192.14C326.628 191.747 326.922 191.44 327.295 191.22C327.675 190.993 328.108 190.88 328.595 190.88C329.055 190.88 329.458 190.997 329.805 191.23C330.152 191.457 330.422 191.783 330.615 192.21C330.815 192.63 330.915 193.127 330.915 193.7H326.875L327.055 193.55C327.055 193.903 327.125 194.21 327.265 194.47C327.405 194.73 327.595 194.93 327.835 195.07C328.075 195.203 328.348 195.27 328.655 195.27C328.988 195.27 329.265 195.193 329.485 195.04C329.712 194.88 329.888 194.68 330.015 194.44L330.835 194.82C330.702 195.08 330.528 195.31 330.315 195.51C330.102 195.703 329.848 195.853 329.555 195.96C329.268 196.067 328.945 196.12 328.585 196.12ZM327.115 193.1L326.925 192.95H330.085L329.905 193.1C329.905 192.807 329.845 192.557 329.725 192.35C329.605 192.137 329.445 191.977 329.245 191.87C329.045 191.757 328.822 191.7 328.575 191.7C328.335 191.7 328.102 191.757 327.875 191.87C327.655 191.977 327.472 192.133 327.325 192.34C327.185 192.547 327.115 192.8 327.115 193.1ZM335.513 196L335.473 195.07V189H336.413V196H335.513ZM333.833 196.12C333.38 196.12 332.983 196.01 332.643 195.79C332.31 195.57 332.047 195.263 331.853 194.87C331.667 194.477 331.573 194.02 331.573 193.5C331.573 192.973 331.667 192.517 331.853 192.13C332.047 191.737 332.31 191.43 332.643 191.21C332.983 190.99 333.38 190.88 333.833 190.88C334.253 190.88 334.617 190.99 334.923 191.21C335.237 191.43 335.477 191.737 335.643 192.13C335.81 192.517 335.893 192.973 335.893 193.5C335.893 194.02 335.81 194.477 335.643 194.87C335.477 195.263 335.237 195.57 334.923 195.79C334.617 196.01 334.253 196.12 333.833 196.12ZM334.053 195.26C334.333 195.26 334.58 195.187 334.793 195.04C335.007 194.887 335.173 194.68 335.293 194.42C335.413 194.153 335.473 193.847 335.473 193.5C335.473 193.153 335.413 192.85 335.293 192.59C335.173 192.323 335.007 192.117 334.793 191.97C334.58 191.817 334.33 191.74 334.043 191.74C333.75 191.74 333.49 191.817 333.263 191.97C333.037 192.117 332.86 192.323 332.733 192.59C332.607 192.85 332.543 193.153 332.543 193.5C332.543 193.847 332.607 194.153 332.733 194.42C332.867 194.68 333.047 194.887 333.273 195.04C333.5 195.187 333.76 195.26 334.053 195.26ZM338.392 192.23C338.226 192.23 338.079 192.17 337.952 192.05C337.832 191.93 337.772 191.783 337.772 191.61C337.772 191.437 337.832 191.29 337.952 191.17C338.079 191.05 338.226 190.99 338.392 190.99C338.566 190.99 338.712 191.05 338.832 191.17C338.959 191.29 339.022 191.437 339.022 191.61C339.022 191.783 338.959 191.93 338.832 192.05C338.712 192.17 338.566 192.23 338.392 192.23ZM338.412 196.02C338.239 196.02 338.089 195.96 337.962 195.84C337.842 195.713 337.782 195.563 337.782 195.39C337.782 195.223 337.842 195.08 337.962 194.96C338.089 194.833 338.239 194.77 338.412 194.77C338.579 194.77 338.722 194.833 338.842 194.96C338.969 195.08 339.032 195.223 339.032 195.39C339.032 195.563 338.969 195.713 338.842 195.84C338.722 195.96 338.579 196.02 338.412 196.02ZM344.28 196V189.53L344.37 189H345.24V196H344.28ZM342.73 190.91V190.02C342.877 190.027 343.047 189.98 343.24 189.88C343.44 189.78 343.64 189.65 343.84 189.49C344.04 189.33 344.217 189.163 344.37 188.99L344.98 189.65C344.753 189.89 344.517 190.107 344.27 190.3C344.023 190.493 343.77 190.647 343.51 190.76C343.257 190.873 342.997 190.923 342.73 190.91ZM349.661 196V189H353.901V189.9H350.641V192.1H353.481V193H350.641V196H349.661ZM357.042 196.12C356.555 196.12 356.125 196.01 355.752 195.79C355.379 195.563 355.085 195.253 354.872 194.86C354.659 194.467 354.552 194.013 354.552 193.5C354.552 192.987 354.659 192.533 354.872 192.14C355.085 191.747 355.379 191.44 355.752 191.22C356.132 190.993 356.565 190.88 357.052 190.88C357.512 190.88 357.915 190.997 358.262 191.23C358.609 191.457 358.879 191.783 359.072 192.21C359.272 192.63 359.372 193.127 359.372 193.7H355.332L355.512 193.55C355.512 193.903 355.582 194.21 355.722 194.47C355.862 194.73 356.052 194.93 356.292 195.07C356.532 195.203 356.805 195.27 357.112 195.27C357.445 195.27 357.722 195.193 357.942 195.04C358.169 194.88 358.345 194.68 358.472 194.44L359.292 194.82C359.159 195.08 358.985 195.31 358.772 195.51C358.559 195.703 358.305 195.853 358.012 195.96C357.725 196.067 357.402 196.12 357.042 196.12ZM355.572 193.1L355.382 192.95H358.542L358.362 193.1C358.362 192.807 358.302 192.557 358.182 192.35C358.062 192.137 357.902 191.977 357.702 191.87C357.502 191.757 357.279 191.7 357.032 191.7C356.792 191.7 356.559 191.757 356.332 191.87C356.112 191.977 355.929 192.133 355.782 192.34C355.642 192.547 355.572 192.8 355.572 193.1ZM360.31 196V189H361.26V195.07L361.21 196H360.31ZM362.9 196.12C362.48 196.12 362.114 196.01 361.8 195.79C361.494 195.57 361.257 195.263 361.09 194.87C360.924 194.477 360.84 194.02 360.84 193.5C360.84 192.973 360.924 192.517 361.09 192.13C361.257 191.737 361.494 191.43 361.8 191.21C362.114 190.99 362.48 190.88 362.9 190.88C363.347 190.88 363.74 190.99 364.08 191.21C364.42 191.43 364.684 191.737 364.87 192.13C365.064 192.517 365.16 192.973 365.16 193.5C365.16 194.02 365.064 194.477 364.87 194.87C364.684 195.263 364.42 195.57 364.08 195.79C363.74 196.01 363.347 196.12 362.9 196.12ZM362.67 195.26C362.97 195.26 363.234 195.187 363.46 195.04C363.687 194.887 363.864 194.68 363.99 194.42C364.124 194.153 364.19 193.847 364.19 193.5C364.19 193.153 364.127 192.85 364 192.59C363.874 192.323 363.697 192.117 363.47 191.97C363.244 191.817 362.98 191.74 362.68 191.74C362.407 191.74 362.16 191.817 361.94 191.97C361.727 192.117 361.56 192.323 361.44 192.59C361.32 192.857 361.26 193.16 361.26 193.5C361.26 193.847 361.32 194.153 361.44 194.42C361.56 194.68 361.727 194.887 361.94 195.04C362.154 195.187 362.397 195.26 362.67 195.26ZM365.909 197.15L366.489 194.97H367.519L366.679 197.15H365.909ZM370.894 196V195.21C370.894 195.003 370.941 194.79 371.034 194.57C371.134 194.343 371.274 194.12 371.454 193.9C371.641 193.68 371.861 193.477 372.114 193.29L373.464 192.29C373.624 192.177 373.767 192.047 373.894 191.9C374.027 191.747 374.131 191.59 374.204 191.43C374.284 191.263 374.324 191.1 374.324 190.94C374.324 190.727 374.271 190.533 374.164 190.36C374.057 190.18 373.907 190.04 373.714 189.94C373.521 189.833 373.291 189.78 373.024 189.78C372.771 189.78 372.547 189.83 372.354 189.93C372.167 190.023 372.011 190.15 371.884 190.31C371.757 190.47 371.667 190.64 371.614 190.82L370.604 190.63C370.677 190.323 370.821 190.037 371.034 189.77C371.247 189.503 371.521 189.29 371.854 189.13C372.187 188.963 372.564 188.88 372.984 188.88C373.464 188.88 373.877 188.97 374.224 189.15C374.577 189.323 374.851 189.567 375.044 189.88C375.237 190.187 375.334 190.54 375.334 190.94C375.334 191.327 375.227 191.683 375.014 192.01C374.807 192.337 374.507 192.653 374.114 192.96L372.864 193.9C372.617 194.087 372.421 194.28 372.274 194.48C372.134 194.68 372.047 194.893 372.014 195.12H375.424V196H370.894ZM379.189 196.12C378.649 196.12 378.169 195.967 377.749 195.66C377.329 195.347 376.999 194.92 376.759 194.38C376.525 193.833 376.409 193.207 376.409 192.5C376.409 191.793 376.525 191.17 376.759 190.63C376.999 190.083 377.325 189.657 377.739 189.35C378.159 189.037 378.642 188.88 379.189 188.88C379.735 188.88 380.215 189.037 380.629 189.35C381.049 189.657 381.379 190.083 381.619 190.63C381.859 191.17 381.979 191.793 381.979 192.5C381.979 193.207 381.859 193.833 381.619 194.38C381.385 194.92 381.059 195.347 380.639 195.66C380.219 195.967 379.735 196.12 379.189 196.12ZM379.189 195.22C379.542 195.22 379.855 195.103 380.129 194.87C380.409 194.637 380.625 194.317 380.779 193.91C380.932 193.503 381.009 193.033 381.009 192.5C381.009 191.967 380.932 191.497 380.779 191.09C380.625 190.677 380.409 190.353 380.129 190.12C379.855 189.887 379.542 189.77 379.189 189.77C378.835 189.77 378.522 189.887 378.249 190.12C377.975 190.353 377.762 190.677 377.609 191.09C377.455 191.497 377.379 191.967 377.379 192.5C377.379 193.033 377.455 193.507 377.609 193.92C377.762 194.327 377.975 194.647 378.249 194.88C378.522 195.107 378.835 195.22 379.189 195.22ZM382.964 196V195.21C382.964 195.003 383.011 194.79 383.104 194.57C383.204 194.343 383.344 194.12 383.524 193.9C383.711 193.68 383.931 193.477 384.184 193.29L385.534 192.29C385.694 192.177 385.838 192.047 385.964 191.9C386.098 191.747 386.201 191.59 386.274 191.43C386.354 191.263 386.394 191.1 386.394 190.94C386.394 190.727 386.341 190.533 386.234 190.36C386.128 190.18 385.978 190.04 385.784 189.94C385.591 189.833 385.361 189.78 385.094 189.78C384.841 189.78 384.618 189.83 384.424 189.93C384.238 190.023 384.081 190.15 383.954 190.31C383.828 190.47 383.738 190.64 383.684 190.82L382.674 190.63C382.748 190.323 382.891 190.037 383.104 189.77C383.318 189.503 383.591 189.29 383.924 189.13C384.258 188.963 384.634 188.88 385.054 188.88C385.534 188.88 385.948 188.97 386.294 189.15C386.648 189.323 386.921 189.567 387.114 189.88C387.308 190.187 387.404 190.54 387.404 190.94C387.404 191.327 387.298 191.683 387.084 192.01C386.878 192.337 386.578 192.653 386.184 192.96L384.934 193.9C384.688 194.087 384.491 194.28 384.344 194.48C384.204 194.68 384.118 194.893 384.084 195.12H387.494V196H382.964ZM390.769 196.12C390.409 196.12 390.082 196.067 389.789 195.96C389.495 195.853 389.249 195.707 389.049 195.52C388.849 195.333 388.695 195.13 388.589 194.91L389.439 194.52C389.505 194.613 389.589 194.72 389.689 194.84C389.789 194.953 389.922 195.05 390.089 195.13C390.255 195.21 390.462 195.25 390.709 195.25C391.129 195.25 391.462 195.13 391.709 194.89C391.962 194.65 392.089 194.347 392.089 193.98C392.089 193.707 392.015 193.477 391.869 193.29C391.722 193.097 391.505 192.95 391.219 192.85C390.939 192.75 390.595 192.7 390.189 192.7H389.939V191.96H390.169C390.582 191.96 390.962 192.007 391.309 192.1C391.662 192.193 391.972 192.333 392.239 192.52C392.505 192.7 392.712 192.92 392.859 193.18C393.005 193.44 393.079 193.737 393.079 194.07C393.079 194.483 392.972 194.847 392.759 195.16C392.552 195.467 392.272 195.703 391.919 195.87C391.572 196.037 391.189 196.12 390.769 196.12ZM389.939 192.58V191.87H390.189C390.735 191.87 391.162 191.777 391.469 191.59C391.775 191.403 391.929 191.14 391.929 190.8C391.929 190.607 391.875 190.433 391.769 190.28C391.669 190.12 391.525 189.993 391.339 189.9C391.159 189.8 390.942 189.75 390.689 189.75C390.529 189.75 390.372 189.777 390.219 189.83C390.072 189.877 389.935 189.95 389.809 190.05C389.682 190.143 389.572 190.267 389.479 190.42L388.659 190.05C388.772 189.803 388.932 189.593 389.139 189.42C389.345 189.247 389.585 189.113 389.859 189.02C390.132 188.927 390.422 188.88 390.729 188.88C391.149 188.88 391.522 188.96 391.849 189.12C392.175 189.28 392.432 189.5 392.619 189.78C392.812 190.06 392.909 190.377 392.909 190.73C392.909 191.03 392.835 191.297 392.689 191.53C392.549 191.757 392.352 191.95 392.099 192.11C391.845 192.263 391.552 192.38 391.219 192.46C390.892 192.54 390.539 192.58 390.159 192.58H389.939Z" fill="#A4A4AD"/>
<rect opacity="0.1" x="464" y="109" width="47" height="22" rx="11" fill="#2BBEAF"/>
<path d="M477.068 124V115.6H478.244V122.92H482.144V124H477.068ZM483.157 124V118H484.297V124H483.157ZM483.733 116.728C483.549 116.728 483.389 116.66 483.253 116.524C483.117 116.38 483.049 116.216 483.049 116.032C483.049 115.84 483.117 115.68 483.253 115.552C483.389 115.416 483.549 115.348 483.733 115.348C483.925 115.348 484.085 115.416 484.213 115.552C484.349 115.68 484.417 115.84 484.417 116.032C484.417 116.216 484.349 116.38 484.213 116.524C484.085 116.66 483.925 116.728 483.733 116.728ZM487.852 124L490.252 118H491.44L488.932 124H487.852ZM487.78 124L485.284 118H486.448L488.848 124H487.78ZM494.831 124.144C494.247 124.144 493.731 124.012 493.283 123.748C492.835 123.476 492.483 123.104 492.227 122.632C491.971 122.16 491.843 121.616 491.843 121C491.843 120.384 491.971 119.84 492.227 119.368C492.483 118.896 492.835 118.528 493.283 118.264C493.739 117.992 494.259 117.856 494.843 117.856C495.395 117.856 495.879 117.996 496.295 118.276C496.711 118.548 497.035 118.94 497.267 119.452C497.507 119.956 497.627 120.552 497.627 121.24H492.779L492.995 121.06C492.995 121.484 493.079 121.852 493.247 122.164C493.415 122.476 493.643 122.716 493.931 122.884C494.219 123.044 494.547 123.124 494.915 123.124C495.315 123.124 495.647 123.032 495.911 122.848C496.183 122.656 496.395 122.416 496.547 122.128L497.531 122.584C497.371 122.896 497.163 123.172 496.907 123.412C496.651 123.644 496.347 123.824 495.995 123.952C495.651 124.08 495.263 124.144 494.831 124.144ZM493.067 120.52L492.839 120.34H496.631L496.415 120.52C496.415 120.168 496.343 119.868 496.199 119.62C496.055 119.364 495.863 119.172 495.623 119.044C495.383 118.908 495.115 118.84 494.819 118.84C494.531 118.84 494.251 118.908 493.979 119.044C493.715 119.172 493.495 119.36 493.319 119.608C493.151 119.856 493.067 120.16 493.067 120.52Z" fill="#2BBEAF"/>
<path d="M166.354 172.646C166.158 172.451 165.842 172.451 165.646 172.646L162.464 175.828C162.269 176.024 162.269 176.34 162.464 176.536C162.66 176.731 162.976 176.731 163.172 176.536L166 173.707L168.828 176.536C169.024 176.731 169.34 176.731 169.536 176.536C169.731 176.34 169.731 176.024 169.536 175.828L166.354 172.646ZM250 194.5H178V195.5H250V194.5ZM166.5 183V173H165.5V183H166.5ZM178 194.5C171.649 194.5 166.5 189.351 166.5 183H165.5C165.5 189.904 171.096 195.5 178 195.5V194.5Z" fill="#37373D"/>
<path d="M475.646 89.3536C475.842 89.5488 476.158 89.5488 476.354 89.3536L479.536 86.1716C479.731 85.9763 479.731 85.6597 479.536 85.4645C479.34 85.2692 479.024 85.2692 478.828 85.4645L476 88.2929L473.172 85.4645C472.976 85.2692 472.66 85.2692 472.464 85.4645C472.269 85.6597 472.269 85.9763 472.464 86.1716L475.646 89.3536ZM392 67.5L464 67.5L464 66.5L392 66.5L392 67.5ZM475.5 79L475.5 89L476.5 89L476.5 79L475.5 79ZM464 67.5C470.351 67.5 475.5 72.6487 475.5 79L476.5 79C476.5 72.0964 470.904 66.5 464 66.5L464 67.5Z" fill="#37373D"/>
<rect x="545" y="137.707" width="34" height="34" rx="7.5" transform="rotate(45 545 137.707)" fill="#1A1A1E" stroke="#37373D"/>
<path d="M550.042 156.958L539.958 167.042M541.792 160.625V156.958M539.958 158.792H543.625M546.375 165.208H550.042M541.15 170.25H548.85C550.39 170.25 551.16 170.25 551.748 169.95C552.266 169.687 552.687 169.266 552.95 168.748C553.25 168.16 553.25 167.39 553.25 165.85V158.15C553.25 156.61 553.25 155.84 552.95 155.252C552.687 154.734 552.266 154.313 551.748 154.05C551.16 153.75 550.39 153.75 548.85 153.75H541.15C539.61 153.75 538.84 153.75 538.252 154.05C537.734 154.313 537.313 154.734 537.05 155.252C536.75 155.84 536.75 156.61 536.75 158.15V165.85C536.75 167.39 536.75 168.16 537.05 168.748C537.313 169.266 537.734 169.687 538.252 169.95C538.84 170.25 539.61 170.25 541.15 170.25Z" stroke="#FCAC04" stroke-width="1.83333" stroke-linecap="round" stroke-linejoin="round"/>
</svg>
