<svg width="650" height="264" viewBox="0 0 650 264" fill="none" xmlns="http://www.w3.org/2000/svg">
<rect width="650" height="264" rx="16" fill="#1A1A1E"/>
<rect x="66.5" y="65.5" width="284" height="117" rx="8.5" fill="#1A1A1E" stroke="#37373D"/>
<path fill-rule="evenodd" clip-rule="evenodd" d="M323.875 85.5C323.875 84.8787 324.379 84.375 325 84.375C325.621 84.375 326.125 84.8787 326.125 85.5C326.125 86.1213 325.621 86.625 325 86.625C324.379 86.625 323.875 86.1213 323.875 85.5ZM323.875 90C323.875 89.3787 324.379 88.875 325 88.875C325.621 88.875 326.125 89.3787 326.125 90C326.125 90.6213 325.621 91.125 325 91.125C324.379 91.125 323.875 90.6213 323.875 90ZM323.875 94.5C323.875 93.8787 324.379 93.375 325 93.375C325.621 93.375 326.125 93.8787 326.125 94.5C326.125 95.1213 325.621 95.625 325 95.625C324.379 95.625 323.875 95.1213 323.875 94.5Z" fill="#A4A4AD"/>
<rect x="67.25" y="143.25" width="282.5" height="0.5" rx="0.25" fill="#1A1A1E" stroke="#37373D" stroke-width="0.5"/>
<rect opacity="0.4" x="83" y="79" width="47" height="22" rx="11" fill="#FCAC04"/>
<path d="M96.068 94V85.6H98.9C99.46 85.6 99.952 85.712 100.376 85.936C100.808 86.152 101.144 86.456 101.384 86.848C101.632 87.232 101.756 87.68 101.756 88.192C101.756 88.696 101.624 89.144 101.36 89.536C101.104 89.928 100.752 90.236 100.304 90.46C99.856 90.676 99.352 90.784 98.792 90.784H97.244V94H96.068ZM100.76 94L98.768 90.568L99.704 89.944L102.092 94H100.76ZM97.244 89.704H99.008C99.296 89.704 99.552 89.64 99.776 89.512C100.008 89.376 100.192 89.196 100.328 88.972C100.472 88.74 100.544 88.48 100.544 88.192C100.544 87.744 100.388 87.38 100.076 87.1C99.764 86.82 99.36 86.68 98.864 86.68H97.244V89.704ZM103.434 94V88H104.574V94H103.434ZM104.01 86.728C103.826 86.728 103.666 86.66 103.53 86.524C103.394 86.38 103.326 86.216 103.326 86.032C103.326 85.84 103.394 85.68 103.53 85.552C103.666 85.416 103.826 85.348 104.01 85.348C104.202 85.348 104.362 85.416 104.49 85.552C104.626 85.68 104.694 85.84 104.694 86.032C104.694 86.216 104.626 86.38 104.49 86.524C104.362 86.66 104.202 86.728 104.01 86.728ZM108.393 94.144C107.969 94.144 107.589 94.08 107.253 93.952C106.925 93.824 106.645 93.652 106.413 93.436C106.189 93.22 106.021 92.976 105.909 92.704L106.893 92.272C107.021 92.52 107.213 92.724 107.469 92.884C107.725 93.044 108.009 93.124 108.321 93.124C108.665 93.124 108.949 93.06 109.173 92.932C109.397 92.804 109.509 92.624 109.509 92.392C109.509 92.168 109.425 91.992 109.257 91.864C109.089 91.736 108.845 91.632 108.525 91.552L107.961 91.408C107.401 91.256 106.965 91.028 106.653 90.724C106.349 90.42 106.197 90.076 106.197 89.692C106.197 89.108 106.385 88.656 106.761 88.336C107.137 88.016 107.693 87.856 108.429 87.856C108.789 87.856 109.117 87.908 109.413 88.012C109.717 88.116 109.973 88.264 110.181 88.456C110.397 88.648 110.549 88.876 110.637 89.14L109.677 89.572C109.581 89.332 109.417 89.156 109.185 89.044C108.953 88.924 108.681 88.864 108.369 88.864C108.049 88.864 107.797 88.936 107.613 89.08C107.429 89.216 107.337 89.408 107.337 89.656C107.337 89.792 107.413 89.924 107.565 90.052C107.725 90.172 107.957 90.272 108.261 90.352L108.909 90.508C109.301 90.604 109.625 90.752 109.881 90.952C110.137 91.144 110.329 91.364 110.457 91.612C110.585 91.852 110.649 92.104 110.649 92.368C110.649 92.728 110.549 93.044 110.349 93.316C110.157 93.58 109.889 93.784 109.545 93.928C109.209 94.072 108.825 94.144 108.393 94.144ZM112.939 92.188L112.231 91.408L115.387 88H116.779L112.939 92.188ZM111.835 94V85.6H112.975V94H111.835ZM115.639 94L113.431 90.712L114.175 89.92L117.007 94H115.639Z" fill="white"/>
<path d="M90.698 126.168C89.7087 126.168 88.8267 125.953 88.052 125.524C87.2867 125.085 86.6847 124.488 86.246 123.732C85.8167 122.967 85.602 122.094 85.602 121.114C85.602 120.115 85.8167 119.238 86.246 118.482C86.6847 117.717 87.2867 117.119 88.052 116.69C88.8267 116.251 89.7087 116.032 90.698 116.032C91.2393 116.032 91.7573 116.121 92.252 116.298C92.756 116.466 93.2087 116.704 93.61 117.012C94.0207 117.311 94.352 117.656 94.604 118.048L93.498 118.776C93.3113 118.487 93.0687 118.23 92.77 118.006C92.4713 117.782 92.14 117.609 91.776 117.488C91.4213 117.357 91.062 117.292 90.698 117.292C89.9793 117.292 89.34 117.455 88.78 117.782C88.2293 118.109 87.7953 118.557 87.478 119.126C87.1607 119.695 87.002 120.358 87.002 121.114C87.002 121.851 87.156 122.505 87.464 123.074C87.7813 123.643 88.22 124.091 88.78 124.418C89.3493 124.745 89.998 124.908 90.726 124.908C91.314 124.908 91.8367 124.787 92.294 124.544C92.7607 124.301 93.1247 123.961 93.386 123.522C93.6567 123.083 93.792 122.575 93.792 121.996L95.122 121.87C95.122 122.738 94.9307 123.494 94.548 124.138C94.1747 124.782 93.6567 125.281 92.994 125.636C92.3313 125.991 91.566 126.168 90.698 126.168ZM91.412 122.08V120.932H95.122V121.94L94.422 122.08H91.412ZM96.506 126V116.2H97.836V126H96.506ZM102.842 126.168C102.142 126.168 101.526 126.014 100.994 125.706C100.462 125.389 100.042 124.955 99.7339 124.404C99.4352 123.853 99.2859 123.219 99.2859 122.5C99.2859 121.781 99.4352 121.147 99.7339 120.596C100.033 120.045 100.448 119.616 100.98 119.308C101.512 118.991 102.123 118.832 102.814 118.832C103.505 118.832 104.116 118.991 104.648 119.308C105.18 119.616 105.595 120.045 105.894 120.596C106.193 121.147 106.342 121.781 106.342 122.5C106.342 123.219 106.193 123.853 105.894 124.404C105.595 124.955 105.18 125.389 104.648 125.706C104.125 126.014 103.523 126.168 102.842 126.168ZM102.842 124.95C103.262 124.95 103.635 124.847 103.962 124.642C104.289 124.427 104.541 124.138 104.718 123.774C104.905 123.41 104.998 122.985 104.998 122.5C104.998 122.015 104.905 121.59 104.718 121.226C104.541 120.862 104.284 120.577 103.948 120.372C103.612 120.157 103.234 120.05 102.814 120.05C102.385 120.05 102.007 120.157 101.68 120.372C101.353 120.577 101.097 120.862 100.91 121.226C100.723 121.59 100.63 122.015 100.63 122.5C100.63 122.985 100.723 123.41 100.91 123.774C101.097 124.138 101.358 124.427 101.694 124.642C102.03 124.847 102.413 124.95 102.842 124.95ZM107.799 126V116.2H109.129V124.698L109.059 126H107.799ZM111.425 126.168C110.837 126.168 110.324 126.014 109.885 125.706C109.456 125.398 109.124 124.969 108.891 124.418C108.658 123.867 108.541 123.228 108.541 122.5C108.541 121.763 108.658 121.123 108.891 120.582C109.124 120.031 109.456 119.602 109.885 119.294C110.324 118.986 110.837 118.832 111.425 118.832C112.05 118.832 112.601 118.986 113.077 119.294C113.553 119.602 113.922 120.031 114.183 120.582C114.454 121.123 114.589 121.763 114.589 122.5C114.589 123.228 114.454 123.867 114.183 124.418C113.922 124.969 113.553 125.398 113.077 125.706C112.601 126.014 112.05 126.168 111.425 126.168ZM111.103 124.964C111.523 124.964 111.892 124.861 112.209 124.656C112.526 124.441 112.774 124.152 112.951 123.788C113.138 123.415 113.231 122.985 113.231 122.5C113.231 122.015 113.142 121.59 112.965 121.226C112.788 120.853 112.54 120.563 112.223 120.358C111.906 120.143 111.537 120.036 111.117 120.036C110.734 120.036 110.389 120.143 110.081 120.358C109.782 120.563 109.549 120.853 109.381 121.226C109.213 121.599 109.129 122.024 109.129 122.5C109.129 122.985 109.213 123.415 109.381 123.788C109.549 124.152 109.782 124.441 110.081 124.656C110.38 124.861 110.72 124.964 111.103 124.964ZM120.341 126L120.285 124.782V122.346C120.285 121.833 120.224 121.403 120.103 121.058C119.991 120.713 119.814 120.451 119.571 120.274C119.338 120.097 119.025 120.008 118.633 120.008C118.269 120.008 117.952 120.083 117.681 120.232C117.42 120.381 117.2 120.615 117.023 120.932L115.847 120.484C116.015 120.167 116.225 119.887 116.477 119.644C116.729 119.392 117.032 119.196 117.387 119.056C117.742 118.907 118.157 118.832 118.633 118.832C119.296 118.832 119.846 118.963 120.285 119.224C120.724 119.485 121.05 119.863 121.265 120.358C121.489 120.853 121.596 121.464 121.587 122.192L121.573 126H120.341ZM118.283 126.168C117.452 126.168 116.804 125.981 116.337 125.608C115.88 125.225 115.651 124.698 115.651 124.026C115.651 123.307 115.889 122.761 116.365 122.388C116.85 122.005 117.522 121.814 118.381 121.814H120.327V122.864H118.745C118.101 122.864 117.648 122.967 117.387 123.172C117.126 123.368 116.995 123.643 116.995 123.998C116.995 124.325 117.116 124.581 117.359 124.768C117.611 124.945 117.956 125.034 118.395 125.034C118.778 125.034 119.109 124.955 119.389 124.796C119.669 124.628 119.888 124.395 120.047 124.096C120.206 123.797 120.285 123.457 120.285 123.074H120.747C120.747 124.026 120.542 124.782 120.131 125.342C119.73 125.893 119.114 126.168 118.283 126.168ZM123.262 126V116.2H124.592V126H123.262ZM130.664 122.234C130.664 121.478 130.808 120.862 131.098 120.386C131.387 119.91 131.76 119.555 132.218 119.322C132.675 119.089 133.156 118.972 133.66 118.972V120.232C133.24 120.232 132.838 120.297 132.456 120.428C132.082 120.549 131.774 120.755 131.532 121.044C131.298 121.324 131.182 121.707 131.182 122.192L130.664 122.234ZM129.852 126V119H131.182V126H129.852ZM134.817 126V119H136.147V126H134.817ZM135.489 117.516C135.274 117.516 135.087 117.437 134.929 117.278C134.77 117.11 134.691 116.919 134.691 116.704C134.691 116.48 134.77 116.293 134.929 116.144C135.087 115.985 135.274 115.906 135.489 115.906C135.713 115.906 135.899 115.985 136.049 116.144C136.207 116.293 136.287 116.48 136.287 116.704C136.287 116.919 136.207 117.11 136.049 117.278C135.899 117.437 135.713 117.516 135.489 117.516ZM140.602 126.168C140.107 126.168 139.664 126.093 139.272 125.944C138.889 125.795 138.563 125.594 138.292 125.342C138.031 125.09 137.835 124.805 137.704 124.488L138.852 123.984C139.001 124.273 139.225 124.511 139.524 124.698C139.823 124.885 140.154 124.978 140.518 124.978C140.919 124.978 141.251 124.903 141.512 124.754C141.773 124.605 141.904 124.395 141.904 124.124C141.904 123.863 141.806 123.657 141.61 123.508C141.414 123.359 141.129 123.237 140.756 123.144L140.098 122.976C139.445 122.799 138.936 122.533 138.572 122.178C138.217 121.823 138.04 121.422 138.04 120.974C138.04 120.293 138.259 119.765 138.698 119.392C139.137 119.019 139.785 118.832 140.644 118.832C141.064 118.832 141.447 118.893 141.792 119.014C142.147 119.135 142.445 119.308 142.688 119.532C142.94 119.756 143.117 120.022 143.22 120.33L142.1 120.834C141.988 120.554 141.797 120.349 141.526 120.218C141.255 120.078 140.938 120.008 140.574 120.008C140.201 120.008 139.907 120.092 139.692 120.26C139.477 120.419 139.37 120.643 139.37 120.932C139.37 121.091 139.459 121.245 139.636 121.394C139.823 121.534 140.093 121.651 140.448 121.744L141.204 121.926C141.661 122.038 142.039 122.211 142.338 122.444C142.637 122.668 142.861 122.925 143.01 123.214C143.159 123.494 143.234 123.788 143.234 124.096C143.234 124.516 143.117 124.885 142.884 125.202C142.66 125.51 142.347 125.748 141.946 125.916C141.554 126.084 141.106 126.168 140.602 126.168ZM145.905 123.886L145.079 122.976L148.761 119H150.385L145.905 123.886ZM144.617 126V116.2H145.947V126H144.617ZM149.055 126L146.479 122.164L147.347 121.24L150.651 126H149.055ZM159.333 126L159.277 124.782V122.346C159.277 121.833 159.217 121.403 159.095 121.058C158.983 120.713 158.806 120.451 158.563 120.274C158.33 120.097 158.017 120.008 157.625 120.008C157.261 120.008 156.944 120.083 156.673 120.232C156.412 120.381 156.193 120.615 156.015 120.932L154.839 120.484C155.007 120.167 155.217 119.887 155.469 119.644C155.721 119.392 156.025 119.196 156.379 119.056C156.734 118.907 157.149 118.832 157.625 118.832C158.288 118.832 158.839 118.963 159.277 119.224C159.716 119.485 160.043 119.863 160.257 120.358C160.481 120.853 160.589 121.464 160.579 122.192L160.565 126H159.333ZM157.275 126.168C156.445 126.168 155.796 125.981 155.329 125.608C154.872 125.225 154.643 124.698 154.643 124.026C154.643 123.307 154.881 122.761 155.357 122.388C155.843 122.005 156.515 121.814 157.373 121.814H159.319V122.864H157.737C157.093 122.864 156.641 122.967 156.379 123.172C156.118 123.368 155.987 123.643 155.987 123.998C155.987 124.325 156.109 124.581 156.351 124.768C156.603 124.945 156.949 125.034 157.387 125.034C157.77 125.034 158.101 124.955 158.381 124.796C158.661 124.628 158.881 124.395 159.039 124.096C159.198 123.797 159.277 123.457 159.277 123.074H159.739C159.739 124.026 159.534 124.782 159.123 125.342C158.722 125.893 158.106 126.168 157.275 126.168ZM164.76 126.168C164.265 126.168 163.822 126.093 163.43 125.944C163.047 125.795 162.721 125.594 162.45 125.342C162.189 125.09 161.993 124.805 161.862 124.488L163.01 123.984C163.159 124.273 163.383 124.511 163.682 124.698C163.981 124.885 164.312 124.978 164.676 124.978C165.077 124.978 165.409 124.903 165.67 124.754C165.931 124.605 166.062 124.395 166.062 124.124C166.062 123.863 165.964 123.657 165.768 123.508C165.572 123.359 165.287 123.237 164.914 123.144L164.256 122.976C163.603 122.799 163.094 122.533 162.73 122.178C162.375 121.823 162.198 121.422 162.198 120.974C162.198 120.293 162.417 119.765 162.856 119.392C163.295 119.019 163.943 118.832 164.802 118.832C165.222 118.832 165.605 118.893 165.95 119.014C166.305 119.135 166.603 119.308 166.846 119.532C167.098 119.756 167.275 120.022 167.378 120.33L166.258 120.834C166.146 120.554 165.955 120.349 165.684 120.218C165.413 120.078 165.096 120.008 164.732 120.008C164.359 120.008 164.065 120.092 163.85 120.26C163.635 120.419 163.528 120.643 163.528 120.932C163.528 121.091 163.617 121.245 163.794 121.394C163.981 121.534 164.251 121.651 164.606 121.744L165.362 121.926C165.819 122.038 166.197 122.211 166.496 122.444C166.795 122.668 167.019 122.925 167.168 123.214C167.317 123.494 167.392 123.788 167.392 124.096C167.392 124.516 167.275 124.885 167.042 125.202C166.818 125.51 166.505 125.748 166.104 125.916C165.712 126.084 165.264 126.168 164.76 126.168ZM171.268 126.168C170.773 126.168 170.33 126.093 169.938 125.944C169.555 125.795 169.229 125.594 168.958 125.342C168.697 125.09 168.501 124.805 168.37 124.488L169.518 123.984C169.667 124.273 169.891 124.511 170.19 124.698C170.489 124.885 170.82 124.978 171.184 124.978C171.585 124.978 171.917 124.903 172.178 124.754C172.439 124.605 172.57 124.395 172.57 124.124C172.57 123.863 172.472 123.657 172.276 123.508C172.08 123.359 171.795 123.237 171.422 123.144L170.764 122.976C170.111 122.799 169.602 122.533 169.238 122.178C168.883 121.823 168.706 121.422 168.706 120.974C168.706 120.293 168.925 119.765 169.364 119.392C169.803 119.019 170.451 118.832 171.31 118.832C171.73 118.832 172.113 118.893 172.458 119.014C172.813 119.135 173.111 119.308 173.354 119.532C173.606 119.756 173.783 120.022 173.886 120.33L172.766 120.834C172.654 120.554 172.463 120.349 172.192 120.218C171.921 120.078 171.604 120.008 171.24 120.008C170.867 120.008 170.573 120.092 170.358 120.26C170.143 120.419 170.036 120.643 170.036 120.932C170.036 121.091 170.125 121.245 170.302 121.394C170.489 121.534 170.759 121.651 171.114 121.744L171.87 121.926C172.327 122.038 172.705 122.211 173.004 122.444C173.303 122.668 173.527 122.925 173.676 123.214C173.825 123.494 173.9 123.788 173.9 124.096C173.9 124.516 173.783 124.885 173.55 125.202C173.326 125.51 173.013 125.748 172.612 125.916C172.22 126.084 171.772 126.168 171.268 126.168ZM178.377 126.168C177.696 126.168 177.094 126.014 176.571 125.706C176.049 125.389 175.638 124.955 175.339 124.404C175.041 123.853 174.891 123.219 174.891 122.5C174.891 121.781 175.041 121.147 175.339 120.596C175.638 120.045 176.049 119.616 176.571 119.308C177.103 118.991 177.71 118.832 178.391 118.832C179.035 118.832 179.6 118.995 180.085 119.322C180.571 119.639 180.949 120.097 181.219 120.694C181.499 121.282 181.639 121.977 181.639 122.78H175.983L176.235 122.57C176.235 123.065 176.333 123.494 176.529 123.858C176.725 124.222 176.991 124.502 177.327 124.698C177.663 124.885 178.046 124.978 178.475 124.978C178.942 124.978 179.329 124.871 179.637 124.656C179.955 124.432 180.202 124.152 180.379 123.816L181.527 124.348C181.341 124.712 181.098 125.034 180.799 125.314C180.501 125.585 180.146 125.795 179.735 125.944C179.334 126.093 178.881 126.168 178.377 126.168ZM176.319 121.94L176.053 121.73H180.477L180.225 121.94C180.225 121.529 180.141 121.179 179.973 120.89C179.805 120.591 179.581 120.367 179.301 120.218C179.021 120.059 178.709 119.98 178.363 119.98C178.027 119.98 177.701 120.059 177.383 120.218C177.075 120.367 176.819 120.587 176.613 120.876C176.417 121.165 176.319 121.52 176.319 121.94ZM185.459 126.168C184.965 126.168 184.521 126.093 184.129 125.944C183.747 125.795 183.42 125.594 183.149 125.342C182.888 125.09 182.692 124.805 182.561 124.488L183.709 123.984C183.859 124.273 184.083 124.511 184.381 124.698C184.68 124.885 185.011 124.978 185.375 124.978C185.777 124.978 186.108 124.903 186.369 124.754C186.631 124.605 186.761 124.395 186.761 124.124C186.761 123.863 186.663 123.657 186.467 123.508C186.271 123.359 185.987 123.237 185.613 123.144L184.955 122.976C184.302 122.799 183.793 122.533 183.429 122.178C183.075 121.823 182.897 121.422 182.897 120.974C182.897 120.293 183.117 119.765 183.555 119.392C183.994 119.019 184.643 118.832 185.501 118.832C185.921 118.832 186.304 118.893 186.649 119.014C187.004 119.135 187.303 119.308 187.545 119.532C187.797 119.756 187.975 120.022 188.077 120.33L186.957 120.834C186.845 120.554 186.654 120.349 186.383 120.218C186.113 120.078 185.795 120.008 185.431 120.008C185.058 120.008 184.764 120.092 184.549 120.26C184.335 120.419 184.227 120.643 184.227 120.932C184.227 121.091 184.316 121.245 184.493 121.394C184.68 121.534 184.951 121.651 185.305 121.744L186.061 121.926C186.519 122.038 186.897 122.211 187.195 122.444C187.494 122.668 187.718 122.925 187.867 123.214C188.017 123.494 188.091 123.788 188.091 124.096C188.091 124.516 187.975 124.885 187.741 125.202C187.517 125.51 187.205 125.748 186.803 125.916C186.411 126.084 185.963 126.168 185.459 126.168ZM191.967 126.168C191.472 126.168 191.029 126.093 190.637 125.944C190.254 125.795 189.928 125.594 189.657 125.342C189.396 125.09 189.2 124.805 189.069 124.488L190.217 123.984C190.366 124.273 190.59 124.511 190.889 124.698C191.188 124.885 191.519 124.978 191.883 124.978C192.284 124.978 192.616 124.903 192.877 124.754C193.138 124.605 193.269 124.395 193.269 124.124C193.269 123.863 193.171 123.657 192.975 123.508C192.779 123.359 192.494 123.237 192.121 123.144L191.463 122.976C190.81 122.799 190.301 122.533 189.937 122.178C189.582 121.823 189.405 121.422 189.405 120.974C189.405 120.293 189.624 119.765 190.063 119.392C190.502 119.019 191.15 118.832 192.009 118.832C192.429 118.832 192.812 118.893 193.157 119.014C193.512 119.135 193.81 119.308 194.053 119.532C194.305 119.756 194.482 120.022 194.585 120.33L193.465 120.834C193.353 120.554 193.162 120.349 192.891 120.218C192.62 120.078 192.303 120.008 191.939 120.008C191.566 120.008 191.272 120.092 191.057 120.26C190.842 120.419 190.735 120.643 190.735 120.932C190.735 121.091 190.824 121.245 191.001 121.394C191.188 121.534 191.458 121.651 191.813 121.744L192.569 121.926C193.026 122.038 193.404 122.211 193.703 122.444C194.002 122.668 194.226 122.925 194.375 123.214C194.524 123.494 194.599 123.788 194.599 124.096C194.599 124.516 194.482 124.885 194.249 125.202C194.025 125.51 193.712 125.748 193.311 125.916C192.919 126.084 192.471 126.168 191.967 126.168ZM195.983 126V119H197.229L197.285 119.966C197.509 119.593 197.789 119.313 198.125 119.126C198.461 118.93 198.848 118.832 199.287 118.832C199.847 118.832 200.323 118.963 200.715 119.224C201.107 119.476 201.391 119.863 201.569 120.386C201.774 119.882 202.063 119.499 202.437 119.238C202.81 118.967 203.253 118.832 203.767 118.832C204.56 118.832 205.181 119.093 205.629 119.616C206.077 120.129 206.296 120.923 206.287 121.996V126H204.971V122.416C204.971 121.781 204.901 121.301 204.761 120.974C204.63 120.638 204.453 120.405 204.229 120.274C204.005 120.143 203.743 120.073 203.445 120.064C202.922 120.064 202.516 120.265 202.227 120.666C201.947 121.067 201.807 121.632 201.807 122.36V126H200.477V122.416C200.477 121.781 200.411 121.301 200.281 120.974C200.15 120.638 199.968 120.405 199.735 120.274C199.511 120.143 199.249 120.073 198.951 120.064C198.428 120.064 198.022 120.265 197.733 120.666C197.453 121.067 197.313 121.632 197.313 122.36V126H195.983ZM211.081 126.168C210.399 126.168 209.797 126.014 209.275 125.706C208.752 125.389 208.341 124.955 208.043 124.404C207.744 123.853 207.595 123.219 207.595 122.5C207.595 121.781 207.744 121.147 208.043 120.596C208.341 120.045 208.752 119.616 209.275 119.308C209.807 118.991 210.413 118.832 211.095 118.832C211.739 118.832 212.303 118.995 212.789 119.322C213.274 119.639 213.652 120.097 213.923 120.694C214.203 121.282 214.343 121.977 214.343 122.78H208.687L208.939 122.57C208.939 123.065 209.037 123.494 209.233 123.858C209.429 124.222 209.695 124.502 210.031 124.698C210.367 124.885 210.749 124.978 211.178 124.978C211.645 124.978 212.033 124.871 212.341 124.656C212.658 124.432 212.905 124.152 213.083 123.816L214.231 124.348C214.044 124.712 213.801 125.034 213.503 125.314C213.204 125.585 212.849 125.795 212.439 125.944C212.037 126.093 211.585 126.168 211.081 126.168ZM209.023 121.94L208.757 121.73H213.181L212.929 121.94C212.929 121.529 212.845 121.179 212.677 120.89C212.509 120.591 212.285 120.367 212.005 120.218C211.725 120.059 211.412 119.98 211.067 119.98C210.731 119.98 210.404 120.059 210.087 120.218C209.779 120.367 209.522 120.587 209.317 120.876C209.121 121.165 209.023 121.52 209.023 121.94ZM215.656 126V119H216.902L216.986 120.288V126H215.656ZM220.5 126V122.416H221.83V126H220.5ZM220.5 122.416C220.5 121.781 220.426 121.301 220.276 120.974C220.136 120.638 219.936 120.405 219.674 120.274C219.422 120.143 219.128 120.073 218.792 120.064C218.223 120.064 217.78 120.265 217.462 120.666C217.145 121.067 216.986 121.632 216.986 122.36H216.412C216.412 121.623 216.52 120.993 216.734 120.47C216.958 119.938 217.271 119.532 217.672 119.252C218.083 118.972 218.568 118.832 219.128 118.832C219.679 118.832 220.155 118.944 220.556 119.168C220.967 119.392 221.28 119.742 221.494 120.218C221.718 120.685 221.83 121.301 221.83 122.066V122.416H220.5ZM226.206 126.168C225.506 126.168 224.965 125.991 224.582 125.636C224.199 125.272 224.008 124.754 224.008 124.082V116.816H225.338V123.886C225.338 124.231 225.422 124.497 225.59 124.684C225.767 124.861 226.019 124.95 226.346 124.95C226.439 124.95 226.542 124.931 226.654 124.894C226.766 124.857 226.901 124.782 227.06 124.67L227.564 125.706C227.321 125.865 227.088 125.981 226.864 126.056C226.649 126.131 226.43 126.168 226.206 126.168ZM222.818 120.148V119H227.326V120.148H222.818Z" fill="white"/>
<path d="M83.89 166V159H84.87V165.1H88.12V166H83.89ZM91.9741 166L91.9341 165.13V163.39C91.9341 163.023 91.8908 162.717 91.8041 162.47C91.7241 162.223 91.5975 162.037 91.4241 161.91C91.2575 161.783 91.0341 161.72 90.7541 161.72C90.4941 161.72 90.2675 161.773 90.0741 161.88C89.8875 161.987 89.7308 162.153 89.6041 162.38L88.7641 162.06C88.8841 161.833 89.0341 161.633 89.2141 161.46C89.3941 161.28 89.6108 161.14 89.8641 161.04C90.1175 160.933 90.4141 160.88 90.7541 160.88C91.2275 160.88 91.6208 160.973 91.9341 161.16C92.2475 161.347 92.4808 161.617 92.6341 161.97C92.7941 162.323 92.8708 162.76 92.8641 163.28L92.8541 166H91.9741ZM90.5041 166.12C89.9108 166.12 89.4475 165.987 89.1141 165.72C88.7875 165.447 88.6241 165.07 88.6241 164.59C88.6241 164.077 88.7941 163.687 89.1341 163.42C89.4808 163.147 89.9608 163.01 90.5741 163.01H91.9641V163.76H90.8341C90.3741 163.76 90.0508 163.833 89.8641 163.98C89.6775 164.12 89.5841 164.317 89.5841 164.57C89.5841 164.803 89.6708 164.987 89.8441 165.12C90.0241 165.247 90.2708 165.31 90.5841 165.31C90.8575 165.31 91.0941 165.253 91.2941 165.14C91.4941 165.02 91.6508 164.853 91.7641 164.64C91.8775 164.427 91.9341 164.183 91.9341 163.91H92.2641C92.2641 164.59 92.1175 165.13 91.8241 165.53C91.5375 165.923 91.0975 166.12 90.5041 166.12ZM95.8504 166.12C95.4971 166.12 95.1804 166.067 94.9004 165.96C94.6271 165.853 94.3937 165.71 94.2004 165.53C94.0137 165.35 93.8737 165.147 93.7804 164.92L94.6004 164.56C94.7071 164.767 94.8671 164.937 95.0804 165.07C95.2937 165.203 95.5304 165.27 95.7904 165.27C96.0771 165.27 96.3137 165.217 96.5004 165.11C96.6871 165.003 96.7804 164.853 96.7804 164.66C96.7804 164.473 96.7104 164.327 96.5704 164.22C96.4304 164.113 96.2271 164.027 95.9604 163.96L95.4904 163.84C95.0237 163.713 94.6604 163.523 94.4004 163.27C94.1471 163.017 94.0204 162.73 94.0204 162.41C94.0204 161.923 94.1771 161.547 94.4904 161.28C94.8037 161.013 95.2671 160.88 95.8804 160.88C96.1804 160.88 96.4537 160.923 96.7004 161.01C96.9537 161.097 97.1671 161.22 97.3404 161.38C97.5204 161.54 97.6471 161.73 97.7204 161.95L96.9204 162.31C96.8404 162.11 96.7037 161.963 96.5104 161.87C96.3171 161.77 96.0904 161.72 95.8304 161.72C95.5637 161.72 95.3537 161.78 95.2004 161.9C95.0471 162.013 94.9704 162.173 94.9704 162.38C94.9704 162.493 95.0337 162.603 95.1604 162.71C95.2937 162.81 95.4871 162.893 95.7404 162.96L96.2804 163.09C96.6071 163.17 96.8771 163.293 97.0904 163.46C97.3037 163.62 97.4637 163.803 97.5704 164.01C97.6771 164.21 97.7304 164.42 97.7304 164.64C97.7304 164.94 97.6471 165.203 97.4804 165.43C97.3204 165.65 97.0971 165.82 96.8104 165.94C96.5304 166.06 96.2104 166.12 95.8504 166.12ZM100.649 166.12C100.149 166.12 99.7619 165.993 99.4886 165.74C99.2153 165.48 99.0786 165.11 99.0786 164.63V159.44H100.029V164.49C100.029 164.737 100.089 164.927 100.209 165.06C100.335 165.187 100.515 165.25 100.749 165.25C100.815 165.25 100.889 165.237 100.969 165.21C101.049 165.183 101.145 165.13 101.259 165.05L101.619 165.79C101.445 165.903 101.279 165.987 101.119 166.04C100.965 166.093 100.809 166.12 100.649 166.12ZM98.2286 161.82V161H101.449V161.82H98.2286ZM108.398 166L108.338 165.08V161H109.278V166H108.398ZM104.878 163.56V161H105.828V163.56H104.878ZM105.828 163.56C105.828 164.007 105.878 164.35 105.978 164.59C106.085 164.83 106.231 164.997 106.418 165.09C106.605 165.183 106.815 165.233 107.048 165.24C107.455 165.24 107.771 165.097 107.998 164.81C108.225 164.523 108.338 164.12 108.338 163.6H108.748C108.748 164.127 108.668 164.58 108.508 164.96C108.355 165.333 108.135 165.62 107.848 165.82C107.561 166.02 107.211 166.12 106.798 166.12C106.411 166.12 106.071 166.04 105.778 165.88C105.491 165.72 105.268 165.47 105.108 165.13C104.955 164.79 104.878 164.35 104.878 163.81V163.56H105.828ZM110.653 168V161H111.543L111.603 161.92V168H110.653ZM113.243 166.12C112.823 166.12 112.457 166.01 112.143 165.79C111.837 165.57 111.6 165.263 111.433 164.87C111.267 164.477 111.183 164.02 111.183 163.5C111.183 162.973 111.267 162.517 111.433 162.13C111.6 161.737 111.837 161.43 112.143 161.21C112.457 160.99 112.823 160.88 113.243 160.88C113.69 160.88 114.083 160.99 114.423 161.21C114.763 161.43 115.027 161.737 115.213 162.13C115.407 162.517 115.503 162.973 115.503 163.5C115.503 164.02 115.407 164.477 115.213 164.87C115.027 165.263 114.763 165.57 114.423 165.79C114.083 166.01 113.69 166.12 113.243 166.12ZM113.013 165.26C113.313 165.26 113.577 165.187 113.803 165.04C114.03 164.887 114.207 164.68 114.333 164.42C114.467 164.153 114.533 163.847 114.533 163.5C114.533 163.153 114.47 162.85 114.343 162.59C114.217 162.323 114.04 162.117 113.813 161.97C113.587 161.817 113.323 161.74 113.023 161.74C112.75 161.74 112.503 161.817 112.283 161.97C112.07 162.117 111.903 162.323 111.783 162.59C111.663 162.857 111.603 163.16 111.603 163.5C111.603 163.847 111.663 164.153 111.783 164.42C111.903 164.68 112.07 164.887 112.283 165.04C112.497 165.187 112.74 165.26 113.013 165.26ZM120.201 166L120.161 165.07V159H121.101V166H120.201ZM118.521 166.12C118.068 166.12 117.671 166.01 117.331 165.79C116.998 165.57 116.734 165.263 116.541 164.87C116.354 164.477 116.261 164.02 116.261 163.5C116.261 162.973 116.354 162.517 116.541 162.13C116.734 161.737 116.998 161.43 117.331 161.21C117.671 160.99 118.068 160.88 118.521 160.88C118.941 160.88 119.304 160.99 119.611 161.21C119.924 161.43 120.164 161.737 120.331 162.13C120.498 162.517 120.581 162.973 120.581 163.5C120.581 164.02 120.498 164.477 120.331 164.87C120.164 165.263 119.924 165.57 119.611 165.79C119.304 166.01 118.941 166.12 118.521 166.12ZM118.741 165.26C119.021 165.26 119.268 165.187 119.481 165.04C119.694 164.887 119.861 164.68 119.981 164.42C120.101 164.153 120.161 163.847 120.161 163.5C120.161 163.153 120.101 162.85 119.981 162.59C119.861 162.323 119.694 162.117 119.481 161.97C119.268 161.817 119.018 161.74 118.731 161.74C118.438 161.74 118.178 161.817 117.951 161.97C117.724 162.117 117.548 162.323 117.421 162.59C117.294 162.85 117.231 163.153 117.231 163.5C117.231 163.847 117.294 164.153 117.421 164.42C117.554 164.68 117.734 164.887 117.961 165.04C118.188 165.187 118.448 165.26 118.741 165.26ZM125.49 166L125.45 165.13V163.39C125.45 163.023 125.406 162.717 125.32 162.47C125.24 162.223 125.113 162.037 124.94 161.91C124.773 161.783 124.55 161.72 124.27 161.72C124.01 161.72 123.783 161.773 123.59 161.88C123.403 161.987 123.246 162.153 123.12 162.38L122.28 162.06C122.4 161.833 122.55 161.633 122.73 161.46C122.91 161.28 123.126 161.14 123.38 161.04C123.633 160.933 123.93 160.88 124.27 160.88C124.743 160.88 125.136 160.973 125.45 161.16C125.763 161.347 125.996 161.617 126.15 161.97C126.31 162.323 126.386 162.76 126.38 163.28L126.37 166H125.49ZM124.02 166.12C123.426 166.12 122.963 165.987 122.63 165.72C122.303 165.447 122.14 165.07 122.14 164.59C122.14 164.077 122.31 163.687 122.65 163.42C122.996 163.147 123.476 163.01 124.09 163.01H125.48V163.76H124.35C123.89 163.76 123.566 163.833 123.38 163.98C123.193 164.12 123.1 164.317 123.1 164.57C123.1 164.803 123.186 164.987 123.36 165.12C123.54 165.247 123.786 165.31 124.1 165.31C124.373 165.31 124.61 165.253 124.81 165.14C125.01 165.02 125.166 164.853 125.28 164.64C125.393 164.427 125.45 164.183 125.45 163.91H125.78C125.78 164.59 125.633 165.13 125.34 165.53C125.053 165.923 124.613 166.12 124.02 166.12ZM129.506 166.12C129.006 166.12 128.619 165.993 128.346 165.74C128.073 165.48 127.936 165.11 127.936 164.63V159.44H128.886V164.49C128.886 164.737 128.946 164.927 129.066 165.06C129.193 165.187 129.373 165.25 129.606 165.25C129.673 165.25 129.746 165.237 129.826 165.21C129.906 165.183 130.003 165.13 130.116 165.05L130.476 165.79C130.303 165.903 130.136 165.987 129.976 166.04C129.823 166.093 129.666 166.12 129.506 166.12ZM127.086 161.82V161H130.306V161.82H127.086ZM133.585 166.12C133.098 166.12 132.668 166.01 132.295 165.79C131.922 165.563 131.628 165.253 131.415 164.86C131.202 164.467 131.095 164.013 131.095 163.5C131.095 162.987 131.202 162.533 131.415 162.14C131.628 161.747 131.922 161.44 132.295 161.22C132.675 160.993 133.108 160.88 133.595 160.88C134.055 160.88 134.458 160.997 134.805 161.23C135.152 161.457 135.422 161.783 135.615 162.21C135.815 162.63 135.915 163.127 135.915 163.7H131.875L132.055 163.55C132.055 163.903 132.125 164.21 132.265 164.47C132.405 164.73 132.595 164.93 132.835 165.07C133.075 165.203 133.348 165.27 133.655 165.27C133.988 165.27 134.265 165.193 134.485 165.04C134.712 164.88 134.888 164.68 135.015 164.44L135.835 164.82C135.702 165.08 135.528 165.31 135.315 165.51C135.102 165.703 134.848 165.853 134.555 165.96C134.268 166.067 133.945 166.12 133.585 166.12ZM132.115 163.1L131.925 162.95H135.085L134.905 163.1C134.905 162.807 134.845 162.557 134.725 162.35C134.605 162.137 134.445 161.977 134.245 161.87C134.045 161.757 133.822 161.7 133.575 161.7C133.335 161.7 133.102 161.757 132.875 161.87C132.655 161.977 132.472 162.133 132.325 162.34C132.185 162.547 132.115 162.8 132.115 163.1ZM140.513 166L140.473 165.07V159H141.413V166H140.513ZM138.833 166.12C138.38 166.12 137.983 166.01 137.643 165.79C137.31 165.57 137.047 165.263 136.853 164.87C136.667 164.477 136.573 164.02 136.573 163.5C136.573 162.973 136.667 162.517 136.853 162.13C137.047 161.737 137.31 161.43 137.643 161.21C137.983 160.99 138.38 160.88 138.833 160.88C139.253 160.88 139.617 160.99 139.923 161.21C140.237 161.43 140.477 161.737 140.643 162.13C140.81 162.517 140.893 162.973 140.893 163.5C140.893 164.02 140.81 164.477 140.643 164.87C140.477 165.263 140.237 165.57 139.923 165.79C139.617 166.01 139.253 166.12 138.833 166.12ZM139.053 165.26C139.333 165.26 139.58 165.187 139.793 165.04C140.007 164.887 140.173 164.68 140.293 164.42C140.413 164.153 140.473 163.847 140.473 163.5C140.473 163.153 140.413 162.85 140.293 162.59C140.173 162.323 140.007 162.117 139.793 161.97C139.58 161.817 139.33 161.74 139.043 161.74C138.75 161.74 138.49 161.817 138.263 161.97C138.037 162.117 137.86 162.323 137.733 162.59C137.607 162.85 137.543 163.153 137.543 163.5C137.543 163.847 137.607 164.153 137.733 164.42C137.867 164.68 138.047 164.887 138.273 165.04C138.5 165.187 138.76 165.26 139.053 165.26ZM143.392 162.23C143.226 162.23 143.079 162.17 142.952 162.05C142.832 161.93 142.772 161.783 142.772 161.61C142.772 161.437 142.832 161.29 142.952 161.17C143.079 161.05 143.226 160.99 143.392 160.99C143.566 160.99 143.712 161.05 143.832 161.17C143.959 161.29 144.022 161.437 144.022 161.61C144.022 161.783 143.959 161.93 143.832 162.05C143.712 162.17 143.566 162.23 143.392 162.23ZM143.412 166.02C143.239 166.02 143.089 165.96 142.962 165.84C142.842 165.713 142.782 165.563 142.782 165.39C142.782 165.223 142.842 165.08 142.962 164.96C143.089 164.833 143.239 164.77 143.412 164.77C143.579 164.77 143.722 164.833 143.842 164.96C143.969 165.08 144.032 165.223 144.032 165.39C144.032 165.563 143.969 165.713 143.842 165.84C143.722 165.96 143.579 166.02 143.412 166.02ZM149.28 166V159.53L149.37 159H150.24V166H149.28ZM147.73 160.91V160.02C147.877 160.027 148.047 159.98 148.24 159.88C148.44 159.78 148.64 159.65 148.84 159.49C149.04 159.33 149.217 159.163 149.37 158.99L149.98 159.65C149.753 159.89 149.517 160.107 149.27 160.3C149.023 160.493 148.77 160.647 148.51 160.76C148.257 160.873 147.997 160.923 147.73 160.91ZM154.661 166V159H158.901V159.9H155.641V162.1H158.481V163H155.641V166H154.661ZM162.042 166.12C161.555 166.12 161.125 166.01 160.752 165.79C160.379 165.563 160.085 165.253 159.872 164.86C159.659 164.467 159.552 164.013 159.552 163.5C159.552 162.987 159.659 162.533 159.872 162.14C160.085 161.747 160.379 161.44 160.752 161.22C161.132 160.993 161.565 160.88 162.052 160.88C162.512 160.88 162.915 160.997 163.262 161.23C163.609 161.457 163.879 161.783 164.072 162.21C164.272 162.63 164.372 163.127 164.372 163.7H160.332L160.512 163.55C160.512 163.903 160.582 164.21 160.722 164.47C160.862 164.73 161.052 164.93 161.292 165.07C161.532 165.203 161.805 165.27 162.112 165.27C162.445 165.27 162.722 165.193 162.942 165.04C163.169 164.88 163.345 164.68 163.472 164.44L164.292 164.82C164.159 165.08 163.985 165.31 163.772 165.51C163.559 165.703 163.305 165.853 163.012 165.96C162.725 166.067 162.402 166.12 162.042 166.12ZM160.572 163.1L160.382 162.95H163.542L163.362 163.1C163.362 162.807 163.302 162.557 163.182 162.35C163.062 162.137 162.902 161.977 162.702 161.87C162.502 161.757 162.279 161.7 162.032 161.7C161.792 161.7 161.559 161.757 161.332 161.87C161.112 161.977 160.929 162.133 160.782 162.34C160.642 162.547 160.572 162.8 160.572 163.1ZM165.31 166V159H166.26V165.07L166.21 166H165.31ZM167.9 166.12C167.48 166.12 167.114 166.01 166.8 165.79C166.494 165.57 166.257 165.263 166.09 164.87C165.924 164.477 165.84 164.02 165.84 163.5C165.84 162.973 165.924 162.517 166.09 162.13C166.257 161.737 166.494 161.43 166.8 161.21C167.114 160.99 167.48 160.88 167.9 160.88C168.347 160.88 168.74 160.99 169.08 161.21C169.42 161.43 169.684 161.737 169.87 162.13C170.064 162.517 170.16 162.973 170.16 163.5C170.16 164.02 170.064 164.477 169.87 164.87C169.684 165.263 169.42 165.57 169.08 165.79C168.74 166.01 168.347 166.12 167.9 166.12ZM167.67 165.26C167.97 165.26 168.234 165.187 168.46 165.04C168.687 164.887 168.864 164.68 168.99 164.42C169.124 164.153 169.19 163.847 169.19 163.5C169.19 163.153 169.127 162.85 169 162.59C168.874 162.323 168.697 162.117 168.47 161.97C168.244 161.817 167.98 161.74 167.68 161.74C167.407 161.74 167.16 161.817 166.94 161.97C166.727 162.117 166.56 162.323 166.44 162.59C166.32 162.857 166.26 163.16 166.26 163.5C166.26 163.847 166.32 164.153 166.44 164.42C166.56 164.68 166.727 164.887 166.94 165.04C167.154 165.187 167.397 165.26 167.67 165.26ZM170.909 167.15L171.489 164.97H172.519L171.679 167.15H170.909ZM175.894 166V165.21C175.894 165.003 175.941 164.79 176.034 164.57C176.134 164.343 176.274 164.12 176.454 163.9C176.641 163.68 176.861 163.477 177.114 163.29L178.464 162.29C178.624 162.177 178.767 162.047 178.894 161.9C179.027 161.747 179.131 161.59 179.204 161.43C179.284 161.263 179.324 161.1 179.324 160.94C179.324 160.727 179.271 160.533 179.164 160.36C179.057 160.18 178.907 160.04 178.714 159.94C178.521 159.833 178.291 159.78 178.024 159.78C177.771 159.78 177.547 159.83 177.354 159.93C177.167 160.023 177.011 160.15 176.884 160.31C176.757 160.47 176.667 160.64 176.614 160.82L175.604 160.63C175.677 160.323 175.821 160.037 176.034 159.77C176.247 159.503 176.521 159.29 176.854 159.13C177.187 158.963 177.564 158.88 177.984 158.88C178.464 158.88 178.877 158.97 179.224 159.15C179.577 159.323 179.851 159.567 180.044 159.88C180.237 160.187 180.334 160.54 180.334 160.94C180.334 161.327 180.227 161.683 180.014 162.01C179.807 162.337 179.507 162.653 179.114 162.96L177.864 163.9C177.617 164.087 177.421 164.28 177.274 164.48C177.134 164.68 177.047 164.893 177.014 165.12H180.424V166H175.894ZM184.189 166.12C183.649 166.12 183.169 165.967 182.749 165.66C182.329 165.347 181.999 164.92 181.759 164.38C181.525 163.833 181.409 163.207 181.409 162.5C181.409 161.793 181.525 161.17 181.759 160.63C181.999 160.083 182.325 159.657 182.739 159.35C183.159 159.037 183.642 158.88 184.189 158.88C184.735 158.88 185.215 159.037 185.629 159.35C186.049 159.657 186.379 160.083 186.619 160.63C186.859 161.17 186.979 161.793 186.979 162.5C186.979 163.207 186.859 163.833 186.619 164.38C186.385 164.92 186.059 165.347 185.639 165.66C185.219 165.967 184.735 166.12 184.189 166.12ZM184.189 165.22C184.542 165.22 184.855 165.103 185.129 164.87C185.409 164.637 185.625 164.317 185.779 163.91C185.932 163.503 186.009 163.033 186.009 162.5C186.009 161.967 185.932 161.497 185.779 161.09C185.625 160.677 185.409 160.353 185.129 160.12C184.855 159.887 184.542 159.77 184.189 159.77C183.835 159.77 183.522 159.887 183.249 160.12C182.975 160.353 182.762 160.677 182.609 161.09C182.455 161.497 182.379 161.967 182.379 162.5C182.379 163.033 182.455 163.507 182.609 163.92C182.762 164.327 182.975 164.647 183.249 164.88C183.522 165.107 183.835 165.22 184.189 165.22ZM187.964 166V165.21C187.964 165.003 188.011 164.79 188.104 164.57C188.204 164.343 188.344 164.12 188.524 163.9C188.711 163.68 188.931 163.477 189.184 163.29L190.534 162.29C190.694 162.177 190.838 162.047 190.964 161.9C191.098 161.747 191.201 161.59 191.274 161.43C191.354 161.263 191.394 161.1 191.394 160.94C191.394 160.727 191.341 160.533 191.234 160.36C191.128 160.18 190.978 160.04 190.784 159.94C190.591 159.833 190.361 159.78 190.094 159.78C189.841 159.78 189.618 159.83 189.424 159.93C189.238 160.023 189.081 160.15 188.954 160.31C188.828 160.47 188.738 160.64 188.684 160.82L187.674 160.63C187.748 160.323 187.891 160.037 188.104 159.77C188.318 159.503 188.591 159.29 188.924 159.13C189.258 158.963 189.634 158.88 190.054 158.88C190.534 158.88 190.948 158.97 191.294 159.15C191.648 159.323 191.921 159.567 192.114 159.88C192.308 160.187 192.404 160.54 192.404 160.94C192.404 161.327 192.298 161.683 192.084 162.01C191.878 162.337 191.578 162.653 191.184 162.96L189.934 163.9C189.688 164.087 189.491 164.28 189.344 164.48C189.204 164.68 189.118 164.893 189.084 165.12H192.494V166H187.964ZM195.769 166.12C195.409 166.12 195.082 166.067 194.789 165.96C194.495 165.853 194.249 165.707 194.049 165.52C193.849 165.333 193.695 165.13 193.589 164.91L194.439 164.52C194.505 164.613 194.589 164.72 194.689 164.84C194.789 164.953 194.922 165.05 195.089 165.13C195.255 165.21 195.462 165.25 195.709 165.25C196.129 165.25 196.462 165.13 196.709 164.89C196.962 164.65 197.089 164.347 197.089 163.98C197.089 163.707 197.015 163.477 196.869 163.29C196.722 163.097 196.505 162.95 196.219 162.85C195.939 162.75 195.595 162.7 195.189 162.7H194.939V161.96H195.169C195.582 161.96 195.962 162.007 196.309 162.1C196.662 162.193 196.972 162.333 197.239 162.52C197.505 162.7 197.712 162.92 197.859 163.18C198.005 163.44 198.079 163.737 198.079 164.07C198.079 164.483 197.972 164.847 197.759 165.16C197.552 165.467 197.272 165.703 196.919 165.87C196.572 166.037 196.189 166.12 195.769 166.12ZM194.939 162.58V161.87H195.189C195.735 161.87 196.162 161.777 196.469 161.59C196.775 161.403 196.929 161.14 196.929 160.8C196.929 160.607 196.875 160.433 196.769 160.28C196.669 160.12 196.525 159.993 196.339 159.9C196.159 159.8 195.942 159.75 195.689 159.75C195.529 159.75 195.372 159.777 195.219 159.83C195.072 159.877 194.935 159.95 194.809 160.05C194.682 160.143 194.572 160.267 194.479 160.42L193.659 160.05C193.772 159.803 193.932 159.593 194.139 159.42C194.345 159.247 194.585 159.113 194.859 159.02C195.132 158.927 195.422 158.88 195.729 158.88C196.149 158.88 196.522 158.96 196.849 159.12C197.175 159.28 197.432 159.5 197.619 159.78C197.812 160.06 197.909 160.377 197.909 160.73C197.909 161.03 197.835 161.297 197.689 161.53C197.549 161.757 197.352 161.95 197.099 162.11C196.845 162.263 196.552 162.38 196.219 162.46C195.892 162.54 195.539 162.58 195.159 162.58H194.939Z" fill="#A4A4AD"/>
<path d="M413 204.5V204.5C421.837 204.5 429 197.337 429 188.5V141.5C429 130.454 437.954 121.5 449 121.5H479" stroke="#37373D" stroke-dasharray="2 2"/>
<rect x="479.5" y="108.5" width="92.9998" height="27" rx="13.5" stroke="#37373D"/>
<path d="M497.068 126V117.6H498.316L501.1 121.716L503.872 117.6H505.12V126H503.944V119.496L501.088 123.708L498.244 119.508V126H497.068ZM509.688 126.144C509.088 126.144 508.56 126.012 508.104 125.748C507.648 125.476 507.288 125.104 507.024 124.632C506.768 124.16 506.64 123.616 506.64 123C506.64 122.384 506.768 121.84 507.024 121.368C507.28 120.896 507.636 120.528 508.092 120.264C508.548 119.992 509.072 119.856 509.664 119.856C510.256 119.856 510.78 119.992 511.236 120.264C511.692 120.528 512.048 120.896 512.304 121.368C512.56 121.84 512.688 122.384 512.688 123C512.688 123.616 512.56 124.16 512.304 124.632C512.048 125.104 511.692 125.476 511.236 125.748C510.788 126.012 510.272 126.144 509.688 126.144ZM509.688 125.1C510.048 125.1 510.368 125.012 510.648 124.836C510.928 124.652 511.144 124.404 511.296 124.092C511.456 123.78 511.536 123.416 511.536 123C511.536 122.584 511.456 122.22 511.296 121.908C511.144 121.596 510.924 121.352 510.636 121.176C510.348 120.992 510.024 120.9 509.664 120.9C509.296 120.9 508.972 120.992 508.692 121.176C508.412 121.352 508.192 121.596 508.032 121.908C507.872 122.22 507.792 122.584 507.792 123C507.792 123.416 507.872 123.78 508.032 124.092C508.192 124.404 508.416 124.652 508.704 124.836C508.992 125.012 509.32 125.1 509.688 125.1ZM513.937 126V120H515.005L515.077 121.104V126H513.937ZM518.089 126V122.928H519.229V126H518.089ZM518.089 122.928C518.089 122.384 518.025 121.972 517.897 121.692C517.777 121.404 517.605 121.204 517.381 121.092C517.165 120.98 516.913 120.92 516.625 120.912C516.137 120.912 515.757 121.084 515.485 121.428C515.213 121.772 515.077 122.256 515.077 122.88H514.585C514.585 122.248 514.677 121.708 514.861 121.26C515.053 120.804 515.321 120.456 515.665 120.216C516.017 119.976 516.433 119.856 516.913 119.856C517.385 119.856 517.793 119.952 518.137 120.144C518.489 120.336 518.757 120.636 518.941 121.044C519.133 121.444 519.229 121.972 519.229 122.628V122.928H518.089ZM520.735 126V120H521.875V126H520.735ZM521.311 118.728C521.127 118.728 520.967 118.66 520.831 118.524C520.695 118.38 520.627 118.216 520.627 118.032C520.627 117.84 520.695 117.68 520.831 117.552C520.967 117.416 521.127 117.348 521.311 117.348C521.503 117.348 521.663 117.416 521.791 117.552C521.927 117.68 521.995 117.84 521.995 118.032C521.995 118.216 521.927 118.38 521.791 118.524C521.663 118.66 521.503 118.728 521.311 118.728ZM525.862 126.144C525.262 126.144 524.798 125.992 524.47 125.688C524.142 125.376 523.978 124.932 523.978 124.356V118.128H525.118V124.188C525.118 124.484 525.19 124.712 525.334 124.872C525.486 125.024 525.702 125.1 525.982 125.1C526.062 125.1 526.15 125.084 526.246 125.052C526.342 125.02 526.458 124.956 526.594 124.86L527.026 125.748C526.818 125.884 526.618 125.984 526.426 126.048C526.242 126.112 526.054 126.144 525.862 126.144ZM522.958 120.984V120H526.822V120.984H522.958ZM530.817 126.144C530.217 126.144 529.689 126.012 529.233 125.748C528.777 125.476 528.417 125.104 528.153 124.632C527.897 124.16 527.769 123.616 527.769 123C527.769 122.384 527.897 121.84 528.153 121.368C528.409 120.896 528.765 120.528 529.221 120.264C529.677 119.992 530.201 119.856 530.793 119.856C531.385 119.856 531.909 119.992 532.365 120.264C532.821 120.528 533.177 120.896 533.433 121.368C533.689 121.84 533.817 122.384 533.817 123C533.817 123.616 533.689 124.16 533.433 124.632C533.177 125.104 532.821 125.476 532.365 125.748C531.917 126.012 531.401 126.144 530.817 126.144ZM530.817 125.1C531.177 125.1 531.497 125.012 531.777 124.836C532.057 124.652 532.273 124.404 532.425 124.092C532.585 123.78 532.665 123.416 532.665 123C532.665 122.584 532.585 122.22 532.425 121.908C532.273 121.596 532.053 121.352 531.765 121.176C531.477 120.992 531.153 120.9 530.793 120.9C530.425 120.9 530.101 120.992 529.821 121.176C529.541 121.352 529.321 121.596 529.161 121.908C529.001 122.22 528.921 122.584 528.921 123C528.921 123.416 529.001 123.78 529.161 124.092C529.321 124.404 529.545 124.652 529.833 124.836C530.121 125.012 530.449 125.1 530.817 125.1ZM535.761 122.772C535.761 122.124 535.885 121.596 536.133 121.188C536.381 120.78 536.701 120.476 537.093 120.276C537.485 120.076 537.897 119.976 538.329 119.976V121.056C537.969 121.056 537.625 121.112 537.297 121.224C536.977 121.328 536.713 121.504 536.505 121.752C536.305 121.992 536.205 122.32 536.205 122.736L535.761 122.772ZM535.065 126V120H536.205V126H535.065ZM539.321 126V120H540.461V126H539.321ZM539.897 118.728C539.713 118.728 539.553 118.66 539.417 118.524C539.281 118.38 539.213 118.216 539.213 118.032C539.213 117.84 539.281 117.68 539.417 117.552C539.553 117.416 539.713 117.348 539.897 117.348C540.089 117.348 540.249 117.416 540.377 117.552C540.513 117.68 540.581 117.84 540.581 118.032C540.581 118.216 540.513 118.38 540.377 118.524C540.249 118.66 540.089 118.728 539.897 118.728ZM542.132 126V120H543.2L543.272 121.104V126H542.132ZM546.284 126V122.928H547.424V126H546.284ZM546.284 122.928C546.284 122.384 546.22 121.972 546.092 121.692C545.972 121.404 545.8 121.204 545.576 121.092C545.36 120.98 545.108 120.92 544.82 120.912C544.332 120.912 543.952 121.084 543.68 121.428C543.408 121.772 543.272 122.256 543.272 122.88H542.78C542.78 122.248 542.872 121.708 543.056 121.26C543.248 120.804 543.516 120.456 543.86 120.216C544.212 119.976 544.628 119.856 545.108 119.856C545.58 119.856 545.988 119.952 546.332 120.144C546.684 120.336 546.952 120.636 547.136 121.044C547.328 121.444 547.424 121.972 547.424 122.628V122.928H546.284ZM551.342 128.556C550.942 128.556 550.578 128.516 550.25 128.436C549.922 128.364 549.646 128.28 549.422 128.184C549.198 128.088 549.03 128.004 548.918 127.932L549.35 127.008C549.454 127.072 549.602 127.144 549.794 127.224C549.986 127.312 550.21 127.384 550.466 127.44C550.722 127.504 551.006 127.536 551.318 127.536C551.686 127.536 552.014 127.46 552.302 127.308C552.59 127.164 552.814 126.936 552.974 126.624C553.142 126.312 553.226 125.912 553.226 125.424V120H554.366V125.4C554.366 126.088 554.234 126.664 553.97 127.128C553.714 127.6 553.358 127.956 552.902 128.196C552.454 128.436 551.934 128.556 551.342 128.556ZM551.234 125.916C550.69 125.916 550.214 125.792 549.806 125.544C549.406 125.288 549.09 124.936 548.858 124.488C548.634 124.032 548.522 123.508 548.522 122.916C548.522 122.3 548.634 121.764 548.858 121.308C549.09 120.852 549.406 120.496 549.806 120.24C550.214 119.984 550.69 119.856 551.234 119.856C551.73 119.856 552.162 119.984 552.53 120.24C552.906 120.496 553.194 120.856 553.394 121.32C553.602 121.776 553.706 122.312 553.706 122.928C553.706 123.52 553.602 124.044 553.394 124.5C553.194 124.948 552.906 125.296 552.53 125.544C552.162 125.792 551.73 125.916 551.234 125.916ZM551.522 124.956C551.858 124.956 552.15 124.868 552.398 124.692C552.646 124.508 552.842 124.264 552.986 123.96C553.13 123.648 553.202 123.292 553.202 122.892C553.202 122.492 553.13 122.14 552.986 121.836C552.842 121.532 552.642 121.296 552.386 121.128C552.138 120.952 551.846 120.864 551.51 120.864C551.158 120.864 550.846 120.952 550.574 121.128C550.31 121.296 550.102 121.532 549.95 121.836C549.798 122.14 549.722 122.492 549.722 122.892C549.722 123.292 549.798 123.648 549.95 123.96C550.11 124.264 550.322 124.508 550.586 124.692C550.858 124.868 551.17 124.956 551.522 124.956Z" fill="#2BBEAF"/>
<path d="M349.5 122H372.879C383.972 122 392.946 131.028 392.879 142.12L392.618 185.494C392.553 196.165 401.332 204.774 412 204.5V204.5" stroke="#37373D"/>
<circle cx="369.5" cy="121.5" r="2.5" fill="#37373D"/>
<circle cx="392.5" cy="187.5" r="2.5" fill="#37373D"/>
</svg>
