<svg width="650" height="264" viewBox="0 0 650 264" fill="none" xmlns="http://www.w3.org/2000/svg">
<g clip-path="url(#clip0_1169_1109)">
<rect width="650" height="264" rx="16" fill="#1A1A1E"/>
<rect x="208.5" y="85.5" width="233" height="35" rx="4.3" stroke="#37373D"/>
<path d="M423.7 106.8L427.5 103L423.7 99.2004" stroke="white" stroke-linecap="round" stroke-linejoin="round"/>
<path d="M244.196 107V99.16H246.839C247.362 99.16 247.821 99.2683 248.217 99.4848C248.62 99.6939 248.934 99.9888 249.158 100.37C249.389 100.743 249.505 101.18 249.505 101.68C249.505 102.165 249.4 102.598 249.191 102.979C248.982 103.36 248.691 103.659 248.318 103.875C247.952 104.092 247.53 104.2 247.052 104.2H245.294V107H244.196ZM245.294 103.181H247.041C247.437 103.181 247.761 103.043 248.015 102.766C248.269 102.483 248.396 102.121 248.396 101.68C248.396 101.225 248.247 100.859 247.948 100.582C247.657 100.306 247.283 100.168 246.828 100.168H245.294V103.181ZM251.107 103.987C251.107 103.382 251.223 102.89 251.454 102.509C251.685 102.128 251.984 101.844 252.35 101.658C252.716 101.471 253.1 101.378 253.504 101.378V102.386C253.168 102.386 252.847 102.438 252.54 102.542C252.242 102.639 251.995 102.804 251.801 103.035C251.615 103.259 251.521 103.565 251.521 103.954L251.107 103.987ZM250.457 107V101.4H251.521V107H250.457ZM256.893 107.134C256.333 107.134 255.84 107.011 255.415 106.765C254.989 106.511 254.653 106.164 254.407 105.723C254.168 105.283 254.048 104.775 254.048 104.2C254.048 103.625 254.168 103.117 254.407 102.677C254.646 102.236 254.978 101.893 255.403 101.646C255.829 101.393 256.318 101.266 256.871 101.266C257.423 101.266 257.912 101.393 258.338 101.646C258.763 101.893 259.096 102.236 259.335 102.677C259.574 103.117 259.693 103.625 259.693 104.2C259.693 104.775 259.574 105.283 259.335 105.723C259.096 106.164 258.763 106.511 258.338 106.765C257.92 107.011 257.438 107.134 256.893 107.134ZM256.893 106.16C257.229 106.16 257.528 106.078 257.789 105.914C258.05 105.742 258.252 105.51 258.394 105.219C258.543 104.928 258.618 104.588 258.618 104.2C258.618 103.812 258.543 103.472 258.394 103.181C258.252 102.89 258.047 102.662 257.778 102.498C257.509 102.326 257.207 102.24 256.871 102.24C256.527 102.24 256.225 102.326 255.963 102.498C255.702 102.662 255.497 102.89 255.347 103.181C255.198 103.472 255.123 103.812 255.123 104.2C255.123 104.588 255.198 104.928 255.347 105.219C255.497 105.51 255.706 105.742 255.975 105.914C256.243 106.078 256.55 106.16 256.893 106.16ZM263.412 107.134C262.852 107.134 262.356 107.011 261.923 106.765C261.49 106.511 261.15 106.164 260.904 105.723C260.665 105.283 260.545 104.775 260.545 104.2C260.545 103.625 260.665 103.117 260.904 102.677C261.15 102.236 261.486 101.893 261.912 101.646C262.345 101.393 262.837 101.266 263.39 101.266C263.935 101.266 264.424 101.393 264.857 101.646C265.298 101.9 265.626 102.262 265.843 102.733L264.88 103.136C264.738 102.86 264.532 102.643 264.264 102.486C264.002 102.33 263.7 102.251 263.356 102.251C263.02 102.251 262.722 102.333 262.46 102.498C262.199 102.662 261.994 102.893 261.844 103.192C261.695 103.483 261.62 103.819 261.62 104.2C261.62 104.581 261.695 104.917 261.844 105.208C261.994 105.499 262.203 105.731 262.472 105.902C262.74 106.067 263.043 106.149 263.379 106.149C263.722 106.149 264.028 106.063 264.297 105.891C264.566 105.712 264.768 105.473 264.902 105.174L265.876 105.566C265.66 106.059 265.331 106.444 264.891 106.72C264.458 106.996 263.965 107.134 263.412 107.134ZM269.404 107.134C268.859 107.134 268.378 107.011 267.959 106.765C267.541 106.511 267.213 106.164 266.974 105.723C266.735 105.283 266.615 104.775 266.615 104.2C266.615 103.625 266.735 103.117 266.974 102.677C267.213 102.236 267.541 101.893 267.959 101.646C268.385 101.393 268.87 101.266 269.415 101.266C269.931 101.266 270.382 101.396 270.771 101.658C271.159 101.911 271.461 102.277 271.678 102.755C271.902 103.226 272.014 103.782 272.014 104.424H267.489L267.691 104.256C267.691 104.652 267.769 104.995 267.926 105.286C268.083 105.578 268.295 105.802 268.564 105.958C268.833 106.108 269.139 106.182 269.483 106.182C269.856 106.182 270.166 106.097 270.412 105.925C270.666 105.746 270.864 105.522 271.006 105.253L271.924 105.678C271.775 105.97 271.581 106.227 271.342 106.451C271.103 106.668 270.819 106.836 270.491 106.955C270.17 107.075 269.807 107.134 269.404 107.134ZM267.758 103.752L267.545 103.584H271.084L270.883 103.752C270.883 103.423 270.815 103.143 270.681 102.912C270.547 102.673 270.367 102.494 270.143 102.374C269.919 102.247 269.669 102.184 269.393 102.184C269.124 102.184 268.863 102.247 268.609 102.374C268.363 102.494 268.157 102.669 267.993 102.901C267.836 103.132 267.758 103.416 267.758 103.752ZM275.07 107.134C274.674 107.134 274.319 107.075 274.006 106.955C273.7 106.836 273.438 106.675 273.222 106.474C273.013 106.272 272.856 106.044 272.751 105.79L273.67 105.387C273.789 105.619 273.968 105.809 274.207 105.958C274.446 106.108 274.711 106.182 275.003 106.182C275.324 106.182 275.589 106.123 275.798 106.003C276.007 105.884 276.111 105.716 276.111 105.499C276.111 105.29 276.033 105.126 275.876 105.006C275.719 104.887 275.492 104.79 275.193 104.715L274.667 104.581C274.144 104.439 273.737 104.226 273.446 103.942C273.162 103.659 273.02 103.338 273.02 102.979C273.02 102.434 273.196 102.012 273.547 101.714C273.898 101.415 274.416 101.266 275.103 101.266C275.439 101.266 275.746 101.314 276.022 101.411C276.306 101.508 276.544 101.646 276.739 101.826C276.94 102.005 277.082 102.218 277.164 102.464L276.268 102.867C276.179 102.643 276.026 102.479 275.809 102.374C275.592 102.262 275.339 102.206 275.047 102.206C274.749 102.206 274.514 102.274 274.342 102.408C274.17 102.535 274.084 102.714 274.084 102.946C274.084 103.073 274.155 103.196 274.297 103.315C274.446 103.427 274.663 103.521 274.947 103.595L275.551 103.741C275.917 103.83 276.22 103.969 276.459 104.155C276.698 104.334 276.877 104.54 276.996 104.771C277.116 104.995 277.175 105.23 277.175 105.477C277.175 105.813 277.082 106.108 276.895 106.362C276.716 106.608 276.466 106.798 276.145 106.933C275.831 107.067 275.473 107.134 275.07 107.134ZM280.276 107.134C279.88 107.134 279.526 107.075 279.212 106.955C278.906 106.836 278.645 106.675 278.428 106.474C278.219 106.272 278.062 106.044 277.958 105.79L278.876 105.387C278.995 105.619 279.175 105.809 279.414 105.958C279.653 106.108 279.918 106.182 280.209 106.182C280.53 106.182 280.795 106.123 281.004 106.003C281.213 105.884 281.318 105.716 281.318 105.499C281.318 105.29 281.239 105.126 281.082 105.006C280.926 104.887 280.698 104.79 280.399 104.715L279.873 104.581C279.35 104.439 278.943 104.226 278.652 103.942C278.368 103.659 278.226 103.338 278.226 102.979C278.226 102.434 278.402 102.012 278.753 101.714C279.104 101.415 279.623 101.266 280.31 101.266C280.646 101.266 280.952 101.314 281.228 101.411C281.512 101.508 281.751 101.646 281.945 101.826C282.146 102.005 282.288 102.218 282.37 102.464L281.474 102.867C281.385 102.643 281.232 102.479 281.015 102.374C280.799 102.262 280.545 102.206 280.254 102.206C279.955 102.206 279.72 102.274 279.548 102.408C279.376 102.535 279.29 102.714 279.29 102.946C279.29 103.073 279.361 103.196 279.503 103.315C279.653 103.427 279.869 103.521 280.153 103.595L280.758 103.741C281.123 103.83 281.426 103.969 281.665 104.155C281.904 104.334 282.083 104.54 282.202 104.771C282.322 104.995 282.382 105.23 282.382 105.477C282.382 105.813 282.288 106.108 282.102 106.362C281.922 106.608 281.672 106.798 281.351 106.933C281.038 107.067 280.679 107.134 280.276 107.134ZM286.783 107V100.784C286.783 100.194 286.925 99.7499 287.208 99.4512C287.492 99.1451 287.921 98.992 288.496 98.992C288.668 98.992 288.855 99.0219 289.056 99.0816C289.258 99.1339 289.463 99.2085 289.672 99.3056L289.28 100.123C289.124 100.049 288.985 99.9963 288.866 99.9664C288.754 99.9291 288.657 99.9104 288.575 99.9104C288.328 99.9104 288.145 99.9925 288.026 100.157C287.907 100.314 287.847 100.56 287.847 100.896V107H286.783ZM285.786 102.285V101.4H289.392V102.285H285.786ZM290.501 107V101.4H291.565V107H290.501ZM291.039 100.213C290.867 100.213 290.717 100.149 290.591 100.022C290.464 99.888 290.4 99.7349 290.4 99.5632C290.4 99.384 290.464 99.2347 290.591 99.1152C290.717 98.9883 290.867 98.9248 291.039 98.9248C291.218 98.9248 291.367 98.9883 291.487 99.1152C291.613 99.2347 291.677 99.384 291.677 99.5632C291.677 99.7349 291.613 99.888 291.487 100.022C291.367 100.149 291.218 100.213 291.039 100.213ZM293.124 107V99.16H294.188V107H293.124ZM297.823 107.134C297.263 107.134 296.83 106.993 296.524 106.709C296.218 106.418 296.065 106.003 296.065 105.466V99.6528H297.129V105.309C297.129 105.585 297.196 105.798 297.331 105.947C297.473 106.089 297.674 106.16 297.935 106.16C298.01 106.16 298.092 106.145 298.182 106.115C298.271 106.085 298.38 106.026 298.507 105.936L298.91 106.765C298.716 106.892 298.529 106.985 298.35 107.045C298.178 107.105 298.003 107.134 297.823 107.134ZM295.113 102.318V101.4H298.719V102.318H295.113ZM302.392 107.134C301.847 107.134 301.365 107.011 300.947 106.765C300.529 106.511 300.2 106.164 299.961 105.723C299.722 105.283 299.603 104.775 299.603 104.2C299.603 103.625 299.722 103.117 299.961 102.677C300.2 102.236 300.529 101.893 300.947 101.646C301.373 101.393 301.858 101.266 302.403 101.266C302.918 101.266 303.37 101.396 303.758 101.658C304.146 101.911 304.449 102.277 304.665 102.755C304.889 103.226 305.001 103.782 305.001 104.424H300.477L300.678 104.256C300.678 104.652 300.757 104.995 300.913 105.286C301.07 105.578 301.283 105.802 301.552 105.958C301.821 106.108 302.127 106.182 302.47 106.182C302.843 106.182 303.153 106.097 303.4 105.925C303.654 105.746 303.851 105.522 303.993 105.253L304.912 105.678C304.762 105.97 304.568 106.227 304.329 106.451C304.09 106.668 303.807 106.836 303.478 106.955C303.157 107.075 302.795 107.134 302.392 107.134ZM300.745 103.752L300.533 103.584H304.072L303.87 103.752C303.87 103.423 303.803 103.143 303.669 102.912C303.534 102.673 303.355 102.494 303.131 102.374C302.907 102.247 302.657 102.184 302.381 102.184C302.112 102.184 301.85 102.247 301.597 102.374C301.35 102.494 301.145 102.669 300.981 102.901C300.824 103.132 300.745 103.416 300.745 103.752ZM306.702 103.987C306.702 103.382 306.818 102.89 307.049 102.509C307.281 102.128 307.579 101.844 307.945 101.658C308.311 101.471 308.696 101.378 309.099 101.378V102.386C308.763 102.386 308.442 102.438 308.136 102.542C307.837 102.639 307.591 102.804 307.396 103.035C307.21 103.259 307.116 103.565 307.116 103.954L306.702 103.987ZM306.052 107V101.4H307.116V107H306.052Z" fill="white"/>
<path d="M218.5 98.45C218.5 98.03 218.5 97.8199 218.582 97.6595C218.654 97.5184 218.769 97.4037 218.91 97.3317C219.07 97.25 219.28 97.25 219.7 97.25H232.3C232.72 97.25 232.93 97.25 233.091 97.3317C233.232 97.4037 233.347 97.5184 233.418 97.6595C233.5 97.8199 233.5 98.03 233.5 98.45V98.952C233.5 99.1536 233.5 99.2544 233.476 99.3482C233.454 99.4312 233.418 99.5099 233.369 99.5808C233.315 99.6608 233.239 99.7268 233.086 99.8589L228.289 104.016C228.137 104.148 228.061 104.214 228.006 104.294C227.958 104.365 227.922 104.444 227.9 104.527C227.875 104.621 227.875 104.721 227.875 104.923V108.844C227.875 108.99 227.875 109.064 227.852 109.127C227.831 109.183 227.797 109.233 227.752 109.274C227.702 109.319 227.634 109.346 227.498 109.401L224.948 110.421C224.672 110.531 224.535 110.586 224.424 110.563C224.327 110.543 224.242 110.486 224.188 110.403C224.125 110.309 224.125 110.161 224.125 109.864V104.923C224.125 104.721 224.125 104.621 224.101 104.527C224.079 104.444 224.043 104.365 223.994 104.294C223.94 104.214 223.864 104.148 223.711 104.016L218.914 99.8589C218.762 99.7268 218.686 99.6608 218.631 99.5808C218.583 99.5099 218.547 99.4312 218.525 99.3482C218.5 99.2544 218.5 99.1536 218.5 98.952V98.45Z" stroke="white" stroke-linecap="round" stroke-linejoin="round"/>
<line x1="327.699" y1="126.5" x2="327.699" y2="149.5" stroke="#37373D" stroke-linecap="round" stroke-dasharray="5.6 5.6"/>
<line x1="327.699" y1="230.5" x2="327.699" y2="253.5" stroke="#37373D" stroke-linecap="round" stroke-dasharray="5.6 5.6"/>
<rect x="208.5" y="155.5" width="239" height="63" rx="7.9" stroke="#37373D"/>
<rect x="224" y="171" width="32" height="32" rx="4.57143" fill="#2CBFB0" fill-opacity="0.5"/>
<path d="M244.402 182.6L235.602 191.4M237.202 185.8V182.6M235.602 184.2H238.802M241.202 189.8H244.402M236.642 194.2H243.362C244.706 194.2 245.378 194.2 245.892 193.939C246.343 193.709 246.711 193.341 246.941 192.89C247.202 192.376 247.202 191.704 247.202 190.36V183.64C247.202 182.296 247.202 181.624 246.941 181.111C246.711 180.659 246.343 180.292 245.892 180.062C245.378 179.8 244.706 179.8 243.362 179.8H236.642C235.298 179.8 234.626 179.8 234.113 180.062C233.661 180.292 233.294 180.659 233.064 181.111C232.802 181.624 232.802 182.296 232.802 183.64V190.36C232.802 191.704 232.802 192.376 233.064 192.89C233.294 193.341 233.661 193.709 234.113 193.939C234.626 194.2 235.298 194.2 236.642 194.2Z" stroke="white" stroke-width="1.6" stroke-linecap="round" stroke-linejoin="round"/>
<path d="M276.644 182.144C275.844 182.144 275.132 181.96 274.508 181.592C273.884 181.216 273.396 180.704 273.044 180.056C272.692 179.4 272.516 178.648 272.516 177.8C272.516 176.952 272.692 176.204 273.044 175.556C273.396 174.9 273.88 174.388 274.496 174.02C275.112 173.644 275.82 173.456 276.62 173.456C277.14 173.456 277.636 173.552 278.108 173.744C278.58 173.928 279 174.188 279.368 174.524C279.744 174.852 280.032 175.236 280.232 175.676L279.176 176.156C279.024 175.828 278.816 175.544 278.552 175.304C278.288 175.064 277.988 174.876 277.652 174.74C277.324 174.604 276.98 174.536 276.62 174.536C276.06 174.536 275.56 174.676 275.12 174.956C274.68 175.236 274.336 175.62 274.088 176.108C273.84 176.596 273.716 177.16 273.716 177.8C273.716 178.44 273.84 179.008 274.088 179.504C274.344 180 274.692 180.388 275.132 180.668C275.58 180.94 276.088 181.076 276.656 181.076C277.024 181.076 277.372 181.004 277.7 180.86C278.028 180.708 278.32 180.504 278.576 180.248C278.84 179.984 279.052 179.684 279.212 179.348L280.268 179.816C280.068 180.272 279.784 180.676 279.416 181.028C279.048 181.38 278.624 181.656 278.144 181.856C277.672 182.048 277.172 182.144 276.644 182.144ZM284.164 182.144C283.564 182.144 283.036 182.012 282.58 181.748C282.124 181.476 281.764 181.104 281.5 180.632C281.244 180.16 281.116 179.616 281.116 179C281.116 178.384 281.244 177.84 281.5 177.368C281.756 176.896 282.112 176.528 282.568 176.264C283.024 175.992 283.548 175.856 284.14 175.856C284.732 175.856 285.256 175.992 285.712 176.264C286.168 176.528 286.524 176.896 286.78 177.368C287.036 177.84 287.164 178.384 287.164 179C287.164 179.616 287.036 180.16 286.78 180.632C286.524 181.104 286.168 181.476 285.712 181.748C285.264 182.012 284.748 182.144 284.164 182.144ZM284.164 181.1C284.524 181.1 284.844 181.012 285.124 180.836C285.404 180.652 285.62 180.404 285.772 180.092C285.932 179.78 286.012 179.416 286.012 179C286.012 178.584 285.932 178.22 285.772 177.908C285.62 177.596 285.4 177.352 285.112 177.176C284.824 176.992 284.5 176.9 284.14 176.9C283.772 176.9 283.448 176.992 283.168 177.176C282.888 177.352 282.668 177.596 282.508 177.908C282.348 178.22 282.268 178.584 282.268 179C282.268 179.416 282.348 179.78 282.508 180.092C282.668 180.404 282.892 180.652 283.18 180.836C283.468 181.012 283.796 181.1 284.164 181.1ZM292.493 182L292.421 180.896V176H293.549V182H292.493ZM288.269 179.072V176H289.409V179.072H288.269ZM289.409 179.072C289.409 179.608 289.469 180.02 289.589 180.308C289.717 180.596 289.893 180.796 290.117 180.908C290.341 181.02 290.593 181.08 290.873 181.088C291.361 181.088 291.741 180.916 292.013 180.572C292.285 180.228 292.421 179.744 292.421 179.12H292.913C292.913 179.752 292.817 180.296 292.625 180.752C292.441 181.2 292.177 181.544 291.833 181.784C291.489 182.024 291.069 182.144 290.573 182.144C290.109 182.144 289.701 182.048 289.349 181.856C289.005 181.664 288.737 181.364 288.545 180.956C288.361 180.548 288.269 180.02 288.269 179.372V179.072H289.409ZM295.14 182V176H296.208L296.28 177.104V182H295.14ZM299.292 182V178.928H300.432V182H299.292ZM299.292 178.928C299.292 178.384 299.228 177.972 299.1 177.692C298.98 177.404 298.808 177.204 298.584 177.092C298.368 176.98 298.116 176.92 297.828 176.912C297.34 176.912 296.96 177.084 296.688 177.428C296.416 177.772 296.28 178.256 296.28 178.88H295.788C295.788 178.248 295.88 177.708 296.064 177.26C296.256 176.804 296.524 176.456 296.868 176.216C297.22 175.976 297.636 175.856 298.116 175.856C298.588 175.856 298.996 175.952 299.34 176.144C299.692 176.336 299.96 176.636 300.144 177.044C300.336 177.444 300.432 177.972 300.432 178.628V178.928H299.292ZM304.182 182.144C303.582 182.144 303.118 181.992 302.79 181.688C302.462 181.376 302.298 180.932 302.298 180.356V174.128H303.438V180.188C303.438 180.484 303.51 180.712 303.654 180.872C303.806 181.024 304.022 181.1 304.302 181.1C304.382 181.1 304.47 181.084 304.566 181.052C304.662 181.02 304.778 180.956 304.914 180.86L305.346 181.748C305.138 181.884 304.938 181.984 304.746 182.048C304.562 182.112 304.374 182.144 304.182 182.144ZM301.278 176.984V176H305.142V176.984H301.278ZM307.168 178.772C307.168 178.124 307.292 177.596 307.54 177.188C307.788 176.78 308.108 176.476 308.5 176.276C308.892 176.076 309.304 175.976 309.736 175.976V177.056C309.376 177.056 309.032 177.112 308.704 177.224C308.384 177.328 308.12 177.504 307.912 177.752C307.712 177.992 307.612 178.32 307.612 178.736L307.168 178.772ZM306.472 182V176H307.612V182H306.472ZM311.387 184.544C311.211 184.544 311.015 184.512 310.799 184.448C310.591 184.384 310.375 184.3 310.151 184.196L310.571 183.26C310.747 183.34 310.899 183.4 311.027 183.44C311.163 183.48 311.271 183.5 311.351 183.5C311.551 183.5 311.719 183.444 311.855 183.332C311.999 183.22 312.115 183.064 312.203 182.864L312.899 181.22L315.035 176H316.259L313.415 182.744C313.263 183.112 313.103 183.432 312.935 183.704C312.767 183.976 312.559 184.184 312.311 184.328C312.071 184.472 311.763 184.544 311.387 184.544ZM312.587 182L309.959 176H311.171L313.343 181.208L313.691 182H312.587ZM320.761 178.772C320.761 178.124 320.885 177.596 321.133 177.188C321.381 176.78 321.701 176.476 322.093 176.276C322.485 176.076 322.897 175.976 323.329 175.976V177.056C322.969 177.056 322.625 177.112 322.297 177.224C321.977 177.328 321.713 177.504 321.505 177.752C321.305 177.992 321.205 178.32 321.205 178.736L320.761 178.772ZM320.065 182V176H321.205V182H320.065ZM324.321 182V176H325.461V182H324.321ZM324.897 174.728C324.713 174.728 324.553 174.66 324.417 174.524C324.281 174.38 324.213 174.216 324.213 174.032C324.213 173.84 324.281 173.68 324.417 173.552C324.553 173.416 324.713 173.348 324.897 173.348C325.089 173.348 325.249 173.416 325.377 173.552C325.513 173.68 325.581 173.84 325.581 174.032C325.581 174.216 325.513 174.38 325.377 174.524C325.249 174.66 325.089 174.728 324.897 174.728ZM329.28 182.144C328.856 182.144 328.476 182.08 328.14 181.952C327.812 181.824 327.532 181.652 327.3 181.436C327.076 181.22 326.908 180.976 326.796 180.704L327.78 180.272C327.908 180.52 328.1 180.724 328.356 180.884C328.612 181.044 328.896 181.124 329.208 181.124C329.552 181.124 329.836 181.06 330.06 180.932C330.284 180.804 330.396 180.624 330.396 180.392C330.396 180.168 330.312 179.992 330.144 179.864C329.976 179.736 329.732 179.632 329.412 179.552L328.848 179.408C328.288 179.256 327.852 179.028 327.54 178.724C327.236 178.42 327.084 178.076 327.084 177.692C327.084 177.108 327.272 176.656 327.648 176.336C328.024 176.016 328.58 175.856 329.316 175.856C329.676 175.856 330.004 175.908 330.3 176.012C330.604 176.116 330.86 176.264 331.068 176.456C331.284 176.648 331.436 176.876 331.524 177.14L330.564 177.572C330.468 177.332 330.304 177.156 330.072 177.044C329.84 176.924 329.568 176.864 329.256 176.864C328.936 176.864 328.684 176.936 328.5 177.08C328.316 177.216 328.224 177.408 328.224 177.656C328.224 177.792 328.3 177.924 328.452 178.052C328.612 178.172 328.844 178.272 329.148 178.352L329.796 178.508C330.188 178.604 330.512 178.752 330.768 178.952C331.024 179.144 331.216 179.364 331.344 179.612C331.472 179.852 331.536 180.104 331.536 180.368C331.536 180.728 331.436 181.044 331.236 181.316C331.044 181.58 330.776 181.784 330.432 181.928C330.096 182.072 329.712 182.144 329.28 182.144ZM333.826 180.188L333.118 179.408L336.274 176H337.666L333.826 180.188ZM332.722 182V173.6H333.862V182H332.722ZM336.526 182L334.318 178.712L335.062 177.92L337.894 182H336.526ZM342.347 178.772C342.347 178.124 342.471 177.596 342.719 177.188C342.967 176.78 343.287 176.476 343.679 176.276C344.071 176.076 344.483 175.976 344.915 175.976V177.056C344.555 177.056 344.211 177.112 343.883 177.224C343.563 177.328 343.299 177.504 343.091 177.752C342.891 177.992 342.791 178.32 342.791 178.736L342.347 178.772ZM341.651 182V176H342.791V182H341.651ZM349.915 182L349.843 180.896V176H350.971V182H349.915ZM345.691 179.072V176H346.831V179.072H345.691ZM346.831 179.072C346.831 179.608 346.891 180.02 347.011 180.308C347.139 180.596 347.315 180.796 347.539 180.908C347.763 181.02 348.015 181.08 348.295 181.088C348.783 181.088 349.163 180.916 349.435 180.572C349.707 180.228 349.843 179.744 349.843 179.12H350.335C350.335 179.752 350.239 180.296 350.047 180.752C349.863 181.2 349.599 181.544 349.255 181.784C348.911 182.024 348.491 182.144 347.995 182.144C347.531 182.144 347.123 182.048 346.771 181.856C346.427 181.664 346.159 181.364 345.967 180.956C345.783 180.548 345.691 180.02 345.691 179.372V179.072H346.831ZM352.562 182V173.6H353.702V182H352.562ZM357.932 182.144C357.348 182.144 356.832 182.012 356.384 181.748C355.936 181.476 355.584 181.104 355.328 180.632C355.072 180.16 354.944 179.616 354.944 179C354.944 178.384 355.072 177.84 355.328 177.368C355.584 176.896 355.936 176.528 356.384 176.264C356.84 175.992 357.36 175.856 357.944 175.856C358.496 175.856 358.98 175.996 359.396 176.276C359.812 176.548 360.136 176.94 360.368 177.452C360.608 177.956 360.728 178.552 360.728 179.24H355.88L356.096 179.06C356.096 179.484 356.18 179.852 356.348 180.164C356.516 180.476 356.744 180.716 357.032 180.884C357.32 181.044 357.648 181.124 358.016 181.124C358.416 181.124 358.748 181.032 359.012 180.848C359.284 180.656 359.496 180.416 359.648 180.128L360.632 180.584C360.472 180.896 360.264 181.172 360.008 181.412C359.752 181.644 359.448 181.824 359.096 181.952C358.752 182.08 358.364 182.144 357.932 182.144ZM356.168 178.52L355.94 178.34H359.732L359.516 178.52C359.516 178.168 359.444 177.868 359.3 177.62C359.156 177.364 358.964 177.172 358.724 177.044C358.484 176.908 358.216 176.84 357.92 176.84C357.632 176.84 357.352 176.908 357.08 177.044C356.816 177.172 356.596 177.36 356.42 177.608C356.252 177.856 356.168 178.16 356.168 178.52ZM364.003 182.144C363.579 182.144 363.199 182.08 362.863 181.952C362.535 181.824 362.255 181.652 362.023 181.436C361.799 181.22 361.631 180.976 361.519 180.704L362.503 180.272C362.631 180.52 362.823 180.724 363.079 180.884C363.335 181.044 363.619 181.124 363.931 181.124C364.275 181.124 364.559 181.06 364.783 180.932C365.007 180.804 365.119 180.624 365.119 180.392C365.119 180.168 365.035 179.992 364.867 179.864C364.699 179.736 364.455 179.632 364.135 179.552L363.571 179.408C363.011 179.256 362.575 179.028 362.263 178.724C361.959 178.42 361.807 178.076 361.807 177.692C361.807 177.108 361.995 176.656 362.371 176.336C362.747 176.016 363.303 175.856 364.039 175.856C364.399 175.856 364.727 175.908 365.023 176.012C365.327 176.116 365.583 176.264 365.791 176.456C366.007 176.648 366.159 176.876 366.247 177.14L365.287 177.572C365.191 177.332 365.027 177.156 364.795 177.044C364.563 176.924 364.291 176.864 363.979 176.864C363.659 176.864 363.407 176.936 363.223 177.08C363.039 177.216 362.947 177.408 362.947 177.656C362.947 177.792 363.023 177.924 363.175 178.052C363.335 178.172 363.567 178.272 363.871 178.352L364.519 178.508C364.911 178.604 365.235 178.752 365.491 178.952C365.747 179.144 365.939 179.364 366.067 179.612C366.195 179.852 366.259 180.104 366.259 180.368C366.259 180.728 366.159 181.044 365.959 181.316C365.767 181.58 365.499 181.784 365.155 181.928C364.819 182.072 364.435 182.144 364.003 182.144Z" fill="white"/>
<path d="M275.492 198.508C274.892 198.508 274.361 198.37 273.899 198.094C273.437 197.812 273.074 197.428 272.81 196.942C272.546 196.45 272.414 195.886 272.414 195.25C272.414 194.614 272.543 194.053 272.801 193.567C273.065 193.075 273.425 192.691 273.881 192.415C274.343 192.133 274.871 191.992 275.465 191.992C275.843 191.992 276.206 192.061 276.554 192.199C276.902 192.331 277.214 192.52 277.49 192.766C277.766 193.006 277.979 193.285 278.129 193.603L277.472 193.936C277.352 193.684 277.187 193.465 276.977 193.279C276.767 193.093 276.533 192.949 276.275 192.847C276.017 192.739 275.747 192.685 275.465 192.685C275.027 192.685 274.634 192.796 274.286 193.018C273.938 193.234 273.665 193.534 273.467 193.918C273.275 194.302 273.179 194.746 273.179 195.25C273.179 195.754 273.278 196.201 273.476 196.591C273.674 196.981 273.947 197.287 274.295 197.509C274.649 197.725 275.048 197.833 275.492 197.833C275.78 197.833 276.053 197.776 276.311 197.662C276.569 197.542 276.8 197.38 277.004 197.176C277.214 196.972 277.379 196.738 277.499 196.474L278.165 196.807C278.009 197.137 277.793 197.431 277.517 197.689C277.247 197.947 276.935 198.148 276.581 198.292C276.233 198.436 275.87 198.508 275.492 198.508ZM281.888 198.4L281.852 197.662V196.024C281.852 195.67 281.813 195.379 281.735 195.151C281.657 194.917 281.534 194.74 281.366 194.62C281.198 194.5 280.979 194.44 280.709 194.44C280.463 194.44 280.25 194.491 280.07 194.593C279.896 194.689 279.752 194.845 279.638 195.061L278.99 194.809C279.104 194.599 279.242 194.419 279.404 194.269C279.566 194.113 279.755 193.996 279.971 193.918C280.187 193.834 280.433 193.792 280.709 193.792C281.129 193.792 281.474 193.876 281.744 194.044C282.02 194.206 282.227 194.449 282.365 194.773C282.503 195.091 282.569 195.487 282.563 195.961L282.554 198.4H281.888ZM280.538 198.508C280.01 198.508 279.596 198.388 279.296 198.148C279.002 197.902 278.855 197.563 278.855 197.131C278.855 196.675 279.005 196.327 279.305 196.087C279.611 195.841 280.037 195.718 280.583 195.718H281.87V196.321H280.745C280.325 196.321 280.025 196.39 279.845 196.528C279.671 196.666 279.584 196.864 279.584 197.122C279.584 197.356 279.671 197.542 279.845 197.68C280.019 197.812 280.262 197.878 280.574 197.878C280.832 197.878 281.057 197.824 281.249 197.716C281.441 197.602 281.588 197.443 281.69 197.239C281.798 197.029 281.852 196.783 281.852 196.501H282.158C282.158 197.113 282.02 197.602 281.744 197.968C281.468 198.328 281.066 198.508 280.538 198.508ZM283.704 198.4V192.1H284.424V198.4H283.704ZM287.689 198.508C287.245 198.508 286.852 198.409 286.51 198.211C286.168 198.007 285.901 197.728 285.709 197.374C285.517 197.02 285.421 196.612 285.421 196.15C285.421 195.688 285.514 195.28 285.7 194.926C285.892 194.572 286.159 194.296 286.501 194.098C286.843 193.894 287.233 193.792 287.671 193.792C288.103 193.792 288.49 193.891 288.832 194.089C289.174 194.287 289.435 194.566 289.615 194.926L288.958 195.223C288.838 194.983 288.664 194.797 288.436 194.665C288.208 194.527 287.947 194.458 287.653 194.458C287.359 194.458 287.098 194.53 286.87 194.674C286.648 194.818 286.471 195.019 286.339 195.277C286.213 195.529 286.15 195.82 286.15 196.15C286.15 196.48 286.213 196.774 286.339 197.032C286.471 197.284 286.651 197.482 286.879 197.626C287.113 197.77 287.377 197.842 287.671 197.842C287.965 197.842 288.226 197.767 288.454 197.617C288.688 197.467 288.865 197.257 288.985 196.987L289.642 197.284C289.462 197.668 289.201 197.968 288.859 198.184C288.517 198.4 288.127 198.508 287.689 198.508ZM293.638 198.4L293.593 197.572V193.9H294.313V198.4H293.638ZM290.434 196.204V193.9H291.154V196.204H290.434ZM291.154 196.204C291.154 196.648 291.205 196.987 291.307 197.221C291.409 197.455 291.55 197.617 291.73 197.707C291.916 197.791 292.123 197.833 292.351 197.833C292.741 197.833 293.044 197.692 293.26 197.41C293.482 197.128 293.593 196.735 293.593 196.231H293.944C293.944 196.705 293.875 197.113 293.737 197.455C293.599 197.797 293.398 198.058 293.134 198.238C292.876 198.418 292.558 198.508 292.18 198.508C291.832 198.508 291.526 198.439 291.262 198.301C290.998 198.157 290.794 197.932 290.65 197.626C290.506 197.314 290.434 196.912 290.434 196.42V196.204H291.154ZM295.569 198.4V192.1H296.289V198.4H295.569ZM300.319 198.4L300.283 197.662V196.024C300.283 195.67 300.244 195.379 300.166 195.151C300.088 194.917 299.965 194.74 299.797 194.62C299.629 194.5 299.41 194.44 299.14 194.44C298.894 194.44 298.681 194.491 298.501 194.593C298.327 194.689 298.183 194.845 298.069 195.061L297.421 194.809C297.535 194.599 297.673 194.419 297.835 194.269C297.997 194.113 298.186 193.996 298.402 193.918C298.618 193.834 298.864 193.792 299.14 193.792C299.56 193.792 299.905 193.876 300.175 194.044C300.451 194.206 300.658 194.449 300.796 194.773C300.934 195.091 301 195.487 300.994 195.961L300.985 198.4H300.319ZM298.969 198.508C298.441 198.508 298.027 198.388 297.727 198.148C297.433 197.902 297.286 197.563 297.286 197.131C297.286 196.675 297.436 196.327 297.736 196.087C298.042 195.841 298.468 195.718 299.014 195.718H300.301V196.321H299.176C298.756 196.321 298.456 196.39 298.276 196.528C298.102 196.666 298.015 196.864 298.015 197.122C298.015 197.356 298.102 197.542 298.276 197.68C298.45 197.812 298.693 197.878 299.005 197.878C299.263 197.878 299.488 197.824 299.68 197.716C299.872 197.602 300.019 197.443 300.121 197.239C300.229 197.029 300.283 196.783 300.283 196.501H300.589C300.589 197.113 300.451 197.602 300.175 197.968C299.899 198.328 299.497 198.508 298.969 198.508ZM303.827 198.508C303.389 198.508 303.05 198.394 302.81 198.166C302.57 197.938 302.45 197.617 302.45 197.203V192.496H303.17V197.131C303.17 197.359 303.23 197.536 303.35 197.662C303.476 197.782 303.65 197.842 303.872 197.842C303.944 197.842 304.013 197.833 304.079 197.815C304.151 197.791 304.244 197.737 304.358 197.653L304.637 198.238C304.481 198.34 304.34 198.409 304.214 198.445C304.088 198.487 303.959 198.508 303.827 198.508ZM301.667 194.539V193.9H304.52V194.539H301.667ZM305.581 198.4V193.9H306.301V198.4H305.581ZM305.95 192.856C305.83 192.856 305.725 192.811 305.635 192.721C305.545 192.631 305.5 192.526 305.5 192.406C305.5 192.28 305.545 192.175 305.635 192.091C305.725 192.001 305.83 191.956 305.95 191.956C306.076 191.956 306.181 192.001 306.265 192.091C306.355 192.175 306.4 192.28 306.4 192.406C306.4 192.526 306.355 192.631 306.265 192.721C306.181 192.811 306.076 192.856 305.95 192.856ZM309.617 198.508C309.179 198.508 308.789 198.409 308.447 198.211C308.111 198.007 307.847 197.728 307.655 197.374C307.463 197.02 307.367 196.612 307.367 196.15C307.367 195.688 307.46 195.28 307.646 194.926C307.838 194.572 308.102 194.296 308.438 194.098C308.78 193.894 309.167 193.792 309.599 193.792C310.043 193.792 310.433 193.894 310.769 194.098C311.111 194.296 311.375 194.572 311.561 194.926C311.753 195.28 311.849 195.688 311.849 196.15C311.849 196.612 311.753 197.02 311.561 197.374C311.375 197.728 311.114 198.007 310.778 198.211C310.442 198.409 310.055 198.508 309.617 198.508ZM309.617 197.842C309.917 197.842 310.178 197.77 310.4 197.626C310.622 197.482 310.796 197.284 310.922 197.032C311.054 196.78 311.12 196.486 311.12 196.15C311.12 195.814 311.054 195.52 310.922 195.268C310.796 195.016 310.619 194.818 310.391 194.674C310.163 194.53 309.899 194.458 309.599 194.458C309.305 194.458 309.044 194.53 308.816 194.674C308.594 194.818 308.417 195.016 308.285 195.268C308.159 195.52 308.096 195.814 308.096 196.15C308.096 196.48 308.159 196.774 308.285 197.032C308.417 197.284 308.597 197.482 308.825 197.626C309.059 197.77 309.323 197.842 309.617 197.842ZM312.849 198.4V193.9H313.524L313.569 194.728V198.4H312.849ZM316.008 198.4V196.096H316.728V198.4H316.008ZM316.008 196.096C316.008 195.652 315.957 195.313 315.855 195.079C315.753 194.845 315.612 194.686 315.432 194.602C315.252 194.512 315.048 194.467 314.82 194.467C314.424 194.467 314.115 194.608 313.893 194.89C313.677 195.166 313.569 195.559 313.569 196.069H313.218C313.218 195.595 313.287 195.187 313.425 194.845C313.563 194.503 313.764 194.242 314.028 194.062C314.292 193.882 314.61 193.792 314.982 193.792C315.336 193.792 315.642 193.864 315.9 194.008C316.164 194.146 316.368 194.368 316.512 194.674C316.662 194.98 316.734 195.382 316.728 195.88V196.096H316.008ZM321.666 198.508C321.336 198.508 321.048 198.46 320.802 198.364C320.556 198.262 320.349 198.13 320.181 197.968C320.019 197.806 319.902 197.629 319.83 197.437L320.46 197.176C320.562 197.38 320.715 197.545 320.919 197.671C321.123 197.797 321.348 197.86 321.594 197.86C321.876 197.86 322.113 197.806 322.305 197.698C322.497 197.584 322.593 197.425 322.593 197.221C322.593 197.035 322.521 196.885 322.377 196.771C322.239 196.657 322.032 196.564 321.756 196.492L321.324 196.375C320.916 196.267 320.598 196.105 320.37 195.889C320.142 195.667 320.028 195.418 320.028 195.142C320.028 194.716 320.166 194.386 320.442 194.152C320.724 193.912 321.141 193.792 321.693 193.792C321.957 193.792 322.197 193.831 322.413 193.909C322.629 193.987 322.815 194.098 322.971 194.242C323.127 194.38 323.241 194.545 323.313 194.737L322.683 195.016C322.605 194.812 322.476 194.665 322.296 194.575C322.116 194.485 321.897 194.44 321.639 194.44C321.363 194.44 321.147 194.5 320.991 194.62C320.835 194.734 320.757 194.896 320.757 195.106C320.757 195.226 320.82 195.34 320.946 195.448C321.078 195.55 321.27 195.634 321.522 195.7L321.972 195.817C322.266 195.889 322.512 195.997 322.71 196.141C322.908 196.279 323.058 196.438 323.16 196.618C323.262 196.798 323.313 196.99 323.313 197.194C323.313 197.464 323.241 197.698 323.097 197.896C322.953 198.094 322.758 198.247 322.512 198.355C322.266 198.457 321.984 198.508 321.666 198.508ZM325.975 198.508C325.537 198.508 325.198 198.394 324.958 198.166C324.718 197.938 324.598 197.617 324.598 197.203V192.496H325.318V197.131C325.318 197.359 325.378 197.536 325.498 197.662C325.624 197.782 325.798 197.842 326.02 197.842C326.092 197.842 326.161 197.833 326.227 197.815C326.299 197.791 326.392 197.737 326.506 197.653L326.785 198.238C326.629 198.34 326.488 198.409 326.362 198.445C326.236 198.487 326.107 198.508 325.975 198.508ZM323.815 194.539V193.9H326.668V194.539H323.815ZM329.629 198.508C329.191 198.508 328.804 198.409 328.468 198.211C328.132 198.007 327.868 197.728 327.676 197.374C327.49 197.02 327.397 196.612 327.397 196.15C327.397 195.688 327.49 195.28 327.676 194.926C327.868 194.572 328.129 194.296 328.459 194.098C328.795 193.894 329.179 193.792 329.611 193.792C330.031 193.792 330.394 193.897 330.7 194.107C331.006 194.311 331.243 194.599 331.411 194.971C331.579 195.343 331.663 195.781 331.663 196.285H327.946L328.126 196.132C328.126 196.492 328.189 196.801 328.315 197.059C328.447 197.317 328.63 197.515 328.864 197.653C329.098 197.785 329.365 197.851 329.665 197.851C329.983 197.851 330.25 197.776 330.466 197.626C330.688 197.476 330.859 197.278 330.979 197.032L331.6 197.347C331.486 197.581 331.333 197.785 331.141 197.959C330.955 198.133 330.733 198.268 330.475 198.364C330.223 198.46 329.941 198.508 329.629 198.508ZM328.171 195.826L327.982 195.682H331.087L330.898 195.835C330.898 195.547 330.841 195.298 330.727 195.088C330.613 194.878 330.46 194.716 330.268 194.602C330.076 194.488 329.854 194.431 329.602 194.431C329.356 194.431 329.122 194.488 328.9 194.602C328.684 194.716 328.507 194.878 328.369 195.088C328.237 195.292 328.171 195.538 328.171 195.826ZM332.616 200.2V193.9H333.291L333.336 194.728V200.2H332.616ZM334.857 198.508C334.479 198.508 334.146 198.409 333.858 198.211C333.576 198.013 333.357 197.737 333.201 197.383C333.045 197.023 332.967 196.612 332.967 196.15C332.967 195.682 333.045 195.271 333.201 194.917C333.357 194.563 333.576 194.287 333.858 194.089C334.146 193.891 334.479 193.792 334.857 193.792C335.259 193.792 335.613 193.891 335.919 194.089C336.225 194.287 336.462 194.563 336.63 194.917C336.804 195.271 336.891 195.682 336.891 196.15C336.891 196.612 336.804 197.023 336.63 197.383C336.462 197.737 336.225 198.013 335.919 198.211C335.613 198.409 335.259 198.508 334.857 198.508ZM334.695 197.851C334.977 197.851 335.226 197.779 335.442 197.635C335.664 197.491 335.838 197.29 335.964 197.032C336.096 196.774 336.162 196.48 336.162 196.15C336.162 195.82 336.099 195.526 335.973 195.268C335.853 195.01 335.682 194.809 335.46 194.665C335.238 194.521 334.986 194.449 334.704 194.449C334.44 194.449 334.203 194.521 333.993 194.665C333.789 194.809 333.627 195.01 333.507 195.268C333.393 195.526 333.336 195.82 333.336 196.15C333.336 196.48 333.393 196.774 333.507 197.032C333.627 197.29 333.789 197.491 333.993 197.635C334.197 197.779 334.431 197.851 334.695 197.851Z" fill="#A4A4AD"/>
<path d="M651 138V138C577.546 138 518.001 197.546 518.001 270.999L518.001 272.5" stroke="#37373D" stroke-dasharray="4 4"/>
</g>
<defs>
<clipPath id="clip0_1169_1109">
<rect width="650" height="264" rx="16" fill="white"/>
</clipPath>
</defs>
</svg>
