<svg width="650" height="264" viewBox="0 0 650 264" fill="none" xmlns="http://www.w3.org/2000/svg">
<g clip-path="url(#clip0_1169_1132)">
<rect width="650" height="264" rx="16" fill="#1A1A1E"/>
<rect x="178.5" y="197.5" width="284" height="78" rx="15.5" stroke="#37373D" stroke-dasharray="2 2"/>
<rect x="-120.5" y="99.5" width="284" height="78" rx="15.5" stroke="#37373D" stroke-dasharray="2 2"/>
<rect x="477.5" y="99.5" width="284" height="78" rx="15.5" stroke="#37373D" stroke-dasharray="2 2"/>
<rect x="477.5" y="197.5" width="284" height="78" rx="15.5" stroke="#37373D" stroke-dasharray="2 2"/>
<rect x="178.5" y="1.5" width="284" height="78" rx="15.5" stroke="#37373D" stroke-dasharray="2 2"/>
<rect x="-120.5" y="1.5" width="284" height="78" rx="15.5" stroke="#37373D" stroke-dasharray="2 2"/>
<g opacity="0.3">
<rect x="-120.5" y="197.5" width="284" height="79" rx="15.5" stroke="#37373D"/>
<path d="M-28.832 233L-33.264 221.8H-31.664L-27.152 233H-28.832ZM-37.856 233L-33.344 221.8H-31.744L-36.176 233H-37.856ZM-35.728 230.008V228.6H-29.28V230.008H-35.728ZM-25.8796 236.2V225H-24.4556L-24.3596 226.472V236.2H-25.8796ZM-21.7356 233.192C-22.4076 233.192 -22.9943 233.016 -23.4956 232.664C-23.9863 232.312 -24.365 231.821 -24.6316 231.192C-24.8983 230.563 -25.0316 229.832 -25.0316 229C-25.0316 228.157 -24.8983 227.427 -24.6316 226.808C-24.365 226.179 -23.9863 225.688 -23.4956 225.336C-22.9943 224.984 -22.4076 224.808 -21.7356 224.808C-21.021 224.808 -20.3916 224.984 -19.8476 225.336C-19.3036 225.688 -18.8823 226.179 -18.5836 226.808C-18.2743 227.427 -18.1196 228.157 -18.1196 229C-18.1196 229.832 -18.2743 230.563 -18.5836 231.192C-18.8823 231.821 -19.3036 232.312 -19.8476 232.664C-20.3916 233.016 -21.021 233.192 -21.7356 233.192ZM-22.1036 231.816C-21.6236 231.816 -21.2023 231.699 -20.8396 231.464C-20.477 231.219 -20.1943 230.888 -19.9916 230.472C-19.7783 230.045 -19.6716 229.555 -19.6716 229C-19.6716 228.445 -19.773 227.96 -19.9756 227.544C-20.1783 227.117 -20.461 226.787 -20.8236 226.552C-21.1863 226.307 -21.6076 226.184 -22.0876 226.184C-22.525 226.184 -22.9196 226.307 -23.2716 226.552C-23.613 226.787 -23.8796 227.117 -24.0716 227.544C-24.2636 227.971 -24.3596 228.456 -24.3596 229C-24.3596 229.555 -24.2636 230.045 -24.0716 230.472C-23.8796 230.888 -23.613 231.219 -23.2716 231.464C-22.9303 231.699 -22.541 231.816 -22.1036 231.816ZM-16.3796 236.2V225H-14.9556L-14.8596 226.472V236.2H-16.3796ZM-12.2356 233.192C-12.9076 233.192 -13.4943 233.016 -13.9956 232.664C-14.4863 232.312 -14.865 231.821 -15.1316 231.192C-15.3983 230.563 -15.5316 229.832 -15.5316 229C-15.5316 228.157 -15.3983 227.427 -15.1316 226.808C-14.865 226.179 -14.4863 225.688 -13.9956 225.336C-13.4943 224.984 -12.9076 224.808 -12.2356 224.808C-11.521 224.808 -10.8916 224.984 -10.3476 225.336C-9.80362 225.688 -9.38229 226.179 -9.08362 226.808C-8.77429 227.427 -8.61962 228.157 -8.61962 229C-8.61962 229.832 -8.77429 230.563 -9.08362 231.192C-9.38229 231.821 -9.80362 232.312 -10.3476 232.664C-10.8916 233.016 -11.521 233.192 -12.2356 233.192ZM-12.6036 231.816C-12.1236 231.816 -11.7023 231.699 -11.3396 231.464C-10.977 231.219 -10.6943 230.888 -10.4916 230.472C-10.2783 230.045 -10.1716 229.555 -10.1716 229C-10.1716 228.445 -10.273 227.96 -10.4756 227.544C-10.6783 227.117 -10.961 226.787 -11.3236 226.552C-11.6863 226.307 -12.1076 226.184 -12.5876 226.184C-13.025 226.184 -13.4196 226.307 -13.7716 226.552C-14.113 226.787 -14.3796 227.117 -14.5716 227.544C-14.7636 227.971 -14.8596 228.456 -14.8596 229C-14.8596 229.555 -14.7636 230.045 -14.5716 230.472C-14.3796 230.888 -14.113 231.219 -13.7716 231.464C-13.4303 231.699 -13.041 231.816 -12.6036 231.816ZM-6.03162 228.696C-6.03162 227.832 -5.86629 227.128 -5.53562 226.584C-5.20496 226.04 -4.77829 225.635 -4.25562 225.368C-3.73296 225.101 -3.18362 224.968 -2.60762 224.968V226.408C-3.08762 226.408 -3.54629 226.483 -3.98362 226.632C-4.41029 226.771 -4.76229 227.005 -5.03962 227.336C-5.30629 227.656 -5.43962 228.093 -5.43962 228.648L-6.03162 228.696ZM-6.95963 233V225H-5.43962V233H-6.95963ZM2.2345 233.192C1.4345 233.192 0.7305 233.016 0.1225 232.664C-0.4855 232.301 -0.9655 231.805 -1.3175 231.176C-1.65883 230.547 -1.8295 229.821 -1.8295 229C-1.8295 228.179 -1.65883 227.453 -1.3175 226.824C-0.976167 226.195 -0.5015 225.704 0.1065 225.352C0.7145 224.989 1.41317 224.808 2.2025 224.808C2.99183 224.808 3.6905 224.989 4.2985 225.352C4.9065 225.704 5.38117 226.195 5.7225 226.824C6.06383 227.453 6.2345 228.179 6.2345 229C6.2345 229.821 6.06383 230.547 5.7225 231.176C5.38117 231.805 4.9065 232.301 4.2985 232.664C3.70117 233.016 3.01317 233.192 2.2345 233.192ZM2.2345 231.8C2.7145 231.8 3.14117 231.683 3.5145 231.448C3.88783 231.203 4.17583 230.872 4.3785 230.456C4.59183 230.04 4.6985 229.555 4.6985 229C4.6985 228.445 4.59183 227.96 4.3785 227.544C4.17583 227.128 3.8825 226.803 3.4985 226.568C3.1145 226.323 2.6825 226.2 2.2025 226.2C1.71183 226.2 1.27983 226.323 0.9065 226.568C0.533167 226.803 0.239834 227.128 0.0265002 227.544C-0.186833 227.96 -0.2935 228.445 -0.2935 229C-0.2935 229.555 -0.186833 230.04 0.0265002 230.456C0.239834 230.872 0.5385 231.203 0.9225 231.448C1.3065 231.683 1.74383 231.8 2.2345 231.8ZM10.1618 233L13.3618 225H14.9458L11.6018 233H10.1618ZM10.0658 233L6.73775 225H8.28975L11.4898 233H10.0658ZM19.467 233.192C18.6883 233.192 18.0003 233.016 17.403 232.664C16.8057 232.301 16.3363 231.805 15.995 231.176C15.6537 230.547 15.483 229.821 15.483 229C15.483 228.179 15.6537 227.453 15.995 226.824C16.3363 226.195 16.8057 225.704 17.403 225.352C18.011 224.989 18.7043 224.808 19.483 224.808C20.219 224.808 20.8643 224.995 21.419 225.368C21.9737 225.731 22.4057 226.253 22.715 226.936C23.035 227.608 23.195 228.403 23.195 229.32H16.731L17.019 229.08C17.019 229.645 17.131 230.136 17.355 230.552C17.579 230.968 17.883 231.288 18.267 231.512C18.651 231.725 19.0883 231.832 19.579 231.832C20.1123 231.832 20.555 231.709 20.907 231.464C21.2697 231.208 21.5523 230.888 21.755 230.504L23.067 231.112C22.8537 231.528 22.5763 231.896 22.235 232.216C21.8937 232.525 21.4883 232.765 21.019 232.936C20.5603 233.107 20.043 233.192 19.467 233.192ZM17.115 228.36L16.811 228.12H21.867L21.579 228.36C21.579 227.891 21.483 227.491 21.291 227.16C21.099 226.819 20.843 226.563 20.523 226.392C20.203 226.211 19.8457 226.12 19.451 226.12C19.067 226.12 18.6937 226.211 18.331 226.392C17.979 226.563 17.6857 226.813 17.451 227.144C17.227 227.475 17.115 227.88 17.115 228.36ZM30.5526 233L30.4886 231.512V221.8H31.9926V233H30.5526ZM27.8646 233.192C27.1393 233.192 26.5046 233.016 25.9606 232.664C25.4273 232.312 25.006 231.821 24.6966 231.192C24.398 230.563 24.2486 229.832 24.2486 229C24.2486 228.157 24.398 227.427 24.6966 226.808C25.006 226.179 25.4273 225.688 25.9606 225.336C26.5046 224.984 27.1393 224.808 27.8646 224.808C28.5366 224.808 29.118 224.984 29.6086 225.336C30.11 225.688 30.494 226.179 30.7606 226.808C31.0273 227.427 31.1606 228.157 31.1606 229C31.1606 229.832 31.0273 230.563 30.7606 231.192C30.494 231.821 30.11 232.312 29.6086 232.664C29.118 233.016 28.5366 233.192 27.8646 233.192ZM28.2166 231.816C28.6646 231.816 29.0593 231.699 29.4006 231.464C29.742 231.219 30.0086 230.888 30.2006 230.472C30.3926 230.045 30.4886 229.555 30.4886 229C30.4886 228.445 30.3926 227.96 30.2006 227.544C30.0086 227.117 29.742 226.787 29.4006 226.552C29.0593 226.307 28.6593 226.184 28.2006 226.184C27.7313 226.184 27.3153 226.307 26.9526 226.552C26.59 226.787 26.3073 227.117 26.1046 227.544C25.902 227.96 25.8006 228.445 25.8006 229C25.8006 229.555 25.902 230.045 26.1046 230.472C26.318 230.888 26.606 231.219 26.9686 231.464C27.3313 231.699 27.7473 231.816 28.2166 231.816ZM35.7989 229.928L35.7669 227.096L36.6949 227.048C37.3562 227.037 37.8949 226.851 38.3109 226.488C38.7375 226.125 38.9509 225.624 38.9509 224.984C38.9509 224.408 38.7535 223.933 38.3589 223.56C37.9642 223.187 37.4469 223 36.8069 223C36.3589 223 35.9589 223.112 35.6069 223.336C35.2655 223.549 35.0362 223.816 34.9189 224.136L33.5109 223.72C33.7242 223.091 34.1189 222.584 34.6949 222.2C35.2709 221.805 35.9749 221.608 36.8069 221.608C37.5215 221.608 38.1509 221.752 38.6949 222.04C39.2495 222.328 39.6815 222.728 39.9909 223.24C40.3002 223.741 40.4549 224.323 40.4549 224.984C40.4549 225.581 40.3215 226.115 40.0549 226.584C39.7989 227.043 39.4309 227.411 38.9509 227.688C38.4815 227.965 37.9322 228.136 37.3029 228.2V229.928H35.7989ZM36.5509 233.224C36.2629 233.224 36.0229 233.128 35.8309 232.936C35.6389 232.744 35.5429 232.509 35.5429 232.232C35.5429 231.955 35.6389 231.72 35.8309 231.528C36.0229 231.336 36.2629 231.24 36.5509 231.24C36.8282 231.24 37.0629 231.336 37.2549 231.528C37.4469 231.72 37.5429 231.955 37.5429 232.232C37.5429 232.509 37.4469 232.744 37.2549 232.936C37.0629 233.128 36.8282 233.224 36.5509 233.224Z" fill="white"/>
<path d="M-33.2755 252.851C-34.0873 252.851 -34.8057 252.664 -35.4308 252.291C-36.0558 251.91 -36.5469 251.39 -36.9041 250.732C-37.2613 250.067 -37.4399 249.304 -37.4399 248.443C-37.4399 247.583 -37.2654 246.824 -36.9163 246.166C-36.5591 245.501 -36.0721 244.981 -35.4551 244.608C-34.8301 244.226 -34.1157 244.035 -33.3121 244.035C-32.8006 244.035 -32.3095 244.129 -31.8387 244.315C-31.3679 244.494 -30.9458 244.75 -30.5724 245.083C-30.1989 245.407 -29.9108 245.785 -29.7078 246.215L-30.5967 246.666C-30.7591 246.325 -30.9823 246.028 -31.2664 245.777C-31.5505 245.525 -31.8671 245.33 -32.2162 245.192C-32.5652 245.046 -32.9305 244.973 -33.3121 244.973C-33.9046 244.973 -34.4364 245.123 -34.9072 245.424C-35.378 245.716 -35.7474 246.122 -36.0152 246.641C-36.275 247.161 -36.4049 247.761 -36.4049 248.443C-36.4049 249.125 -36.2709 249.73 -36.0031 250.258C-35.7352 250.785 -35.3658 251.199 -34.895 251.5C-34.4161 251.792 -33.8762 251.938 -33.2755 251.938C-32.8859 251.938 -32.5165 251.861 -32.1675 251.707C-31.8184 251.544 -31.5059 251.325 -31.2299 251.049C-30.9458 250.773 -30.7225 250.456 -30.5602 250.099L-29.6591 250.55C-29.8702 250.996 -30.1624 251.394 -30.5358 251.743C-30.9011 252.092 -31.3232 252.364 -31.8022 252.559C-32.273 252.754 -32.7641 252.851 -33.2755 252.851ZM-24.6217 252.705L-24.6704 251.707V249.49C-24.6704 249.012 -24.7231 248.618 -24.8287 248.309C-24.9342 247.993 -25.1006 247.753 -25.3279 247.591C-25.5552 247.429 -25.8515 247.347 -26.2168 247.347C-26.5496 247.347 -26.8378 247.416 -27.0813 247.554C-27.3167 247.684 -27.5116 247.895 -27.6658 248.188L-28.5425 247.847C-28.3883 247.563 -28.2016 247.319 -27.9824 247.116C-27.7632 246.905 -27.5075 246.747 -27.2153 246.641C-26.923 246.528 -26.5902 246.471 -26.2168 246.471C-25.6486 246.471 -25.1818 246.584 -24.8165 246.812C-24.4431 247.031 -24.163 247.36 -23.9763 247.798C-23.7896 248.228 -23.7003 248.764 -23.7084 249.405L-23.7206 252.705H-24.6217ZM-26.4481 252.851C-27.1625 252.851 -27.7226 252.689 -28.1285 252.364C-28.5263 252.031 -28.7251 251.573 -28.7251 250.988C-28.7251 250.371 -28.5222 249.9 -28.1163 249.576C-27.7023 249.243 -27.126 249.076 -26.3873 249.076H-24.646V249.892H-26.1681C-26.7363 249.892 -27.1422 249.986 -27.3857 250.172C-27.6211 250.359 -27.7388 250.627 -27.7388 250.976C-27.7388 251.293 -27.6211 251.544 -27.3857 251.731C-27.1503 251.91 -26.8216 251.999 -26.3994 251.999C-26.0504 251.999 -25.746 251.926 -25.4862 251.78C-25.2264 251.625 -25.0276 251.41 -24.8896 251.134C-24.7434 250.85 -24.6704 250.517 -24.6704 250.136H-24.2564C-24.2564 250.964 -24.4431 251.625 -24.8165 252.121C-25.1899 252.608 -25.7338 252.851 -26.4481 252.851ZM-22.1649 252.705V244.182H-21.1908V252.705H-22.1649ZM-16.774 252.851C-17.3747 252.851 -17.9064 252.717 -18.3692 252.449C-18.8319 252.173 -19.1931 251.796 -19.4529 251.317C-19.7126 250.838 -19.8425 250.286 -19.8425 249.661C-19.8425 249.036 -19.7167 248.484 -19.465 248.005C-19.2053 247.526 -18.844 247.153 -18.3813 246.885C-17.9186 246.609 -17.391 246.471 -16.7984 246.471C-16.2139 246.471 -15.6903 246.605 -15.2276 246.873C-14.7649 247.14 -14.4118 247.518 -14.1683 248.005L-15.0572 248.407C-15.2195 248.082 -15.4549 247.83 -15.7634 247.652C-16.0719 247.465 -16.425 247.372 -16.8227 247.372C-17.2205 247.372 -17.5736 247.469 -17.8821 247.664C-18.1824 247.859 -18.4219 248.131 -18.6005 248.48C-18.771 248.821 -18.8562 249.214 -18.8562 249.661C-18.8562 250.107 -18.771 250.505 -18.6005 250.854C-18.4219 251.195 -18.1784 251.463 -17.8699 251.658C-17.5533 251.853 -17.1962 251.95 -16.7984 251.95C-16.4006 251.95 -16.0475 251.849 -15.739 251.646C-15.4224 251.443 -15.183 251.159 -15.0206 250.793L-14.1317 251.195C-14.3753 251.715 -14.7284 252.121 -15.1911 252.413C-15.6538 252.705 -16.1814 252.851 -16.774 252.851ZM-8.7252 252.705L-8.78608 251.585V246.617H-7.81196V252.705H-8.7252ZM-13.06 249.734V246.617H-12.0859V249.734H-13.06ZM-12.0859 249.734C-12.0859 250.335 -12.0169 250.793 -11.8789 251.11C-11.7409 251.427 -11.5501 251.646 -11.3066 251.767C-11.055 251.881 -10.7749 251.938 -10.4664 251.938C-9.93878 251.938 -9.52884 251.747 -9.23661 251.366C-8.93625 250.984 -8.78608 250.452 -8.78608 249.771H-8.3112C-8.3112 250.412 -8.40455 250.964 -8.59125 251.427C-8.77796 251.889 -9.0499 252.242 -9.40708 252.486C-9.75614 252.729 -10.1864 252.851 -10.6978 252.851C-11.1686 252.851 -11.5826 252.758 -11.9398 252.571C-12.297 252.376 -12.573 252.072 -12.7678 251.658C-12.9626 251.236 -13.06 250.692 -13.06 250.026V249.734H-12.0859ZM-6.11192 252.705V244.182H-5.1378V252.705H-6.11192ZM0.31393 252.705L0.265224 251.707V249.49C0.265224 249.012 0.212459 248.618 0.10693 248.309C0.00140042 247.993 -0.165011 247.753 -0.392305 247.591C-0.6196 247.429 -0.915894 247.347 -1.28119 247.347C-1.61401 247.347 -1.90219 247.416 -2.14572 247.554C-2.38113 247.684 -2.57595 247.895 -2.73019 248.188L-3.60689 247.847C-3.45266 247.563 -3.26595 247.319 -3.04678 247.116C-2.8276 246.905 -2.57189 246.747 -2.27966 246.641C-1.98742 246.528 -1.6546 246.471 -1.28119 246.471C-0.712953 246.471 -0.246188 246.584 0.119106 246.812C0.492518 247.031 0.772577 247.36 0.959283 247.798C1.14599 248.228 1.23528 248.764 1.22716 249.405L1.21499 252.705H0.31393ZM-1.51254 252.851C-2.22689 252.851 -2.78701 252.689 -3.19289 252.364C-3.59066 252.031 -3.78954 251.573 -3.78954 250.988C-3.78954 250.371 -3.5866 249.9 -3.18072 249.576C-2.76672 249.243 -2.19036 249.076 -1.45166 249.076H0.289577V249.892H-1.23248C-1.80072 249.892 -2.2066 249.986 -2.45013 250.172C-2.68554 250.359 -2.80325 250.627 -2.80325 250.976C-2.80325 251.293 -2.68554 251.544 -2.45013 251.731C-2.21472 251.91 -1.88595 251.999 -1.46384 251.999C-1.11478 251.999 -0.810364 251.926 -0.5506 251.78C-0.290835 251.625 -0.0919527 251.41 0.0460473 251.134C0.192165 250.85 0.265224 250.517 0.265224 250.136H0.679224C0.679224 250.964 0.492518 251.625 0.119106 252.121C-0.254306 252.608 -0.798188 252.851 -1.51254 252.851ZM5.0599 252.851C4.46731 252.851 4.00866 252.697 3.68396 252.388C3.35925 252.08 3.1969 251.646 3.1969 251.086V244.717H4.17102V250.988C4.17102 251.297 4.25219 251.536 4.41455 251.707C4.58502 251.869 4.82043 251.95 5.12078 251.95C5.21819 251.95 5.31155 251.938 5.40084 251.914C5.49825 251.881 5.62408 251.808 5.77831 251.694L6.15578 252.486C5.94472 252.624 5.75396 252.717 5.58349 252.766C5.41302 252.823 5.23849 252.851 5.0599 252.851ZM2.13755 247.481V246.617H5.99749V247.481H2.13755ZM7.43346 252.705V246.617H8.40757V252.705H7.43346ZM7.93269 245.204C7.77034 245.204 7.62828 245.143 7.50652 245.022C7.38475 244.9 7.32387 244.758 7.32387 244.596C7.32387 244.425 7.38475 244.283 7.50652 244.169C7.62828 244.048 7.77034 243.987 7.93269 243.987C8.10316 243.987 8.24522 244.048 8.35887 244.169C8.48063 244.283 8.54152 244.425 8.54152 244.596C8.54152 244.758 8.48063 244.9 8.35887 245.022C8.24522 245.143 8.10316 245.204 7.93269 245.204ZM12.8937 252.851C12.3011 252.851 11.7734 252.717 11.3107 252.449C10.8561 252.173 10.4989 251.796 10.2392 251.317C9.97942 250.838 9.84954 250.286 9.84954 249.661C9.84954 249.036 9.97536 248.484 10.227 248.005C10.4868 247.526 10.8439 247.153 11.2985 246.885C11.7612 246.609 12.2848 246.471 12.8693 246.471C13.47 246.471 13.9977 246.609 14.4522 246.885C14.9149 247.153 15.2721 247.526 15.5238 248.005C15.7835 248.484 15.9134 249.036 15.9134 249.661C15.9134 250.286 15.7835 250.838 15.5238 251.317C15.2721 251.796 14.919 252.173 14.4644 252.449C14.0098 252.717 13.4862 252.851 12.8937 252.851ZM12.8937 251.95C13.2995 251.95 13.6527 251.853 13.953 251.658C14.2534 251.463 14.4888 251.195 14.6592 250.854C14.8378 250.513 14.9271 250.116 14.9271 249.661C14.9271 249.206 14.8378 248.809 14.6592 248.468C14.4888 248.127 14.2493 247.859 13.9408 247.664C13.6324 247.469 13.2752 247.372 12.8693 247.372C12.4715 247.372 12.1184 247.469 11.8099 247.664C11.5096 247.859 11.2701 248.127 11.0915 248.468C10.9211 248.809 10.8358 249.206 10.8358 249.661C10.8358 250.107 10.9211 250.505 11.0915 250.854C11.2701 251.195 11.5137 251.463 11.8221 251.658C12.1387 251.853 12.4959 251.95 12.8937 251.95ZM17.266 252.705V246.617H18.1792L18.2401 247.737V252.705H17.266ZM21.5399 252.705V249.588H22.514V252.705H21.5399ZM21.5399 249.588C21.5399 248.987 21.4709 248.529 21.3329 248.212C21.1949 247.895 21.0041 247.68 20.7606 247.567C20.5171 247.445 20.2411 247.384 19.9326 247.384C19.3968 247.384 18.9788 247.575 18.6784 247.956C18.3862 248.33 18.2401 248.861 18.2401 249.551H17.7652C17.7652 248.91 17.8585 248.358 18.0453 247.895C18.232 247.433 18.5039 247.08 18.8611 246.836C19.2183 246.592 19.6485 246.471 20.1518 246.471C20.6307 246.471 21.0447 246.568 21.3938 246.763C21.751 246.95 22.027 247.25 22.2218 247.664C22.4247 248.078 22.5221 248.622 22.514 249.296V249.588H21.5399ZM29.1951 252.851C28.7486 252.851 28.359 252.786 28.0261 252.656C27.6933 252.518 27.4133 252.34 27.186 252.121C26.9668 251.901 26.8085 251.662 26.7111 251.402L27.5634 251.049C27.7014 251.325 27.9084 251.548 28.1844 251.719C28.4604 251.889 28.7649 251.974 29.0977 251.974C29.4792 251.974 29.7999 251.901 30.0596 251.755C30.3194 251.601 30.4493 251.386 30.4493 251.11C30.4493 250.858 30.3519 250.655 30.157 250.501C29.9703 250.347 29.6903 250.221 29.3169 250.124L28.7324 249.965C28.1804 249.819 27.7501 249.6 27.4417 249.308C27.1332 249.007 26.979 248.671 26.979 248.297C26.979 247.721 27.1657 247.274 27.5391 246.958C27.9206 246.633 28.4848 246.471 29.2316 246.471C29.5888 246.471 29.9135 246.523 30.2057 246.629C30.498 246.735 30.7496 246.885 30.9607 247.08C31.1717 247.266 31.326 247.489 31.4234 247.749L30.571 248.127C30.4655 247.851 30.291 247.652 30.0474 247.53C29.8039 247.408 29.5076 247.347 29.1586 247.347C28.7851 247.347 28.4929 247.429 28.2819 247.591C28.0708 247.745 27.9653 247.964 27.9653 248.248C27.9653 248.411 28.0505 248.565 28.221 248.711C28.3996 248.849 28.6593 248.963 29.0003 249.052L29.6091 249.21C30.0069 249.308 30.3397 249.454 30.6076 249.649C30.8754 249.835 31.0784 250.051 31.2164 250.294C31.3544 250.538 31.4234 250.797 31.4234 251.073C31.4234 251.439 31.326 251.755 31.1311 252.023C30.9363 252.291 30.6725 252.498 30.3397 252.644C30.0069 252.782 29.6253 252.851 29.1951 252.851ZM35.0254 252.851C34.4328 252.851 33.9742 252.697 33.6495 252.388C33.3248 252.08 33.1624 251.646 33.1624 251.086V244.717H34.1366V250.988C34.1366 251.297 34.2177 251.536 34.3801 251.707C34.5506 251.869 34.786 251.95 35.0863 251.95C35.1837 251.95 35.2771 251.938 35.3664 251.914C35.4638 251.881 35.5896 251.808 35.7438 251.694L36.1213 252.486C35.9103 252.624 35.7195 252.717 35.549 252.766C35.3786 252.823 35.204 252.851 35.0254 252.851ZM32.1031 247.481V246.617H35.963V247.481H32.1031ZM39.9691 252.851C39.3765 252.851 38.8529 252.717 38.3983 252.449C37.9437 252.173 37.5866 251.796 37.3268 251.317C37.0751 250.838 36.9493 250.286 36.9493 249.661C36.9493 249.036 37.0751 248.484 37.3268 248.005C37.5866 247.526 37.9397 247.153 38.3861 246.885C38.8407 246.609 39.3603 246.471 39.9447 246.471C40.513 246.471 41.0041 246.613 41.4181 246.897C41.8321 247.173 42.1527 247.563 42.38 248.066C42.6073 248.569 42.721 249.162 42.721 249.844H37.6921L37.9356 249.637C37.9356 250.124 38.0208 250.542 38.1913 250.891C38.3699 251.24 38.6175 251.508 38.9341 251.694C39.2507 251.873 39.6119 251.962 40.0178 251.962C40.448 251.962 40.8093 251.861 41.1015 251.658C41.4018 251.455 41.6332 251.187 41.7956 250.854L42.6357 251.28C42.4815 251.597 42.2745 251.873 42.0147 252.108C41.7631 252.344 41.4627 252.526 41.1137 252.656C40.7727 252.786 40.3912 252.851 39.9691 252.851ZM37.9965 249.223L37.7408 249.028H41.9417L41.686 249.235C41.686 248.845 41.6088 248.508 41.4546 248.224C41.3004 247.94 41.0934 247.721 40.8336 247.567C40.5738 247.412 40.2735 247.335 39.9326 247.335C39.5997 247.335 39.2831 247.412 38.9828 247.567C38.6906 247.721 38.4511 247.94 38.2644 248.224C38.0858 248.5 37.9965 248.833 37.9965 249.223ZM44.0104 255.14V246.617H44.9237L44.9846 247.737V255.14H44.0104ZM47.0424 252.851C46.531 252.851 46.0804 252.717 45.6908 252.449C45.3093 252.181 45.013 251.808 44.8019 251.329C44.5908 250.842 44.4853 250.286 44.4853 249.661C44.4853 249.028 44.5908 248.472 44.8019 247.993C45.013 247.514 45.3093 247.14 45.6908 246.873C46.0804 246.605 46.531 246.471 47.0424 246.471C47.5863 246.471 48.0652 246.605 48.4792 246.873C48.8932 247.14 49.2138 247.514 49.4411 247.993C49.6766 248.472 49.7943 249.028 49.7943 249.661C49.7943 250.286 49.6766 250.842 49.4411 251.329C49.2138 251.808 48.8932 252.181 48.4792 252.449C48.0652 252.717 47.5863 252.851 47.0424 252.851ZM46.8232 251.962C47.2047 251.962 47.5416 251.865 47.8338 251.67C48.1342 251.475 48.3696 251.203 48.5401 250.854C48.7187 250.505 48.808 250.107 48.808 249.661C48.808 249.214 48.7227 248.817 48.5523 248.468C48.3899 248.119 48.1586 247.847 47.8582 247.652C47.5578 247.457 47.2169 247.36 46.8354 247.36C46.4782 247.36 46.1576 247.457 45.8734 247.652C45.5974 247.847 45.3783 248.119 45.2159 248.468C45.0617 248.817 44.9846 249.214 44.9846 249.661C44.9846 250.107 45.0617 250.505 45.2159 250.854C45.3783 251.203 45.5974 251.475 45.8734 251.67C46.1494 251.865 46.466 251.962 46.8232 251.962Z" fill="#A4A4AD"/>
</g>
<g opacity="0.2">
<rect x="105.042" y="258.394" width="38.5648" height="38.5648" rx="9.05093" fill="#1A1A1E" stroke="#37373D" stroke-width="0.787037"/>
</g>
<g opacity="0.2">
<rect x="105.394" y="213.394" width="38.5648" height="38.5648" rx="9.05093" fill="#1A1A1E" stroke="#37373D" stroke-width="0.787037"/>
<path d="M119.428 234.644C119.428 234.644 120.084 233.988 122.051 233.988C124.019 233.988 125.331 235.3 127.298 235.3C129.266 235.3 129.922 234.644 129.922 234.644V227.429C129.922 227.429 129.266 228.085 127.298 228.085C125.331 228.085 124.019 226.773 122.051 226.773C120.084 226.773 119.428 227.429 119.428 227.429M119.428 239.235L119.428 226.117" stroke="white" stroke-width="0.787037" stroke-linecap="round" stroke-linejoin="round"/>
</g>
<rect x="178.5" y="98.5" width="284" height="79" rx="15.5" stroke="#37373D"/>
<path d="M270.168 134L265.736 122.8H267.336L271.848 134H270.168ZM261.144 134L265.656 122.8H267.256L262.824 134H261.144ZM263.272 131.008V129.6H269.72V131.008H263.272ZM273.12 137.2V126H274.544L274.64 127.472V137.2H273.12ZM277.264 134.192C276.592 134.192 276.006 134.016 275.504 133.664C275.014 133.312 274.635 132.821 274.368 132.192C274.102 131.563 273.968 130.832 273.968 130C273.968 129.157 274.102 128.427 274.368 127.808C274.635 127.179 275.014 126.688 275.504 126.336C276.006 125.984 276.592 125.808 277.264 125.808C277.979 125.808 278.608 125.984 279.152 126.336C279.696 126.688 280.118 127.179 280.416 127.808C280.726 128.427 280.88 129.157 280.88 130C280.88 130.832 280.726 131.563 280.416 132.192C280.118 132.821 279.696 133.312 279.152 133.664C278.608 134.016 277.979 134.192 277.264 134.192ZM276.896 132.816C277.376 132.816 277.798 132.699 278.16 132.464C278.523 132.219 278.806 131.888 279.008 131.472C279.222 131.045 279.328 130.555 279.328 130C279.328 129.445 279.227 128.96 279.024 128.544C278.822 128.117 278.539 127.787 278.176 127.552C277.814 127.307 277.392 127.184 276.912 127.184C276.475 127.184 276.08 127.307 275.728 127.552C275.387 127.787 275.12 128.117 274.928 128.544C274.736 128.971 274.64 129.456 274.64 130C274.64 130.555 274.736 131.045 274.928 131.472C275.12 131.888 275.387 132.219 275.728 132.464C276.07 132.699 276.459 132.816 276.896 132.816ZM282.62 137.2V126H284.044L284.14 127.472V137.2H282.62ZM286.764 134.192C286.092 134.192 285.506 134.016 285.004 133.664C284.514 133.312 284.135 132.821 283.868 132.192C283.602 131.563 283.468 130.832 283.468 130C283.468 129.157 283.602 128.427 283.868 127.808C284.135 127.179 284.514 126.688 285.004 126.336C285.506 125.984 286.092 125.808 286.764 125.808C287.479 125.808 288.108 125.984 288.652 126.336C289.196 126.688 289.618 127.179 289.916 127.808C290.226 128.427 290.38 129.157 290.38 130C290.38 130.832 290.226 131.563 289.916 132.192C289.618 132.821 289.196 133.312 288.652 133.664C288.108 134.016 287.479 134.192 286.764 134.192ZM286.396 132.816C286.876 132.816 287.298 132.699 287.66 132.464C288.023 132.219 288.306 131.888 288.508 131.472C288.722 131.045 288.828 130.555 288.828 130C288.828 129.445 288.727 128.96 288.524 128.544C288.322 128.117 288.039 127.787 287.676 127.552C287.314 127.307 286.892 127.184 286.412 127.184C285.975 127.184 285.58 127.307 285.228 127.552C284.887 127.787 284.62 128.117 284.428 128.544C284.236 128.971 284.14 129.456 284.14 130C284.14 130.555 284.236 131.045 284.428 131.472C284.62 131.888 284.887 132.219 285.228 132.464C285.57 132.699 285.959 132.816 286.396 132.816ZM292.968 129.696C292.968 128.832 293.134 128.128 293.464 127.584C293.795 127.04 294.222 126.635 294.744 126.368C295.267 126.101 295.816 125.968 296.392 125.968V127.408C295.912 127.408 295.454 127.483 295.016 127.632C294.59 127.771 294.238 128.005 293.96 128.336C293.694 128.656 293.56 129.093 293.56 129.648L292.968 129.696ZM292.04 134V126H293.56V134H292.04ZM301.235 134.192C300.435 134.192 299.731 134.016 299.123 133.664C298.515 133.301 298.035 132.805 297.683 132.176C297.341 131.547 297.171 130.821 297.171 130C297.171 129.179 297.341 128.453 297.683 127.824C298.024 127.195 298.499 126.704 299.107 126.352C299.715 125.989 300.413 125.808 301.203 125.808C301.992 125.808 302.691 125.989 303.299 126.352C303.907 126.704 304.381 127.195 304.723 127.824C305.064 128.453 305.235 129.179 305.235 130C305.235 130.821 305.064 131.547 304.723 132.176C304.381 132.805 303.907 133.301 303.299 133.664C302.701 134.016 302.013 134.192 301.235 134.192ZM301.235 132.8C301.715 132.8 302.141 132.683 302.515 132.448C302.888 132.203 303.176 131.872 303.379 131.456C303.592 131.04 303.699 130.555 303.699 130C303.699 129.445 303.592 128.96 303.379 128.544C303.176 128.128 302.883 127.803 302.499 127.568C302.115 127.323 301.683 127.2 301.203 127.2C300.712 127.2 300.28 127.323 299.907 127.568C299.533 127.803 299.24 128.128 299.027 128.544C298.813 128.96 298.707 129.445 298.707 130C298.707 130.555 298.813 131.04 299.027 131.456C299.24 131.872 299.539 132.203 299.923 132.448C300.307 132.683 300.744 132.8 301.235 132.8ZM309.162 134L312.362 126H313.946L310.602 134H309.162ZM309.066 134L305.738 126H307.29L310.49 134H309.066ZM318.467 134.192C317.688 134.192 317 134.016 316.403 133.664C315.806 133.301 315.336 132.805 314.995 132.176C314.654 131.547 314.483 130.821 314.483 130C314.483 129.179 314.654 128.453 314.995 127.824C315.336 127.195 315.806 126.704 316.403 126.352C317.011 125.989 317.704 125.808 318.483 125.808C319.219 125.808 319.864 125.995 320.419 126.368C320.974 126.731 321.406 127.253 321.715 127.936C322.035 128.608 322.195 129.403 322.195 130.32H315.731L316.019 130.08C316.019 130.645 316.131 131.136 316.355 131.552C316.579 131.968 316.883 132.288 317.267 132.512C317.651 132.725 318.088 132.832 318.579 132.832C319.112 132.832 319.555 132.709 319.907 132.464C320.27 132.208 320.552 131.888 320.755 131.504L322.067 132.112C321.854 132.528 321.576 132.896 321.235 133.216C320.894 133.525 320.488 133.765 320.019 133.936C319.56 134.107 319.043 134.192 318.467 134.192ZM316.115 129.36L315.811 129.12H320.867L320.579 129.36C320.579 128.891 320.483 128.491 320.291 128.16C320.099 127.819 319.843 127.563 319.523 127.392C319.203 127.211 318.846 127.12 318.451 127.12C318.067 127.12 317.694 127.211 317.331 127.392C316.979 127.563 316.686 127.813 316.451 128.144C316.227 128.475 316.115 128.88 316.115 129.36ZM329.553 134L329.489 132.512V122.8H330.993V134H329.553ZM326.865 134.192C326.139 134.192 325.505 134.016 324.961 133.664C324.427 133.312 324.006 132.821 323.697 132.192C323.398 131.563 323.249 130.832 323.249 130C323.249 129.157 323.398 128.427 323.697 127.808C324.006 127.179 324.427 126.688 324.961 126.336C325.505 125.984 326.139 125.808 326.865 125.808C327.537 125.808 328.118 125.984 328.609 126.336C329.11 126.688 329.494 127.179 329.761 127.808C330.027 128.427 330.161 129.157 330.161 130C330.161 130.832 330.027 131.563 329.761 132.192C329.494 132.821 329.11 133.312 328.609 133.664C328.118 134.016 327.537 134.192 326.865 134.192ZM327.217 132.816C327.665 132.816 328.059 132.699 328.401 132.464C328.742 132.219 329.009 131.888 329.201 131.472C329.393 131.045 329.489 130.555 329.489 130C329.489 129.445 329.393 128.96 329.201 128.544C329.009 128.117 328.742 127.787 328.401 127.552C328.059 127.307 327.659 127.184 327.201 127.184C326.731 127.184 326.315 127.307 325.953 127.552C325.59 127.787 325.307 128.117 325.105 128.544C324.902 128.96 324.801 129.445 324.801 130C324.801 130.555 324.902 131.045 325.105 131.472C325.318 131.888 325.606 132.219 325.969 132.464C326.331 132.699 326.747 132.816 327.217 132.816ZM334.799 130.928L334.767 128.096L335.695 128.048C336.356 128.037 336.895 127.851 337.311 127.488C337.738 127.125 337.951 126.624 337.951 125.984C337.951 125.408 337.754 124.933 337.359 124.56C336.964 124.187 336.447 124 335.807 124C335.359 124 334.959 124.112 334.607 124.336C334.266 124.549 334.036 124.816 333.919 125.136L332.511 124.72C332.724 124.091 333.119 123.584 333.695 123.2C334.271 122.805 334.975 122.608 335.807 122.608C336.522 122.608 337.151 122.752 337.695 123.04C338.25 123.328 338.682 123.728 338.991 124.24C339.3 124.741 339.455 125.323 339.455 125.984C339.455 126.581 339.322 127.115 339.055 127.584C338.799 128.043 338.431 128.411 337.951 128.688C337.482 128.965 336.932 129.136 336.303 129.2V130.928H334.799ZM335.551 134.224C335.263 134.224 335.023 134.128 334.831 133.936C334.639 133.744 334.543 133.509 334.543 133.232C334.543 132.955 334.639 132.72 334.831 132.528C335.023 132.336 335.263 132.24 335.551 132.24C335.828 132.24 336.063 132.336 336.255 132.528C336.447 132.72 336.543 132.955 336.543 133.232C336.543 133.509 336.447 133.744 336.255 133.936C336.063 134.128 335.828 134.224 335.551 134.224Z" fill="white"/>
<path d="M265.724 153.851C264.913 153.851 264.194 153.664 263.569 153.291C262.944 152.91 262.453 152.39 262.096 151.732C261.739 151.067 261.56 150.304 261.56 149.443C261.56 148.583 261.735 147.824 262.084 147.166C262.441 146.501 262.928 145.981 263.545 145.608C264.17 145.226 264.884 145.035 265.688 145.035C266.199 145.035 266.69 145.129 267.161 145.315C267.632 145.494 268.054 145.75 268.428 146.083C268.801 146.407 269.089 146.785 269.292 147.215L268.403 147.666C268.241 147.325 268.018 147.028 267.734 146.777C267.449 146.525 267.133 146.33 266.784 146.192C266.435 146.046 266.069 145.973 265.688 145.973C265.095 145.973 264.564 146.123 264.093 146.424C263.622 146.716 263.253 147.122 262.985 147.641C262.725 148.161 262.595 148.761 262.595 149.443C262.595 150.125 262.729 150.73 262.997 151.258C263.265 151.785 263.634 152.199 264.105 152.5C264.584 152.792 265.124 152.938 265.724 152.938C266.114 152.938 266.483 152.861 266.833 152.707C267.182 152.544 267.494 152.325 267.77 152.049C268.054 151.773 268.277 151.456 268.44 151.099L269.341 151.55C269.13 151.996 268.838 152.394 268.464 152.743C268.099 153.092 267.677 153.364 267.198 153.559C266.727 153.754 266.236 153.851 265.724 153.851ZM274.378 153.705L274.33 152.707V150.49C274.33 150.012 274.277 149.618 274.171 149.309C274.066 148.993 273.899 148.753 273.672 148.591C273.445 148.429 273.149 148.347 272.783 148.347C272.45 148.347 272.162 148.416 271.919 148.554C271.683 148.684 271.488 148.895 271.334 149.188L270.458 148.847C270.612 148.563 270.798 148.319 271.018 148.116C271.237 147.905 271.493 147.747 271.785 147.641C272.077 147.528 272.41 147.471 272.783 147.471C273.351 147.471 273.818 147.584 274.184 147.812C274.557 148.031 274.837 148.36 275.024 148.798C275.21 149.228 275.3 149.764 275.292 150.405L275.279 153.705H274.378ZM272.552 153.851C271.838 153.851 271.277 153.689 270.872 153.364C270.474 153.031 270.275 152.573 270.275 151.988C270.275 151.371 270.478 150.9 270.884 150.576C271.298 150.243 271.874 150.076 272.613 150.076H274.354V150.892H272.832C272.264 150.892 271.858 150.986 271.614 151.172C271.379 151.359 271.261 151.627 271.261 151.976C271.261 152.293 271.379 152.544 271.614 152.731C271.85 152.91 272.178 152.999 272.601 152.999C272.95 152.999 273.254 152.926 273.514 152.78C273.774 152.625 273.972 152.41 274.11 152.134C274.257 151.85 274.33 151.517 274.33 151.136H274.744C274.744 151.964 274.557 152.625 274.184 153.121C273.81 153.608 273.266 153.851 272.552 153.851ZM276.835 153.705V145.182H277.809V153.705H276.835ZM282.226 153.851C281.625 153.851 281.094 153.717 280.631 153.449C280.168 153.173 279.807 152.796 279.547 152.317C279.287 151.838 279.157 151.286 279.157 150.661C279.157 150.036 279.283 149.484 279.535 149.005C279.795 148.526 280.156 148.153 280.619 147.885C281.081 147.609 281.609 147.471 282.202 147.471C282.786 147.471 283.31 147.605 283.772 147.873C284.235 148.14 284.588 148.518 284.832 149.005L283.943 149.407C283.78 149.082 283.545 148.83 283.237 148.652C282.928 148.465 282.575 148.372 282.177 148.372C281.779 148.372 281.426 148.469 281.118 148.664C280.818 148.859 280.578 149.131 280.399 149.48C280.229 149.821 280.144 150.214 280.144 150.661C280.144 151.107 280.229 151.505 280.399 151.854C280.578 152.195 280.822 152.463 281.13 152.658C281.447 152.853 281.804 152.95 282.202 152.95C282.599 152.95 282.952 152.849 283.261 152.646C283.578 152.443 283.817 152.159 283.979 151.793L284.868 152.195C284.625 152.715 284.272 153.121 283.809 153.413C283.346 153.705 282.819 153.851 282.226 153.851ZM290.275 153.705L290.214 152.585V147.617H291.188V153.705H290.275ZM285.94 150.734V147.617H286.914V150.734H285.94ZM286.914 150.734C286.914 151.335 286.983 151.793 287.121 152.11C287.259 152.427 287.45 152.646 287.693 152.767C287.945 152.881 288.225 152.938 288.534 152.938C289.061 152.938 289.471 152.747 289.763 152.366C290.064 151.984 290.214 151.452 290.214 150.771H290.689C290.689 151.412 290.595 151.964 290.409 152.427C290.222 152.889 289.95 153.242 289.593 153.486C289.244 153.729 288.814 153.851 288.302 153.851C287.831 153.851 287.417 153.758 287.06 153.571C286.703 153.376 286.427 153.072 286.232 152.658C286.037 152.236 285.94 151.692 285.94 151.026V150.734H286.914ZM292.888 153.705V145.182H293.862V153.705H292.888ZM299.314 153.705L299.265 152.707V150.49C299.265 150.012 299.212 149.618 299.107 149.309C299.001 148.993 298.835 148.753 298.608 148.591C298.38 148.429 298.084 148.347 297.719 148.347C297.386 148.347 297.098 148.416 296.854 148.554C296.619 148.684 296.424 148.895 296.27 149.188L295.393 148.847C295.547 148.563 295.734 148.319 295.953 148.116C296.172 147.905 296.428 147.747 296.72 147.641C297.013 147.528 297.345 147.471 297.719 147.471C298.287 147.471 298.754 147.584 299.119 147.812C299.493 148.031 299.773 148.36 299.959 148.798C300.146 149.228 300.235 149.764 300.227 150.405L300.215 153.705H299.314ZM297.487 153.851C296.773 153.851 296.213 153.689 295.807 153.364C295.409 153.031 295.21 152.573 295.21 151.988C295.21 151.371 295.413 150.9 295.819 150.576C296.233 150.243 296.81 150.076 297.548 150.076H299.29V150.892H297.768C297.199 150.892 296.793 150.986 296.55 151.172C296.314 151.359 296.197 151.627 296.197 151.976C296.197 152.293 296.314 152.544 296.55 152.731C296.785 152.91 297.114 152.999 297.536 152.999C297.885 152.999 298.19 152.926 298.449 152.78C298.709 152.625 298.908 152.41 299.046 152.134C299.192 151.85 299.265 151.517 299.265 151.136H299.679C299.679 151.964 299.493 152.625 299.119 153.121C298.746 153.608 298.202 153.851 297.487 153.851ZM304.06 153.851C303.467 153.851 303.009 153.697 302.684 153.388C302.359 153.08 302.197 152.646 302.197 152.086V145.717H303.171V151.988C303.171 152.297 303.252 152.536 303.415 152.707C303.585 152.869 303.82 152.95 304.121 152.95C304.218 152.95 304.312 152.938 304.401 152.914C304.498 152.881 304.624 152.808 304.778 152.694L305.156 153.486C304.945 153.624 304.754 153.717 304.583 153.766C304.413 153.823 304.238 153.851 304.06 153.851ZM301.138 148.481V147.617H304.997V148.481H301.138ZM306.433 153.705V147.617H307.408V153.705H306.433ZM306.933 146.204C306.77 146.204 306.628 146.143 306.507 146.022C306.385 145.9 306.324 145.758 306.324 145.596C306.324 145.425 306.385 145.283 306.507 145.169C306.628 145.048 306.77 144.987 306.933 144.987C307.103 144.987 307.245 145.048 307.359 145.169C307.481 145.283 307.542 145.425 307.542 145.596C307.542 145.758 307.481 145.9 307.359 146.022C307.245 146.143 307.103 146.204 306.933 146.204ZM311.894 153.851C311.301 153.851 310.773 153.717 310.311 153.449C309.856 153.173 309.499 152.796 309.239 152.317C308.979 151.838 308.85 151.286 308.85 150.661C308.85 150.036 308.975 149.484 309.227 149.005C309.487 148.526 309.844 148.153 310.299 147.885C310.761 147.609 311.285 147.471 311.869 147.471C312.47 147.471 312.998 147.609 313.452 147.885C313.915 148.153 314.272 148.526 314.524 149.005C314.784 149.484 314.913 150.036 314.913 150.661C314.913 151.286 314.784 151.838 314.524 152.317C314.272 152.796 313.919 153.173 313.464 153.449C313.01 153.717 312.486 153.851 311.894 153.851ZM311.894 152.95C312.3 152.95 312.653 152.853 312.953 152.658C313.253 152.463 313.489 152.195 313.659 151.854C313.838 151.513 313.927 151.116 313.927 150.661C313.927 150.206 313.838 149.809 313.659 149.468C313.489 149.127 313.249 148.859 312.941 148.664C312.632 148.469 312.275 148.372 311.869 148.372C311.472 148.372 311.118 148.469 310.81 148.664C310.51 148.859 310.27 149.127 310.092 149.468C309.921 149.809 309.836 150.206 309.836 150.661C309.836 151.107 309.921 151.505 310.092 151.854C310.27 152.195 310.514 152.463 310.822 152.658C311.139 152.853 311.496 152.95 311.894 152.95ZM316.266 153.705V147.617H317.179L317.24 148.737V153.705H316.266ZM320.54 153.705V150.588H321.514V153.705H320.54ZM320.54 150.588C320.54 149.987 320.471 149.529 320.333 149.212C320.195 148.895 320.004 148.68 319.761 148.567C319.517 148.445 319.241 148.384 318.933 148.384C318.397 148.384 317.979 148.575 317.678 148.956C317.386 149.33 317.24 149.861 317.24 150.551H316.765C316.765 149.91 316.859 149.358 317.045 148.895C317.232 148.433 317.504 148.08 317.861 147.836C318.218 147.592 318.648 147.471 319.152 147.471C319.631 147.471 320.045 147.568 320.394 147.763C320.751 147.95 321.027 148.25 321.222 148.664C321.425 149.078 321.522 149.622 321.514 150.296V150.588H320.54ZM328.195 153.851C327.749 153.851 327.359 153.786 327.026 153.656C326.693 153.518 326.413 153.34 326.186 153.121C325.967 152.901 325.809 152.662 325.711 152.402L326.563 152.049C326.701 152.325 326.908 152.548 327.184 152.719C327.46 152.889 327.765 152.974 328.098 152.974C328.479 152.974 328.8 152.901 329.06 152.755C329.319 152.601 329.449 152.386 329.449 152.11C329.449 151.858 329.352 151.655 329.157 151.501C328.97 151.347 328.69 151.221 328.317 151.124L327.732 150.965C327.18 150.819 326.75 150.6 326.442 150.308C326.133 150.007 325.979 149.671 325.979 149.297C325.979 148.721 326.166 148.274 326.539 147.958C326.921 147.633 327.485 147.471 328.232 147.471C328.589 147.471 328.914 147.523 329.206 147.629C329.498 147.735 329.75 147.885 329.961 148.08C330.172 148.266 330.326 148.489 330.423 148.749L329.571 149.127C329.466 148.851 329.291 148.652 329.047 148.53C328.804 148.408 328.508 148.347 328.159 148.347C327.785 148.347 327.493 148.429 327.282 148.591C327.071 148.745 326.965 148.964 326.965 149.248C326.965 149.411 327.051 149.565 327.221 149.711C327.4 149.849 327.659 149.963 328 150.052L328.609 150.21C329.007 150.308 329.34 150.454 329.608 150.649C329.875 150.835 330.078 151.051 330.216 151.294C330.354 151.538 330.423 151.797 330.423 152.073C330.423 152.439 330.326 152.755 330.131 153.023C329.936 153.291 329.673 153.498 329.34 153.644C329.007 153.782 328.625 153.851 328.195 153.851ZM334.025 153.851C333.433 153.851 332.974 153.697 332.649 153.388C332.325 153.08 332.162 152.646 332.162 152.086V145.717H333.137V151.988C333.137 152.297 333.218 152.536 333.38 152.707C333.551 152.869 333.786 152.95 334.086 152.95C334.184 152.95 334.277 152.938 334.366 152.914C334.464 152.881 334.59 152.808 334.744 152.694L335.121 153.486C334.91 153.624 334.719 153.717 334.549 153.766C334.379 153.823 334.204 153.851 334.025 153.851ZM331.103 148.481V147.617H334.963V148.481H331.103ZM338.969 153.851C338.376 153.851 337.853 153.717 337.398 153.449C336.944 153.173 336.587 152.796 336.327 152.317C336.075 151.838 335.949 151.286 335.949 150.661C335.949 150.036 336.075 149.484 336.327 149.005C336.587 148.526 336.94 148.153 337.386 147.885C337.841 147.609 338.36 147.471 338.945 147.471C339.513 147.471 340.004 147.613 340.418 147.897C340.832 148.173 341.153 148.563 341.38 149.066C341.607 149.569 341.721 150.162 341.721 150.844H336.692L336.936 150.637C336.936 151.124 337.021 151.542 337.191 151.891C337.37 152.24 337.617 152.508 337.934 152.694C338.251 152.873 338.612 152.962 339.018 152.962C339.448 152.962 339.809 152.861 340.101 152.658C340.402 152.455 340.633 152.187 340.796 151.854L341.636 152.28C341.481 152.597 341.274 152.873 341.015 153.108C340.763 153.344 340.463 153.526 340.114 153.656C339.773 153.786 339.391 153.851 338.969 153.851ZM336.996 150.223L336.741 150.028H340.942L340.686 150.235C340.686 149.845 340.609 149.508 340.455 149.224C340.3 148.94 340.093 148.721 339.834 148.567C339.574 148.412 339.273 148.335 338.933 148.335C338.6 148.335 338.283 148.412 337.983 148.567C337.691 148.721 337.451 148.94 337.264 149.224C337.086 149.5 336.996 149.833 336.996 150.223ZM343.01 156.14V147.617H343.924L343.985 148.737V156.14H343.01ZM346.042 153.851C345.531 153.851 345.08 153.717 344.691 153.449C344.309 153.181 344.013 152.808 343.802 152.329C343.591 151.842 343.485 151.286 343.485 150.661C343.485 150.028 343.591 149.472 343.802 148.993C344.013 148.514 344.309 148.14 344.691 147.873C345.08 147.605 345.531 147.471 346.042 147.471C346.586 147.471 347.065 147.605 347.479 147.873C347.893 148.14 348.214 148.514 348.441 148.993C348.677 149.472 348.794 150.028 348.794 150.661C348.794 151.286 348.677 151.842 348.441 152.329C348.214 152.808 347.893 153.181 347.479 153.449C347.065 153.717 346.586 153.851 346.042 153.851ZM345.823 152.962C346.205 152.962 346.542 152.865 346.834 152.67C347.134 152.475 347.37 152.203 347.54 151.854C347.719 151.505 347.808 151.107 347.808 150.661C347.808 150.214 347.723 149.817 347.552 149.468C347.39 149.119 347.159 148.847 346.858 148.652C346.558 148.457 346.217 148.36 345.835 148.36C345.478 148.36 345.158 148.457 344.873 148.652C344.597 148.847 344.378 149.119 344.216 149.468C344.062 149.817 343.985 150.214 343.985 150.661C343.985 151.107 344.062 151.505 344.216 151.854C344.378 152.203 344.597 152.475 344.873 152.67C345.149 152.865 345.466 152.962 345.823 152.962Z" fill="#A4A4AD"/>
<rect x="204" y="116" width="43.2941" height="43.2941" rx="10.8235" fill="#E31247" fill-opacity="0.5"/>
<path d="M218.207 141.198V141.029C218.207 139.609 218.207 138.898 218.484 138.355C218.727 137.878 219.115 137.49 219.592 137.247C220.135 136.97 220.845 136.97 222.266 136.97H227.678C229.098 136.97 229.809 136.97 230.351 137.247C230.829 137.49 231.217 137.878 231.46 138.355C231.737 138.898 231.737 139.609 231.737 141.029V141.198M218.207 141.198C217.273 141.198 216.516 141.956 216.516 142.89C216.516 143.824 217.273 144.581 218.207 144.581C219.141 144.581 219.898 143.824 219.898 142.89C219.898 141.956 219.141 141.198 218.207 141.198ZM231.737 141.198C230.803 141.198 230.045 141.956 230.045 142.89C230.045 143.824 230.803 144.581 231.737 144.581C232.671 144.581 233.428 143.824 233.428 142.89C233.428 141.956 232.671 141.198 231.737 141.198ZM224.972 132.742L224.972 141.198M224.972 132.742C224.038 132.742 223.281 131.985 223.281 131.051C223.281 130.117 224.038 129.36 224.972 129.36C225.906 129.36 226.663 130.117 226.663 131.051C226.663 131.985 225.906 132.742 224.972 132.742ZM224.972 141.198C224.038 141.198 223.281 141.956 223.281 142.89C223.281 143.824 224.038 144.581 224.972 144.581C225.906 144.581 226.663 143.824 226.663 142.89C226.663 141.956 225.906 141.198 224.972 141.198Z" stroke="white" stroke-width="1.35294" stroke-linecap="round" stroke-linejoin="round"/>
<g opacity="0.3">
<rect x="486.5" y="0.5" width="284" height="79" rx="15.5" stroke="#37373D"/>
<path d="M578.168 36L573.736 24.8H575.336L579.848 36H578.168ZM569.144 36L573.656 24.8H575.256L570.824 36H569.144ZM571.272 33.008V31.6H577.72V33.008H571.272ZM581.12 39.2V28H582.544L582.64 29.472V39.2H581.12ZM585.264 36.192C584.592 36.192 584.006 36.016 583.504 35.664C583.014 35.312 582.635 34.8213 582.368 34.192C582.102 33.5627 581.968 32.832 581.968 32C581.968 31.1573 582.102 30.4267 582.368 29.808C582.635 29.1787 583.014 28.688 583.504 28.336C584.006 27.984 584.592 27.808 585.264 27.808C585.979 27.808 586.608 27.984 587.152 28.336C587.696 28.688 588.118 29.1787 588.416 29.808C588.726 30.4267 588.88 31.1573 588.88 32C588.88 32.832 588.726 33.5627 588.416 34.192C588.118 34.8213 587.696 35.312 587.152 35.664C586.608 36.016 585.979 36.192 585.264 36.192ZM584.896 34.816C585.376 34.816 585.798 34.6987 586.16 34.464C586.523 34.2187 586.806 33.888 587.008 33.472C587.222 33.0453 587.328 32.5547 587.328 32C587.328 31.4453 587.227 30.96 587.024 30.544C586.822 30.1173 586.539 29.7867 586.176 29.552C585.814 29.3067 585.392 29.184 584.912 29.184C584.475 29.184 584.08 29.3067 583.728 29.552C583.387 29.7867 583.12 30.1173 582.928 30.544C582.736 30.9707 582.64 31.456 582.64 32C582.64 32.5547 582.736 33.0453 582.928 33.472C583.12 33.888 583.387 34.2187 583.728 34.464C584.07 34.6987 584.459 34.816 584.896 34.816ZM590.62 39.2V28H592.044L592.14 29.472V39.2H590.62ZM594.764 36.192C594.092 36.192 593.506 36.016 593.004 35.664C592.514 35.312 592.135 34.8213 591.868 34.192C591.602 33.5627 591.468 32.832 591.468 32C591.468 31.1573 591.602 30.4267 591.868 29.808C592.135 29.1787 592.514 28.688 593.004 28.336C593.506 27.984 594.092 27.808 594.764 27.808C595.479 27.808 596.108 27.984 596.652 28.336C597.196 28.688 597.618 29.1787 597.916 29.808C598.226 30.4267 598.38 31.1573 598.38 32C598.38 32.832 598.226 33.5627 597.916 34.192C597.618 34.8213 597.196 35.312 596.652 35.664C596.108 36.016 595.479 36.192 594.764 36.192ZM594.396 34.816C594.876 34.816 595.298 34.6987 595.66 34.464C596.023 34.2187 596.306 33.888 596.508 33.472C596.722 33.0453 596.828 32.5547 596.828 32C596.828 31.4453 596.727 30.96 596.524 30.544C596.322 30.1173 596.039 29.7867 595.676 29.552C595.314 29.3067 594.892 29.184 594.412 29.184C593.975 29.184 593.58 29.3067 593.228 29.552C592.887 29.7867 592.62 30.1173 592.428 30.544C592.236 30.9707 592.14 31.456 592.14 32C592.14 32.5547 592.236 33.0453 592.428 33.472C592.62 33.888 592.887 34.2187 593.228 34.464C593.57 34.6987 593.959 34.816 594.396 34.816ZM600.968 31.696C600.968 30.832 601.134 30.128 601.464 29.584C601.795 29.04 602.222 28.6347 602.744 28.368C603.267 28.1013 603.816 27.968 604.392 27.968V29.408C603.912 29.408 603.454 29.4827 603.016 29.632C602.59 29.7707 602.238 30.0053 601.96 30.336C601.694 30.656 601.56 31.0933 601.56 31.648L600.968 31.696ZM600.04 36V28H601.56V36H600.04ZM609.235 36.192C608.435 36.192 607.731 36.016 607.123 35.664C606.515 35.3013 606.035 34.8053 605.683 34.176C605.341 33.5467 605.171 32.8213 605.171 32C605.171 31.1787 605.341 30.4533 605.683 29.824C606.024 29.1947 606.499 28.704 607.107 28.352C607.715 27.9893 608.413 27.808 609.203 27.808C609.992 27.808 610.691 27.9893 611.299 28.352C611.907 28.704 612.381 29.1947 612.723 29.824C613.064 30.4533 613.235 31.1787 613.235 32C613.235 32.8213 613.064 33.5467 612.723 34.176C612.381 34.8053 611.907 35.3013 611.299 35.664C610.701 36.016 610.013 36.192 609.235 36.192ZM609.235 34.8C609.715 34.8 610.141 34.6827 610.515 34.448C610.888 34.2027 611.176 33.872 611.379 33.456C611.592 33.04 611.699 32.5547 611.699 32C611.699 31.4453 611.592 30.96 611.379 30.544C611.176 30.128 610.883 29.8027 610.499 29.568C610.115 29.3227 609.683 29.2 609.203 29.2C608.712 29.2 608.28 29.3227 607.907 29.568C607.533 29.8027 607.24 30.128 607.027 30.544C606.813 30.96 606.707 31.4453 606.707 32C606.707 32.5547 606.813 33.04 607.027 33.456C607.24 33.872 607.539 34.2027 607.923 34.448C608.307 34.6827 608.744 34.8 609.235 34.8ZM617.162 36L620.362 28H621.946L618.602 36H617.162ZM617.066 36L613.738 28H615.29L618.49 36H617.066ZM626.467 36.192C625.688 36.192 625 36.016 624.403 35.664C623.806 35.3013 623.336 34.8053 622.995 34.176C622.654 33.5467 622.483 32.8213 622.483 32C622.483 31.1787 622.654 30.4533 622.995 29.824C623.336 29.1947 623.806 28.704 624.403 28.352C625.011 27.9893 625.704 27.808 626.483 27.808C627.219 27.808 627.864 27.9947 628.419 28.368C628.974 28.7307 629.406 29.2533 629.715 29.936C630.035 30.608 630.195 31.4027 630.195 32.32H623.731L624.019 32.08C624.019 32.6453 624.131 33.136 624.355 33.552C624.579 33.968 624.883 34.288 625.267 34.512C625.651 34.7253 626.088 34.832 626.579 34.832C627.112 34.832 627.555 34.7093 627.907 34.464C628.27 34.208 628.552 33.888 628.755 33.504L630.067 34.112C629.854 34.528 629.576 34.896 629.235 35.216C628.894 35.5253 628.488 35.7653 628.019 35.936C627.56 36.1067 627.043 36.192 626.467 36.192ZM624.115 31.36L623.811 31.12H628.867L628.579 31.36C628.579 30.8907 628.483 30.4907 628.291 30.16C628.099 29.8187 627.843 29.5627 627.523 29.392C627.203 29.2107 626.846 29.12 626.451 29.12C626.067 29.12 625.694 29.2107 625.331 29.392C624.979 29.5627 624.686 29.8133 624.451 30.144C624.227 30.4747 624.115 30.88 624.115 31.36ZM637.553 36L637.489 34.512V24.8H638.993V36H637.553ZM634.865 36.192C634.139 36.192 633.505 36.016 632.961 35.664C632.427 35.312 632.006 34.8213 631.697 34.192C631.398 33.5627 631.249 32.832 631.249 32C631.249 31.1573 631.398 30.4267 631.697 29.808C632.006 29.1787 632.427 28.688 632.961 28.336C633.505 27.984 634.139 27.808 634.865 27.808C635.537 27.808 636.118 27.984 636.609 28.336C637.11 28.688 637.494 29.1787 637.761 29.808C638.027 30.4267 638.161 31.1573 638.161 32C638.161 32.832 638.027 33.5627 637.761 34.192C637.494 34.8213 637.11 35.312 636.609 35.664C636.118 36.016 635.537 36.192 634.865 36.192ZM635.217 34.816C635.665 34.816 636.059 34.6987 636.401 34.464C636.742 34.2187 637.009 33.888 637.201 33.472C637.393 33.0453 637.489 32.5547 637.489 32C637.489 31.4453 637.393 30.96 637.201 30.544C637.009 30.1173 636.742 29.7867 636.401 29.552C636.059 29.3067 635.659 29.184 635.201 29.184C634.731 29.184 634.315 29.3067 633.953 29.552C633.59 29.7867 633.307 30.1173 633.105 30.544C632.902 30.96 632.801 31.4453 632.801 32C632.801 32.5547 632.902 33.0453 633.105 33.472C633.318 33.888 633.606 34.2187 633.969 34.464C634.331 34.6987 634.747 34.816 635.217 34.816ZM642.799 32.928L642.767 30.096L643.695 30.048C644.356 30.0373 644.895 29.8507 645.311 29.488C645.738 29.1253 645.951 28.624 645.951 27.984C645.951 27.408 645.754 26.9333 645.359 26.56C644.964 26.1867 644.447 26 643.807 26C643.359 26 642.959 26.112 642.607 26.336C642.266 26.5493 642.036 26.816 641.919 27.136L640.511 26.72C640.724 26.0907 641.119 25.584 641.695 25.2C642.271 24.8053 642.975 24.608 643.807 24.608C644.522 24.608 645.151 24.752 645.695 25.04C646.25 25.328 646.682 25.728 646.991 26.24C647.3 26.7413 647.455 27.3227 647.455 27.984C647.455 28.5813 647.322 29.1147 647.055 29.584C646.799 30.0427 646.431 30.4107 645.951 30.688C645.482 30.9653 644.932 31.136 644.303 31.2V32.928H642.799ZM643.551 36.224C643.263 36.224 643.023 36.128 642.831 35.936C642.639 35.744 642.543 35.5093 642.543 35.232C642.543 34.9547 642.639 34.72 642.831 34.528C643.023 34.336 643.263 34.24 643.551 34.24C643.828 34.24 644.063 34.336 644.255 34.528C644.447 34.72 644.543 34.9547 644.543 35.232C644.543 35.5093 644.447 35.744 644.255 35.936C644.063 36.128 643.828 36.224 643.551 36.224Z" fill="white"/>
<path d="M573.724 55.8512C572.913 55.8512 572.194 55.6645 571.569 55.2911C570.944 54.9095 570.453 54.39 570.096 53.7325C569.739 53.0668 569.56 52.3038 569.56 51.4433C569.56 50.5828 569.735 49.8238 570.084 49.1663C570.441 48.5007 570.928 47.9811 571.545 47.6077C572.17 47.2262 572.884 47.0354 573.688 47.0354C574.199 47.0354 574.69 47.1288 575.161 47.3155C575.632 47.4941 576.054 47.7498 576.428 48.0826C576.801 48.4073 577.089 48.7848 577.292 49.215L576.403 49.6655C576.241 49.3246 576.018 49.0283 575.734 48.7767C575.449 48.525 575.133 48.3302 574.784 48.1922C574.435 48.0461 574.069 47.973 573.688 47.973C573.095 47.973 572.564 48.1232 572.093 48.4235C571.622 48.7158 571.253 49.1217 570.985 49.6412C570.725 50.1607 570.595 50.7614 570.595 51.4433C570.595 52.1252 570.729 52.73 570.997 53.2576C571.265 53.7853 571.634 54.1993 572.105 54.4996C572.584 54.7918 573.124 54.938 573.724 54.938C574.114 54.938 574.483 54.8608 574.833 54.7066C575.182 54.5443 575.494 54.3251 575.77 54.0491C576.054 53.7731 576.277 53.4565 576.44 53.0993L577.341 53.5498C577.13 53.9963 576.838 54.3941 576.464 54.7431C576.099 55.0922 575.677 55.3641 575.198 55.559C574.727 55.7538 574.236 55.8512 573.724 55.8512ZM582.378 55.7051L582.33 54.7066V52.4905C582.33 52.0115 582.277 51.6178 582.171 51.3094C582.066 50.9928 581.899 50.7533 581.672 50.591C581.445 50.4286 581.149 50.3474 580.783 50.3474C580.45 50.3474 580.162 50.4164 579.919 50.5544C579.683 50.6843 579.488 50.8954 579.334 51.1876L578.458 50.8467C578.612 50.5625 578.798 50.319 579.018 50.1161C579.237 49.905 579.493 49.7467 579.785 49.6412C580.077 49.5275 580.41 49.4707 580.783 49.4707C581.351 49.4707 581.818 49.5844 582.184 49.8117C582.557 50.0308 582.837 50.3596 583.024 50.798C583.21 51.2282 583.3 51.764 583.292 52.4053L583.279 55.7051H582.378ZM580.552 55.8512C579.838 55.8512 579.277 55.6888 578.872 55.3641C578.474 55.0313 578.275 54.5727 578.275 53.9882C578.275 53.3713 578.478 52.9004 578.884 52.5757C579.298 52.2429 579.874 52.0765 580.613 52.0765H582.354V52.8923H580.832C580.264 52.8923 579.858 52.9857 579.614 53.1724C579.379 53.3591 579.261 53.627 579.261 53.976C579.261 54.2926 579.379 54.5443 579.614 54.731C579.85 54.9095 580.178 54.9988 580.601 54.9988C580.95 54.9988 581.254 54.9258 581.514 54.7797C581.774 54.6254 581.972 54.4103 582.11 54.1343C582.257 53.8502 582.33 53.5174 582.33 53.1358H582.744C582.744 53.9638 582.557 54.6254 582.184 55.1206C581.81 55.6077 581.266 55.8512 580.552 55.8512ZM584.835 55.7051V47.1815H585.809V55.7051H584.835ZM590.226 55.8512C589.625 55.8512 589.094 55.7173 588.631 55.4494C588.168 55.1734 587.807 54.7959 587.547 54.317C587.287 53.838 587.157 53.286 587.157 52.661C587.157 52.0359 587.283 51.4839 587.535 51.005C587.795 50.526 588.156 50.1526 588.619 49.8847C589.081 49.6087 589.609 49.4707 590.202 49.4707C590.786 49.4707 591.31 49.6047 591.772 49.8725C592.235 50.1404 592.588 50.5179 592.832 51.005L591.943 51.4068C591.78 51.0821 591.545 50.8304 591.237 50.6518C590.928 50.4651 590.575 50.3718 590.177 50.3718C589.779 50.3718 589.426 50.4692 589.118 50.664C588.818 50.8588 588.578 51.1308 588.399 51.4798C588.229 51.8208 588.144 52.2145 588.144 52.661C588.144 53.1074 588.229 53.5052 588.399 53.8543C588.578 54.1952 588.822 54.4631 589.13 54.6579C589.447 54.8527 589.804 54.9501 590.202 54.9501C590.599 54.9501 590.952 54.8487 591.261 54.6457C591.578 54.4428 591.817 54.1587 591.979 53.7934L592.868 54.1952C592.625 54.7147 592.272 55.1206 591.809 55.4128C591.346 55.7051 590.819 55.8512 590.226 55.8512ZM598.275 55.7051L598.214 54.5848V49.6168H599.188V55.7051H598.275ZM593.94 52.734V49.6168H594.914V52.734H593.94ZM594.914 52.734C594.914 53.3347 594.983 53.7934 595.121 54.11C595.259 54.4265 595.45 54.6457 595.693 54.7675C595.945 54.8811 596.225 54.938 596.534 54.938C597.061 54.938 597.471 54.7472 597.763 54.3657C598.064 53.9841 598.214 53.4524 598.214 52.7705H598.689C598.689 53.4118 598.595 53.9638 598.409 54.4265C598.222 54.8893 597.95 55.2424 597.593 55.4859C597.244 55.7294 596.814 55.8512 596.302 55.8512C595.831 55.8512 595.417 55.7578 595.06 55.5711C594.703 55.3763 594.427 55.0719 594.232 54.6579C594.037 54.2358 593.94 53.6919 593.94 53.0263V52.734H594.914ZM600.888 55.7051V47.1815H601.862V55.7051H600.888ZM607.314 55.7051L607.265 54.7066V52.4905C607.265 52.0115 607.212 51.6178 607.107 51.3094C607.001 50.9928 606.835 50.7533 606.608 50.591C606.38 50.4286 606.084 50.3474 605.719 50.3474C605.386 50.3474 605.098 50.4164 604.854 50.5544C604.619 50.6843 604.424 50.8954 604.27 51.1876L603.393 50.8467C603.547 50.5625 603.734 50.319 603.953 50.1161C604.172 49.905 604.428 49.7467 604.72 49.6412C605.013 49.5275 605.345 49.4707 605.719 49.4707C606.287 49.4707 606.754 49.5844 607.119 49.8117C607.493 50.0308 607.773 50.3596 607.959 50.798C608.146 51.2282 608.235 51.764 608.227 52.4053L608.215 55.7051H607.314ZM605.487 55.8512C604.773 55.8512 604.213 55.6888 603.807 55.3641C603.409 55.0313 603.21 54.5727 603.21 53.9882C603.21 53.3713 603.413 52.9004 603.819 52.5757C604.233 52.2429 604.81 52.0765 605.548 52.0765H607.29V52.8923H605.768C605.199 52.8923 604.793 52.9857 604.55 53.1724C604.314 53.3591 604.197 53.627 604.197 53.976C604.197 54.2926 604.314 54.5443 604.55 54.731C604.785 54.9095 605.114 54.9988 605.536 54.9988C605.885 54.9988 606.19 54.9258 606.449 54.7797C606.709 54.6254 606.908 54.4103 607.046 54.1343C607.192 53.8502 607.265 53.5174 607.265 53.1358H607.679C607.679 53.9638 607.493 54.6254 607.119 55.1206C606.746 55.6077 606.202 55.8512 605.487 55.8512ZM612.06 55.8512C611.467 55.8512 611.009 55.697 610.684 55.3885C610.359 55.08 610.197 54.6457 610.197 54.0856V47.7173H611.171V53.9882C611.171 54.2967 611.252 54.5361 611.415 54.7066C611.585 54.869 611.82 54.9501 612.121 54.9501C612.218 54.9501 612.312 54.938 612.401 54.9136C612.498 54.8811 612.624 54.8081 612.778 54.6944L613.156 55.4859C612.945 55.6239 612.754 55.7173 612.583 55.766C612.413 55.8228 612.238 55.8512 612.06 55.8512ZM609.138 50.4814V49.6168H612.997V50.4814H609.138ZM614.433 55.7051V49.6168H615.408V55.7051H614.433ZM614.933 48.2044C614.77 48.2044 614.628 48.1435 614.507 48.0217C614.385 47.9 614.324 47.7579 614.324 47.5955C614.324 47.4251 614.385 47.283 614.507 47.1694C614.628 47.0476 614.77 46.9867 614.933 46.9867C615.103 46.9867 615.245 47.0476 615.359 47.1694C615.481 47.283 615.542 47.4251 615.542 47.5955C615.542 47.7579 615.481 47.9 615.359 48.0217C615.245 48.1435 615.103 48.2044 614.933 48.2044ZM619.894 55.8512C619.301 55.8512 618.773 55.7173 618.311 55.4494C617.856 55.1734 617.499 54.7959 617.239 54.317C616.979 53.838 616.85 53.286 616.85 52.661C616.85 52.0359 616.975 51.4839 617.227 51.005C617.487 50.526 617.844 50.1526 618.299 49.8847C618.761 49.6087 619.285 49.4707 619.869 49.4707C620.47 49.4707 620.998 49.6087 621.452 49.8847C621.915 50.1526 622.272 50.526 622.524 51.005C622.784 51.4839 622.913 52.0359 622.913 52.661C622.913 53.286 622.784 53.838 622.524 54.317C622.272 54.7959 621.919 55.1734 621.464 55.4494C621.01 55.7173 620.486 55.8512 619.894 55.8512ZM619.894 54.9501C620.3 54.9501 620.653 54.8527 620.953 54.6579C621.253 54.4631 621.489 54.1952 621.659 53.8543C621.838 53.5133 621.927 53.1155 621.927 52.661C621.927 52.2064 621.838 51.8086 621.659 51.4677C621.489 51.1267 621.249 50.8588 620.941 50.664C620.632 50.4692 620.275 50.3718 619.869 50.3718C619.472 50.3718 619.118 50.4692 618.81 50.664C618.51 50.8588 618.27 51.1267 618.092 51.4677C617.921 51.8086 617.836 52.2064 617.836 52.661C617.836 53.1074 617.921 53.5052 618.092 53.8543C618.27 54.1952 618.514 54.4631 618.822 54.6579C619.139 54.8527 619.496 54.9501 619.894 54.9501ZM624.266 55.7051V49.6168H625.179L625.24 50.7371V55.7051H624.266ZM628.54 55.7051V52.5879H629.514V55.7051H628.54ZM628.54 52.5879C628.54 51.9872 628.471 51.5285 628.333 51.212C628.195 50.8954 628.004 50.6803 627.761 50.5666C627.517 50.4448 627.241 50.384 626.933 50.384C626.397 50.384 625.979 50.5747 625.678 50.9563C625.386 51.3297 625.24 51.8614 625.24 52.5514H624.765C624.765 51.9101 624.859 51.3581 625.045 50.8954C625.232 50.4327 625.504 50.0795 625.861 49.836C626.218 49.5925 626.648 49.4707 627.152 49.4707C627.631 49.4707 628.045 49.5681 628.394 49.763C628.751 49.9497 629.027 50.25 629.222 50.664C629.425 51.078 629.522 51.6219 629.514 52.2957V52.5879H628.54ZM636.195 55.8512C635.749 55.8512 635.359 55.7863 635.026 55.6564C634.693 55.5184 634.413 55.3398 634.186 55.1206C633.967 54.9014 633.809 54.662 633.711 54.4022L634.563 54.0491C634.701 54.3251 634.908 54.5483 635.184 54.7188C635.46 54.8893 635.765 54.9745 636.098 54.9745C636.479 54.9745 636.8 54.9014 637.06 54.7553C637.319 54.6011 637.449 54.386 637.449 54.11C637.449 53.8583 637.352 53.6554 637.157 53.5011C636.97 53.3469 636.69 53.2211 636.317 53.1237L635.732 52.9654C635.18 52.8193 634.75 52.6001 634.442 52.3078C634.133 52.0075 633.979 51.6706 633.979 51.2972C633.979 50.7208 634.166 50.2744 634.539 49.9578C634.921 49.6331 635.485 49.4707 636.232 49.4707C636.589 49.4707 636.914 49.5235 637.206 49.629C637.498 49.7345 637.75 49.8847 637.961 50.0795C638.172 50.2663 638.326 50.4895 638.423 50.7493L637.571 51.1267C637.466 50.8507 637.291 50.6518 637.047 50.5301C636.804 50.4083 636.508 50.3474 636.159 50.3474C635.785 50.3474 635.493 50.4286 635.282 50.591C635.071 50.7452 634.965 50.9644 634.965 51.2485C634.965 51.4108 635.051 51.5651 635.221 51.7112C635.4 51.8492 635.659 51.9628 636 52.0521L636.609 52.2104C637.007 52.3078 637.34 52.454 637.608 52.6488C637.875 52.8355 638.078 53.0506 638.216 53.2941C638.354 53.5377 638.423 53.7974 638.423 54.0734C638.423 54.4387 638.326 54.7553 638.131 55.0232C637.936 55.2911 637.673 55.4981 637.34 55.6442C637.007 55.7822 636.625 55.8512 636.195 55.8512ZM642.025 55.8512C641.433 55.8512 640.974 55.697 640.649 55.3885C640.325 55.08 640.162 54.6457 640.162 54.0856V47.7173H641.137V53.9882C641.137 54.2967 641.218 54.5361 641.38 54.7066C641.551 54.869 641.786 54.9501 642.086 54.9501C642.184 54.9501 642.277 54.938 642.366 54.9136C642.464 54.8811 642.59 54.8081 642.744 54.6944L643.121 55.4859C642.91 55.6239 642.719 55.7173 642.549 55.766C642.379 55.8228 642.204 55.8512 642.025 55.8512ZM639.103 50.4814V49.6168H642.963V50.4814H639.103ZM646.969 55.8512C646.376 55.8512 645.853 55.7173 645.398 55.4494C644.944 55.1734 644.587 54.7959 644.327 54.317C644.075 53.838 643.949 53.286 643.949 52.661C643.949 52.0359 644.075 51.4839 644.327 51.005C644.587 50.526 644.94 50.1526 645.386 49.8847C645.841 49.6087 646.36 49.4707 646.945 49.4707C647.513 49.4707 648.004 49.6128 648.418 49.8969C648.832 50.1729 649.153 50.5625 649.38 51.0658C649.607 51.5691 649.721 52.1617 649.721 52.8436H644.692L644.936 52.6366C644.936 53.1237 645.021 53.5417 645.191 53.8908C645.37 54.2398 645.617 54.5077 645.934 54.6944C646.251 54.873 646.612 54.9623 647.018 54.9623C647.448 54.9623 647.809 54.8608 648.101 54.6579C648.402 54.455 648.633 54.1871 648.796 53.8543L649.636 54.2804C649.481 54.597 649.274 54.873 649.015 55.1084C648.763 55.3438 648.463 55.5265 648.114 55.6564C647.773 55.7863 647.391 55.8512 646.969 55.8512ZM644.996 52.2226L644.741 52.0278H648.942L648.686 52.2348C648.686 51.8451 648.609 51.5083 648.455 51.2241C648.3 50.94 648.093 50.7208 647.834 50.5666C647.574 50.4124 647.273 50.3353 646.933 50.3353C646.6 50.3353 646.283 50.4124 645.983 50.5666C645.691 50.7208 645.451 50.94 645.264 51.2241C645.086 51.5001 644.996 51.833 644.996 52.2226ZM651.01 58.1404V49.6168H651.924L651.985 50.7371V58.1404H651.01ZM654.042 55.8512C653.531 55.8512 653.08 55.7173 652.691 55.4494C652.309 55.1815 652.013 54.8081 651.802 54.3291C651.591 53.8421 651.485 53.286 651.485 52.661C651.485 52.0278 651.591 51.4717 651.802 50.9928C652.013 50.5138 652.309 50.1404 652.691 49.8725C653.08 49.6047 653.531 49.4707 654.042 49.4707C654.586 49.4707 655.065 49.6047 655.479 49.8725C655.893 50.1404 656.214 50.5138 656.441 50.9928C656.677 51.4717 656.794 52.0278 656.794 52.661C656.794 53.286 656.677 53.8421 656.441 54.3291C656.214 54.8081 655.893 55.1815 655.479 55.4494C655.065 55.7173 654.586 55.8512 654.042 55.8512ZM653.823 54.9623C654.205 54.9623 654.542 54.8649 654.834 54.6701C655.134 54.4753 655.37 54.2033 655.54 53.8543C655.719 53.5052 655.808 53.1074 655.808 52.661C655.808 52.2145 655.723 51.8167 655.552 51.4677C655.39 51.1186 655.159 50.8467 654.858 50.6518C654.558 50.457 654.217 50.3596 653.835 50.3596C653.478 50.3596 653.158 50.457 652.873 50.6518C652.597 50.8467 652.378 51.1186 652.216 51.4677C652.062 51.8167 651.985 52.2145 651.985 52.661C651.985 53.1074 652.062 53.5052 652.216 53.8543C652.378 54.2033 652.597 54.4753 652.873 54.6701C653.149 54.8649 653.466 54.9623 653.823 54.9623Z" fill="#A4A4AD"/>
<rect x="512" y="18" width="43.2941" height="43.2941" rx="10.8235" fill="#E31247" fill-opacity="0.5"/>
<path d="M526.207 43.1983V43.0292C526.207 41.6085 526.207 40.8981 526.484 40.3555C526.727 39.8782 527.115 39.4901 527.592 39.2469C528.135 38.9704 528.845 38.9704 530.266 38.9704H535.678C537.098 38.9704 537.809 38.9704 538.351 39.2469C538.829 39.4901 539.217 39.8782 539.46 40.3555C539.737 40.8981 539.737 41.6085 539.737 43.0292V43.1983M526.207 43.1983C525.273 43.1983 524.516 43.9555 524.516 44.8895C524.516 45.8235 525.273 46.5807 526.207 46.5807C527.141 46.5807 527.898 45.8235 527.898 44.8895C527.898 43.9555 527.141 43.1983 526.207 43.1983ZM539.737 43.1983C538.803 43.1983 538.045 43.9555 538.045 44.8895C538.045 45.8235 538.803 46.5807 539.737 46.5807C540.671 46.5807 541.428 45.8235 541.428 44.8895C541.428 43.9555 540.671 43.1983 539.737 43.1983ZM532.972 34.7425L532.972 43.1983M532.972 34.7425C532.038 34.7425 531.281 33.9853 531.281 33.0513C531.281 32.1173 532.038 31.3601 532.972 31.3601C533.906 31.3601 534.663 32.1173 534.663 33.0513C534.663 33.9853 533.906 34.7425 532.972 34.7425ZM532.972 43.1983C532.038 43.1983 531.281 43.9555 531.281 44.8895C531.281 45.8235 532.038 46.5807 532.972 46.5807C533.906 46.5807 534.663 45.8235 534.663 44.8895C534.663 43.9555 533.906 43.1983 532.972 43.1983Z" stroke="white" stroke-width="1.35294" stroke-linecap="round" stroke-linejoin="round"/>
</g>
<rect x="404.042" y="159.394" width="38.5648" height="38.5648" rx="9.05093" fill="#1A1A1E" stroke="#37373D" stroke-width="0.787037"/>
<path d="M420.49 179.148L423.009 181.667M423.009 181.667L425.527 179.148M423.009 181.667V176.63M429.305 179.148C429.305 182.625 426.486 185.444 423.009 185.444C419.531 185.444 416.712 182.625 416.712 179.148C416.712 175.671 419.531 172.852 423.009 172.852C426.486 172.852 429.305 175.671 429.305 179.148Z" stroke="white" stroke-width="0.787037" stroke-linecap="round" stroke-linejoin="round"/>
<rect x="404.394" y="114.394" width="38.5648" height="38.5648" rx="9.05093" fill="#1A1A1E" stroke="#37373D" stroke-width="0.787037"/>
<path d="M418.428 135.644C418.428 135.644 419.084 134.988 421.051 134.988C423.019 134.988 424.331 136.3 426.298 136.3C428.266 136.3 428.922 135.644 428.922 135.644V128.429C428.922 128.429 428.266 129.085 426.298 129.085C424.331 129.085 423.019 127.773 421.051 127.773C419.084 127.773 418.428 128.429 418.428 128.429M418.428 140.235L418.428 127.117" stroke="white" stroke-width="0.787037" stroke-linecap="round" stroke-linejoin="round"/>
</g>
<defs>
<clipPath id="clip0_1169_1132">
<rect width="650" height="264" rx="16" fill="white"/>
</clipPath>
</defs>
</svg>
