<svg width="650" height="730" viewBox="0 0 650 730" fill="none" xmlns="http://www.w3.org/2000/svg">
<g clip-path="url(#clip0_1169_1181)">
<path d="M0 16C0 7.16345 7.16344 0 16 0H634C642.837 0 650 7.16344 650 16V714C650 722.837 642.837 730 634 730H16C7.16346 730 0 722.837 0 714V16Z" fill="#1A1A1E"/>
<path d="M-1.5 479.5H197.5M462 479.5H519.5C547.114 479.5 569.5 501.886 569.5 529.5V733" stroke="#37373D" stroke-width="1.5" stroke-dasharray="3 3"/>
<path d="M2 301H197M461.5 301H519C546.614 301 569 278.614 569 251V223.75C569 196.136 591.386 173.75 619 173.75H663" stroke="#37373D" stroke-width="1.5" stroke-dasharray="3 3"/>
<path d="M650.5 394H146C118.386 394 96 371.614 96 344V188.5C96 160.886 73.6142 138.5 46 138.5H15.5" stroke="#55555E" stroke-dasharray="4 4"/>
<rect x="298.34" y="568.341" width="61" height="61" rx="15.5" stroke="#37373D"/>
<path opacity="0.5" d="M313.883 600.571C312.977 598.971 313.514 596.926 315.084 596.003L331.647 586.261C333.217 585.338 335.224 585.886 336.131 587.485C337.037 589.085 336.499 591.13 334.929 592.053L318.367 601.795C316.797 602.718 314.789 602.17 313.883 600.571Z" fill="#FCAC04"/>
<rect width="6.59723" height="6.6575" rx="3.29862" transform="matrix(0.86196 -0.506977 0.493056 0.869998 328.803 587.934)" fill="#FCAC04"/>
<path opacity="0.5" d="M313.44 598.897C313.44 597.05 314.91 595.552 316.723 595.552H335.847C337.66 595.552 339.13 597.05 339.13 598.897C339.13 600.743 337.66 602.241 335.847 602.241H316.723C314.91 602.241 313.44 600.743 313.44 598.897Z" fill="#2BBEAF"/>
<rect x="332.65" y="595.494" width="6.56504" height="6.68804" rx="3.28252" fill="#2BBEAF"/>
<path opacity="0.5" d="M313.883 597.227C314.789 595.627 316.797 595.079 318.367 596.003L334.929 605.744C336.499 606.667 337.037 608.712 336.131 610.312C335.224 611.911 333.217 612.459 331.647 611.536L315.084 601.795C313.514 600.871 312.977 598.826 313.883 597.227Z" fill="#FDA7D9"/>
<rect width="6.596" height="6.6575" rx="3.298" transform="matrix(0.86196 0.506977 -0.493056 0.869998 332.08 604.069)" fill="#FDA7D9"/>
<path d="M313.883 597.227C314.789 595.627 316.797 595.079 318.367 596.003C319.937 596.926 320.475 598.971 319.568 600.571C318.662 602.17 316.654 602.718 315.084 601.795C313.514 600.871 312.977 598.826 313.883 597.227Z" fill="white"/>
<path d="M371.389 602H472C483.046 602 492 593.046 492 582V217C492 205.954 483.046 197 472 197H178C166.954 197 158 205.954 158 217V582C158 593.046 166.954 602 178 602H278.611" stroke="#37373D"/>
<rect x="197.5" y="355.5" width="264" height="75" rx="15.5" fill="#1A1A1E" stroke="#55555E"/>
<rect x="213" y="370" width="45" height="45" rx="16" fill="#FDEABF"/>
<path d="M238.821 388.927V386.783C239.117 386.651 239.368 386.441 239.545 386.177C239.721 385.914 239.815 385.608 239.817 385.296V385.246C239.817 384.335 239.043 383.596 238.089 383.596H238.037C237.083 383.596 236.309 384.335 236.309 385.246V385.296C236.311 385.608 236.405 385.914 236.582 386.177C236.758 386.441 237.009 386.651 237.306 386.783V388.927C236.453 389.051 235.651 389.389 234.979 389.905L228.825 385.326C228.868 385.175 228.891 385.02 228.894 384.863C228.895 384.495 228.781 384.136 228.568 383.829C228.354 383.523 228.051 383.284 227.695 383.143C227.34 383.001 226.948 382.964 226.57 383.035C226.193 383.106 225.845 383.283 225.572 383.543C225.3 383.802 225.114 384.133 225.038 384.494C224.962 384.855 225 385.229 225.147 385.569C225.294 385.909 225.543 386.2 225.863 386.405C226.183 386.609 226.559 386.719 226.944 386.719C227.281 386.718 227.612 386.632 227.903 386.47L233.964 390.975C232.849 392.582 232.879 394.678 234.039 396.256L232.195 398.017C232.046 397.972 231.891 397.948 231.735 397.945C230.852 397.946 230.137 398.63 230.137 399.473C230.137 400.316 230.853 401 231.736 401C232.618 401 233.334 400.317 233.335 399.474C233.333 399.325 233.308 399.176 233.26 399.034L235.083 397.292C236.713 398.49 238.95 398.593 240.693 397.55C242.435 396.508 243.315 394.54 242.897 392.616C242.48 390.693 240.854 389.221 238.821 388.927V388.927ZM238.065 395.976C237.728 395.985 237.393 395.929 237.079 395.812C236.765 395.695 236.479 395.519 236.237 395.294C235.996 395.07 235.804 394.801 235.673 394.505C235.542 394.208 235.474 393.89 235.474 393.568C235.474 393.246 235.542 392.927 235.673 392.631C235.804 392.334 235.996 392.066 236.237 391.841C236.479 391.617 236.765 391.44 237.079 391.323C237.393 391.206 237.728 391.15 238.065 391.159C239.422 391.204 240.499 392.268 240.499 393.566C240.5 394.863 239.425 395.929 238.067 395.975" fill="#F8761F"/>
<path d="M281.06 405.168C280.668 405.168 280.267 405.112 279.856 405C279.455 404.879 279.072 404.697 278.708 404.454C278.353 404.211 278.059 403.899 277.826 403.516L278.778 402.97C279.105 403.381 279.459 403.679 279.842 403.866C280.225 404.053 280.621 404.146 281.032 404.146C281.676 404.146 282.199 403.95 282.6 403.558C283.011 403.157 283.216 402.634 283.216 401.99C283.216 401.355 283.02 400.837 282.628 400.436C282.236 400.035 281.723 399.834 281.088 399.834C280.743 399.834 280.402 399.913 280.066 400.072C279.73 400.221 279.469 400.408 279.282 400.632L278.218 400.38L278.694 395.2H283.916V396.264H279.744L279.45 399.386C279.711 399.227 280.001 399.101 280.318 399.008C280.635 398.915 280.957 398.868 281.284 398.868C281.881 398.868 282.413 398.999 282.88 399.26C283.347 399.521 283.715 399.885 283.986 400.352C284.257 400.819 284.392 401.355 284.392 401.962C284.392 402.597 284.247 403.157 283.958 403.642C283.678 404.118 283.286 404.491 282.782 404.762C282.287 405.033 281.713 405.168 281.06 405.168ZM290.177 405V402.62H285.655V401.71L290.121 395.2H291.325V401.57H293.327V402.62H291.325V405H290.177ZM287.013 401.57H290.177V396.922L287.013 401.57ZM298.887 405V397.202C298.887 396.474 299.055 395.928 299.391 395.564C299.736 395.191 300.259 395.004 300.959 395.004C301.146 395.004 301.356 395.037 301.589 395.102C301.822 395.167 302.07 395.261 302.331 395.382L301.911 396.264C301.696 396.18 301.514 396.115 301.365 396.068C301.216 396.021 301.09 395.998 300.987 395.998C300.66 395.998 300.413 396.105 300.245 396.32C300.086 396.525 300.007 396.847 300.007 397.286V405H298.887ZM297.599 398.966V398H302.037V398.966H297.599ZM303.425 405V398H304.545V405H303.425ZM303.999 396.376C303.812 396.376 303.649 396.306 303.509 396.166C303.369 396.026 303.299 395.863 303.299 395.676C303.299 395.48 303.369 395.317 303.509 395.186C303.649 395.046 303.812 394.976 303.999 394.976C304.195 394.976 304.358 395.046 304.489 395.186C304.629 395.317 304.699 395.48 304.699 395.676C304.699 395.863 304.629 396.026 304.489 396.166C304.358 396.306 304.195 396.376 303.999 396.376ZM309.675 405.168C308.994 405.168 308.392 405.014 307.869 404.706C307.346 404.389 306.936 403.955 306.637 403.404C306.348 402.853 306.203 402.219 306.203 401.5C306.203 400.781 306.348 400.147 306.637 399.596C306.936 399.045 307.342 398.616 307.855 398.308C308.378 397.991 308.975 397.832 309.647 397.832C310.3 397.832 310.865 397.995 311.341 398.322C311.817 398.639 312.186 399.087 312.447 399.666C312.708 400.245 312.839 400.926 312.839 401.71H307.057L307.337 401.472C307.337 402.032 307.435 402.513 307.631 402.914C307.836 403.315 308.121 403.623 308.485 403.838C308.849 404.043 309.264 404.146 309.731 404.146C310.226 404.146 310.641 404.029 310.977 403.796C311.322 403.563 311.588 403.255 311.775 402.872L312.741 403.362C312.564 403.726 312.326 404.043 312.027 404.314C311.738 404.585 311.392 404.795 310.991 404.944C310.599 405.093 310.16 405.168 309.675 405.168ZM307.407 400.996L307.113 400.772H311.943L311.649 401.01C311.649 400.562 311.56 400.175 311.383 399.848C311.206 399.521 310.968 399.269 310.669 399.092C310.37 398.915 310.025 398.826 309.633 398.826C309.25 398.826 308.886 398.915 308.541 399.092C308.205 399.269 307.93 399.521 307.715 399.848C307.51 400.165 307.407 400.548 307.407 400.996ZM314.251 405V395.2H315.371V405H314.251ZM322.508 405L322.452 403.698V395.2H323.572V405H322.508ZM320.086 405.168C319.46 405.168 318.91 405.014 318.434 404.706C317.958 404.398 317.584 403.969 317.314 403.418C317.052 402.858 316.922 402.219 316.922 401.5C316.922 400.772 317.052 400.133 317.314 399.582C317.584 399.031 317.958 398.602 318.434 398.294C318.91 397.986 319.46 397.832 320.086 397.832C320.674 397.832 321.187 397.986 321.626 398.294C322.074 398.602 322.419 399.031 322.662 399.582C322.904 400.133 323.026 400.772 323.026 401.5C323.026 402.219 322.904 402.858 322.662 403.418C322.419 403.969 322.074 404.398 321.626 404.706C321.187 405.014 320.674 405.168 320.086 405.168ZM320.338 404.146C320.748 404.146 321.112 404.034 321.43 403.81C321.747 403.586 321.994 403.273 322.172 402.872C322.358 402.471 322.452 402.013 322.452 401.5C322.452 400.987 322.358 400.529 322.172 400.128C321.994 399.727 321.747 399.414 321.43 399.19C321.112 398.966 320.744 398.854 320.324 398.854C319.885 398.854 319.493 398.966 319.148 399.19C318.812 399.414 318.546 399.727 318.35 400.128C318.154 400.529 318.056 400.987 318.056 401.5C318.056 402.013 318.154 402.471 318.35 402.872C318.546 403.273 318.816 403.586 319.162 403.81C319.507 404.034 319.899 404.146 320.338 404.146ZM327.981 405.168C327.467 405.168 327.019 405.093 326.637 404.944C326.254 404.785 325.932 404.58 325.671 404.328C325.419 404.076 325.237 403.801 325.125 403.502L326.105 403.096C326.263 403.413 326.501 403.67 326.819 403.866C327.136 404.062 327.486 404.16 327.869 404.16C328.307 404.16 328.676 404.076 328.975 403.908C329.273 403.731 329.423 403.483 329.423 403.166C329.423 402.877 329.311 402.643 329.087 402.466C328.872 402.289 328.55 402.144 328.121 402.032L327.449 401.85C326.814 401.682 326.319 401.43 325.965 401.094C325.61 400.749 325.433 400.361 325.433 399.932C325.433 399.269 325.647 398.756 326.077 398.392C326.515 398.019 327.164 397.832 328.023 397.832C328.433 397.832 328.807 397.893 329.143 398.014C329.479 398.135 329.768 398.308 330.011 398.532C330.253 398.747 330.431 399.003 330.543 399.302L329.563 399.736C329.441 399.419 329.241 399.19 328.961 399.05C328.681 398.91 328.34 398.84 327.939 398.84C327.509 398.84 327.173 398.933 326.931 399.12C326.688 399.297 326.567 399.549 326.567 399.876C326.567 400.063 326.665 400.24 326.861 400.408C327.066 400.567 327.365 400.697 327.757 400.8L328.457 400.982C328.914 401.094 329.297 401.262 329.605 401.486C329.913 401.701 330.146 401.948 330.305 402.228C330.463 402.508 330.543 402.807 330.543 403.124C330.543 403.544 330.431 403.908 330.207 404.216C329.983 404.524 329.679 404.762 329.297 404.93C328.914 405.089 328.475 405.168 327.981 405.168Z" fill="#D7D7DB"/>
<path d="M285.816 386V374.8H287.672V386H285.816ZM278.328 386V374.8H280.184V386H278.328ZM279.784 381.104V379.408H286.568V381.104H279.784ZM295.352 386L295.256 384.528V378H297.032V386H295.352ZM289.816 382.096V378H291.608V382.096H289.816ZM291.608 382.096C291.608 382.725 291.683 383.216 291.832 383.568C291.981 383.92 292.184 384.165 292.44 384.304C292.707 384.443 293.011 384.512 293.352 384.512C293.96 384.523 294.429 384.325 294.76 383.92C295.091 383.515 295.256 382.933 295.256 382.176H295.928C295.928 383.019 295.8 383.744 295.544 384.352C295.299 384.949 294.947 385.408 294.488 385.728C294.04 386.037 293.496 386.192 292.856 386.192C292.227 386.192 291.683 386.064 291.224 385.808C290.776 385.552 290.429 385.152 290.184 384.608C289.939 384.064 289.816 383.365 289.816 382.512V382.096H291.608ZM299.023 386V374.8H300.815V384.512L300.719 386H299.023ZM303.343 386.192C302.671 386.192 302.09 386.021 301.599 385.68C301.119 385.328 300.751 384.837 300.495 384.208C300.239 383.579 300.111 382.843 300.111 382C300.111 381.147 300.239 380.411 300.495 379.792C300.751 379.163 301.119 378.677 301.599 378.336C302.09 377.984 302.671 377.808 303.343 377.808C304.069 377.808 304.698 377.984 305.231 378.336C305.775 378.677 306.197 379.163 306.495 379.792C306.805 380.411 306.959 381.147 306.959 382C306.959 382.843 306.805 383.579 306.495 384.208C306.197 384.837 305.775 385.328 305.231 385.68C304.698 386.021 304.069 386.192 303.343 386.192ZM302.895 384.56C303.322 384.56 303.701 384.453 304.031 384.24C304.362 384.016 304.623 383.712 304.815 383.328C305.018 382.944 305.119 382.501 305.119 382C305.119 381.499 305.023 381.056 304.831 380.672C304.65 380.288 304.394 379.989 304.063 379.776C303.733 379.563 303.349 379.456 302.911 379.456C302.506 379.456 302.143 379.563 301.823 379.776C301.503 379.989 301.253 380.288 301.071 380.672C300.901 381.056 300.815 381.499 300.815 382C300.815 382.501 300.901 382.944 301.071 383.328C301.253 383.712 301.498 384.016 301.807 384.24C302.127 384.453 302.49 384.56 302.895 384.56ZM311.404 386.192C310.871 386.192 310.38 386.112 309.932 385.952C309.484 385.792 309.1 385.568 308.78 385.28C308.46 384.981 308.215 384.635 308.044 384.24L309.596 383.552C309.756 383.851 309.991 384.101 310.3 384.304C310.62 384.507 310.972 384.608 311.356 384.608C311.772 384.608 312.103 384.539 312.348 384.4C312.604 384.251 312.732 384.048 312.732 383.792C312.732 383.547 312.636 383.36 312.444 383.232C312.252 383.093 311.98 382.981 311.628 382.896L310.876 382.688C310.119 382.496 309.527 382.192 309.1 381.776C308.673 381.349 308.46 380.864 308.46 380.32C308.46 379.52 308.716 378.901 309.228 378.464C309.751 378.027 310.497 377.808 311.468 377.808C311.959 377.808 312.407 377.883 312.812 378.032C313.228 378.171 313.585 378.373 313.884 378.64C314.183 378.896 314.391 379.2 314.508 379.552L313.02 380.224C312.913 379.957 312.711 379.755 312.412 379.616C312.113 379.467 311.783 379.392 311.42 379.392C311.057 379.392 310.775 379.472 310.572 379.632C310.369 379.781 310.268 379.995 310.268 380.272C310.268 380.432 310.359 380.581 310.54 380.72C310.721 380.848 310.983 380.955 311.324 381.04L312.268 381.264C312.791 381.392 313.217 381.595 313.548 381.872C313.879 382.139 314.124 382.443 314.284 382.784C314.444 383.115 314.524 383.451 314.524 383.792C314.524 384.272 314.385 384.693 314.108 385.056C313.841 385.419 313.473 385.701 313.004 385.904C312.535 386.096 312.001 386.192 311.404 386.192ZM316.025 389.2V378H317.705L317.817 379.472V389.2H316.025ZM320.345 386.192C319.673 386.192 319.092 386.021 318.601 385.68C318.121 385.328 317.753 384.837 317.497 384.208C317.241 383.579 317.113 382.843 317.113 382C317.113 381.147 317.241 380.411 317.497 379.792C317.753 379.163 318.121 378.677 318.601 378.336C319.092 377.984 319.673 377.808 320.345 377.808C321.07 377.808 321.7 377.984 322.233 378.336C322.777 378.677 323.198 379.163 323.497 379.792C323.806 380.411 323.961 381.147 323.961 382C323.961 382.843 323.806 383.579 323.497 384.208C323.198 384.837 322.777 385.328 322.233 385.68C321.7 386.021 321.07 386.192 320.345 386.192ZM319.897 384.56C320.324 384.56 320.702 384.453 321.033 384.24C321.364 384.016 321.625 383.712 321.817 383.328C322.02 382.944 322.121 382.501 322.121 382C322.121 381.499 322.025 381.056 321.833 380.672C321.652 380.288 321.396 379.989 321.065 379.776C320.734 379.563 320.35 379.456 319.913 379.456C319.508 379.456 319.145 379.563 318.825 379.776C318.505 379.989 318.254 380.288 318.073 380.672C317.902 381.056 317.817 381.499 317.817 382C317.817 382.501 317.902 382.944 318.073 383.328C318.254 383.712 318.5 384.016 318.809 384.24C319.129 384.453 319.492 384.56 319.897 384.56ZM329.172 386.192C328.372 386.192 327.657 386.016 327.028 385.664C326.409 385.301 325.924 384.805 325.572 384.176C325.22 383.547 325.044 382.821 325.044 382C325.044 381.179 325.215 380.453 325.556 379.824C325.908 379.195 326.393 378.704 327.012 378.352C327.631 377.989 328.34 377.808 329.14 377.808C329.94 377.808 330.649 377.989 331.268 378.352C331.887 378.704 332.367 379.195 332.708 379.824C333.06 380.453 333.236 381.179 333.236 382C333.236 382.821 333.065 383.547 332.724 384.176C332.383 384.805 331.903 385.301 331.284 385.664C330.665 386.016 329.961 386.192 329.172 386.192ZM329.172 384.544C329.609 384.544 329.999 384.437 330.34 384.224C330.681 384 330.948 383.701 331.14 383.328C331.332 382.944 331.428 382.501 331.428 382C331.428 381.499 331.327 381.061 331.124 380.688C330.932 380.304 330.665 380.005 330.324 379.792C329.983 379.568 329.588 379.456 329.14 379.456C328.692 379.456 328.297 379.563 327.956 379.776C327.615 379.989 327.348 380.288 327.156 380.672C326.964 381.056 326.868 381.499 326.868 382C326.868 382.501 326.964 382.944 327.156 383.328C327.359 383.701 327.631 384 327.972 384.224C328.324 384.437 328.724 384.544 329.172 384.544ZM337.973 386.192C337.13 386.192 336.485 385.984 336.037 385.568C335.6 385.141 335.381 384.533 335.381 383.744V375.504H337.157V383.408C337.157 383.781 337.242 384.064 337.413 384.256C337.594 384.448 337.856 384.544 338.197 384.544C338.304 384.544 338.421 384.523 338.549 384.48C338.677 384.437 338.821 384.357 338.981 384.24L339.637 385.6C339.36 385.792 339.082 385.936 338.805 386.032C338.528 386.139 338.25 386.192 337.973 386.192ZM334.053 379.536V378H339.317V379.536H334.053Z" fill="white"/>
<rect x="197.5" y="264.5" width="264" height="75" rx="15.5" fill="#1A1A1E" stroke="#37373D"/>
<rect opacity="0.2" x="217.5" y="279.5" width="44" height="44" rx="15.5" fill="#D7D7DB" stroke="#F5F5F5"/>
<path d="M241.583 291.364V295.667C241.583 296.25 241.583 296.542 241.697 296.765C241.797 296.961 241.956 297.12 242.152 297.22C242.375 297.333 242.667 297.333 243.25 297.333H247.553M241.583 307.229L244.188 304.625L241.583 302.021M237.417 302.021L234.813 304.625L237.417 307.229M247.833 299.404V306.917C247.833 308.667 247.833 309.542 247.493 310.21C247.193 310.798 246.715 311.276 246.127 311.576C245.459 311.917 244.584 311.917 242.833 311.917H236.167C234.417 311.917 233.542 311.917 232.873 311.576C232.285 311.276 231.807 310.798 231.507 310.21C231.167 309.542 231.167 308.667 231.167 306.917V296.083C231.167 294.333 231.167 293.458 231.507 292.79C231.807 292.202 232.285 291.723 232.873 291.424C233.542 291.083 234.417 291.083 236.167 291.083H239.512C240.277 291.083 240.659 291.083 241.019 291.17C241.337 291.246 241.642 291.372 241.922 291.544C242.237 291.737 242.507 292.007 243.048 292.548L246.369 295.869C246.909 296.409 247.18 296.679 247.373 296.995C247.544 297.274 247.671 297.579 247.747 297.898C247.833 298.258 247.833 298.64 247.833 299.404Z" stroke="#FCAC04" stroke-width="1.66667" stroke-linecap="round" stroke-linejoin="round"/>
<path d="M280.766 314.168C280.29 314.168 279.856 314.098 279.464 313.958C279.081 313.809 278.75 313.617 278.47 313.384C278.199 313.151 277.985 312.903 277.826 312.642L278.806 312.096C278.909 312.227 279.035 312.376 279.184 312.544C279.343 312.703 279.543 312.838 279.786 312.95C280.029 313.062 280.327 313.118 280.682 313.118C281.317 313.118 281.825 312.936 282.208 312.572C282.591 312.208 282.782 311.751 282.782 311.2C282.782 310.78 282.665 310.425 282.432 310.136C282.208 309.847 281.881 309.627 281.452 309.478C281.023 309.329 280.509 309.254 279.912 309.254H279.646V308.33H279.884C280.472 308.33 281.013 308.395 281.508 308.526C282.003 308.657 282.432 308.848 282.796 309.1C283.169 309.352 283.454 309.66 283.65 310.024C283.855 310.388 283.958 310.808 283.958 311.284C283.958 311.863 283.813 312.371 283.524 312.81C283.244 313.239 282.861 313.575 282.376 313.818C281.891 314.051 281.354 314.168 280.766 314.168ZM279.646 309.156V308.246H279.912C280.715 308.246 281.349 308.111 281.816 307.84C282.292 307.56 282.53 307.163 282.53 306.65C282.53 306.37 282.455 306.113 282.306 305.88C282.157 305.637 281.937 305.446 281.648 305.306C281.368 305.157 281.041 305.082 280.668 305.082C280.416 305.082 280.178 305.119 279.954 305.194C279.739 305.259 279.539 305.362 279.352 305.502C279.175 305.633 279.011 305.801 278.862 306.006L277.938 305.474C278.115 305.185 278.339 304.933 278.61 304.718C278.89 304.503 279.207 304.335 279.562 304.214C279.917 304.093 280.304 304.032 280.724 304.032C281.293 304.032 281.802 304.144 282.25 304.368C282.707 304.592 283.067 304.9 283.328 305.292C283.589 305.675 283.72 306.109 283.72 306.594C283.72 307.005 283.622 307.369 283.426 307.686C283.23 308.003 282.955 308.274 282.6 308.498C282.255 308.722 281.849 308.89 281.382 309.002C280.925 309.105 280.425 309.156 279.884 309.156H279.646ZM289.754 314V306.202C289.754 305.474 289.922 304.928 290.258 304.564C290.604 304.191 291.126 304.004 291.826 304.004C292.013 304.004 292.223 304.037 292.456 304.102C292.69 304.167 292.937 304.261 293.198 304.382L292.778 305.264C292.564 305.18 292.382 305.115 292.232 305.068C292.083 305.021 291.957 304.998 291.854 304.998C291.528 304.998 291.28 305.105 291.112 305.32C290.954 305.525 290.874 305.847 290.874 306.286V314H289.754ZM288.466 307.966V307H292.904V307.966H288.466ZM294.292 314V307H295.412V314H294.292ZM294.866 305.376C294.68 305.376 294.516 305.306 294.376 305.166C294.236 305.026 294.166 304.863 294.166 304.676C294.166 304.48 294.236 304.317 294.376 304.186C294.516 304.046 294.68 303.976 294.866 303.976C295.062 303.976 295.226 304.046 295.356 304.186C295.496 304.317 295.566 304.48 295.566 304.676C295.566 304.863 295.496 305.026 295.356 305.166C295.226 305.306 295.062 305.376 294.866 305.376ZM300.542 314.168C299.861 314.168 299.259 314.014 298.736 313.706C298.213 313.389 297.803 312.955 297.504 312.404C297.215 311.853 297.07 311.219 297.07 310.5C297.07 309.781 297.215 309.147 297.504 308.596C297.803 308.045 298.209 307.616 298.722 307.308C299.245 306.991 299.842 306.832 300.514 306.832C301.167 306.832 301.732 306.995 302.208 307.322C302.684 307.639 303.053 308.087 303.314 308.666C303.575 309.245 303.706 309.926 303.706 310.71H297.924L298.204 310.472C298.204 311.032 298.302 311.513 298.498 311.914C298.703 312.315 298.988 312.623 299.352 312.838C299.716 313.043 300.131 313.146 300.598 313.146C301.093 313.146 301.508 313.029 301.844 312.796C302.189 312.563 302.455 312.255 302.642 311.872L303.608 312.362C303.431 312.726 303.193 313.043 302.894 313.314C302.605 313.585 302.259 313.795 301.858 313.944C301.466 314.093 301.027 314.168 300.542 314.168ZM298.274 309.996L297.98 309.772H302.81L302.516 310.01C302.516 309.562 302.427 309.175 302.25 308.848C302.073 308.521 301.835 308.269 301.536 308.092C301.237 307.915 300.892 307.826 300.5 307.826C300.117 307.826 299.753 307.915 299.408 308.092C299.072 308.269 298.797 308.521 298.582 308.848C298.377 309.165 298.274 309.548 298.274 309.996ZM305.119 314V304.2H306.239V314H305.119ZM313.375 314L313.319 312.698V304.2H314.439V314H313.375ZM310.953 314.168C310.328 314.168 309.777 314.014 309.301 313.706C308.825 313.398 308.452 312.969 308.181 312.418C307.92 311.858 307.789 311.219 307.789 310.5C307.789 309.772 307.92 309.133 308.181 308.582C308.452 308.031 308.825 307.602 309.301 307.294C309.777 306.986 310.328 306.832 310.953 306.832C311.541 306.832 312.054 306.986 312.493 307.294C312.941 307.602 313.286 308.031 313.529 308.582C313.772 309.133 313.893 309.772 313.893 310.5C313.893 311.219 313.772 311.858 313.529 312.418C313.286 312.969 312.941 313.398 312.493 313.706C312.054 314.014 311.541 314.168 310.953 314.168ZM311.205 313.146C311.616 313.146 311.98 313.034 312.297 312.81C312.614 312.586 312.862 312.273 313.039 311.872C313.226 311.471 313.319 311.013 313.319 310.5C313.319 309.987 313.226 309.529 313.039 309.128C312.862 308.727 312.614 308.414 312.297 308.19C311.98 307.966 311.611 307.854 311.191 307.854C310.752 307.854 310.36 307.966 310.015 308.19C309.679 308.414 309.413 308.727 309.217 309.128C309.021 309.529 308.923 309.987 308.923 310.5C308.923 311.013 309.021 311.471 309.217 311.872C309.413 312.273 309.684 312.586 310.029 312.81C310.374 313.034 310.766 313.146 311.205 313.146ZM318.848 314.168C318.335 314.168 317.887 314.093 317.504 313.944C317.121 313.785 316.799 313.58 316.538 313.328C316.286 313.076 316.104 312.801 315.992 312.502L316.972 312.096C317.131 312.413 317.369 312.67 317.686 312.866C318.003 313.062 318.353 313.16 318.736 313.16C319.175 313.16 319.543 313.076 319.842 312.908C320.141 312.731 320.29 312.483 320.29 312.166C320.29 311.877 320.178 311.643 319.954 311.466C319.739 311.289 319.417 311.144 318.988 311.032L318.316 310.85C317.681 310.682 317.187 310.43 316.832 310.094C316.477 309.749 316.3 309.361 316.3 308.932C316.3 308.269 316.515 307.756 316.944 307.392C317.383 307.019 318.031 306.832 318.89 306.832C319.301 306.832 319.674 306.893 320.01 307.014C320.346 307.135 320.635 307.308 320.878 307.532C321.121 307.747 321.298 308.003 321.41 308.302L320.43 308.736C320.309 308.419 320.108 308.19 319.828 308.05C319.548 307.91 319.207 307.84 318.806 307.84C318.377 307.84 318.041 307.933 317.798 308.12C317.555 308.297 317.434 308.549 317.434 308.876C317.434 309.063 317.532 309.24 317.728 309.408C317.933 309.567 318.232 309.697 318.624 309.8L319.324 309.982C319.781 310.094 320.164 310.262 320.472 310.486C320.78 310.701 321.013 310.948 321.172 311.228C321.331 311.508 321.41 311.807 321.41 312.124C321.41 312.544 321.298 312.908 321.074 313.216C320.85 313.524 320.547 313.762 320.164 313.93C319.781 314.089 319.343 314.168 318.848 314.168Z" fill="#D7D7DB"/>
<path d="M283.176 295.192C282.099 295.192 281.139 294.947 280.296 294.456C279.464 293.955 278.808 293.272 278.328 292.408C277.859 291.533 277.624 290.531 277.624 289.4C277.624 288.269 277.859 287.272 278.328 286.408C278.808 285.533 279.464 284.851 280.296 284.36C281.128 283.859 282.083 283.608 283.16 283.608C283.885 283.608 284.568 283.741 285.208 284.008C285.848 284.264 286.413 284.621 286.904 285.08C287.405 285.539 287.789 286.072 288.056 286.68L286.36 287.368C286.168 286.963 285.907 286.605 285.576 286.296C285.256 285.976 284.888 285.731 284.472 285.56C284.056 285.389 283.619 285.304 283.16 285.304C282.456 285.304 281.827 285.48 281.272 285.832C280.728 286.184 280.296 286.669 279.976 287.288C279.667 287.896 279.512 288.6 279.512 289.4C279.512 290.2 279.667 290.909 279.976 291.528C280.296 292.147 280.733 292.632 281.288 292.984C281.853 293.336 282.493 293.512 283.208 293.512C283.677 293.512 284.115 293.421 284.52 293.24C284.936 293.048 285.304 292.787 285.624 292.456C285.955 292.125 286.216 291.741 286.408 291.304L288.104 291.992C287.837 292.621 287.459 293.181 286.968 293.672C286.477 294.152 285.907 294.525 285.256 294.792C284.605 295.059 283.912 295.192 283.176 295.192ZM289.555 295V283.8H291.347V295H289.555ZM293.448 295V287H295.224V295H293.448ZM294.344 285.48C294.056 285.48 293.805 285.379 293.592 285.176C293.389 284.963 293.288 284.712 293.288 284.424C293.288 284.136 293.389 283.891 293.592 283.688C293.805 283.485 294.056 283.384 294.344 283.384C294.632 283.384 294.877 283.485 295.08 283.688C295.293 283.891 295.4 284.136 295.4 284.424C295.4 284.712 295.293 284.963 295.08 285.176C294.877 285.379 294.632 285.48 294.344 285.48ZM300.904 295.192C300.125 295.192 299.432 295.016 298.824 294.664C298.226 294.301 297.752 293.805 297.4 293.176C297.058 292.547 296.888 291.821 296.888 291C296.888 290.179 297.064 289.453 297.416 288.824C297.768 288.195 298.248 287.704 298.856 287.352C299.474 286.989 300.178 286.808 300.968 286.808C301.682 286.808 302.328 286.995 302.904 287.368C303.48 287.731 303.933 288.259 304.264 288.952C304.605 289.645 304.776 290.472 304.776 291.432H298.488L298.728 291.208C298.728 291.699 298.834 292.125 299.048 292.488C299.261 292.84 299.544 293.112 299.896 293.304C300.248 293.496 300.637 293.592 301.064 293.592C301.554 293.592 301.96 293.485 302.28 293.272C302.6 293.048 302.85 292.76 303.032 292.408L304.616 293.08C304.392 293.507 304.104 293.88 303.752 294.2C303.41 294.52 303 294.765 302.52 294.936C302.05 295.107 301.512 295.192 300.904 295.192ZM298.84 290.28L298.584 290.056H303.096L302.856 290.28C302.856 289.843 302.76 289.485 302.568 289.208C302.376 288.92 302.13 288.707 301.832 288.568C301.544 288.419 301.24 288.344 300.92 288.344C300.6 288.344 300.28 288.419 299.96 288.568C299.64 288.707 299.373 288.92 299.16 289.208C298.946 289.485 298.84 289.843 298.84 290.28ZM306.148 295V287H307.828L307.94 288.472V295H306.148ZM311.572 295V290.904H313.364V295H311.572ZM311.572 290.904C311.572 290.264 311.498 289.773 311.348 289.432C311.21 289.08 311.007 288.835 310.74 288.696C310.484 288.557 310.18 288.488 309.828 288.488C309.231 288.477 308.767 288.675 308.436 289.08C308.106 289.485 307.94 290.067 307.94 290.824H307.268C307.268 289.981 307.391 289.261 307.636 288.664C307.882 288.056 308.234 287.597 308.692 287.288C309.151 286.968 309.695 286.808 310.324 286.808C310.964 286.808 311.508 286.936 311.956 287.192C312.415 287.448 312.762 287.848 312.996 288.392C313.242 288.925 313.364 289.624 313.364 290.488V290.904H311.572ZM318.364 295.192C317.521 295.192 316.876 294.984 316.428 294.568C315.99 294.141 315.772 293.533 315.772 292.744V284.504H317.548V292.408C317.548 292.781 317.633 293.064 317.804 293.256C317.985 293.448 318.246 293.544 318.588 293.544C318.694 293.544 318.812 293.523 318.94 293.48C319.068 293.437 319.212 293.357 319.372 293.24L320.028 294.6C319.75 294.792 319.473 294.936 319.196 295.032C318.918 295.139 318.641 295.192 318.364 295.192ZM314.444 288.536V287H319.708V288.536H314.444ZM321.797 295V283.8H323.653V293.304H328.725V295H321.797ZM330.057 295V287H331.833V295H330.057ZM330.953 285.48C330.665 285.48 330.414 285.379 330.201 285.176C329.998 284.963 329.897 284.712 329.897 284.424C329.897 284.136 329.998 283.891 330.201 283.688C330.414 283.485 330.665 283.384 330.953 283.384C331.241 283.384 331.486 283.485 331.689 283.688C331.902 283.891 332.009 284.136 332.009 284.424C332.009 284.712 331.902 284.963 331.689 285.176C331.486 285.379 331.241 285.48 330.953 285.48ZM336.857 295.192C336.324 295.192 335.833 295.112 335.385 294.952C334.937 294.792 334.553 294.568 334.233 294.28C333.913 293.981 333.668 293.635 333.497 293.24L335.049 292.552C335.209 292.851 335.444 293.101 335.753 293.304C336.073 293.507 336.425 293.608 336.809 293.608C337.225 293.608 337.556 293.539 337.801 293.4C338.057 293.251 338.185 293.048 338.185 292.792C338.185 292.547 338.089 292.36 337.897 292.232C337.705 292.093 337.433 291.981 337.081 291.896L336.329 291.688C335.572 291.496 334.98 291.192 334.553 290.776C334.126 290.349 333.913 289.864 333.913 289.32C333.913 288.52 334.169 287.901 334.681 287.464C335.204 287.027 335.95 286.808 336.921 286.808C337.412 286.808 337.86 286.883 338.265 287.032C338.681 287.171 339.038 287.373 339.337 287.64C339.636 287.896 339.844 288.2 339.961 288.552L338.473 289.224C338.366 288.957 338.164 288.755 337.865 288.616C337.566 288.467 337.236 288.392 336.873 288.392C336.51 288.392 336.228 288.472 336.025 288.632C335.822 288.781 335.721 288.995 335.721 289.272C335.721 289.432 335.812 289.581 335.993 289.72C336.174 289.848 336.436 289.955 336.777 290.04L337.721 290.264C338.244 290.392 338.67 290.595 339.001 290.872C339.332 291.139 339.577 291.443 339.737 291.784C339.897 292.115 339.977 292.451 339.977 292.792C339.977 293.272 339.838 293.693 339.561 294.056C339.294 294.419 338.926 294.701 338.457 294.904C337.988 295.096 337.454 295.192 336.857 295.192ZM344.582 295.192C343.74 295.192 343.094 294.984 342.646 294.568C342.209 294.141 341.99 293.533 341.99 292.744V284.504H343.766V292.408C343.766 292.781 343.852 293.064 344.022 293.256C344.204 293.448 344.465 293.544 344.806 293.544C344.913 293.544 345.03 293.523 345.158 293.48C345.286 293.437 345.43 293.357 345.59 293.24L346.246 294.6C345.969 294.792 345.692 294.936 345.414 295.032C345.137 295.139 344.86 295.192 344.582 295.192ZM340.662 288.536V287H345.926V288.536H340.662ZM348.544 295.224C348.234 295.224 347.968 295.117 347.743 294.904C347.53 294.68 347.424 294.413 347.424 294.104C347.424 293.795 347.53 293.528 347.743 293.304C347.968 293.08 348.234 292.968 348.544 292.968C348.853 292.968 349.12 293.08 349.344 293.304C349.568 293.528 349.68 293.795 349.68 294.104C349.68 294.413 349.568 294.68 349.344 294.904C349.12 295.117 348.853 295.224 348.544 295.224ZM355.142 295.192C354.321 295.192 353.596 295.016 352.966 294.664C352.337 294.301 351.841 293.805 351.478 293.176C351.126 292.547 350.95 291.821 350.95 291C350.95 290.179 351.126 289.453 351.478 288.824C351.841 288.195 352.332 287.704 352.95 287.352C353.58 286.989 354.3 286.808 355.11 286.808C355.9 286.808 356.614 287 357.254 287.384C357.894 287.757 358.369 288.296 358.678 289L357.014 289.64C356.844 289.288 356.582 289.005 356.23 288.792C355.878 288.579 355.478 288.472 355.03 288.472C354.593 288.472 354.204 288.584 353.862 288.808C353.521 289.021 353.254 289.32 353.062 289.704C352.87 290.077 352.774 290.509 352.774 291C352.774 291.491 352.87 291.928 353.062 292.312C353.265 292.685 353.537 292.984 353.878 293.208C354.23 293.421 354.625 293.528 355.062 293.528C355.51 293.528 355.91 293.416 356.262 293.192C356.614 292.957 356.876 292.643 357.046 292.248L358.71 292.888C358.401 293.613 357.926 294.179 357.286 294.584C356.657 294.989 355.942 295.192 355.142 295.192ZM363.013 295.192C362.48 295.192 361.989 295.112 361.541 294.952C361.093 294.792 360.709 294.568 360.389 294.28C360.069 293.981 359.824 293.635 359.653 293.24L361.205 292.552C361.365 292.851 361.6 293.101 361.909 293.304C362.229 293.507 362.581 293.608 362.965 293.608C363.381 293.608 363.712 293.539 363.957 293.4C364.213 293.251 364.341 293.048 364.341 292.792C364.341 292.547 364.245 292.36 364.053 292.232C363.861 292.093 363.589 291.981 363.237 291.896L362.485 291.688C361.728 291.496 361.136 291.192 360.709 290.776C360.283 290.349 360.069 289.864 360.069 289.32C360.069 288.52 360.325 287.901 360.837 287.464C361.36 287.027 362.107 286.808 363.077 286.808C363.568 286.808 364.016 286.883 364.421 287.032C364.837 287.171 365.195 287.373 365.493 287.64C365.792 287.896 366 288.2 366.117 288.552L364.629 289.224C364.523 288.957 364.32 288.755 364.021 288.616C363.723 288.467 363.392 288.392 363.029 288.392C362.667 288.392 362.384 288.472 362.181 288.632C361.979 288.781 361.877 288.995 361.877 289.272C361.877 289.432 361.968 289.581 362.149 289.72C362.331 289.848 362.592 289.955 362.933 290.04L363.877 290.264C364.4 290.392 364.827 290.595 365.157 290.872C365.488 291.139 365.733 291.443 365.893 291.784C366.053 292.115 366.133 292.451 366.133 292.792C366.133 293.272 365.995 293.693 365.717 294.056C365.451 294.419 365.083 294.701 364.613 294.904C364.144 295.096 363.611 295.192 363.013 295.192ZM370.131 295L373.251 287H375.107L371.811 295H370.131ZM370.003 295L366.691 287H368.531L371.667 295H370.003Z" fill="white"/>
<rect x="197.5" y="446.5" width="264" height="75" rx="15.5" fill="#1A1A1E" stroke="#37373D"/>
<rect x="217" y="462" width="45" height="45" rx="16" fill="#BFE7F7"/>
<path d="M237.567 478.749C238.31 477.985 239.345 477.501 240.487 477.501C242.009 477.501 243.328 478.345 244.036 479.594C244.646 479.321 245.328 479.172 246.044 479.172C248.788 479.172 251 481.396 251 484.139C251 486.882 248.779 489.106 246.044 489.106C245.709 489.106 245.381 489.07 245.071 489.009C244.452 490.108 243.266 490.855 241.903 490.855C241.337 490.855 240.797 490.723 240.319 490.495C239.691 491.963 238.221 493 236.513 493C234.735 493 233.213 491.884 232.628 490.309C232.369 490.362 232.105 490.389 231.841 490.388C229.717 490.388 228 488.665 228 486.529C228 485.108 228.77 483.856 229.92 483.188C229.682 482.652 229.549 482.054 229.549 481.421C229.541 478.987 231.549 477 234.009 477C234.698 476.999 235.377 477.156 235.995 477.46C236.612 477.763 237.15 478.205 237.567 478.749" fill="#00A1E0"/>
<path d="M231.008 485.774L231.103 485.512C231.121 485.467 231.147 485.485 231.164 485.494L231.242 485.548C231.511 485.729 231.763 485.729 231.841 485.729C232.041 485.729 232.171 485.62 232.171 485.467V485.458C232.171 485.296 231.98 485.233 231.754 485.16L231.702 485.142C231.399 485.051 231.068 484.916 231.068 484.519V484.51C231.068 484.131 231.364 483.859 231.789 483.859H231.832C232.084 483.859 232.319 483.932 232.492 484.049C232.51 484.058 232.527 484.076 232.518 484.103L232.423 484.365C232.405 484.41 232.362 484.383 232.362 484.383C232.205 484.292 231.971 484.229 231.771 484.229C231.589 484.229 231.476 484.329 231.476 484.464V484.473C231.476 484.626 231.676 484.698 231.902 484.771L231.945 484.78C232.249 484.879 232.57 485.015 232.57 485.403V485.412C232.57 485.828 232.284 486.08 231.823 486.08C231.598 486.08 231.381 486.044 231.146 485.918C231.103 485.891 231.059 485.873 231.016 485.836C231.007 485.818 230.99 485.809 231.007 485.773L231.008 485.774ZM237.78 485.774L237.876 485.512C237.893 485.467 237.927 485.485 237.937 485.494L238.015 485.548C238.284 485.729 238.536 485.729 238.614 485.729C238.814 485.729 238.943 485.62 238.943 485.467V485.458C238.943 485.296 238.752 485.233 238.527 485.16L238.475 485.142C238.171 485.051 237.841 484.916 237.841 484.519V484.51C237.841 484.131 238.136 483.859 238.561 483.859H238.605C238.856 483.859 239.091 483.932 239.264 484.049C239.282 484.058 239.299 484.076 239.29 484.103L239.195 484.365C239.178 484.41 239.134 484.383 239.134 484.383C238.978 484.292 238.743 484.229 238.544 484.229C238.361 484.229 238.248 484.329 238.248 484.464V484.473C238.248 484.626 238.448 484.698 238.674 484.771L238.717 484.78C239.021 484.879 239.343 485.015 239.343 485.403V485.412C239.343 485.828 239.056 486.08 238.596 486.08C238.37 486.08 238.153 486.044 237.919 485.918C237.875 485.891 237.832 485.873 237.788 485.836C237.788 485.818 237.771 485.809 237.78 485.773L237.78 485.774ZM242.798 484.536C242.833 484.672 242.859 484.816 242.859 484.97C242.859 485.123 242.842 485.268 242.798 485.403C242.763 485.539 242.703 485.656 242.624 485.752C242.544 485.852 242.443 485.932 242.329 485.987C242.208 486.041 242.069 486.068 241.912 486.068C241.756 486.068 241.617 486.041 241.496 485.987C241.374 485.933 241.279 485.851 241.2 485.752C241.122 485.653 241.062 485.535 241.026 485.403C240.991 485.271 240.965 485.123 240.965 484.97C240.965 484.816 240.983 484.672 241.026 484.536C241.061 484.401 241.122 484.284 241.2 484.187C241.281 484.087 241.382 484.007 241.496 483.953C241.627 483.893 241.769 483.862 241.912 483.862C242.069 483.862 242.208 483.889 242.329 483.953C242.45 484.007 242.546 484.088 242.624 484.187C242.703 484.287 242.763 484.404 242.798 484.536ZM242.408 484.961C242.408 484.726 242.364 484.545 242.286 484.419C242.208 484.293 242.078 484.229 241.913 484.229C241.739 484.229 241.618 484.293 241.54 484.419C241.461 484.545 241.418 484.726 241.418 484.961C241.418 485.196 241.461 485.376 241.54 485.512C241.618 485.638 241.739 485.701 241.913 485.701C242.087 485.701 242.208 485.638 242.286 485.512C242.373 485.385 242.408 485.196 242.408 484.961ZM245.976 485.638L246.072 485.909C246.08 485.945 246.054 485.954 246.054 485.954C245.906 486.017 245.707 486.053 245.507 486.053C245.172 486.053 244.917 485.954 244.743 485.755C244.57 485.556 244.483 485.285 244.483 484.951C244.483 484.798 244.5 484.653 244.544 484.518C244.587 484.383 244.648 484.265 244.735 484.169C244.822 484.068 244.928 483.988 245.047 483.934C245.185 483.874 245.332 483.843 245.482 483.844C245.577 483.844 245.673 483.85 245.768 483.862C245.855 483.88 245.976 483.907 246.029 483.934C246.037 483.934 246.063 483.952 246.054 483.979L245.959 484.25C245.942 484.295 245.916 484.277 245.916 484.277C245.785 484.232 245.664 484.214 245.507 484.214C245.317 484.214 245.172 484.277 245.082 484.412C244.986 484.539 244.934 484.711 244.934 484.945C244.934 485.198 244.995 485.379 245.099 485.496C245.203 485.613 245.351 485.667 245.541 485.667C245.619 485.667 245.689 485.658 245.75 485.649C245.81 485.64 245.871 485.622 245.932 485.595C245.924 485.613 245.958 485.604 245.975 485.64L245.976 485.638ZM247.947 484.455C248.034 484.762 247.99 485.024 247.982 485.042C247.982 485.078 247.947 485.078 247.947 485.078H246.636C246.644 485.286 246.688 485.427 246.792 485.53C246.888 485.629 247.035 485.692 247.244 485.692C247.556 485.692 247.686 485.629 247.782 485.593C247.782 485.593 247.817 485.584 247.834 485.62L247.921 485.873C247.938 485.918 247.921 485.926 247.912 485.936C247.834 485.981 247.635 486.071 247.252 486.071C247.07 486.071 246.905 486.044 246.775 485.99C246.645 485.936 246.532 485.864 246.446 485.765C246.359 485.666 246.298 485.548 246.255 485.422C246.211 485.287 246.194 485.143 246.194 484.989C246.194 484.836 246.211 484.691 246.255 484.556C246.289 484.42 246.35 484.303 246.428 484.207C246.507 484.111 246.611 484.026 246.732 483.972C246.854 483.909 247.001 483.882 247.166 483.882C247.305 483.882 247.435 483.909 247.54 483.963C247.618 483.999 247.705 484.062 247.791 484.161C247.835 484.198 247.913 484.333 247.948 484.46L247.947 484.455ZM246.644 484.744H247.573C247.564 484.618 247.538 484.509 247.486 484.419C247.408 484.292 247.295 484.22 247.122 484.22C246.948 484.22 246.826 484.292 246.748 484.419C246.696 484.5 246.67 484.608 246.644 484.744ZM237.467 484.455C237.554 484.762 237.511 485.024 237.511 485.042C237.511 485.078 237.476 485.078 237.476 485.078H236.165C236.174 485.286 236.217 485.427 236.321 485.53C236.417 485.629 236.564 485.692 236.773 485.692C237.085 485.692 237.215 485.629 237.311 485.593C237.311 485.593 237.346 485.584 237.363 485.62L237.45 485.873C237.467 485.918 237.45 485.926 237.441 485.936C237.363 485.981 237.164 486.071 236.782 486.071C236.599 486.071 236.434 486.044 236.304 485.99C236.174 485.936 236.061 485.864 235.975 485.765C235.888 485.666 235.827 485.548 235.784 485.422C235.74 485.287 235.723 485.143 235.723 484.989C235.723 484.836 235.74 484.691 235.784 484.556C235.819 484.42 235.879 484.303 235.958 484.207C236.036 484.111 236.14 484.026 236.261 483.972C236.383 483.909 236.531 483.882 236.696 483.882C236.834 483.882 236.965 483.909 237.069 483.963C237.147 483.999 237.234 484.062 237.321 484.161C237.355 484.198 237.442 484.333 237.468 484.46L237.467 484.455ZM236.165 484.744H237.103C237.094 484.618 237.068 484.509 237.016 484.419C236.937 484.292 236.825 484.22 236.651 484.22C236.477 484.22 236.356 484.292 236.278 484.419C236.217 484.5 236.191 484.608 236.165 484.744ZM233.864 484.672L234.081 484.698V484.645C234.081 484.464 234.046 484.374 233.976 484.319C233.907 484.265 233.794 484.229 233.655 484.229C233.655 484.229 233.334 484.229 233.082 484.364C233.074 484.373 233.065 484.373 233.065 484.373C233.065 484.373 233.03 484.382 233.021 484.355L232.926 484.094C232.909 484.057 232.934 484.04 232.934 484.04C233.056 483.94 233.334 483.886 233.334 483.886C233.43 483.868 233.586 483.85 233.681 483.85C233.942 483.85 234.141 483.913 234.28 484.04C234.42 484.166 234.489 484.365 234.489 484.645V485.89C234.489 485.89 234.489 485.926 234.463 485.935C234.463 485.935 234.411 485.953 234.367 485.962L234.038 486.026C233.908 486.053 233.777 486.062 233.638 486.062C233.508 486.062 233.395 486.053 233.291 486.026C233.187 485.998 233.1 485.962 233.022 485.908C232.952 485.854 232.892 485.782 232.848 485.692C232.805 485.611 232.787 485.502 232.787 485.385C232.787 485.267 232.813 485.159 232.857 485.069C232.9 484.978 232.97 484.906 233.048 484.843C233.126 484.781 233.222 484.744 233.317 484.708C233.421 484.681 233.525 484.663 233.638 484.663L233.864 484.672L233.864 484.672ZM233.343 485.629C233.343 485.629 233.464 485.728 233.725 485.71C233.916 485.701 234.081 485.665 234.081 485.665V485.042C234.081 485.042 233.916 485.015 233.725 485.015C233.456 485.015 233.343 485.114 233.343 485.114C233.265 485.168 233.23 485.258 233.23 485.376C233.229 485.439 233.244 485.501 233.273 485.556C233.282 485.574 233.291 485.592 233.343 485.629ZM244.412 483.976C244.404 484.013 244.334 484.202 244.317 484.265C244.308 484.292 244.291 484.301 244.265 484.301C244.265 484.301 244.187 484.283 244.117 484.283C244.059 484.285 244 484.294 243.944 484.31C243.883 484.328 243.831 484.364 243.779 484.409C243.727 484.455 243.692 484.527 243.666 484.608C243.64 484.689 243.623 484.825 243.623 484.969V485.98C243.623 486.007 243.605 486.025 243.58 486.025H243.232C243.206 486.025 243.189 486.007 243.189 485.98V483.95C243.189 483.923 243.206 483.905 243.224 483.905H243.559C243.585 483.905 243.594 483.923 243.594 483.95V484.113C243.646 484.04 243.733 483.977 243.811 483.941C243.889 483.905 243.985 483.878 244.146 483.887C244.233 483.896 244.346 483.914 244.363 483.923C244.398 483.932 244.415 483.942 244.406 483.977L244.412 483.976ZM241.191 483.037C241.199 483.037 241.226 483.056 241.217 483.082L241.113 483.371C241.104 483.389 241.095 483.407 241.051 483.389C241.043 483.389 241.026 483.38 240.982 483.371C240.956 483.362 240.912 483.362 240.878 483.362C240.826 483.362 240.782 483.371 240.739 483.38C240.695 483.39 240.661 483.417 240.626 483.453C240.591 483.489 240.556 483.534 240.53 483.597C240.479 483.741 240.461 483.895 240.461 483.904H240.878C240.912 483.904 240.921 483.922 240.921 483.949L240.869 484.229C240.861 484.274 240.826 484.265 240.826 484.265H240.392L240.114 486.008C240.079 486.189 240.044 486.342 240.001 486.468C239.958 486.594 239.906 486.684 239.827 486.775C239.758 486.856 239.68 486.919 239.584 486.946C239.497 486.982 239.384 487 239.263 487C239.202 487 239.142 487 239.072 486.982C239.03 486.975 238.989 486.963 238.951 486.946C238.933 486.937 238.925 486.919 238.933 486.892L239.029 486.612C239.046 486.576 239.072 486.594 239.072 486.594L239.142 486.621C239.176 486.63 239.211 486.63 239.246 486.63C239.307 486.63 239.359 486.621 239.402 486.603C239.454 486.585 239.489 486.549 239.523 486.504C239.558 486.458 239.584 486.395 239.619 486.314C239.651 486.204 239.677 486.093 239.697 485.98L239.992 484.273H239.706C239.671 484.273 239.662 484.255 239.662 484.228L239.714 483.948C239.723 483.903 239.757 483.912 239.757 483.912H240.053L240.07 483.822C240.113 483.551 240.2 483.343 240.331 483.208C240.461 483.072 240.652 483 240.886 483C240.955 483 241.016 483.009 241.068 483.018C241.103 483.009 241.146 483.018 241.19 483.036L241.191 483.037ZM235.339 485.972C235.339 485.999 235.322 486.017 235.304 486.017H234.957C234.931 486.017 234.923 485.999 234.923 485.972V483.074C234.923 483.056 234.94 483.029 234.957 483.029H235.304C235.33 483.029 235.339 483.047 235.339 483.074V485.972Z" fill="white"/>
<path d="M288.008 478.192C287.421 478.192 286.883 478.123 286.392 477.984C285.912 477.845 285.485 477.653 285.112 477.408C284.749 477.163 284.445 476.891 284.2 476.592C283.965 476.283 283.8 475.963 283.704 475.632L285.528 475.072C285.667 475.467 285.939 475.813 286.344 476.112C286.749 476.411 287.251 476.565 287.848 476.576C288.541 476.576 289.091 476.432 289.496 476.144C289.901 475.856 290.104 475.477 290.104 475.008C290.104 474.581 289.933 474.235 289.592 473.968C289.251 473.691 288.792 473.477 288.216 473.328L286.84 472.976C286.317 472.837 285.843 472.635 285.416 472.368C285 472.101 284.669 471.765 284.424 471.36C284.189 470.955 284.072 470.475 284.072 469.92C284.072 468.875 284.413 468.064 285.096 467.488C285.779 466.901 286.755 466.608 288.024 466.608C288.739 466.608 289.363 466.72 289.896 466.944C290.44 467.157 290.888 467.456 291.24 467.84C291.592 468.213 291.853 468.64 292.024 469.12L290.232 469.696C290.072 469.269 289.795 468.917 289.4 468.64C289.005 468.363 288.515 468.224 287.928 468.224C287.32 468.224 286.84 468.368 286.488 468.656C286.147 468.944 285.976 469.344 285.976 469.856C285.976 470.272 286.109 470.597 286.376 470.832C286.653 471.056 287.027 471.227 287.496 471.344L288.872 471.68C289.875 471.925 290.653 472.347 291.208 472.944C291.763 473.541 292.04 474.203 292.04 474.928C292.04 475.568 291.885 476.133 291.576 476.624C291.267 477.115 290.808 477.499 290.2 477.776C289.603 478.053 288.872 478.192 288.008 478.192ZM298.638 478L298.558 476.496V473.888C298.558 473.344 298.499 472.891 298.382 472.528C298.275 472.155 298.094 471.872 297.838 471.68C297.592 471.477 297.262 471.376 296.846 471.376C296.462 471.376 296.126 471.456 295.838 471.616C295.55 471.776 295.304 472.027 295.102 472.368L293.534 471.792C293.704 471.44 293.928 471.115 294.206 470.816C294.494 470.507 294.851 470.261 295.278 470.08C295.715 469.899 296.238 469.808 296.846 469.808C297.624 469.808 298.275 469.963 298.798 470.272C299.32 470.571 299.704 471.003 299.95 471.568C300.206 472.133 300.334 472.816 300.334 473.616L300.286 478H298.638ZM296.334 478.192C295.374 478.192 294.627 477.979 294.094 477.552C293.571 477.125 293.31 476.523 293.31 475.744C293.31 474.912 293.587 474.277 294.142 473.84C294.707 473.403 295.491 473.184 296.494 473.184H298.638V474.56H297.07C296.355 474.56 295.854 474.661 295.566 474.864C295.278 475.056 295.134 475.333 295.134 475.696C295.134 476.005 295.256 476.251 295.502 476.432C295.758 476.603 296.11 476.688 296.558 476.688C296.963 476.688 297.315 476.597 297.614 476.416C297.912 476.235 298.142 475.995 298.302 475.696C298.472 475.397 298.558 475.061 298.558 474.688H299.086C299.086 475.776 298.867 476.635 298.43 477.264C297.992 477.883 297.294 478.192 296.334 478.192ZM302.148 478V466.8H303.94V478H302.148ZM309.498 478.192C308.719 478.192 308.026 478.016 307.418 477.664C306.82 477.301 306.346 476.805 305.993 476.176C305.652 475.547 305.482 474.821 305.482 474C305.482 473.179 305.658 472.453 306.01 471.824C306.362 471.195 306.842 470.704 307.45 470.352C308.068 469.989 308.772 469.808 309.562 469.808C310.276 469.808 310.922 469.995 311.498 470.368C312.074 470.731 312.527 471.259 312.858 471.952C313.199 472.645 313.37 473.472 313.37 474.432H307.082L307.322 474.208C307.322 474.699 307.428 475.125 307.642 475.488C307.855 475.84 308.138 476.112 308.49 476.304C308.842 476.496 309.231 476.592 309.658 476.592C310.148 476.592 310.554 476.485 310.874 476.272C311.194 476.048 311.444 475.76 311.626 475.408L313.21 476.08C312.986 476.507 312.698 476.88 312.346 477.2C312.004 477.52 311.594 477.765 311.114 477.936C310.644 478.107 310.106 478.192 309.498 478.192ZM307.434 473.28L307.178 473.056H311.69L311.45 473.28C311.45 472.843 311.354 472.485 311.162 472.208C310.97 471.92 310.724 471.707 310.426 471.568C310.138 471.419 309.834 471.344 309.514 471.344C309.194 471.344 308.874 471.419 308.554 471.568C308.234 471.707 307.967 471.92 307.754 472.208C307.54 472.485 307.434 472.843 307.434 473.28ZM317.654 478.192C317.121 478.192 316.63 478.112 316.182 477.952C315.734 477.792 315.35 477.568 315.03 477.28C314.71 476.981 314.465 476.635 314.294 476.24L315.846 475.552C316.006 475.851 316.241 476.101 316.55 476.304C316.87 476.507 317.222 476.608 317.606 476.608C318.022 476.608 318.353 476.539 318.598 476.4C318.854 476.251 318.982 476.048 318.982 475.792C318.982 475.547 318.886 475.36 318.694 475.232C318.502 475.093 318.23 474.981 317.878 474.896L317.126 474.688C316.369 474.496 315.777 474.192 315.35 473.776C314.923 473.349 314.71 472.864 314.71 472.32C314.71 471.52 314.966 470.901 315.478 470.464C316.001 470.027 316.747 469.808 317.718 469.808C318.209 469.808 318.657 469.883 319.062 470.032C319.478 470.171 319.835 470.373 320.134 470.64C320.433 470.896 320.641 471.2 320.758 471.552L319.27 472.224C319.163 471.957 318.961 471.755 318.662 471.616C318.363 471.467 318.033 471.392 317.67 471.392C317.307 471.392 317.025 471.472 316.822 471.632C316.619 471.781 316.518 471.995 316.518 472.272C316.518 472.432 316.609 472.581 316.79 472.72C316.971 472.848 317.233 472.955 317.574 473.04L318.518 473.264C319.041 473.392 319.467 473.595 319.798 473.872C320.129 474.139 320.374 474.443 320.534 474.784C320.694 475.115 320.774 475.451 320.774 475.792C320.774 476.272 320.635 476.693 320.358 477.056C320.091 477.419 319.723 477.701 319.254 477.904C318.785 478.096 318.251 478.192 317.654 478.192ZM322.995 478V469.152C322.995 468.309 323.203 467.664 323.619 467.216C324.046 466.757 324.686 466.528 325.539 466.528C325.816 466.528 326.11 466.576 326.419 466.672C326.739 466.757 327.043 466.875 327.331 467.024L326.675 468.352C326.472 468.256 326.291 468.187 326.131 468.144C325.982 468.101 325.848 468.08 325.731 468.08C325.411 468.08 325.171 468.187 325.011 468.4C324.862 468.603 324.787 468.939 324.787 469.408V478H322.995ZM321.619 471.472V470H326.883V471.472H321.619ZM331.875 478.192C331.075 478.192 330.36 478.016 329.731 477.664C329.112 477.301 328.627 476.805 328.275 476.176C327.923 475.547 327.747 474.821 327.747 474C327.747 473.179 327.918 472.453 328.259 471.824C328.611 471.195 329.096 470.704 329.715 470.352C330.334 469.989 331.043 469.808 331.843 469.808C332.643 469.808 333.352 469.989 333.971 470.352C334.59 470.704 335.07 471.195 335.411 471.824C335.763 472.453 335.939 473.179 335.939 474C335.939 474.821 335.768 475.547 335.427 476.176C335.086 476.805 334.606 477.301 333.987 477.664C333.368 478.016 332.664 478.192 331.875 478.192ZM331.875 476.544C332.312 476.544 332.702 476.437 333.043 476.224C333.384 476 333.651 475.701 333.843 475.328C334.035 474.944 334.131 474.501 334.131 474C334.131 473.499 334.03 473.061 333.827 472.688C333.635 472.304 333.368 472.005 333.027 471.792C332.686 471.568 332.291 471.456 331.843 471.456C331.395 471.456 331 471.563 330.659 471.776C330.318 471.989 330.051 472.288 329.859 472.672C329.667 473.056 329.571 473.499 329.571 474C329.571 474.501 329.667 474.944 329.859 475.328C330.062 475.701 330.334 476 330.675 476.224C331.027 476.437 331.427 476.544 331.875 476.544ZM338.676 473.744C338.676 472.88 338.841 472.171 339.172 471.616C339.503 471.061 339.929 470.651 340.452 470.384C340.985 470.107 341.54 469.968 342.116 469.968V471.68C341.625 471.68 341.161 471.749 340.724 471.888C340.297 472.016 339.951 472.229 339.684 472.528C339.417 472.827 339.284 473.221 339.284 473.712L338.676 473.744ZM337.492 478V470H339.284V478H337.492ZM347.049 478.192C346.227 478.192 345.502 478.016 344.873 477.664C344.243 477.301 343.747 476.805 343.385 476.176C343.033 475.547 342.857 474.821 342.857 474C342.857 473.179 343.033 472.453 343.385 471.824C343.747 471.195 344.238 470.704 344.857 470.352C345.486 469.989 346.206 469.808 347.016 469.808C347.806 469.808 348.521 470 349.161 470.384C349.801 470.757 350.275 471.296 350.585 472L348.921 472.64C348.75 472.288 348.489 472.005 348.137 471.792C347.785 471.579 347.385 471.472 346.937 471.472C346.499 471.472 346.11 471.584 345.769 471.808C345.427 472.021 345.161 472.32 344.969 472.704C344.777 473.077 344.681 473.509 344.681 474C344.681 474.491 344.777 474.928 344.969 475.312C345.171 475.685 345.443 475.984 345.785 476.208C346.137 476.421 346.531 476.528 346.969 476.528C347.417 476.528 347.817 476.416 348.169 476.192C348.521 475.957 348.782 475.643 348.953 475.248L350.617 475.888C350.307 476.613 349.833 477.179 349.193 477.584C348.563 477.989 347.849 478.192 347.049 478.192ZM355.576 478.192C354.797 478.192 354.104 478.016 353.496 477.664C352.898 477.301 352.424 476.805 352.072 476.176C351.73 475.547 351.56 474.821 351.56 474C351.56 473.179 351.736 472.453 352.088 471.824C352.44 471.195 352.92 470.704 353.528 470.352C354.146 469.989 354.85 469.808 355.64 469.808C356.354 469.808 357 469.995 357.576 470.368C358.152 470.731 358.605 471.259 358.936 471.952C359.277 472.645 359.448 473.472 359.448 474.432H353.16L353.4 474.208C353.4 474.699 353.506 475.125 353.72 475.488C353.933 475.84 354.216 476.112 354.568 476.304C354.92 476.496 355.309 476.592 355.736 476.592C356.226 476.592 356.632 476.485 356.952 476.272C357.272 476.048 357.522 475.76 357.704 475.408L359.288 476.08C359.064 476.507 358.776 476.88 358.424 477.2C358.082 477.52 357.672 477.765 357.192 477.936C356.722 478.107 356.184 478.192 355.576 478.192ZM353.512 473.28L353.256 473.056H357.768L357.528 473.28C357.528 472.843 357.432 472.485 357.24 472.208C357.048 471.92 356.802 471.707 356.504 471.568C356.216 471.419 355.912 471.344 355.592 471.344C355.272 471.344 354.952 471.419 354.632 471.568C354.312 471.707 354.045 471.92 353.832 472.208C353.618 472.485 353.512 472.843 353.512 473.28Z" fill="white"/>
<path d="M287.284 498.168C286.584 498.168 285.968 498.056 285.436 497.832C284.904 497.599 284.493 497.281 284.204 496.88C283.915 496.469 283.77 495.993 283.77 495.452C283.77 494.883 283.915 494.383 284.204 493.954C284.493 493.525 284.904 493.193 285.436 492.96C285.968 492.717 286.584 492.596 287.284 492.596C288.003 492.596 288.623 492.717 289.146 492.96C289.678 493.193 290.089 493.525 290.378 493.954C290.677 494.383 290.826 494.883 290.826 495.452C290.826 495.993 290.677 496.469 290.378 496.88C290.089 497.281 289.678 497.599 289.146 497.832C288.623 498.056 288.003 498.168 287.284 498.168ZM287.284 497.132C287.975 497.132 288.539 496.969 288.978 496.642C289.417 496.306 289.636 495.872 289.636 495.34C289.636 494.799 289.417 494.36 288.978 494.024C288.539 493.679 287.975 493.506 287.284 493.506C286.836 493.506 286.435 493.585 286.08 493.744C285.735 493.893 285.459 494.108 285.254 494.388C285.058 494.659 284.96 494.976 284.96 495.34C284.96 495.695 285.058 496.007 285.254 496.278C285.459 496.549 285.735 496.759 286.08 496.908C286.435 497.057 286.836 497.132 287.284 497.132ZM287.284 493.282C286.659 493.282 286.108 493.175 285.632 492.96C285.156 492.736 284.787 492.433 284.526 492.05C284.265 491.658 284.134 491.205 284.134 490.692C284.134 490.169 284.265 489.707 284.526 489.306C284.787 488.905 285.156 488.592 285.632 488.368C286.108 488.144 286.659 488.032 287.284 488.032C287.928 488.032 288.483 488.144 288.95 488.368C289.426 488.592 289.795 488.905 290.056 489.306C290.327 489.707 290.462 490.169 290.462 490.692C290.462 491.205 290.327 491.658 290.056 492.05C289.795 492.433 289.426 492.736 288.95 492.96C288.483 493.175 287.928 493.282 287.284 493.282ZM287.284 492.4C287.872 492.4 288.353 492.255 288.726 491.966C289.109 491.667 289.3 491.28 289.3 490.804C289.3 490.281 289.109 489.861 288.726 489.544C288.353 489.217 287.872 489.054 287.284 489.054C286.705 489.054 286.229 489.217 285.856 489.544C285.483 489.861 285.296 490.281 285.296 490.804C285.296 491.28 285.483 491.667 285.856 491.966C286.229 492.255 286.705 492.4 287.284 492.4ZM292.398 498V497.02C292.398 496.712 292.458 496.409 292.58 496.11C292.71 495.802 292.892 495.499 293.126 495.2C293.368 494.901 293.662 494.621 294.008 494.36L296.038 492.834C296.28 492.666 296.49 492.475 296.668 492.26C296.854 492.036 296.999 491.807 297.102 491.574C297.204 491.331 297.256 491.098 297.256 490.874C297.256 490.547 297.176 490.253 297.018 489.992C296.859 489.721 296.635 489.507 296.346 489.348C296.056 489.189 295.716 489.11 295.324 489.11C294.941 489.11 294.605 489.185 294.316 489.334C294.026 489.474 293.788 489.665 293.602 489.908C293.415 490.141 293.28 490.393 293.196 490.664L291.992 490.426C292.104 490.006 292.304 489.614 292.594 489.25C292.892 488.886 293.27 488.592 293.728 488.368C294.185 488.144 294.694 488.032 295.254 488.032C295.907 488.032 296.472 488.158 296.948 488.41C297.424 488.653 297.792 488.989 298.054 489.418C298.324 489.838 298.46 490.319 298.46 490.86C298.46 491.373 298.32 491.859 298.04 492.316C297.76 492.773 297.354 493.217 296.822 493.646L294.904 495.102C294.53 495.382 294.241 495.676 294.036 495.984C293.84 496.292 293.728 496.614 293.7 496.95H298.6V498H292.398ZM304.559 498V490.202C304.559 489.474 304.727 488.928 305.063 488.564C305.408 488.191 305.931 488.004 306.631 488.004C306.818 488.004 307.028 488.037 307.261 488.102C307.494 488.167 307.742 488.261 308.003 488.382L307.583 489.264C307.368 489.18 307.186 489.115 307.037 489.068C306.888 489.021 306.762 488.998 306.659 488.998C306.332 488.998 306.085 489.105 305.917 489.32C305.758 489.525 305.679 489.847 305.679 490.286V498H304.559ZM303.271 491.966V491H307.709V491.966H303.271ZM309.097 498V491H310.217V498H309.097ZM309.671 489.376C309.484 489.376 309.321 489.306 309.181 489.166C309.041 489.026 308.971 488.863 308.971 488.676C308.971 488.48 309.041 488.317 309.181 488.186C309.321 488.046 309.484 487.976 309.671 487.976C309.867 487.976 310.03 488.046 310.161 488.186C310.301 488.317 310.371 488.48 310.371 488.676C310.371 488.863 310.301 489.026 310.161 489.166C310.03 489.306 309.867 489.376 309.671 489.376ZM315.347 498.168C314.665 498.168 314.063 498.014 313.541 497.706C313.018 497.389 312.607 496.955 312.309 496.404C312.019 495.853 311.875 495.219 311.875 494.5C311.875 493.781 312.019 493.147 312.309 492.596C312.607 492.045 313.013 491.616 313.527 491.308C314.049 490.991 314.647 490.832 315.319 490.832C315.972 490.832 316.537 490.995 317.013 491.322C317.489 491.639 317.857 492.087 318.119 492.666C318.38 493.245 318.511 493.926 318.511 494.71H312.729L313.009 494.472C313.009 495.032 313.107 495.513 313.303 495.914C313.508 496.315 313.793 496.623 314.157 496.838C314.521 497.043 314.936 497.146 315.403 497.146C315.897 497.146 316.313 497.029 316.649 496.796C316.994 496.563 317.26 496.255 317.447 495.872L318.413 496.362C318.235 496.726 317.997 497.043 317.699 497.314C317.409 497.585 317.064 497.795 316.663 497.944C316.271 498.093 315.832 498.168 315.347 498.168ZM313.079 493.996L312.785 493.772H317.615L317.321 494.01C317.321 493.562 317.232 493.175 317.055 492.848C316.877 492.521 316.639 492.269 316.341 492.092C316.042 491.915 315.697 491.826 315.305 491.826C314.922 491.826 314.558 491.915 314.213 492.092C313.877 492.269 313.601 492.521 313.387 492.848C313.181 493.165 313.079 493.548 313.079 493.996ZM319.923 498V488.2H321.043V498H319.923ZM328.18 498L328.124 496.698V488.2H329.244V498H328.18ZM325.758 498.168C325.132 498.168 324.582 498.014 324.106 497.706C323.63 497.398 323.256 496.969 322.986 496.418C322.724 495.858 322.594 495.219 322.594 494.5C322.594 493.772 322.724 493.133 322.986 492.582C323.256 492.031 323.63 491.602 324.106 491.294C324.582 490.986 325.132 490.832 325.758 490.832C326.346 490.832 326.859 490.986 327.298 491.294C327.746 491.602 328.091 492.031 328.334 492.582C328.576 493.133 328.698 493.772 328.698 494.5C328.698 495.219 328.576 495.858 328.334 496.418C328.091 496.969 327.746 497.398 327.298 497.706C326.859 498.014 326.346 498.168 325.758 498.168ZM326.01 497.146C326.42 497.146 326.784 497.034 327.102 496.81C327.419 496.586 327.666 496.273 327.844 495.872C328.03 495.471 328.124 495.013 328.124 494.5C328.124 493.987 328.03 493.529 327.844 493.128C327.666 492.727 327.419 492.414 327.102 492.19C326.784 491.966 326.416 491.854 325.996 491.854C325.557 491.854 325.165 491.966 324.82 492.19C324.484 492.414 324.218 492.727 324.022 493.128C323.826 493.529 323.728 493.987 323.728 494.5C323.728 495.013 323.826 495.471 324.022 495.872C324.218 496.273 324.488 496.586 324.834 496.81C325.179 497.034 325.571 497.146 326.01 497.146ZM333.653 498.168C333.139 498.168 332.691 498.093 332.309 497.944C331.926 497.785 331.604 497.58 331.343 497.328C331.091 497.076 330.909 496.801 330.797 496.502L331.777 496.096C331.935 496.413 332.173 496.67 332.491 496.866C332.808 497.062 333.158 497.16 333.541 497.16C333.979 497.16 334.348 497.076 334.647 496.908C334.945 496.731 335.095 496.483 335.095 496.166C335.095 495.877 334.983 495.643 334.759 495.466C334.544 495.289 334.222 495.144 333.793 495.032L333.121 494.85C332.486 494.682 331.991 494.43 331.637 494.094C331.282 493.749 331.105 493.361 331.105 492.932C331.105 492.269 331.319 491.756 331.749 491.392C332.187 491.019 332.836 490.832 333.695 490.832C334.105 490.832 334.479 490.893 334.815 491.014C335.151 491.135 335.44 491.308 335.683 491.532C335.925 491.747 336.103 492.003 336.215 492.302L335.235 492.736C335.113 492.419 334.913 492.19 334.633 492.05C334.353 491.91 334.012 491.84 333.611 491.84C333.181 491.84 332.845 491.933 332.603 492.12C332.36 492.297 332.239 492.549 332.239 492.876C332.239 493.063 332.337 493.24 332.533 493.408C332.738 493.567 333.037 493.697 333.429 493.8L334.129 493.982C334.586 494.094 334.969 494.262 335.277 494.486C335.585 494.701 335.818 494.948 335.977 495.228C336.135 495.508 336.215 495.807 336.215 496.124C336.215 496.544 336.103 496.908 335.879 497.216C335.655 497.524 335.351 497.762 334.969 497.93C334.586 498.089 334.147 498.168 333.653 498.168Z" fill="#D7D7DB"/>
</g>
<defs>
<clipPath id="clip0_1169_1181">
<path d="M0 16C0 7.16345 7.16344 0 16 0H634C642.837 0 650 7.16344 650 16V714C650 722.837 642.837 730 634 730H16C7.16346 730 0 722.837 0 714V16Z" fill="white"/>
</clipPath>
</defs>
</svg>
