<svg width="650" height="264" viewBox="0 0 650 264" fill="none" xmlns="http://www.w3.org/2000/svg">
<rect width="650" height="264" rx="16" fill="#1A1A1E"/>
<rect x="224.5" y="51.5" width="196" height="63" rx="11.5" stroke="#37373D"/>
<path d="M291.672 78L295.044 69.6H296.304L292.86 78H291.672ZM291.552 78L288.108 69.6H289.368L292.728 78H291.552ZM299.378 78.144C298.794 78.144 298.278 78.012 297.83 77.748C297.382 77.476 297.03 77.104 296.774 76.632C296.518 76.16 296.39 75.616 296.39 75C296.39 74.384 296.518 73.84 296.774 73.368C297.03 72.896 297.382 72.528 297.83 72.264C298.286 71.992 298.806 71.856 299.39 71.856C299.942 71.856 300.426 71.996 300.842 72.276C301.258 72.548 301.582 72.94 301.814 73.452C302.054 73.956 302.174 74.552 302.174 75.24H297.326L297.542 75.06C297.542 75.484 297.626 75.852 297.794 76.164C297.962 76.476 298.19 76.716 298.478 76.884C298.766 77.044 299.094 77.124 299.462 77.124C299.862 77.124 300.194 77.032 300.458 76.848C300.73 76.656 300.942 76.416 301.094 76.128L302.078 76.584C301.918 76.896 301.71 77.172 301.454 77.412C301.198 77.644 300.894 77.824 300.542 77.952C300.198 78.08 299.81 78.144 299.378 78.144ZM297.614 74.52L297.386 74.34H301.178L300.962 74.52C300.962 74.168 300.89 73.868 300.746 73.62C300.602 73.364 300.41 73.172 300.17 73.044C299.93 72.908 299.662 72.84 299.366 72.84C299.078 72.84 298.798 72.908 298.526 73.044C298.262 73.172 298.042 73.36 297.866 73.608C297.698 73.856 297.614 74.16 297.614 74.52ZM303.996 74.772C303.996 74.124 304.12 73.596 304.368 73.188C304.616 72.78 304.936 72.476 305.328 72.276C305.72 72.076 306.132 71.976 306.564 71.976V73.056C306.204 73.056 305.86 73.112 305.532 73.224C305.212 73.328 304.948 73.504 304.74 73.752C304.54 73.992 304.44 74.32 304.44 74.736L303.996 74.772ZM303.3 78V72H304.44V78H303.3ZM307.555 78V72H308.695V78H307.555ZM308.131 70.728C307.947 70.728 307.787 70.66 307.651 70.524C307.515 70.38 307.447 70.216 307.447 70.032C307.447 69.84 307.515 69.68 307.651 69.552C307.787 69.416 307.947 69.348 308.131 69.348C308.323 69.348 308.483 69.416 308.611 69.552C308.747 69.68 308.815 69.84 308.815 70.032C308.815 70.216 308.747 70.38 308.611 70.524C308.483 70.66 308.323 70.728 308.131 70.728ZM310.966 78V71.34C310.966 70.708 311.118 70.232 311.422 69.912C311.726 69.584 312.186 69.42 312.802 69.42C312.986 69.42 313.186 69.452 313.402 69.516C313.618 69.572 313.838 69.652 314.062 69.756L313.642 70.632C313.474 70.552 313.326 70.496 313.198 70.464C313.078 70.424 312.974 70.404 312.886 70.404C312.622 70.404 312.426 70.492 312.298 70.668C312.17 70.836 312.106 71.1 312.106 71.46V78H310.966ZM309.898 72.948V72H313.762V72.948H309.898ZM315.61 80.544C315.434 80.544 315.238 80.512 315.022 80.448C314.814 80.384 314.598 80.3 314.374 80.196L314.794 79.26C314.97 79.34 315.122 79.4 315.25 79.44C315.386 79.48 315.494 79.5 315.574 79.5C315.774 79.5 315.942 79.444 316.078 79.332C316.222 79.22 316.338 79.064 316.426 78.864L317.122 77.22L319.258 72H320.482L317.638 78.744C317.486 79.112 317.326 79.432 317.158 79.704C316.99 79.976 316.782 80.184 316.534 80.328C316.294 80.472 315.986 80.544 315.61 80.544ZM316.81 78L314.182 72H315.394L317.566 77.208L317.914 78H316.81ZM324.984 74.772C324.984 74.124 325.108 73.596 325.356 73.188C325.604 72.78 325.924 72.476 326.316 72.276C326.708 72.076 327.12 71.976 327.552 71.976V73.056C327.192 73.056 326.848 73.112 326.52 73.224C326.2 73.328 325.936 73.504 325.728 73.752C325.528 73.992 325.428 74.32 325.428 74.736L324.984 74.772ZM324.288 78V72H325.428V78H324.288ZM331.124 78.144C330.54 78.144 330.024 78.012 329.576 77.748C329.128 77.476 328.776 77.104 328.52 76.632C328.264 76.16 328.136 75.616 328.136 75C328.136 74.384 328.264 73.84 328.52 73.368C328.776 72.896 329.128 72.528 329.576 72.264C330.032 71.992 330.552 71.856 331.136 71.856C331.688 71.856 332.172 71.996 332.588 72.276C333.004 72.548 333.328 72.94 333.56 73.452C333.8 73.956 333.92 74.552 333.92 75.24H329.072L329.288 75.06C329.288 75.484 329.372 75.852 329.54 76.164C329.708 76.476 329.936 76.716 330.224 76.884C330.512 77.044 330.84 77.124 331.208 77.124C331.608 77.124 331.94 77.032 332.204 76.848C332.476 76.656 332.688 76.416 332.84 76.128L333.824 76.584C333.664 76.896 333.456 77.172 333.2 77.412C332.944 77.644 332.64 77.824 332.288 77.952C331.944 78.08 331.556 78.144 331.124 78.144ZM329.36 74.52L329.132 74.34H332.924L332.708 74.52C332.708 74.168 332.636 73.868 332.492 73.62C332.348 73.364 332.156 73.172 331.916 73.044C331.676 72.908 331.408 72.84 331.112 72.84C330.824 72.84 330.544 72.908 330.272 73.044C330.008 73.172 329.788 73.36 329.612 73.608C329.444 73.856 329.36 74.16 329.36 74.52ZM337.194 78.144C336.77 78.144 336.39 78.08 336.054 77.952C335.726 77.824 335.446 77.652 335.214 77.436C334.99 77.22 334.822 76.976 334.71 76.704L335.694 76.272C335.822 76.52 336.014 76.724 336.27 76.884C336.526 77.044 336.81 77.124 337.122 77.124C337.466 77.124 337.75 77.06 337.974 76.932C338.198 76.804 338.31 76.624 338.31 76.392C338.31 76.168 338.226 75.992 338.058 75.864C337.89 75.736 337.646 75.632 337.326 75.552L336.762 75.408C336.202 75.256 335.766 75.028 335.454 74.724C335.15 74.42 334.998 74.076 334.998 73.692C334.998 73.108 335.186 72.656 335.562 72.336C335.938 72.016 336.494 71.856 337.23 71.856C337.59 71.856 337.918 71.908 338.214 72.012C338.518 72.116 338.774 72.264 338.982 72.456C339.198 72.648 339.35 72.876 339.438 73.14L338.478 73.572C338.382 73.332 338.218 73.156 337.986 73.044C337.754 72.924 337.482 72.864 337.17 72.864C336.85 72.864 336.598 72.936 336.414 73.08C336.23 73.216 336.138 73.408 336.138 73.656C336.138 73.792 336.214 73.924 336.366 74.052C336.526 74.172 336.758 74.272 337.062 74.352L337.71 74.508C338.102 74.604 338.426 74.752 338.682 74.952C338.938 75.144 339.13 75.364 339.258 75.612C339.386 75.852 339.45 76.104 339.45 76.368C339.45 76.728 339.35 77.044 339.15 77.316C338.958 77.58 338.69 77.784 338.346 77.928C338.01 78.072 337.626 78.144 337.194 78.144ZM344.716 78L344.644 76.896V72H345.772V78H344.716ZM340.492 75.072V72H341.632V75.072H340.492ZM341.632 75.072C341.632 75.608 341.692 76.02 341.812 76.308C341.94 76.596 342.116 76.796 342.34 76.908C342.564 77.02 342.816 77.08 343.096 77.088C343.584 77.088 343.964 76.916 344.236 76.572C344.508 76.228 344.644 75.744 344.644 75.12H345.136C345.136 75.752 345.04 76.296 344.848 76.752C344.664 77.2 344.4 77.544 344.056 77.784C343.712 78.024 343.292 78.144 342.796 78.144C342.332 78.144 341.924 78.048 341.572 77.856C341.228 77.664 340.96 77.364 340.768 76.956C340.584 76.548 340.492 76.02 340.492 75.372V75.072H341.632ZM347.362 78V69.6H348.502V78H347.362ZM352.397 78.144C351.797 78.144 351.333 77.992 351.005 77.688C350.677 77.376 350.513 76.932 350.513 76.356V70.128H351.653V76.188C351.653 76.484 351.725 76.712 351.869 76.872C352.021 77.024 352.237 77.1 352.517 77.1C352.597 77.1 352.685 77.084 352.781 77.052C352.877 77.02 352.993 76.956 353.129 76.86L353.561 77.748C353.353 77.884 353.153 77.984 352.961 78.048C352.777 78.112 352.589 78.144 352.397 78.144ZM349.493 72.984V72H353.357V72.984H349.493ZM356.835 78.144C356.411 78.144 356.031 78.08 355.695 77.952C355.367 77.824 355.087 77.652 354.855 77.436C354.631 77.22 354.463 76.976 354.351 76.704L355.335 76.272C355.463 76.52 355.655 76.724 355.911 76.884C356.167 77.044 356.451 77.124 356.763 77.124C357.107 77.124 357.391 77.06 357.615 76.932C357.839 76.804 357.951 76.624 357.951 76.392C357.951 76.168 357.867 75.992 357.699 75.864C357.531 75.736 357.287 75.632 356.967 75.552L356.403 75.408C355.843 75.256 355.407 75.028 355.095 74.724C354.791 74.42 354.639 74.076 354.639 73.692C354.639 73.108 354.827 72.656 355.203 72.336C355.579 72.016 356.135 71.856 356.871 71.856C357.231 71.856 357.559 71.908 357.855 72.012C358.159 72.116 358.415 72.264 358.623 72.456C358.839 72.648 358.991 72.876 359.079 73.14L358.119 73.572C358.023 73.332 357.859 73.156 357.627 73.044C357.395 72.924 357.123 72.864 356.811 72.864C356.491 72.864 356.239 72.936 356.055 73.08C355.871 73.216 355.779 73.408 355.779 73.656C355.779 73.792 355.855 73.924 356.007 74.052C356.167 74.172 356.399 74.272 356.703 74.352L357.351 74.508C357.743 74.604 358.067 74.752 358.323 74.952C358.579 75.144 358.771 75.364 358.899 75.612C359.027 75.852 359.091 76.104 359.091 76.368C359.091 76.728 358.991 77.044 358.791 77.316C358.599 77.58 358.331 77.784 357.987 77.928C357.651 78.072 357.267 78.144 356.835 78.144Z" fill="white"/>
<path d="M291.492 95.108C290.892 95.108 290.361 94.97 289.899 94.694C289.437 94.412 289.074 94.028 288.81 93.542C288.546 93.05 288.414 92.486 288.414 91.85C288.414 91.214 288.543 90.653 288.801 90.167C289.065 89.675 289.425 89.291 289.881 89.015C290.343 88.733 290.871 88.592 291.465 88.592C291.843 88.592 292.206 88.661 292.554 88.799C292.902 88.931 293.214 89.12 293.49 89.366C293.766 89.606 293.979 89.885 294.129 90.203L293.472 90.536C293.352 90.284 293.187 90.065 292.977 89.879C292.767 89.693 292.533 89.549 292.275 89.447C292.017 89.339 291.747 89.285 291.465 89.285C291.027 89.285 290.634 89.396 290.286 89.618C289.938 89.834 289.665 90.134 289.467 90.518C289.275 90.902 289.179 91.346 289.179 91.85C289.179 92.354 289.278 92.801 289.476 93.191C289.674 93.581 289.947 93.887 290.295 94.109C290.649 94.325 291.048 94.433 291.492 94.433C291.78 94.433 292.053 94.376 292.311 94.262C292.569 94.142 292.8 93.98 293.004 93.776C293.214 93.572 293.379 93.338 293.499 93.074L294.165 93.407C294.009 93.737 293.793 94.031 293.517 94.289C293.247 94.547 292.935 94.748 292.581 94.892C292.233 95.036 291.87 95.108 291.492 95.108ZM297.888 95L297.852 94.262V92.624C297.852 92.27 297.813 91.979 297.735 91.751C297.657 91.517 297.534 91.34 297.366 91.22C297.198 91.1 296.979 91.04 296.709 91.04C296.463 91.04 296.25 91.091 296.07 91.193C295.896 91.289 295.752 91.445 295.638 91.661L294.99 91.409C295.104 91.199 295.242 91.019 295.404 90.869C295.566 90.713 295.755 90.596 295.971 90.518C296.187 90.434 296.433 90.392 296.709 90.392C297.129 90.392 297.474 90.476 297.744 90.644C298.02 90.806 298.227 91.049 298.365 91.373C298.503 91.691 298.569 92.087 298.563 92.561L298.554 95H297.888ZM296.538 95.108C296.01 95.108 295.596 94.988 295.296 94.748C295.002 94.502 294.855 94.163 294.855 93.731C294.855 93.275 295.005 92.927 295.305 92.687C295.611 92.441 296.037 92.318 296.583 92.318H297.87V92.921H296.745C296.325 92.921 296.025 92.99 295.845 93.128C295.671 93.266 295.584 93.464 295.584 93.722C295.584 93.956 295.671 94.142 295.845 94.28C296.019 94.412 296.262 94.478 296.574 94.478C296.832 94.478 297.057 94.424 297.249 94.316C297.441 94.202 297.588 94.043 297.69 93.839C297.798 93.629 297.852 93.383 297.852 93.101H298.158C298.158 93.713 298.02 94.202 297.744 94.568C297.468 94.928 297.066 95.108 296.538 95.108ZM299.704 95V88.7H300.424V95H299.704ZM303.689 95.108C303.245 95.108 302.852 95.009 302.51 94.811C302.168 94.607 301.901 94.328 301.709 93.974C301.517 93.62 301.421 93.212 301.421 92.75C301.421 92.288 301.514 91.88 301.7 91.526C301.892 91.172 302.159 90.896 302.501 90.698C302.843 90.494 303.233 90.392 303.671 90.392C304.103 90.392 304.49 90.491 304.832 90.689C305.174 90.887 305.435 91.166 305.615 91.526L304.958 91.823C304.838 91.583 304.664 91.397 304.436 91.265C304.208 91.127 303.947 91.058 303.653 91.058C303.359 91.058 303.098 91.13 302.87 91.274C302.648 91.418 302.471 91.619 302.339 91.877C302.213 92.129 302.15 92.42 302.15 92.75C302.15 93.08 302.213 93.374 302.339 93.632C302.471 93.884 302.651 94.082 302.879 94.226C303.113 94.37 303.377 94.442 303.671 94.442C303.965 94.442 304.226 94.367 304.454 94.217C304.688 94.067 304.865 93.857 304.985 93.587L305.642 93.884C305.462 94.268 305.201 94.568 304.859 94.784C304.517 95 304.127 95.108 303.689 95.108ZM309.638 95L309.593 94.172V90.5H310.313V95H309.638ZM306.434 92.804V90.5H307.154V92.804H306.434ZM307.154 92.804C307.154 93.248 307.205 93.587 307.307 93.821C307.409 94.055 307.55 94.217 307.73 94.307C307.916 94.391 308.123 94.433 308.351 94.433C308.741 94.433 309.044 94.292 309.26 94.01C309.482 93.728 309.593 93.335 309.593 92.831H309.944C309.944 93.305 309.875 93.713 309.737 94.055C309.599 94.397 309.398 94.658 309.134 94.838C308.876 95.018 308.558 95.108 308.18 95.108C307.832 95.108 307.526 95.039 307.262 94.901C306.998 94.757 306.794 94.532 306.65 94.226C306.506 93.914 306.434 93.512 306.434 93.02V92.804H307.154ZM311.569 95V88.7H312.289V95H311.569ZM316.319 95L316.283 94.262V92.624C316.283 92.27 316.244 91.979 316.166 91.751C316.088 91.517 315.965 91.34 315.797 91.22C315.629 91.1 315.41 91.04 315.14 91.04C314.894 91.04 314.681 91.091 314.501 91.193C314.327 91.289 314.183 91.445 314.069 91.661L313.421 91.409C313.535 91.199 313.673 91.019 313.835 90.869C313.997 90.713 314.186 90.596 314.402 90.518C314.618 90.434 314.864 90.392 315.14 90.392C315.56 90.392 315.905 90.476 316.175 90.644C316.451 90.806 316.658 91.049 316.796 91.373C316.934 91.691 317 92.087 316.994 92.561L316.985 95H316.319ZM314.969 95.108C314.441 95.108 314.027 94.988 313.727 94.748C313.433 94.502 313.286 94.163 313.286 93.731C313.286 93.275 313.436 92.927 313.736 92.687C314.042 92.441 314.468 92.318 315.014 92.318H316.301V92.921H315.176C314.756 92.921 314.456 92.99 314.276 93.128C314.102 93.266 314.015 93.464 314.015 93.722C314.015 93.956 314.102 94.142 314.276 94.28C314.45 94.412 314.693 94.478 315.005 94.478C315.263 94.478 315.488 94.424 315.68 94.316C315.872 94.202 316.019 94.043 316.121 93.839C316.229 93.629 316.283 93.383 316.283 93.101H316.589C316.589 93.713 316.451 94.202 316.175 94.568C315.899 94.928 315.497 95.108 314.969 95.108ZM319.827 95.108C319.389 95.108 319.05 94.994 318.81 94.766C318.57 94.538 318.45 94.217 318.45 93.803V89.096H319.17V93.731C319.17 93.959 319.23 94.136 319.35 94.262C319.476 94.382 319.65 94.442 319.872 94.442C319.944 94.442 320.013 94.433 320.079 94.415C320.151 94.391 320.244 94.337 320.358 94.253L320.637 94.838C320.481 94.94 320.34 95.009 320.214 95.045C320.088 95.087 319.959 95.108 319.827 95.108ZM317.667 91.139V90.5H320.52V91.139H317.667ZM321.581 95V90.5H322.301V95H321.581ZM321.95 89.456C321.83 89.456 321.725 89.411 321.635 89.321C321.545 89.231 321.5 89.126 321.5 89.006C321.5 88.88 321.545 88.775 321.635 88.691C321.725 88.601 321.83 88.556 321.95 88.556C322.076 88.556 322.181 88.601 322.265 88.691C322.355 88.775 322.4 88.88 322.4 89.006C322.4 89.126 322.355 89.231 322.265 89.321C322.181 89.411 322.076 89.456 321.95 89.456ZM325.617 95.108C325.179 95.108 324.789 95.009 324.447 94.811C324.111 94.607 323.847 94.328 323.655 93.974C323.463 93.62 323.367 93.212 323.367 92.75C323.367 92.288 323.46 91.88 323.646 91.526C323.838 91.172 324.102 90.896 324.438 90.698C324.78 90.494 325.167 90.392 325.599 90.392C326.043 90.392 326.433 90.494 326.769 90.698C327.111 90.896 327.375 91.172 327.561 91.526C327.753 91.88 327.849 92.288 327.849 92.75C327.849 93.212 327.753 93.62 327.561 93.974C327.375 94.328 327.114 94.607 326.778 94.811C326.442 95.009 326.055 95.108 325.617 95.108ZM325.617 94.442C325.917 94.442 326.178 94.37 326.4 94.226C326.622 94.082 326.796 93.884 326.922 93.632C327.054 93.38 327.12 93.086 327.12 92.75C327.12 92.414 327.054 92.12 326.922 91.868C326.796 91.616 326.619 91.418 326.391 91.274C326.163 91.13 325.899 91.058 325.599 91.058C325.305 91.058 325.044 91.13 324.816 91.274C324.594 91.418 324.417 91.616 324.285 91.868C324.159 92.12 324.096 92.414 324.096 92.75C324.096 93.08 324.159 93.374 324.285 93.632C324.417 93.884 324.597 94.082 324.825 94.226C325.059 94.37 325.323 94.442 325.617 94.442ZM328.849 95V90.5H329.524L329.569 91.328V95H328.849ZM332.008 95V92.696H332.728V95H332.008ZM332.008 92.696C332.008 92.252 331.957 91.913 331.855 91.679C331.753 91.445 331.612 91.286 331.432 91.202C331.252 91.112 331.048 91.067 330.82 91.067C330.424 91.067 330.115 91.208 329.893 91.49C329.677 91.766 329.569 92.159 329.569 92.669H329.218C329.218 92.195 329.287 91.787 329.425 91.445C329.563 91.103 329.764 90.842 330.028 90.662C330.292 90.482 330.61 90.392 330.982 90.392C331.336 90.392 331.642 90.464 331.9 90.608C332.164 90.746 332.368 90.968 332.512 91.274C332.662 91.58 332.734 91.982 332.728 92.48V92.696H332.008ZM337.666 95.108C337.336 95.108 337.048 95.06 336.802 94.964C336.556 94.862 336.349 94.73 336.181 94.568C336.019 94.406 335.902 94.229 335.83 94.037L336.46 93.776C336.562 93.98 336.715 94.145 336.919 94.271C337.123 94.397 337.348 94.46 337.594 94.46C337.876 94.46 338.113 94.406 338.305 94.298C338.497 94.184 338.593 94.025 338.593 93.821C338.593 93.635 338.521 93.485 338.377 93.371C338.239 93.257 338.032 93.164 337.756 93.092L337.324 92.975C336.916 92.867 336.598 92.705 336.37 92.489C336.142 92.267 336.028 92.018 336.028 91.742C336.028 91.316 336.166 90.986 336.442 90.752C336.724 90.512 337.141 90.392 337.693 90.392C337.957 90.392 338.197 90.431 338.413 90.509C338.629 90.587 338.815 90.698 338.971 90.842C339.127 90.98 339.241 91.145 339.313 91.337L338.683 91.616C338.605 91.412 338.476 91.265 338.296 91.175C338.116 91.085 337.897 91.04 337.639 91.04C337.363 91.04 337.147 91.1 336.991 91.22C336.835 91.334 336.757 91.496 336.757 91.706C336.757 91.826 336.82 91.94 336.946 92.048C337.078 92.15 337.27 92.234 337.522 92.3L337.972 92.417C338.266 92.489 338.512 92.597 338.71 92.741C338.908 92.879 339.058 93.038 339.16 93.218C339.262 93.398 339.313 93.59 339.313 93.794C339.313 94.064 339.241 94.298 339.097 94.496C338.953 94.694 338.758 94.847 338.512 94.955C338.266 95.057 337.984 95.108 337.666 95.108ZM341.975 95.108C341.537 95.108 341.198 94.994 340.958 94.766C340.718 94.538 340.598 94.217 340.598 93.803V89.096H341.318V93.731C341.318 93.959 341.378 94.136 341.498 94.262C341.624 94.382 341.798 94.442 342.02 94.442C342.092 94.442 342.161 94.433 342.227 94.415C342.299 94.391 342.392 94.337 342.506 94.253L342.785 94.838C342.629 94.94 342.488 95.009 342.362 95.045C342.236 95.087 342.107 95.108 341.975 95.108ZM339.815 91.139V90.5H342.668V91.139H339.815ZM345.629 95.108C345.191 95.108 344.804 95.009 344.468 94.811C344.132 94.607 343.868 94.328 343.676 93.974C343.49 93.62 343.397 93.212 343.397 92.75C343.397 92.288 343.49 91.88 343.676 91.526C343.868 91.172 344.129 90.896 344.459 90.698C344.795 90.494 345.179 90.392 345.611 90.392C346.031 90.392 346.394 90.497 346.7 90.707C347.006 90.911 347.243 91.199 347.411 91.571C347.579 91.943 347.663 92.381 347.663 92.885H343.946L344.126 92.732C344.126 93.092 344.189 93.401 344.315 93.659C344.447 93.917 344.63 94.115 344.864 94.253C345.098 94.385 345.365 94.451 345.665 94.451C345.983 94.451 346.25 94.376 346.466 94.226C346.688 94.076 346.859 93.878 346.979 93.632L347.6 93.947C347.486 94.181 347.333 94.385 347.141 94.559C346.955 94.733 346.733 94.868 346.475 94.964C346.223 95.06 345.941 95.108 345.629 95.108ZM344.171 92.426L343.982 92.282H347.087L346.898 92.435C346.898 92.147 346.841 91.898 346.727 91.688C346.613 91.478 346.46 91.316 346.268 91.202C346.076 91.088 345.854 91.031 345.602 91.031C345.356 91.031 345.122 91.088 344.9 91.202C344.684 91.316 344.507 91.478 344.369 91.688C344.237 91.892 344.171 92.138 344.171 92.426ZM348.616 96.8V90.5H349.291L349.336 91.328V96.8H348.616ZM350.857 95.108C350.479 95.108 350.146 95.009 349.858 94.811C349.576 94.613 349.357 94.337 349.201 93.983C349.045 93.623 348.967 93.212 348.967 92.75C348.967 92.282 349.045 91.871 349.201 91.517C349.357 91.163 349.576 90.887 349.858 90.689C350.146 90.491 350.479 90.392 350.857 90.392C351.259 90.392 351.613 90.491 351.919 90.689C352.225 90.887 352.462 91.163 352.63 91.517C352.804 91.871 352.891 92.282 352.891 92.75C352.891 93.212 352.804 93.623 352.63 93.983C352.462 94.337 352.225 94.613 351.919 94.811C351.613 95.009 351.259 95.108 350.857 95.108ZM350.695 94.451C350.977 94.451 351.226 94.379 351.442 94.235C351.664 94.091 351.838 93.89 351.964 93.632C352.096 93.374 352.162 93.08 352.162 92.75C352.162 92.42 352.099 92.126 351.973 91.868C351.853 91.61 351.682 91.409 351.46 91.265C351.238 91.121 350.986 91.049 350.704 91.049C350.44 91.049 350.203 91.121 349.993 91.265C349.789 91.409 349.627 91.61 349.507 91.868C349.393 92.126 349.336 92.42 349.336 92.75C349.336 93.08 349.393 93.374 349.507 93.632C349.627 93.89 349.789 94.091 349.993 94.235C350.197 94.379 350.431 94.451 350.695 94.451Z" fill="#A4A4AD"/>
<rect x="240" y="67" width="32" height="32" rx="8" fill="#2CBFB0" fill-opacity="0.5"/>
<path d="M259.938 80.0625L253.062 86.9375M254.312 82.5625V80.0625M253.062 81.3125H255.562M257.438 85.6875H259.938M253.875 89.125H259.125C260.175 89.125 260.7 89.125 261.101 88.9206C261.454 88.7409 261.741 88.454 261.921 88.1012C262.125 87.7001 262.125 87.1751 262.125 86.125V80.875C262.125 79.8249 262.125 79.2999 261.921 78.8988C261.741 78.546 261.454 78.2591 261.101 78.0794C260.7 77.875 260.175 77.875 259.125 77.875H253.875C252.825 77.875 252.3 77.875 251.899 78.0794C251.546 78.2591 251.259 78.546 251.079 78.8988C250.875 79.2999 250.875 79.8249 250.875 80.875V86.125C250.875 87.1751 250.875 87.7001 251.079 88.1012C251.259 88.454 251.546 88.7409 251.899 88.9206C252.3 89.125 252.825 89.125 253.875 89.125Z" stroke="white" stroke-linecap="round" stroke-linejoin="round"/>
<rect x="224.5" y="149.5" width="196" height="63" rx="11.5" stroke="#37373D"/>
<path d="M294.876 176L291.552 167.6H292.752L296.136 176H294.876ZM288.108 176L291.492 167.6H292.692L289.368 176H288.108ZM289.704 173.756V172.7H294.54V173.756H289.704ZM297.09 178.4V170H298.158L298.23 171.104V178.4H297.09ZM300.198 176.144C299.694 176.144 299.254 176.012 298.878 175.748C298.51 175.484 298.226 175.116 298.026 174.644C297.826 174.172 297.726 173.624 297.726 173C297.726 172.368 297.826 171.82 298.026 171.356C298.226 170.884 298.51 170.516 298.878 170.252C299.254 169.988 299.694 169.856 300.198 169.856C300.734 169.856 301.206 169.988 301.614 170.252C302.022 170.516 302.338 170.884 302.562 171.356C302.794 171.82 302.91 172.368 302.91 173C302.91 173.624 302.794 174.172 302.562 174.644C302.338 175.116 302.022 175.484 301.614 175.748C301.206 176.012 300.734 176.144 300.198 176.144ZM299.922 175.112C300.282 175.112 300.598 175.024 300.87 174.848C301.142 174.664 301.354 174.416 301.506 174.104C301.666 173.784 301.746 173.416 301.746 173C301.746 172.584 301.67 172.22 301.518 171.908C301.366 171.588 301.154 171.34 300.882 171.164C300.61 170.98 300.294 170.888 299.934 170.888C299.606 170.888 299.31 170.98 299.046 171.164C298.79 171.34 298.59 171.588 298.446 171.908C298.302 172.228 298.23 172.592 298.23 173C298.23 173.416 298.302 173.784 298.446 174.104C298.59 174.416 298.79 174.664 299.046 174.848C299.302 175.024 299.594 175.112 299.922 175.112ZM304.215 178.4V170H305.283L305.355 171.104V178.4H304.215ZM307.323 176.144C306.819 176.144 306.379 176.012 306.003 175.748C305.635 175.484 305.351 175.116 305.151 174.644C304.951 174.172 304.851 173.624 304.851 173C304.851 172.368 304.951 171.82 305.151 171.356C305.351 170.884 305.635 170.516 306.003 170.252C306.379 169.988 306.819 169.856 307.323 169.856C307.859 169.856 308.331 169.988 308.739 170.252C309.147 170.516 309.463 170.884 309.687 171.356C309.919 171.82 310.035 172.368 310.035 173C310.035 173.624 309.919 174.172 309.687 174.644C309.463 175.116 309.147 175.484 308.739 175.748C308.331 176.012 307.859 176.144 307.323 176.144ZM307.047 175.112C307.407 175.112 307.723 175.024 307.995 174.848C308.267 174.664 308.479 174.416 308.631 174.104C308.791 173.784 308.871 173.416 308.871 173C308.871 172.584 308.795 172.22 308.643 171.908C308.491 171.588 308.279 171.34 308.007 171.164C307.735 170.98 307.419 170.888 307.059 170.888C306.731 170.888 306.435 170.98 306.171 171.164C305.915 171.34 305.715 171.588 305.571 171.908C305.427 172.228 305.355 172.592 305.355 173C305.355 173.416 305.427 173.784 305.571 174.104C305.715 174.416 305.915 174.664 306.171 174.848C306.427 175.024 306.719 175.112 307.047 175.112ZM311.976 172.772C311.976 172.124 312.1 171.596 312.348 171.188C312.596 170.78 312.916 170.476 313.308 170.276C313.7 170.076 314.112 169.976 314.544 169.976V171.056C314.184 171.056 313.84 171.112 313.512 171.224C313.192 171.328 312.928 171.504 312.72 171.752C312.52 171.992 312.42 172.32 312.42 172.736L311.976 172.772ZM311.28 176V170H312.42V176H311.28ZM318.176 176.144C317.576 176.144 317.048 176.012 316.592 175.748C316.136 175.476 315.776 175.104 315.512 174.632C315.256 174.16 315.128 173.616 315.128 173C315.128 172.384 315.256 171.84 315.512 171.368C315.768 170.896 316.124 170.528 316.58 170.264C317.036 169.992 317.56 169.856 318.152 169.856C318.744 169.856 319.268 169.992 319.724 170.264C320.18 170.528 320.536 170.896 320.792 171.368C321.048 171.84 321.176 172.384 321.176 173C321.176 173.616 321.048 174.16 320.792 174.632C320.536 175.104 320.18 175.476 319.724 175.748C319.276 176.012 318.76 176.144 318.176 176.144ZM318.176 175.1C318.536 175.1 318.856 175.012 319.136 174.836C319.416 174.652 319.632 174.404 319.784 174.092C319.944 173.78 320.024 173.416 320.024 173C320.024 172.584 319.944 172.22 319.784 171.908C319.632 171.596 319.412 171.352 319.124 171.176C318.836 170.992 318.512 170.9 318.152 170.9C317.784 170.9 317.46 170.992 317.18 171.176C316.9 171.352 316.68 171.596 316.52 171.908C316.36 172.22 316.28 172.584 316.28 173C316.28 173.416 316.36 173.78 316.52 174.092C316.68 174.404 316.904 174.652 317.192 174.836C317.48 175.012 317.808 175.1 318.176 175.1ZM324.121 176L326.521 170H327.709L325.201 176H324.121ZM324.049 176L321.553 170H322.717L325.117 176H324.049ZM331.1 176.144C330.516 176.144 330 176.012 329.552 175.748C329.104 175.476 328.752 175.104 328.496 174.632C328.24 174.16 328.112 173.616 328.112 173C328.112 172.384 328.24 171.84 328.496 171.368C328.752 170.896 329.104 170.528 329.552 170.264C330.008 169.992 330.528 169.856 331.112 169.856C331.664 169.856 332.148 169.996 332.564 170.276C332.98 170.548 333.304 170.94 333.536 171.452C333.776 171.956 333.896 172.552 333.896 173.24H329.048L329.264 173.06C329.264 173.484 329.348 173.852 329.516 174.164C329.684 174.476 329.912 174.716 330.2 174.884C330.488 175.044 330.816 175.124 331.184 175.124C331.584 175.124 331.916 175.032 332.18 174.848C332.452 174.656 332.664 174.416 332.816 174.128L333.8 174.584C333.64 174.896 333.432 175.172 333.176 175.412C332.92 175.644 332.616 175.824 332.264 175.952C331.92 176.08 331.532 176.144 331.1 176.144ZM329.336 172.52L329.108 172.34H332.9L332.684 172.52C332.684 172.168 332.612 171.868 332.468 171.62C332.324 171.364 332.132 171.172 331.892 171.044C331.652 170.908 331.384 170.84 331.088 170.84C330.8 170.84 330.52 170.908 330.248 171.044C329.984 171.172 329.764 171.36 329.588 171.608C329.42 171.856 329.336 172.16 329.336 172.52ZM339.414 176L339.366 174.884V167.6H340.494V176H339.414ZM337.398 176.144C336.854 176.144 336.378 176.012 335.97 175.748C335.57 175.484 335.254 175.116 335.022 174.644C334.798 174.172 334.686 173.624 334.686 173C334.686 172.368 334.798 171.82 335.022 171.356C335.254 170.884 335.57 170.516 335.97 170.252C336.378 169.988 336.854 169.856 337.398 169.856C337.902 169.856 338.338 169.988 338.706 170.252C339.082 170.516 339.37 170.884 339.57 171.356C339.77 171.82 339.87 172.368 339.87 173C339.87 173.624 339.77 174.172 339.57 174.644C339.37 175.116 339.082 175.484 338.706 175.748C338.338 176.012 337.902 176.144 337.398 176.144ZM337.662 175.112C337.998 175.112 338.294 175.024 338.55 174.848C338.806 174.664 339.006 174.416 339.15 174.104C339.294 173.784 339.366 173.416 339.366 173C339.366 172.584 339.294 172.22 339.15 171.908C339.006 171.588 338.806 171.34 338.55 171.164C338.294 170.98 337.994 170.888 337.65 170.888C337.298 170.888 336.986 170.98 336.714 171.164C336.442 171.34 336.23 171.588 336.078 171.908C335.926 172.22 335.85 172.584 335.85 173C335.85 173.416 335.926 173.784 336.078 174.104C336.238 174.416 336.454 174.664 336.726 174.848C336.998 175.024 337.31 175.112 337.662 175.112ZM343.349 173.696L343.325 171.572L344.021 171.536C344.517 171.528 344.921 171.388 345.233 171.116C345.553 170.844 345.713 170.468 345.713 169.988C345.713 169.556 345.565 169.2 345.269 168.92C344.973 168.64 344.585 168.5 344.105 168.5C343.769 168.5 343.469 168.584 343.205 168.752C342.949 168.912 342.777 169.112 342.689 169.352L341.633 169.04C341.793 168.568 342.089 168.188 342.521 167.9C342.953 167.604 343.481 167.456 344.105 167.456C344.641 167.456 345.113 167.564 345.521 167.78C345.937 167.996 346.261 168.296 346.493 168.68C346.725 169.056 346.841 169.492 346.841 169.988C346.841 170.436 346.741 170.836 346.541 171.188C346.349 171.532 346.073 171.808 345.713 172.016C345.361 172.224 344.949 172.352 344.477 172.4V173.696H343.349ZM343.913 176.168C343.697 176.168 343.517 176.096 343.373 175.952C343.229 175.808 343.157 175.632 343.157 175.424C343.157 175.216 343.229 175.04 343.373 174.896C343.517 174.752 343.697 174.68 343.913 174.68C344.121 174.68 344.297 174.752 344.441 174.896C344.585 175.04 344.657 175.216 344.657 175.424C344.657 175.632 344.585 175.808 344.441 175.952C344.297 176.096 344.121 176.168 343.913 176.168Z" fill="white"/>
<path d="M291.492 193.108C290.892 193.108 290.361 192.97 289.899 192.694C289.437 192.412 289.074 192.028 288.81 191.542C288.546 191.05 288.414 190.486 288.414 189.85C288.414 189.214 288.543 188.653 288.801 188.167C289.065 187.675 289.425 187.291 289.881 187.015C290.343 186.733 290.871 186.592 291.465 186.592C291.843 186.592 292.206 186.661 292.554 186.799C292.902 186.931 293.214 187.12 293.49 187.366C293.766 187.606 293.979 187.885 294.129 188.203L293.472 188.536C293.352 188.284 293.187 188.065 292.977 187.879C292.767 187.693 292.533 187.549 292.275 187.447C292.017 187.339 291.747 187.285 291.465 187.285C291.027 187.285 290.634 187.396 290.286 187.618C289.938 187.834 289.665 188.134 289.467 188.518C289.275 188.902 289.179 189.346 289.179 189.85C289.179 190.354 289.278 190.801 289.476 191.191C289.674 191.581 289.947 191.887 290.295 192.109C290.649 192.325 291.048 192.433 291.492 192.433C291.78 192.433 292.053 192.376 292.311 192.262C292.569 192.142 292.8 191.98 293.004 191.776C293.214 191.572 293.379 191.338 293.499 191.074L294.165 191.407C294.009 191.737 293.793 192.031 293.517 192.289C293.247 192.547 292.935 192.748 292.581 192.892C292.233 193.036 291.87 193.108 291.492 193.108ZM297.888 193L297.852 192.262V190.624C297.852 190.27 297.813 189.979 297.735 189.751C297.657 189.517 297.534 189.34 297.366 189.22C297.198 189.1 296.979 189.04 296.709 189.04C296.463 189.04 296.25 189.091 296.07 189.193C295.896 189.289 295.752 189.445 295.638 189.661L294.99 189.409C295.104 189.199 295.242 189.019 295.404 188.869C295.566 188.713 295.755 188.596 295.971 188.518C296.187 188.434 296.433 188.392 296.709 188.392C297.129 188.392 297.474 188.476 297.744 188.644C298.02 188.806 298.227 189.049 298.365 189.373C298.503 189.691 298.569 190.087 298.563 190.561L298.554 193H297.888ZM296.538 193.108C296.01 193.108 295.596 192.988 295.296 192.748C295.002 192.502 294.855 192.163 294.855 191.731C294.855 191.275 295.005 190.927 295.305 190.687C295.611 190.441 296.037 190.318 296.583 190.318H297.87V190.921H296.745C296.325 190.921 296.025 190.99 295.845 191.128C295.671 191.266 295.584 191.464 295.584 191.722C295.584 191.956 295.671 192.142 295.845 192.28C296.019 192.412 296.262 192.478 296.574 192.478C296.832 192.478 297.057 192.424 297.249 192.316C297.441 192.202 297.588 192.043 297.69 191.839C297.798 191.629 297.852 191.383 297.852 191.101H298.158C298.158 191.713 298.02 192.202 297.744 192.568C297.468 192.928 297.066 193.108 296.538 193.108ZM299.704 193V186.7H300.424V193H299.704ZM303.689 193.108C303.245 193.108 302.852 193.009 302.51 192.811C302.168 192.607 301.901 192.328 301.709 191.974C301.517 191.62 301.421 191.212 301.421 190.75C301.421 190.288 301.514 189.88 301.7 189.526C301.892 189.172 302.159 188.896 302.501 188.698C302.843 188.494 303.233 188.392 303.671 188.392C304.103 188.392 304.49 188.491 304.832 188.689C305.174 188.887 305.435 189.166 305.615 189.526L304.958 189.823C304.838 189.583 304.664 189.397 304.436 189.265C304.208 189.127 303.947 189.058 303.653 189.058C303.359 189.058 303.098 189.13 302.87 189.274C302.648 189.418 302.471 189.619 302.339 189.877C302.213 190.129 302.15 190.42 302.15 190.75C302.15 191.08 302.213 191.374 302.339 191.632C302.471 191.884 302.651 192.082 302.879 192.226C303.113 192.37 303.377 192.442 303.671 192.442C303.965 192.442 304.226 192.367 304.454 192.217C304.688 192.067 304.865 191.857 304.985 191.587L305.642 191.884C305.462 192.268 305.201 192.568 304.859 192.784C304.517 193 304.127 193.108 303.689 193.108ZM309.638 193L309.593 192.172V188.5H310.313V193H309.638ZM306.434 190.804V188.5H307.154V190.804H306.434ZM307.154 190.804C307.154 191.248 307.205 191.587 307.307 191.821C307.409 192.055 307.55 192.217 307.73 192.307C307.916 192.391 308.123 192.433 308.351 192.433C308.741 192.433 309.044 192.292 309.26 192.01C309.482 191.728 309.593 191.335 309.593 190.831H309.944C309.944 191.305 309.875 191.713 309.737 192.055C309.599 192.397 309.398 192.658 309.134 192.838C308.876 193.018 308.558 193.108 308.18 193.108C307.832 193.108 307.526 193.039 307.262 192.901C306.998 192.757 306.794 192.532 306.65 192.226C306.506 191.914 306.434 191.512 306.434 191.02V190.804H307.154ZM311.569 193V186.7H312.289V193H311.569ZM316.319 193L316.283 192.262V190.624C316.283 190.27 316.244 189.979 316.166 189.751C316.088 189.517 315.965 189.34 315.797 189.22C315.629 189.1 315.41 189.04 315.14 189.04C314.894 189.04 314.681 189.091 314.501 189.193C314.327 189.289 314.183 189.445 314.069 189.661L313.421 189.409C313.535 189.199 313.673 189.019 313.835 188.869C313.997 188.713 314.186 188.596 314.402 188.518C314.618 188.434 314.864 188.392 315.14 188.392C315.56 188.392 315.905 188.476 316.175 188.644C316.451 188.806 316.658 189.049 316.796 189.373C316.934 189.691 317 190.087 316.994 190.561L316.985 193H316.319ZM314.969 193.108C314.441 193.108 314.027 192.988 313.727 192.748C313.433 192.502 313.286 192.163 313.286 191.731C313.286 191.275 313.436 190.927 313.736 190.687C314.042 190.441 314.468 190.318 315.014 190.318H316.301V190.921H315.176C314.756 190.921 314.456 190.99 314.276 191.128C314.102 191.266 314.015 191.464 314.015 191.722C314.015 191.956 314.102 192.142 314.276 192.28C314.45 192.412 314.693 192.478 315.005 192.478C315.263 192.478 315.488 192.424 315.68 192.316C315.872 192.202 316.019 192.043 316.121 191.839C316.229 191.629 316.283 191.383 316.283 191.101H316.589C316.589 191.713 316.451 192.202 316.175 192.568C315.899 192.928 315.497 193.108 314.969 193.108ZM319.827 193.108C319.389 193.108 319.05 192.994 318.81 192.766C318.57 192.538 318.45 192.217 318.45 191.803V187.096H319.17V191.731C319.17 191.959 319.23 192.136 319.35 192.262C319.476 192.382 319.65 192.442 319.872 192.442C319.944 192.442 320.013 192.433 320.079 192.415C320.151 192.391 320.244 192.337 320.358 192.253L320.637 192.838C320.481 192.94 320.34 193.009 320.214 193.045C320.088 193.087 319.959 193.108 319.827 193.108ZM317.667 189.139V188.5H320.52V189.139H317.667ZM321.581 193V188.5H322.301V193H321.581ZM321.95 187.456C321.83 187.456 321.725 187.411 321.635 187.321C321.545 187.231 321.5 187.126 321.5 187.006C321.5 186.88 321.545 186.775 321.635 186.691C321.725 186.601 321.83 186.556 321.95 186.556C322.076 186.556 322.181 186.601 322.265 186.691C322.355 186.775 322.4 186.88 322.4 187.006C322.4 187.126 322.355 187.231 322.265 187.321C322.181 187.411 322.076 187.456 321.95 187.456ZM325.617 193.108C325.179 193.108 324.789 193.009 324.447 192.811C324.111 192.607 323.847 192.328 323.655 191.974C323.463 191.62 323.367 191.212 323.367 190.75C323.367 190.288 323.46 189.88 323.646 189.526C323.838 189.172 324.102 188.896 324.438 188.698C324.78 188.494 325.167 188.392 325.599 188.392C326.043 188.392 326.433 188.494 326.769 188.698C327.111 188.896 327.375 189.172 327.561 189.526C327.753 189.88 327.849 190.288 327.849 190.75C327.849 191.212 327.753 191.62 327.561 191.974C327.375 192.328 327.114 192.607 326.778 192.811C326.442 193.009 326.055 193.108 325.617 193.108ZM325.617 192.442C325.917 192.442 326.178 192.37 326.4 192.226C326.622 192.082 326.796 191.884 326.922 191.632C327.054 191.38 327.12 191.086 327.12 190.75C327.12 190.414 327.054 190.12 326.922 189.868C326.796 189.616 326.619 189.418 326.391 189.274C326.163 189.13 325.899 189.058 325.599 189.058C325.305 189.058 325.044 189.13 324.816 189.274C324.594 189.418 324.417 189.616 324.285 189.868C324.159 190.12 324.096 190.414 324.096 190.75C324.096 191.08 324.159 191.374 324.285 191.632C324.417 191.884 324.597 192.082 324.825 192.226C325.059 192.37 325.323 192.442 325.617 192.442ZM328.849 193V188.5H329.524L329.569 189.328V193H328.849ZM332.008 193V190.696H332.728V193H332.008ZM332.008 190.696C332.008 190.252 331.957 189.913 331.855 189.679C331.753 189.445 331.612 189.286 331.432 189.202C331.252 189.112 331.048 189.067 330.82 189.067C330.424 189.067 330.115 189.208 329.893 189.49C329.677 189.766 329.569 190.159 329.569 190.669H329.218C329.218 190.195 329.287 189.787 329.425 189.445C329.563 189.103 329.764 188.842 330.028 188.662C330.292 188.482 330.61 188.392 330.982 188.392C331.336 188.392 331.642 188.464 331.9 188.608C332.164 188.746 332.368 188.968 332.512 189.274C332.662 189.58 332.734 189.982 332.728 190.48V190.696H332.008ZM337.666 193.108C337.336 193.108 337.048 193.06 336.802 192.964C336.556 192.862 336.349 192.73 336.181 192.568C336.019 192.406 335.902 192.229 335.83 192.037L336.46 191.776C336.562 191.98 336.715 192.145 336.919 192.271C337.123 192.397 337.348 192.46 337.594 192.46C337.876 192.46 338.113 192.406 338.305 192.298C338.497 192.184 338.593 192.025 338.593 191.821C338.593 191.635 338.521 191.485 338.377 191.371C338.239 191.257 338.032 191.164 337.756 191.092L337.324 190.975C336.916 190.867 336.598 190.705 336.37 190.489C336.142 190.267 336.028 190.018 336.028 189.742C336.028 189.316 336.166 188.986 336.442 188.752C336.724 188.512 337.141 188.392 337.693 188.392C337.957 188.392 338.197 188.431 338.413 188.509C338.629 188.587 338.815 188.698 338.971 188.842C339.127 188.98 339.241 189.145 339.313 189.337L338.683 189.616C338.605 189.412 338.476 189.265 338.296 189.175C338.116 189.085 337.897 189.04 337.639 189.04C337.363 189.04 337.147 189.1 336.991 189.22C336.835 189.334 336.757 189.496 336.757 189.706C336.757 189.826 336.82 189.94 336.946 190.048C337.078 190.15 337.27 190.234 337.522 190.3L337.972 190.417C338.266 190.489 338.512 190.597 338.71 190.741C338.908 190.879 339.058 191.038 339.16 191.218C339.262 191.398 339.313 191.59 339.313 191.794C339.313 192.064 339.241 192.298 339.097 192.496C338.953 192.694 338.758 192.847 338.512 192.955C338.266 193.057 337.984 193.108 337.666 193.108ZM341.975 193.108C341.537 193.108 341.198 192.994 340.958 192.766C340.718 192.538 340.598 192.217 340.598 191.803V187.096H341.318V191.731C341.318 191.959 341.378 192.136 341.498 192.262C341.624 192.382 341.798 192.442 342.02 192.442C342.092 192.442 342.161 192.433 342.227 192.415C342.299 192.391 342.392 192.337 342.506 192.253L342.785 192.838C342.629 192.94 342.488 193.009 342.362 193.045C342.236 193.087 342.107 193.108 341.975 193.108ZM339.815 189.139V188.5H342.668V189.139H339.815ZM345.629 193.108C345.191 193.108 344.804 193.009 344.468 192.811C344.132 192.607 343.868 192.328 343.676 191.974C343.49 191.62 343.397 191.212 343.397 190.75C343.397 190.288 343.49 189.88 343.676 189.526C343.868 189.172 344.129 188.896 344.459 188.698C344.795 188.494 345.179 188.392 345.611 188.392C346.031 188.392 346.394 188.497 346.7 188.707C347.006 188.911 347.243 189.199 347.411 189.571C347.579 189.943 347.663 190.381 347.663 190.885H343.946L344.126 190.732C344.126 191.092 344.189 191.401 344.315 191.659C344.447 191.917 344.63 192.115 344.864 192.253C345.098 192.385 345.365 192.451 345.665 192.451C345.983 192.451 346.25 192.376 346.466 192.226C346.688 192.076 346.859 191.878 346.979 191.632L347.6 191.947C347.486 192.181 347.333 192.385 347.141 192.559C346.955 192.733 346.733 192.868 346.475 192.964C346.223 193.06 345.941 193.108 345.629 193.108ZM344.171 190.426L343.982 190.282H347.087L346.898 190.435C346.898 190.147 346.841 189.898 346.727 189.688C346.613 189.478 346.46 189.316 346.268 189.202C346.076 189.088 345.854 189.031 345.602 189.031C345.356 189.031 345.122 189.088 344.9 189.202C344.684 189.316 344.507 189.478 344.369 189.688C344.237 189.892 344.171 190.138 344.171 190.426ZM348.616 194.8V188.5H349.291L349.336 189.328V194.8H348.616ZM350.857 193.108C350.479 193.108 350.146 193.009 349.858 192.811C349.576 192.613 349.357 192.337 349.201 191.983C349.045 191.623 348.967 191.212 348.967 190.75C348.967 190.282 349.045 189.871 349.201 189.517C349.357 189.163 349.576 188.887 349.858 188.689C350.146 188.491 350.479 188.392 350.857 188.392C351.259 188.392 351.613 188.491 351.919 188.689C352.225 188.887 352.462 189.163 352.63 189.517C352.804 189.871 352.891 190.282 352.891 190.75C352.891 191.212 352.804 191.623 352.63 191.983C352.462 192.337 352.225 192.613 351.919 192.811C351.613 193.009 351.259 193.108 350.857 193.108ZM350.695 192.451C350.977 192.451 351.226 192.379 351.442 192.235C351.664 192.091 351.838 191.89 351.964 191.632C352.096 191.374 352.162 191.08 352.162 190.75C352.162 190.42 352.099 190.126 351.973 189.868C351.853 189.61 351.682 189.409 351.46 189.265C351.238 189.121 350.986 189.049 350.704 189.049C350.44 189.049 350.203 189.121 349.993 189.265C349.789 189.409 349.627 189.61 349.507 189.868C349.393 190.126 349.336 190.42 349.336 190.75C349.336 191.08 349.393 191.374 349.507 191.632C349.627 191.89 349.789 192.091 349.993 192.235C350.197 192.379 350.431 192.451 350.695 192.451Z" fill="#A4A4AD"/>
<rect x="240" y="165" width="32" height="32" rx="8" fill="#E31247" fill-opacity="0.5"/>
<path d="M250.5 183.625V183.5C250.5 182.45 250.5 181.925 250.704 181.524C250.884 181.171 251.171 180.884 251.524 180.704C251.925 180.5 252.45 180.5 253.5 180.5H257.5C258.55 180.5 259.075 180.5 259.476 180.704C259.829 180.884 260.116 181.171 260.296 181.524C260.5 181.925 260.5 182.45 260.5 183.5V183.625M250.5 183.625C249.81 183.625 249.25 184.185 249.25 184.875C249.25 185.565 249.81 186.125 250.5 186.125C251.19 186.125 251.75 185.565 251.75 184.875C251.75 184.185 251.19 183.625 250.5 183.625ZM260.5 183.625C259.81 183.625 259.25 184.185 259.25 184.875C259.25 185.565 259.81 186.125 260.5 186.125C261.19 186.125 261.75 185.565 261.75 184.875C261.75 184.185 261.19 183.625 260.5 183.625ZM255.5 177.375L255.5 183.625M255.5 177.375C254.81 177.375 254.25 176.815 254.25 176.125C254.25 175.435 254.81 174.875 255.5 174.875C256.19 174.875 256.75 175.435 256.75 176.125C256.75 176.815 256.19 177.375 255.5 177.375ZM255.5 183.625C254.81 183.625 254.25 184.185 254.25 184.875C254.25 185.565 254.81 186.125 255.5 186.125C256.19 186.125 256.75 185.565 256.75 184.875C256.75 184.185 256.19 183.625 255.5 183.625Z" stroke="white" stroke-linecap="round" stroke-linejoin="round"/>
<path d="M433.646 187.646C433.451 187.842 433.451 188.158 433.646 188.354L436.828 191.536C437.024 191.731 437.34 191.731 437.536 191.536C437.731 191.34 437.731 191.024 437.536 190.828L434.707 188L437.536 185.172C437.731 184.976 437.731 184.66 437.536 184.464C437.34 184.269 437.024 184.269 436.828 184.464L433.646 187.646ZM434 88.5L506 88.5L506 87.5L434 87.5L434 88.5ZM517.5 100L517.5 176L518.5 176L518.5 100L517.5 100ZM506 187.5L434 187.5L434 188.5L506 188.5L506 187.5ZM517.5 176C517.5 182.351 512.351 187.5 506 187.5L506 188.5C512.904 188.5 518.5 182.904 518.5 176L517.5 176ZM506 88.5C512.351 88.5 517.5 93.6487 517.5 100L518.5 100C518.5 93.0964 512.904 87.5 506 87.5L506 88.5Z" fill="#37373D"/>
<path d="M216.354 87.6464C216.549 87.8417 216.549 88.1583 216.354 88.3535L213.172 91.5355C212.976 91.7308 212.66 91.7308 212.464 91.5355C212.269 91.3403 212.269 91.0237 212.464 90.8284L215.293 88L212.464 85.1716C212.269 84.9763 212.269 84.6597 212.464 84.4645C212.66 84.2692 212.976 84.2692 213.172 84.4645L216.354 87.6464ZM216 188.5L215 188.5L215 187.5L216 187.5L216 188.5ZM213 188.5L211 188.5L211 187.5L213 187.5L213 188.5ZM209 188.5L207 188.5L207 187.5L209 187.5L209 188.5ZM205 188.5L203 188.5L203 187.5L205 187.5L205 188.5ZM201 188.5L199 188.5L199 187.5L201 187.5L201 188.5ZM197 188.5L195 188.5L195 187.5L197 187.5L197 188.5ZM193 188.5L191 188.5L191 187.5L193 187.5L193 188.5ZM189 188.5L187 188.5L187 187.5L189 187.5L189 188.5ZM185 188.5L183 188.5L183 187.5L185 187.5L185 188.5ZM181 188.5L179 188.5L179 187.5L181 187.5L181 188.5ZM177 188.5L175 188.5L175 187.5L177 187.5L177 188.5ZM173 188.5L171 188.5L171 187.5L173 187.5L173 188.5ZM169 188.5L167 188.5L167 187.5L169 187.5L169 188.5ZM165 188.5L163 188.5L163 187.5L165 187.5L165 188.5ZM161 188.5L159 188.5L159 187.5L161 187.5L161 188.5ZM157 188.5L155 188.5L155 187.5L157 187.5L157 188.5ZM153 188.5L151 188.5L151 187.5L153 187.5L153 188.5ZM149 188.5L147 188.5L147 187.5L149 187.5L149 188.5ZM145 188.5L144 188.5L144 187.5L145 187.5L145 188.5ZM144 188.5C143.67 188.5 143.343 188.487 143.019 188.462L143.096 187.465C143.394 187.488 143.696 187.5 144 187.5L144 188.5ZM141.081 188.157C140.438 188.003 139.815 187.8 139.215 187.551L139.598 186.628C140.15 186.856 140.723 187.043 141.314 187.185L141.081 188.157ZM137.468 186.659C136.908 186.316 136.378 185.93 135.882 185.505L136.531 184.745C136.988 185.136 137.476 185.491 137.991 185.807L137.468 186.659ZM134.495 184.118C134.07 183.622 133.684 183.092 133.341 182.532L134.193 182.009C134.509 182.524 134.864 183.012 135.255 183.469L134.495 184.118ZM132.449 180.785C132.2 180.185 131.997 179.562 131.843 178.919L132.815 178.686C132.957 179.277 133.144 179.85 133.372 180.402L132.449 180.785ZM131.538 176.981C131.513 176.657 131.5 176.33 131.5 176L132.5 176C132.5 176.304 132.512 176.606 132.535 176.904L131.538 176.981ZM131.5 176L131.5 175L132.5 175L132.5 176L131.5 176ZM131.5 173L131.5 171L132.5 171L132.5 173L131.5 173ZM131.5 169L131.5 167L132.5 167L132.5 169L131.5 169ZM131.5 165L131.5 163L132.5 163L132.5 165L131.5 165ZM131.5 161L131.5 159L132.5 159L132.5 161L131.5 161ZM131.5 157L131.5 155L132.5 155L132.5 157L131.5 157ZM131.5 153L131.5 151L132.5 151L132.5 153L131.5 153ZM131.5 149L131.5 147L132.5 147L132.5 149L131.5 149ZM131.5 145L131.5 143L132.5 143L132.5 145L131.5 145ZM131.5 141L131.5 139L132.5 139L132.5 141L131.5 141ZM131.5 137L131.5 135L132.5 135L132.5 137L131.5 137ZM131.5 133L131.5 131L132.5 131L132.5 133L131.5 133ZM131.5 129L131.5 127L132.5 127L132.5 129L131.5 129ZM131.5 125L131.5 123L132.5 123L132.5 125L131.5 125ZM131.5 121L131.5 119L132.5 119L132.5 121L131.5 121ZM131.5 117L131.5 115L132.5 115L132.5 117L131.5 117ZM131.5 113L131.5 111L132.5 111L132.5 113L131.5 113ZM131.5 109L131.5 107L132.5 107L132.5 109L131.5 109ZM131.5 105L131.5 103L132.5 103L132.5 105L131.5 105ZM131.5 101L131.5 100L132.5 100L132.5 101L131.5 101ZM131.5 100C131.5 99.6699 131.513 99.3427 131.538 99.0188L132.535 99.0963C132.512 99.3944 132.5 99.6958 132.5 100L131.5 100ZM131.843 97.0811C131.997 96.4384 132.2 95.8149 132.449 95.215L133.372 95.5981C133.144 96.1496 132.957 96.7228 132.815 97.3138L131.843 97.0811ZM133.341 93.4676C133.684 92.9083 134.07 92.3781 134.495 91.8816L135.255 92.5314C134.864 92.9884 134.509 93.4763 134.193 93.9909L133.341 93.4676ZM135.882 90.4948C136.378 90.0704 136.908 89.6842 137.468 89.3407L137.991 90.1928C137.476 90.5089 136.988 90.8643 136.531 91.255L135.882 90.4948ZM139.215 88.4487C139.815 88.1999 140.438 87.9965 141.081 87.8427L141.314 88.8153C140.723 88.9567 140.15 89.1437 139.598 89.3724L139.215 88.4487ZM143.019 87.538C143.343 87.5128 143.67 87.5 144 87.5L144 88.5C143.696 88.5 143.394 88.5118 143.096 88.535L143.019 87.538ZM144 87.5L145 87.5L145 88.5L144 88.5L144 87.5ZM147 87.5L149 87.5L149 88.5L147 88.5L147 87.5ZM151 87.5L153 87.5L153 88.5L151 88.5L151 87.5ZM155 87.5L157 87.5L157 88.5L155 88.5L155 87.5ZM159 87.5L161 87.5L161 88.5L159 88.5L159 87.5ZM163 87.5L165 87.5L165 88.5L163 88.5L163 87.5ZM167 87.5L169 87.5L169 88.5L167 88.5L167 87.5ZM171 87.5L173 87.5L173 88.5L171 88.5L171 87.5ZM175 87.5L177 87.5L177 88.5L175 88.5L175 87.5ZM179 87.5L181 87.5L181 88.5L179 88.5L179 87.5ZM183 87.5L185 87.5L185 88.5L183 88.5L183 87.5ZM187 87.5L189 87.5L189 88.5L187 88.5L187 87.5ZM191 87.5L193 87.5L193 88.5L191 88.5L191 87.5ZM195 87.5L197 87.5L197 88.5L195 88.5L195 87.5ZM199 87.5L201 87.5L201 88.5L199 88.5L199 87.5ZM203 87.5L205 87.5L205 88.5L203 88.5L203 87.5ZM207 87.5L209 87.5L209 88.5L207 88.5L207 87.5ZM211 87.5L213 87.5L213 88.5L211 88.5L211 87.5ZM215 87.5L216 87.5L216 88.5L215 88.5L215 87.5Z" fill="#37373D"/>
<rect x="104" y="123" width="56" height="25" rx="12.5" fill="#37373D"/>
<path d="M128.087 136.381L127.43 136.066L129.482 132.7H130.355L128.087 136.381ZM127.34 139V135.976H128.096V139H127.34ZM127.349 136.381L125.081 132.7H125.963L128.006 136.066L127.349 136.381ZM132.497 139.108C132.059 139.108 131.672 139.009 131.336 138.811C131 138.607 130.736 138.328 130.544 137.974C130.358 137.62 130.265 137.212 130.265 136.75C130.265 136.288 130.358 135.88 130.544 135.526C130.736 135.172 130.997 134.896 131.327 134.698C131.663 134.494 132.047 134.392 132.479 134.392C132.899 134.392 133.262 134.497 133.568 134.707C133.874 134.911 134.111 135.199 134.279 135.571C134.447 135.943 134.531 136.381 134.531 136.885H130.814L130.994 136.732C130.994 137.092 131.057 137.401 131.183 137.659C131.315 137.917 131.498 138.115 131.732 138.253C131.966 138.385 132.233 138.451 132.533 138.451C132.851 138.451 133.118 138.376 133.334 138.226C133.556 138.076 133.727 137.878 133.847 137.632L134.468 137.947C134.354 138.181 134.201 138.385 134.009 138.559C133.823 138.733 133.601 138.868 133.343 138.964C133.091 139.06 132.809 139.108 132.497 139.108ZM131.039 136.426L130.85 136.282H133.955L133.766 136.435C133.766 136.147 133.709 135.898 133.595 135.688C133.481 135.478 133.328 135.316 133.136 135.202C132.944 135.088 132.722 135.031 132.47 135.031C132.224 135.031 131.99 135.088 131.768 135.202C131.552 135.316 131.375 135.478 131.237 135.688C131.105 135.892 131.039 136.138 131.039 136.426ZM137.014 139.108C136.684 139.108 136.396 139.06 136.15 138.964C135.904 138.862 135.697 138.73 135.529 138.568C135.367 138.406 135.25 138.229 135.178 138.037L135.808 137.776C135.91 137.98 136.063 138.145 136.267 138.271C136.471 138.397 136.696 138.46 136.942 138.46C137.224 138.46 137.461 138.406 137.653 138.298C137.845 138.184 137.941 138.025 137.941 137.821C137.941 137.635 137.869 137.485 137.725 137.371C137.587 137.257 137.38 137.164 137.104 137.092L136.672 136.975C136.264 136.867 135.946 136.705 135.718 136.489C135.49 136.267 135.376 136.018 135.376 135.742C135.376 135.316 135.514 134.986 135.79 134.752C136.072 134.512 136.489 134.392 137.041 134.392C137.305 134.392 137.545 134.431 137.761 134.509C137.977 134.587 138.163 134.698 138.319 134.842C138.475 134.98 138.589 135.145 138.661 135.337L138.031 135.616C137.953 135.412 137.824 135.265 137.644 135.175C137.464 135.085 137.245 135.04 136.987 135.04C136.711 135.04 136.495 135.1 136.339 135.22C136.183 135.334 136.105 135.496 136.105 135.706C136.105 135.826 136.168 135.94 136.294 136.048C136.426 136.15 136.618 136.234 136.87 136.3L137.32 136.417C137.614 136.489 137.86 136.597 138.058 136.741C138.256 136.879 138.406 137.038 138.508 137.218C138.61 137.398 138.661 137.59 138.661 137.794C138.661 138.064 138.589 138.298 138.445 138.496C138.301 138.694 138.106 138.847 137.86 138.955C137.614 139.057 137.332 139.108 137.014 139.108Z" fill="white"/>
<rect x="490" y="123" width="56" height="25" rx="12.5" fill="#37373D"/>
<path d="M512.837 139V132.7H513.611L517.364 137.758V132.7H518.129V139H517.364L513.602 133.915V139H512.837ZM521.589 139.108C521.151 139.108 520.761 139.009 520.419 138.811C520.083 138.607 519.819 138.328 519.627 137.974C519.435 137.62 519.339 137.212 519.339 136.75C519.339 136.288 519.432 135.88 519.618 135.526C519.81 135.172 520.074 134.896 520.41 134.698C520.752 134.494 521.139 134.392 521.571 134.392C522.015 134.392 522.405 134.494 522.741 134.698C523.083 134.896 523.347 135.172 523.533 135.526C523.725 135.88 523.821 136.288 523.821 136.75C523.821 137.212 523.725 137.62 523.533 137.974C523.347 138.328 523.086 138.607 522.75 138.811C522.414 139.009 522.027 139.108 521.589 139.108ZM521.589 138.442C521.889 138.442 522.15 138.37 522.372 138.226C522.594 138.082 522.768 137.884 522.894 137.632C523.026 137.38 523.092 137.086 523.092 136.75C523.092 136.414 523.026 136.12 522.894 135.868C522.768 135.616 522.591 135.418 522.363 135.274C522.135 135.13 521.871 135.058 521.571 135.058C521.277 135.058 521.016 135.13 520.788 135.274C520.566 135.418 520.389 135.616 520.257 135.868C520.131 136.12 520.068 136.414 520.068 136.75C520.068 137.08 520.131 137.374 520.257 137.632C520.389 137.884 520.569 138.082 520.797 138.226C521.031 138.37 521.295 138.442 521.589 138.442Z" fill="white"/>
</svg>
