<svg width="12" height="12" viewBox="0 0 12 12" fill="none" xmlns="http://www.w3.org/2000/svg">
<path d="M11.3144 0.000277606C11.2896 0.00106227 11.2648 0.00323458 11.2402 0.00678434H7.99581C7.90751 0.00553568 7.81985 0.0218473 7.73792 0.0547712C7.65598 0.0876951 7.58141 0.136575 7.51853 0.198569C7.45565 0.260564 7.40571 0.334437 7.37163 0.415896C7.33755 0.497354 7.32 0.584774 7.32 0.673074C7.32 0.761374 7.33755 0.848794 7.37163 0.930253C7.40571 1.01171 7.45565 1.08558 7.51853 1.14758C7.58141 1.20957 7.65598 1.25845 7.73792 1.29138C7.81985 1.3243 7.90751 1.34061 7.99581 1.33936H9.71886L3.5268 7.53117C3.46285 7.59257 3.41179 7.66611 3.37662 7.74748C3.34145 7.82885 3.32287 7.91643 3.32197 8.00507C3.32107 8.09371 3.33786 8.18165 3.37137 8.26372C3.40488 8.34579 3.45443 8.42035 3.51711 8.48303C3.5798 8.54572 3.65436 8.59526 3.73644 8.62877C3.81851 8.66228 3.90645 8.67907 3.9951 8.67817C4.08374 8.67727 4.17132 8.65869 4.2527 8.62352C4.33407 8.58835 4.40761 8.5373 4.46901 8.47335L10.6611 2.28154V4.00452C10.6598 4.09281 10.6761 4.18047 10.7091 4.26241C10.742 4.34434 10.7909 4.41891 10.8529 4.48179C10.9149 4.54467 10.9887 4.59459 11.0702 4.62867C11.1517 4.66275 11.2391 4.6803 11.3274 4.6803C11.4157 4.6803 11.5031 4.66275 11.5846 4.62867C11.666 4.59459 11.7399 4.54467 11.8019 4.48179C11.8639 4.41891 11.9128 4.34434 11.9457 4.26241C11.9787 4.18047 11.995 4.09281 11.9937 4.00452V0.757662C12.007 0.661733 11.9992 0.564064 11.9709 0.471457C11.9425 0.37885 11.8944 0.293529 11.8297 0.221436C11.765 0.149343 11.6854 0.0922099 11.5964 0.0540154C11.5074 0.0158209 11.4112 -0.00251736 11.3144 0.000277606ZM1.33263 0.00678434C0.604308 0.00678434 0 0.611067 0 1.33936V10.6674C0 11.3957 0.604308 12 1.33263 12H10.6611C11.3894 12 11.9937 11.3957 11.9937 10.6674V6.66968C11.995 6.58139 11.9787 6.49373 11.9457 6.4118C11.9128 6.32987 11.8639 6.2553 11.8019 6.19242C11.7399 6.12954 11.666 6.07961 11.5846 6.04553C11.5031 6.01145 11.4157 5.9939 11.3274 5.9939C11.2391 5.9939 11.1517 6.01145 11.0702 6.04553C10.9887 6.07961 10.9149 6.12954 10.8529 6.19242C10.7909 6.2553 10.742 6.32987 10.7091 6.4118C10.6761 6.49373 10.6598 6.58139 10.6611 6.66968V10.6674H1.33263V1.33936H5.33054C5.41883 1.34061 5.5065 1.3243 5.58843 1.29138C5.67037 1.25845 5.74494 1.20957 5.80782 1.14758C5.8707 1.08558 5.92064 1.01171 5.95472 0.930253C5.9888 0.848794 6.00635 0.761374 6.00635 0.673074C6.00635 0.584774 5.9888 0.497354 5.95472 0.415896C5.92064 0.334437 5.8707 0.260564 5.80782 0.198569C5.74494 0.136575 5.67037 0.0876951 5.58843 0.0547712C5.5065 0.0218473 5.41883 0.00553568 5.33054 0.00678434H1.33263Z" fill="#0B0B0E"/>
</svg>
