<svg width="50" height="31" viewBox="0 0 50 31" fill="none" xmlns="http://www.w3.org/2000/svg">
<path d="M31.5604 3.29944H18.1084V27.5481H31.5604V3.29944Z" fill="#FF5A00"/>
<path d="M19.0039 15.4237C19.0039 10.4971 21.3123 6.12457 24.8543 3.29938C22.2475 1.24288 18.9591 0 15.3723 0C6.87524 0 0 6.89825 0 15.4237C0 23.9492 6.87524 30.8475 15.3723 30.8475C18.9591 30.8475 22.2475 29.6046 24.8543 27.5481C21.3073 24.7628 19.0039 20.3503 19.0039 15.4237Z" fill="#EB001B"/>
<path d="M49.7088 15.4237C49.7088 23.9492 42.8336 30.8475 34.3366 30.8475C30.7497 30.8475 27.4613 29.6046 24.8545 27.5481C28.4414 24.7179 30.7049 20.3503 30.7049 15.4237C30.7049 10.4971 28.3966 6.12457 24.8545 3.29938C27.4563 1.24288 30.7447 0 34.3316 0C42.8336 0 49.7088 6.94318 49.7088 15.4237Z" fill="#F79E1B"/>
</svg>
