<svg width="21" height="22" viewBox="0 0 21 22" fill="none" xmlns="http://www.w3.org/2000/svg">
<rect opacity="0.5" x="20.7871" y="13.4313" width="19.6685" height="4.93153" rx="2.46576" transform="rotate(-180 20.7871 13.4313)" fill="#2BBEAF"/>
<path opacity="0.5" fill-rule="evenodd" clip-rule="evenodd" d="M18.4863 19.6793C17.8073 20.8587 16.302 21.2621 15.1243 20.5801L2.35547 13.1864C1.17794 12.5046 0.773713 10.996 1.45257 9.81673C2.13154 8.63727 3.63681 8.23393 4.81455 8.91589L17.5834 16.3096C18.7609 16.9914 19.1651 18.5 18.4863 19.6793Z" fill="#FDA7D9"/>
<path opacity="0.5" fill-rule="evenodd" clip-rule="evenodd" d="M18.4761 2.32075C19.1549 3.5 18.7507 5.0086 17.5732 5.69044L4.80435 13.0841C3.62662 13.7661 2.12135 13.3627 1.44238 12.1833C0.763521 11.004 1.16775 9.49543 2.34528 8.81359L15.1141 1.41991C16.2918 0.737953 17.7971 1.14129 18.4761 2.32075Z" fill="#FCAC04"/>
<ellipse cx="3.57708" cy="10.9656" rx="2.45856" ry="2.46576" transform="rotate(-180 3.57708 10.9656)" fill="black"/>
<ellipse cx="18.3286" cy="10.9656" rx="2.45856" ry="2.46576" transform="rotate(-180 18.3286 10.9656)" fill="#2BBEAF"/>
<ellipse cx="16.3618" cy="18.373" rx="2.45856" ry="2.46576" transform="rotate(-180 16.3618 18.373)" fill="#FDA7D9"/>
<ellipse cx="16.3618" cy="3.57836" rx="2.45856" ry="2.46576" transform="rotate(-180 16.3618 3.57836)" fill="#FCAC04"/>
</svg>
